<svg width="24" height="24" viewBox="0 0 24 24" fill="#D3D3D3" xmlns="http://www.w3.org/2000/svg">
    <path d="M2.30635 17.1922L7.80635 22.6922C7.03732 23.0054 6.19298 23.0847 5.37907 22.9203C4.56515 22.7559 3.81783 22.355 3.23068 21.7679C2.64352 21.1807 2.24264 20.4334 2.07822 19.6195C1.9138 18.8056 1.99316 17.9612 2.30635 17.1922ZM7.32335 1.9802C7.58326 1.92716 7.81146 1.77304 7.95774 1.55175C8.10401 1.33045 8.15639 1.06012 8.10335 0.800204C8.05031 0.540292 7.89618 0.312096 7.67489 0.165818C7.4536 0.0195396 7.18326 -0.0328393 6.92335 0.020204C4.2417 0.49 1.84036 1.96535 0.209349 4.1452C0.0613272 4.35878 0.00225735 4.62159 0.0446512 4.87797C0.087045 5.13435 0.227573 5.36415 0.436469 5.51871C0.645365 5.67327 0.906223 5.74045 1.16379 5.70601C1.42135 5.67157 1.6554 5.53822 1.81635 5.3342C3.1505 3.54753 5.12369 2.34578 7.32335 1.9802ZM23.1964 16.0232C22.9374 15.9664 22.6664 16.0147 22.4431 16.1576C22.2197 16.3005 22.0623 16.5262 22.0054 16.7852C21.6254 18.943 20.4397 20.8758 18.6883 22.1922C18.4741 22.3487 18.3307 22.5839 18.2898 22.8461C18.2489 23.1082 18.3139 23.3759 18.4704 23.5902C18.6268 23.8045 18.862 23.9479 19.1242 23.9887C19.3864 24.0296 19.6541 23.9647 19.8683 23.8082C22.0085 22.1996 23.4679 19.8472 23.9583 17.2152C23.9866 17.0869 23.9894 16.9543 23.9664 16.8249C23.9434 16.6956 23.8951 16.572 23.8244 16.4613C23.7536 16.3506 23.6617 16.2549 23.5539 16.1798C23.4462 16.1046 23.3247 16.0514 23.1964 16.0232ZM20.1633 5.2472L21.7034 3.7072C21.7989 3.61496 21.875 3.50461 21.9275 3.38261C21.9799 3.2606 22.0074 3.12938 22.0086 2.99661C22.0098 2.86383 21.9845 2.73215 21.9342 2.60925C21.8839 2.48635 21.8096 2.3747 21.7157 2.28081C21.6219 2.18692 21.5102 2.11266 21.3873 2.06238C21.2644 2.0121 21.1327 1.9868 20.9999 1.98795C20.8672 1.98911 20.7359 2.01669 20.6139 2.0691C20.4919 2.12151 20.3816 2.19769 20.2893 2.2932L18.7473 3.8352C17.3667 2.73812 15.6777 2.10011 13.9165 2.01045C12.1554 1.9208 10.4102 2.38399 8.92535 3.3352L3.42535 6.7352C2.7804 7.13379 2.23398 7.67312 1.82702 8.31282C1.42005 8.95251 1.16309 9.67599 1.07536 10.4291C0.987633 11.1822 1.07142 11.9453 1.32045 12.6614C1.56948 13.3776 1.97729 14.028 2.51335 14.5642L9.47235 21.5232C10.0095 22.0605 10.6615 22.469 11.3792 22.7181C12.097 22.9671 12.8619 23.0502 13.6164 22.9611C14.3709 22.872 15.0954 22.613 15.7354 22.2035C16.3753 21.7941 16.9142 21.2449 17.3113 20.5972L20.9114 14.7212C21.7388 13.2455 22.1095 11.5572 21.9763 9.87059C21.8431 8.18394 21.2122 6.57481 20.1633 5.2472Z"/>
</svg>
