<svg width="40" height="87" viewBox="0 0 40 87" fill="none" xmlns="http://www.w3.org/2000/svg">
    <g clip-path="url(#clip0_2895_21148)">
        <path d="M6.78439 19.0962L8.05107 20.8087C8.32063 21.1659 8.70122 21.4236 9.13307 21.5411C9.56491 21.6586 10.0236 21.6294 10.437 21.4581C10.8458 21.2997 11.2953 21.28 11.7164 21.4021C12.1375 21.5241 12.5068 21.7812 12.7675 22.1336C13.0282 22.4861 13.1659 22.9144 13.1593 23.3528C13.1528 23.7911 13.0024 24.2152 12.7313 24.5597C12.4464 24.9049 12.2843 25.3349 12.2703 25.7823C12.2563 26.2296 12.3912 26.669 12.6539 27.0313L13.9206 28.7437C14.3938 29.3834 15.1017 29.8089 15.8886 29.9266C16.6755 30.0444 17.4769 29.8447 18.1166 29.3715L21.3324 26.9928L18.9536 23.7769C18.7959 23.5637 18.7294 23.2966 18.7686 23.0343C18.8079 22.772 18.9497 22.536 19.1629 22.3783C19.3761 22.2206 19.6433 22.154 19.9056 22.1933C20.1679 22.2325 20.4038 22.3743 20.5616 22.5876L22.9403 25.8034L30.9799 19.8565C32.0446 19.0669 32.7528 17.8873 32.9489 16.5763C33.1451 15.2652 32.8133 13.93 32.0262 12.8633L31.9489 12.7588C31.6793 12.4015 31.2988 12.1439 30.8669 12.0263C30.4351 11.9088 29.9764 11.938 29.563 12.1094C29.1542 12.2677 28.7047 12.2874 28.2836 12.1654C27.8625 12.0433 27.4932 11.7863 27.2325 11.4338C26.9718 11.0814 26.8341 10.653 26.8407 10.2147C26.8472 9.7763 26.9976 9.35224 27.2687 9.0077C27.5535 8.66252 27.7157 8.23249 27.7297 7.78516C27.7437 7.33782 27.6088 6.89849 27.346 6.53616L27.2687 6.43165C26.4791 5.36687 25.2995 4.65874 23.9885 4.46258C22.6775 4.26643 21.3422 4.59826 20.2755 5.3853L12.2359 11.3322L14.6147 14.548C14.7724 14.7612 14.839 15.0284 14.7997 15.2907C14.7605 15.553 14.6186 15.7889 14.4054 15.9466C14.1922 16.1044 13.925 16.1709 13.6628 16.1317C13.4005 16.0924 13.1645 15.9506 13.0068 15.7374L10.628 12.5215L7.4122 14.9003C6.77253 15.3735 6.34702 16.0813 6.22929 16.8682C6.11155 17.6551 6.31123 18.4566 6.78439 19.0962ZM16.9934 17.7638L18.1828 19.3717C18.3405 19.585 18.4071 19.8521 18.3678 20.1144C18.3286 20.3767 18.1868 20.6127 17.9735 20.7704C17.7603 20.9281 17.4932 20.9947 17.2309 20.9554C16.9686 20.9162 16.7326 20.7743 16.5749 20.5611L15.3855 18.9532C15.2278 18.74 15.1612 18.4728 15.2005 18.2105C15.2397 17.9482 15.3816 17.7123 15.5948 17.5546C15.808 17.3968 16.0752 17.3303 16.3375 17.3695C16.5997 17.4088 16.8357 17.5506 16.9934 17.7638V17.7638Z" fill="url(#paint0_linear_2895_21148)"/>
    </g>
    <defs>
        <linearGradient id="paint0_linear_2895_21148" x1="29.6475" y1="9.64748" x2="24.0025" y2="27.7101" gradientUnits="userSpaceOnUse">
            <stop stop-color="#F65C45"/>
            <stop offset="0.467309" stop-color="#ED5A49"/>
            <stop offset="0.467409" stop-color="#E4463C"/>
        </linearGradient>
        <clipPath id="clip0_2895_21148">
            <rect width="24" height="24" fill="white" transform="translate(22.5112) rotate(53.5096)"/>
        </clipPath>
    </defs>
</svg>
