<svg width="40" height="87" viewBox="0 0 40 87" fill="none" xmlns="http://www.w3.org/2000/svg">
    <g clip-path="url(#clip0_2895_21140)">
        <path d="M10.3101 17.192L15.8103 22.692C15.0412 23.0052 14.1969 23.0845 13.3829 22.9201C12.569 22.7557 11.8216 22.3548 11.2345 21.7677C10.6473 21.1805 10.2464 20.4332 10.082 19.6193C9.91753 18.8054 9.99689 17.961 10.3101 17.192V17.192ZM15.3273 1.98002C15.5872 1.92698 15.8154 1.77286 15.9617 1.55156C16.108 1.33027 16.1603 1.05993 16.1073 0.80002C16.0543 0.540108 15.9001 0.311913 15.6788 0.165635C15.4575 0.0193564 15.1872 -0.0330224 14.9273 0.0200208C12.2455 0.489816 9.84409 1.96516 8.21302 4.14502C8.06499 4.3586 8.00592 4.62141 8.04831 4.87778C8.09071 5.13416 8.23124 5.36397 8.44015 5.51853C8.64905 5.67309 8.90992 5.74026 9.16749 5.70582C9.42507 5.67138 9.65912 5.53803 9.82008 5.33402C11.1543 3.54735 13.1275 2.34559 15.3273 1.98002V1.98002ZM31.2008 16.023C30.9419 15.9662 30.6709 16.0145 30.4475 16.1574C30.2242 16.3003 30.0667 16.5261 30.0098 16.785C29.6299 18.9428 28.4441 20.8756 26.6927 22.192C26.4784 22.3485 26.335 22.5837 26.2941 22.8458C26.2532 23.108 26.3182 23.3757 26.4747 23.59C26.6312 23.8043 26.8664 23.9477 27.1285 23.9885C27.3907 24.0294 27.6584 23.9645 27.8727 23.808C30.0129 22.1994 31.4724 19.847 31.9629 17.215C31.9912 17.0867 31.9939 16.9541 31.9709 16.8247C31.9479 16.6954 31.8996 16.5718 31.8289 16.4611C31.7581 16.3504 31.6662 16.2547 31.5584 16.1796C31.4507 16.1044 31.3292 16.0512 31.2008 16.023ZM28.1677 5.24702L29.7078 3.70702C29.8033 3.61477 29.8795 3.50443 29.9319 3.38242C29.9843 3.26042 30.0119 3.1292 30.0131 2.99642C30.0142 2.86364 29.9889 2.73196 29.9386 2.60906C29.8883 2.48617 29.8141 2.37452 29.7202 2.28062C29.6263 2.18673 29.5146 2.11248 29.3917 2.0622C29.2688 2.01192 29.1371 1.98661 29.0044 1.98777C28.8716 1.98892 28.7404 2.01651 28.6183 2.06892C28.4963 2.12133 28.386 2.19751 28.2937 2.29302L26.7517 3.83502C25.371 2.73793 23.6819 2.09992 21.9207 2.01027C20.1595 1.92061 18.4143 2.3838 16.9293 3.33502L11.4291 6.73501C10.7842 7.1336 10.2377 7.67293 9.83075 8.31263C9.42377 8.95232 9.16679 9.6758 9.07906 10.4289C8.99133 11.182 9.07512 11.9451 9.32416 12.6612C9.57319 13.3774 9.98102 14.0278 10.5171 14.564L17.4764 21.523C18.0135 22.0603 18.6655 22.4688 19.3833 22.7179C20.1011 22.9669 20.866 23.05 21.6205 22.9609C22.3751 22.8718 23.0996 22.6128 23.7396 22.2033C24.3796 21.7939 24.9185 21.2447 25.3156 20.597L28.9158 14.721C29.7433 13.2453 30.1139 11.5571 29.9808 9.8704C29.8476 8.18375 29.2166 6.57462 28.1677 5.24702V5.24702Z" fill="url(#paint0_linear_2895_21140)"/>
    </g>
    <rect x="18.5" y="32" width="3" height="55" rx="1.5" fill="#BFBFBF" fill-opacity="0.25"/>
    <defs>
        <linearGradient id="paint0_linear_2895_21140" x1="17.3909" y1="0.937342" x2="27.8107" y2="19.0175" gradientUnits="userSpaceOnUse">
            <stop stop-color="#FF9500"/>
            <stop offset="0.510317" stop-color="#FF9500"/>
            <stop offset="0.510417" stop-color="#FF7A00"/>
        </linearGradient>
        <clipPath id="clip0_2895_21140">
            <rect width="24" height="24" fill="white" transform="translate(8)"/>
        </clipPath>
    </defs>
</svg>
