<svg width="319" height="100" viewBox="0 0 319 100" fill="none" xmlns="http://www.w3.org/2000/svg">
    <g filter="url(#filter0_d_1620_10383)">
        <path d="M32.4723 17.304H58.5363V23.88H49.6083V51H41.4003V23.88H32.4723V17.304ZM98.8237 34.056C98.8237 36.584 98.3757 38.904 97.4797 41.016C96.5837 43.128 95.3517 44.952 93.7837 46.488C92.2157 48.024 90.3917 49.224 88.3117 50.088C86.2317 50.92 83.9917 51.336 81.5917 51.336C79.1917 51.336 76.9357 50.92 74.8237 50.088C72.7437 49.224 70.9197 48.024 69.3517 46.488C67.7837 44.952 66.5357 43.128 65.6077 41.016C64.7117 38.904 64.2637 36.584 64.2637 34.056C64.2637 31.528 64.7117 29.208 65.6077 27.096C66.5357 24.984 67.7837 23.176 69.3517 21.672C70.9197 20.136 72.7437 18.952 74.8237 18.12C76.9357 17.256 79.1917 16.824 81.5917 16.824C83.9917 16.824 86.2317 17.256 88.3117 18.12C90.4237 18.952 92.2477 20.136 93.7837 21.672C95.3517 23.176 96.5837 24.984 97.4797 27.096C98.3757 29.208 98.8237 31.528 98.8237 34.056ZM72.6637 34.056C72.6637 35.528 72.8717 36.872 73.2877 38.088C73.7037 39.272 74.2957 40.296 75.0637 41.16C75.8317 42.024 76.7597 42.696 77.8477 43.176C78.9677 43.624 80.2157 43.848 81.5917 43.848C82.9357 43.848 84.1517 43.624 85.2397 43.176C86.3277 42.696 87.2557 42.024 88.0237 41.16C88.8237 40.296 89.4317 39.272 89.8477 38.088C90.2637 36.872 90.4717 35.528 90.4717 34.056C90.4717 32.552 90.2637 31.208 89.8477 30.024C89.4317 28.808 88.8237 27.784 88.0237 26.952C87.2557 26.088 86.3277 25.432 85.2397 24.984C84.1517 24.504 82.9357 24.264 81.5917 24.264C78.8397 24.264 76.6637 25.144 75.0637 26.904C73.4637 28.664 72.6637 31.048 72.6637 34.056ZM106.39 17.304H128.326V23.88H114.598V30.984H124.87V37.368H114.598V51H106.39V17.304ZM135.496 17.304H143.704V37.464C143.704 39.48 144.184 41.032 145.144 42.12C146.136 43.208 147.608 43.752 149.56 43.752C151.512 43.752 152.984 43.208 153.976 42.12C155 41.032 155.512 39.48 155.512 37.464V17.304H163.72V37.416C163.72 39.752 163.336 41.8 162.568 43.56C161.8 45.288 160.76 46.728 159.448 47.88C158.168 49.032 156.664 49.896 154.936 50.472C153.208 51.048 151.368 51.336 149.416 51.336C147.464 51.336 145.64 51.048 143.944 50.472C142.248 49.896 140.776 49.032 139.528 47.88C138.28 46.728 137.288 45.288 136.552 43.56C135.848 41.8 135.496 39.752 135.496 37.416V17.304ZM198.328 32.376C199.96 32.376 201.144 32.008 201.88 31.272C202.616 30.504 202.984 29.464 202.984 28.152C202.984 26.84 202.616 25.816 201.88 25.08C201.144 24.312 199.96 23.928 198.328 23.928H193.864V32.376H198.328ZM211.336 28.152C211.336 29.56 211.096 30.904 210.616 32.184C210.136 33.464 209.384 34.616 208.36 35.64C207.368 36.632 206.088 37.432 204.52 38.04C202.952 38.616 201.096 38.904 198.952 38.904H193.864V51H185.656V17.304H198.952C201 17.304 202.792 17.576 204.328 18.12C205.896 18.664 207.192 19.432 208.216 20.424C209.272 21.384 210.056 22.536 210.568 23.88C211.08 25.192 211.336 26.616 211.336 28.152ZM236.417 28.248C236.417 27 236.049 26.008 235.313 25.272C234.577 24.504 233.441 24.12 231.905 24.12H226.817V32.472H231.905C233.441 32.472 234.577 32.104 235.313 31.368C236.049 30.632 236.417 29.592 236.417 28.248ZM232.385 17.304C234.433 17.304 236.225 17.592 237.761 18.168C239.329 18.712 240.625 19.464 241.649 20.424C242.705 21.384 243.489 22.504 244.001 23.784C244.513 25.064 244.769 26.44 244.769 27.912C244.769 28.968 244.625 30.008 244.337 31.032C244.049 32.024 243.585 32.952 242.945 33.816C242.337 34.648 241.553 35.4 240.593 36.072C239.665 36.744 238.561 37.272 237.281 37.656L245.057 51H235.793L228.785 38.28H226.817V51H218.609V17.304H232.385ZM286.089 34.056C286.089 36.584 285.641 38.904 284.745 41.016C283.849 43.128 282.617 44.952 281.049 46.488C279.481 48.024 277.657 49.224 275.577 50.088C273.497 50.92 271.257 51.336 268.857 51.336C266.457 51.336 264.201 50.92 262.089 50.088C260.009 49.224 258.185 48.024 256.617 46.488C255.049 44.952 253.801 43.128 252.873 41.016C251.977 38.904 251.529 36.584 251.529 34.056C251.529 31.528 251.977 29.208 252.873 27.096C253.801 24.984 255.049 23.176 256.617 21.672C258.185 20.136 260.009 18.952 262.089 18.12C264.201 17.256 266.457 16.824 268.857 16.824C271.257 16.824 273.497 17.256 275.577 18.12C277.689 18.952 279.513 20.136 281.049 21.672C282.617 23.176 283.849 24.984 284.745 27.096C285.641 29.208 286.089 31.528 286.089 34.056ZM259.929 34.056C259.929 35.528 260.137 36.872 260.553 38.088C260.969 39.272 261.561 40.296 262.329 41.16C263.097 42.024 264.025 42.696 265.113 43.176C266.233 43.624 267.481 43.848 268.857 43.848C270.201 43.848 271.417 43.624 272.505 43.176C273.593 42.696 274.521 42.024 275.289 41.16C276.089 40.296 276.697 39.272 277.113 38.088C277.529 36.872 277.737 35.528 277.737 34.056C277.737 32.552 277.529 31.208 277.113 30.024C276.697 28.808 276.089 27.784 275.289 26.952C274.521 26.088 273.593 25.432 272.505 24.984C271.417 24.504 270.201 24.264 268.857 24.264C266.105 24.264 263.929 25.144 262.329 26.904C260.729 28.664 259.929 31.048 259.929 34.056Z" fill="#FFE0E0"/>
        <path d="M32.4723 17.304H58.5363V23.88H49.6083V51H41.4003V23.88H32.4723V17.304ZM98.8237 34.056C98.8237 36.584 98.3757 38.904 97.4797 41.016C96.5837 43.128 95.3517 44.952 93.7837 46.488C92.2157 48.024 90.3917 49.224 88.3117 50.088C86.2317 50.92 83.9917 51.336 81.5917 51.336C79.1917 51.336 76.9357 50.92 74.8237 50.088C72.7437 49.224 70.9197 48.024 69.3517 46.488C67.7837 44.952 66.5357 43.128 65.6077 41.016C64.7117 38.904 64.2637 36.584 64.2637 34.056C64.2637 31.528 64.7117 29.208 65.6077 27.096C66.5357 24.984 67.7837 23.176 69.3517 21.672C70.9197 20.136 72.7437 18.952 74.8237 18.12C76.9357 17.256 79.1917 16.824 81.5917 16.824C83.9917 16.824 86.2317 17.256 88.3117 18.12C90.4237 18.952 92.2477 20.136 93.7837 21.672C95.3517 23.176 96.5837 24.984 97.4797 27.096C98.3757 29.208 98.8237 31.528 98.8237 34.056ZM72.6637 34.056C72.6637 35.528 72.8717 36.872 73.2877 38.088C73.7037 39.272 74.2957 40.296 75.0637 41.16C75.8317 42.024 76.7597 42.696 77.8477 43.176C78.9677 43.624 80.2157 43.848 81.5917 43.848C82.9357 43.848 84.1517 43.624 85.2397 43.176C86.3277 42.696 87.2557 42.024 88.0237 41.16C88.8237 40.296 89.4317 39.272 89.8477 38.088C90.2637 36.872 90.4717 35.528 90.4717 34.056C90.4717 32.552 90.2637 31.208 89.8477 30.024C89.4317 28.808 88.8237 27.784 88.0237 26.952C87.2557 26.088 86.3277 25.432 85.2397 24.984C84.1517 24.504 82.9357 24.264 81.5917 24.264C78.8397 24.264 76.6637 25.144 75.0637 26.904C73.4637 28.664 72.6637 31.048 72.6637 34.056ZM106.39 17.304H128.326V23.88H114.598V30.984H124.87V37.368H114.598V51H106.39V17.304ZM135.496 17.304H143.704V37.464C143.704 39.48 144.184 41.032 145.144 42.12C146.136 43.208 147.608 43.752 149.56 43.752C151.512 43.752 152.984 43.208 153.976 42.12C155 41.032 155.512 39.48 155.512 37.464V17.304H163.72V37.416C163.72 39.752 163.336 41.8 162.568 43.56C161.8 45.288 160.76 46.728 159.448 47.88C158.168 49.032 156.664 49.896 154.936 50.472C153.208 51.048 151.368 51.336 149.416 51.336C147.464 51.336 145.64 51.048 143.944 50.472C142.248 49.896 140.776 49.032 139.528 47.88C138.28 46.728 137.288 45.288 136.552 43.56C135.848 41.8 135.496 39.752 135.496 37.416V17.304ZM198.328 32.376C199.96 32.376 201.144 32.008 201.88 31.272C202.616 30.504 202.984 29.464 202.984 28.152C202.984 26.84 202.616 25.816 201.88 25.08C201.144 24.312 199.96 23.928 198.328 23.928H193.864V32.376H198.328ZM211.336 28.152C211.336 29.56 211.096 30.904 210.616 32.184C210.136 33.464 209.384 34.616 208.36 35.64C207.368 36.632 206.088 37.432 204.52 38.04C202.952 38.616 201.096 38.904 198.952 38.904H193.864V51H185.656V17.304H198.952C201 17.304 202.792 17.576 204.328 18.12C205.896 18.664 207.192 19.432 208.216 20.424C209.272 21.384 210.056 22.536 210.568 23.88C211.08 25.192 211.336 26.616 211.336 28.152ZM236.417 28.248C236.417 27 236.049 26.008 235.313 25.272C234.577 24.504 233.441 24.12 231.905 24.12H226.817V32.472H231.905C233.441 32.472 234.577 32.104 235.313 31.368C236.049 30.632 236.417 29.592 236.417 28.248ZM232.385 17.304C234.433 17.304 236.225 17.592 237.761 18.168C239.329 18.712 240.625 19.464 241.649 20.424C242.705 21.384 243.489 22.504 244.001 23.784C244.513 25.064 244.769 26.44 244.769 27.912C244.769 28.968 244.625 30.008 244.337 31.032C244.049 32.024 243.585 32.952 242.945 33.816C242.337 34.648 241.553 35.4 240.593 36.072C239.665 36.744 238.561 37.272 237.281 37.656L245.057 51H235.793L228.785 38.28H226.817V51H218.609V17.304H232.385ZM286.089 34.056C286.089 36.584 285.641 38.904 284.745 41.016C283.849 43.128 282.617 44.952 281.049 46.488C279.481 48.024 277.657 49.224 275.577 50.088C273.497 50.92 271.257 51.336 268.857 51.336C266.457 51.336 264.201 50.92 262.089 50.088C260.009 49.224 258.185 48.024 256.617 46.488C255.049 44.952 253.801 43.128 252.873 41.016C251.977 38.904 251.529 36.584 251.529 34.056C251.529 31.528 251.977 29.208 252.873 27.096C253.801 24.984 255.049 23.176 256.617 21.672C258.185 20.136 260.009 18.952 262.089 18.12C264.201 17.256 266.457 16.824 268.857 16.824C271.257 16.824 273.497 17.256 275.577 18.12C277.689 18.952 279.513 20.136 281.049 21.672C282.617 23.176 283.849 24.984 284.745 27.096C285.641 29.208 286.089 31.528 286.089 34.056ZM259.929 34.056C259.929 35.528 260.137 36.872 260.553 38.088C260.969 39.272 261.561 40.296 262.329 41.16C263.097 42.024 264.025 42.696 265.113 43.176C266.233 43.624 267.481 43.848 268.857 43.848C270.201 43.848 271.417 43.624 272.505 43.176C273.593 42.696 274.521 42.024 275.289 41.16C276.089 40.296 276.697 39.272 277.113 38.088C277.529 36.872 277.737 35.528 277.737 34.056C277.737 32.552 277.529 31.208 277.113 30.024C276.697 28.808 276.089 27.784 275.289 26.952C274.521 26.088 273.593 25.432 272.505 24.984C271.417 24.504 270.201 24.264 268.857 24.264C266.105 24.264 263.929 25.144 262.329 26.904C260.729 28.664 259.929 31.048 259.929 34.056Z" fill="url(#paint0_linear_1620_10383)" fill-opacity="0.1"/>
        <path d="M32.4723 17.304H58.5363V23.88H49.6083V51H41.4003V23.88H32.4723V17.304ZM98.8237 34.056C98.8237 36.584 98.3757 38.904 97.4797 41.016C96.5837 43.128 95.3517 44.952 93.7837 46.488C92.2157 48.024 90.3917 49.224 88.3117 50.088C86.2317 50.92 83.9917 51.336 81.5917 51.336C79.1917 51.336 76.9357 50.92 74.8237 50.088C72.7437 49.224 70.9197 48.024 69.3517 46.488C67.7837 44.952 66.5357 43.128 65.6077 41.016C64.7117 38.904 64.2637 36.584 64.2637 34.056C64.2637 31.528 64.7117 29.208 65.6077 27.096C66.5357 24.984 67.7837 23.176 69.3517 21.672C70.9197 20.136 72.7437 18.952 74.8237 18.12C76.9357 17.256 79.1917 16.824 81.5917 16.824C83.9917 16.824 86.2317 17.256 88.3117 18.12C90.4237 18.952 92.2477 20.136 93.7837 21.672C95.3517 23.176 96.5837 24.984 97.4797 27.096C98.3757 29.208 98.8237 31.528 98.8237 34.056ZM72.6637 34.056C72.6637 35.528 72.8717 36.872 73.2877 38.088C73.7037 39.272 74.2957 40.296 75.0637 41.16C75.8317 42.024 76.7597 42.696 77.8477 43.176C78.9677 43.624 80.2157 43.848 81.5917 43.848C82.9357 43.848 84.1517 43.624 85.2397 43.176C86.3277 42.696 87.2557 42.024 88.0237 41.16C88.8237 40.296 89.4317 39.272 89.8477 38.088C90.2637 36.872 90.4717 35.528 90.4717 34.056C90.4717 32.552 90.2637 31.208 89.8477 30.024C89.4317 28.808 88.8237 27.784 88.0237 26.952C87.2557 26.088 86.3277 25.432 85.2397 24.984C84.1517 24.504 82.9357 24.264 81.5917 24.264C78.8397 24.264 76.6637 25.144 75.0637 26.904C73.4637 28.664 72.6637 31.048 72.6637 34.056ZM106.39 17.304H128.326V23.88H114.598V30.984H124.87V37.368H114.598V51H106.39V17.304ZM135.496 17.304H143.704V37.464C143.704 39.48 144.184 41.032 145.144 42.12C146.136 43.208 147.608 43.752 149.56 43.752C151.512 43.752 152.984 43.208 153.976 42.12C155 41.032 155.512 39.48 155.512 37.464V17.304H163.72V37.416C163.72 39.752 163.336 41.8 162.568 43.56C161.8 45.288 160.76 46.728 159.448 47.88C158.168 49.032 156.664 49.896 154.936 50.472C153.208 51.048 151.368 51.336 149.416 51.336C147.464 51.336 145.64 51.048 143.944 50.472C142.248 49.896 140.776 49.032 139.528 47.88C138.28 46.728 137.288 45.288 136.552 43.56C135.848 41.8 135.496 39.752 135.496 37.416V17.304ZM198.328 32.376C199.96 32.376 201.144 32.008 201.88 31.272C202.616 30.504 202.984 29.464 202.984 28.152C202.984 26.84 202.616 25.816 201.88 25.08C201.144 24.312 199.96 23.928 198.328 23.928H193.864V32.376H198.328ZM211.336 28.152C211.336 29.56 211.096 30.904 210.616 32.184C210.136 33.464 209.384 34.616 208.36 35.64C207.368 36.632 206.088 37.432 204.52 38.04C202.952 38.616 201.096 38.904 198.952 38.904H193.864V51H185.656V17.304H198.952C201 17.304 202.792 17.576 204.328 18.12C205.896 18.664 207.192 19.432 208.216 20.424C209.272 21.384 210.056 22.536 210.568 23.88C211.08 25.192 211.336 26.616 211.336 28.152ZM236.417 28.248C236.417 27 236.049 26.008 235.313 25.272C234.577 24.504 233.441 24.12 231.905 24.12H226.817V32.472H231.905C233.441 32.472 234.577 32.104 235.313 31.368C236.049 30.632 236.417 29.592 236.417 28.248ZM232.385 17.304C234.433 17.304 236.225 17.592 237.761 18.168C239.329 18.712 240.625 19.464 241.649 20.424C242.705 21.384 243.489 22.504 244.001 23.784C244.513 25.064 244.769 26.44 244.769 27.912C244.769 28.968 244.625 30.008 244.337 31.032C244.049 32.024 243.585 32.952 242.945 33.816C242.337 34.648 241.553 35.4 240.593 36.072C239.665 36.744 238.561 37.272 237.281 37.656L245.057 51H235.793L228.785 38.28H226.817V51H218.609V17.304H232.385ZM286.089 34.056C286.089 36.584 285.641 38.904 284.745 41.016C283.849 43.128 282.617 44.952 281.049 46.488C279.481 48.024 277.657 49.224 275.577 50.088C273.497 50.92 271.257 51.336 268.857 51.336C266.457 51.336 264.201 50.92 262.089 50.088C260.009 49.224 258.185 48.024 256.617 46.488C255.049 44.952 253.801 43.128 252.873 41.016C251.977 38.904 251.529 36.584 251.529 34.056C251.529 31.528 251.977 29.208 252.873 27.096C253.801 24.984 255.049 23.176 256.617 21.672C258.185 20.136 260.009 18.952 262.089 18.12C264.201 17.256 266.457 16.824 268.857 16.824C271.257 16.824 273.497 17.256 275.577 18.12C277.689 18.952 279.513 20.136 281.049 21.672C282.617 23.176 283.849 24.984 284.745 27.096C285.641 29.208 286.089 31.528 286.089 34.056ZM259.929 34.056C259.929 35.528 260.137 36.872 260.553 38.088C260.969 39.272 261.561 40.296 262.329 41.16C263.097 42.024 264.025 42.696 265.113 43.176C266.233 43.624 267.481 43.848 268.857 43.848C270.201 43.848 271.417 43.624 272.505 43.176C273.593 42.696 274.521 42.024 275.289 41.16C276.089 40.296 276.697 39.272 277.113 38.088C277.529 36.872 277.737 35.528 277.737 34.056C277.737 32.552 277.529 31.208 277.113 30.024C276.697 28.808 276.089 27.784 275.289 26.952C274.521 26.088 273.593 25.432 272.505 24.984C271.417 24.504 270.201 24.264 268.857 24.264C266.105 24.264 263.929 25.144 262.329 26.904C260.729 28.664 259.929 31.048 259.929 34.056Z" fill="url(#paint1_linear_1620_10383)" fill-opacity="0.3"/>
        <path d="M32.4723 17.304V16.804H31.9723V17.304H32.4723ZM58.5363 17.304H59.0363V16.804H58.5363V17.304ZM58.5363 23.88V24.38H59.0363V23.88H58.5363ZM49.6083 23.88V23.38H49.1083V23.88H49.6083ZM49.6083 51V51.5H50.1083V51H49.6083ZM41.4003 51H40.9003V51.5H41.4003V51ZM41.4003 23.88H41.9003V23.38H41.4003V23.88ZM32.4723 23.88H31.9723V24.38H32.4723V23.88ZM32.4723 17.804H58.5363V16.804H32.4723V17.804ZM58.0363 17.304V23.88H59.0363V17.304H58.0363ZM58.5363 23.38H49.6083V24.38H58.5363V23.38ZM49.1083 23.88V51H50.1083V23.88H49.1083ZM49.6083 50.5H41.4003V51.5H49.6083V50.5ZM41.9003 51V23.88H40.9003V51H41.9003ZM41.4003 23.38H32.4723V24.38H41.4003V23.38ZM32.9723 23.88V17.304H31.9723V23.88H32.9723ZM97.4797 41.016L97.94 41.2113L97.4797 41.016ZM93.7837 46.488L93.4338 46.1308L93.7837 46.488ZM88.3117 50.088L88.4974 50.5523L88.5035 50.5497L88.3117 50.088ZM74.8237 50.088L74.6319 50.5498L74.6404 50.5532L74.8237 50.088ZM69.3517 46.488L69.7016 46.1308L69.3517 46.488ZM65.6077 41.016L65.1474 41.2113L65.1499 41.2171L65.6077 41.016ZM65.6077 27.096L65.1499 26.8948L65.1474 26.9007L65.6077 27.096ZM69.3517 21.672L69.6978 22.0329L69.7016 22.0292L69.3517 21.672ZM74.8237 18.12L75.0094 18.5842L75.013 18.5828L74.8237 18.12ZM88.3117 18.12L88.1199 18.5818L88.1284 18.5852L88.3117 18.12ZM93.7837 21.672L93.4301 22.0256L93.4376 22.0328L93.7837 21.672ZM97.4797 27.096L97.94 26.9007L97.4797 27.096ZM73.2877 38.088L72.8146 38.2498L72.816 38.2537L73.2877 38.088ZM75.0637 41.16L75.4374 40.8278L75.0637 41.16ZM77.8477 43.176L77.6459 43.6335L77.6539 43.637L77.662 43.6402L77.8477 43.176ZM85.2397 43.176L85.4301 43.6385L85.4415 43.6335L85.2397 43.176ZM88.0237 41.16L87.6567 40.8202L87.65 40.8278L88.0237 41.16ZM89.8477 38.088L90.3194 38.2537L90.3208 38.2498L89.8477 38.088ZM89.8477 30.024L89.3746 30.1858L89.376 30.1897L89.8477 30.024ZM88.0237 26.952L87.65 27.2842L87.6565 27.2915L87.6633 27.2986L88.0237 26.952ZM85.2397 24.984L85.0378 25.4416L85.0493 25.4463L85.2397 24.984ZM98.3237 34.056C98.3237 36.5238 97.8866 38.7765 97.0194 40.8207L97.94 41.2113C98.8647 39.0315 99.3237 36.6442 99.3237 34.056H98.3237ZM97.0194 40.8207C96.148 42.8748 94.9526 44.6431 93.4338 46.1308L94.1336 46.8452C95.7508 45.2609 97.0194 43.3812 97.94 41.2113L97.0194 40.8207ZM93.4338 46.1308C91.9125 47.621 90.1426 48.7861 88.1199 49.6263L88.5035 50.5497C90.6408 49.6619 92.5188 48.427 94.1336 46.8452L93.4338 46.1308ZM88.126 49.6238C86.1092 50.4305 83.9327 50.836 81.5917 50.836V51.836C84.0507 51.836 86.3542 51.4095 88.4974 50.5522L88.126 49.6238ZM81.5917 50.836C79.2508 50.836 77.0573 50.4305 75.007 49.6228L74.6404 50.5532C76.8141 51.4095 79.1326 51.836 81.5917 51.836V50.836ZM75.0155 49.6263C72.9928 48.7861 71.2228 47.621 69.7016 46.1308L69.0018 46.8452C70.6165 48.427 72.4946 49.6619 74.6319 50.5497L75.0155 49.6263ZM69.7016 46.1308C68.1815 44.6417 66.9691 42.8715 66.0654 40.8149L65.1499 41.2171C66.1023 43.3845 67.3859 45.2623 69.0018 46.8452L69.7016 46.1308ZM66.068 40.8207C65.2007 38.7765 64.7637 36.5238 64.7637 34.056H63.7637C63.7637 36.6442 64.2226 39.0315 65.1474 41.2113L66.068 40.8207ZM64.7637 34.056C64.7637 31.5882 65.2007 29.3355 66.068 27.2913L65.1474 26.9007C64.2226 29.0805 63.7637 31.4678 63.7637 34.056H64.7637ZM66.0654 27.2971C66.9687 25.2414 68.18 23.4887 69.6978 22.0328L69.0056 21.3112C67.3874 22.8633 66.1027 24.7266 65.1499 26.8949L66.0654 27.2971ZM69.7016 22.0292C71.2215 20.5403 72.9893 19.3923 75.0094 18.5842L74.638 17.6558C72.498 18.5117 70.6179 19.7317 69.0018 21.3148L69.7016 22.0292ZM75.013 18.5828C77.0618 17.7446 79.2532 17.324 81.5917 17.324V16.324C79.1302 16.324 76.8095 16.7674 74.6344 17.6572L75.013 18.5828ZM81.5917 17.324C83.9302 17.324 86.1046 17.7446 88.1199 18.5817L88.5035 17.6582C86.3588 16.7674 84.0531 16.324 81.5917 16.324V17.324ZM88.1284 18.5852C90.1795 19.3932 91.9448 20.5402 93.4301 22.0256L94.1372 21.3184C92.5506 19.7318 90.6678 18.5108 88.4949 17.6548L88.1284 18.5852ZM93.4376 22.0328C94.954 23.4874 96.1483 25.2381 97.0194 27.2913L97.94 26.9007C97.019 24.7299 95.7494 22.8646 94.1298 21.3112L93.4376 22.0328ZM97.0194 27.2913C97.8866 29.3355 98.3237 31.5882 98.3237 34.056H99.3237C99.3237 31.4678 98.8647 29.0805 97.94 26.9007L97.0194 27.2913ZM72.1637 34.056C72.1637 35.5752 72.3784 36.9748 72.8146 38.2498L73.7608 37.9262C73.365 36.7692 73.1637 35.4808 73.1637 34.056H72.1637ZM72.816 38.2537C73.2516 39.4938 73.8752 40.5756 74.69 41.4922L75.4374 40.8278C74.7161 40.0164 74.1557 39.0502 73.7594 37.9223L72.816 38.2537ZM74.69 41.4922C75.507 42.4113 76.4942 43.1254 77.6459 43.6335L78.0495 42.7185C77.0252 42.2666 76.1564 41.6367 75.4374 40.8278L74.69 41.4922ZM77.662 43.6402C78.8488 44.1149 80.161 44.348 81.5917 44.348V43.348C80.2704 43.348 79.0866 43.1331 78.0334 42.7118L77.662 43.6402ZM81.5917 44.348C82.9918 44.348 84.2737 44.1145 85.4301 43.6383L85.0493 42.7137C84.0297 43.1335 82.8796 43.348 81.5917 43.348V44.348ZM85.4415 43.6335C86.5932 43.1254 87.5804 42.4113 88.3974 41.4922L87.65 40.8278C86.931 41.6367 86.0622 42.2666 85.0379 42.7185L85.4415 43.6335ZM88.3906 41.4997C89.2401 40.5823 89.8823 39.498 90.3194 38.2537L89.376 37.9223C88.9811 39.046 88.4073 40.0097 87.6568 40.8203L88.3906 41.4997ZM90.3208 38.2498C90.757 36.9748 90.9717 35.5752 90.9717 34.056H89.9717C89.9717 35.4808 89.7704 36.7692 89.3746 37.9262L90.3208 38.2498ZM90.9717 34.056C90.9717 32.5064 90.7574 31.1049 90.3194 29.8583L89.376 30.1897C89.77 31.3111 89.9717 32.5976 89.9717 34.056H90.9717ZM90.3208 29.8622C89.8839 28.585 89.2402 27.4958 88.3841 26.6054L87.6633 27.2986C88.4072 28.0722 88.9795 29.031 89.3746 30.1858L90.3208 29.8622ZM88.3974 26.6198C87.578 25.698 86.587 24.998 85.4301 24.5217L85.0493 25.4463C86.0684 25.866 86.9333 26.478 87.65 27.2842L88.3974 26.6198ZM85.4415 24.5265C84.2821 24.0151 82.9961 23.764 81.5917 23.764V24.764C82.8752 24.764 84.0212 24.9929 85.0379 25.4415L85.4415 24.5265ZM81.5917 23.764C78.7231 23.764 76.4037 24.6867 74.6937 26.5677L75.4337 27.2403C76.9237 25.6013 78.9562 24.764 81.5917 24.764V23.764ZM74.6937 26.5677C72.9896 28.4422 72.1637 30.9578 72.1637 34.056H73.1637C73.1637 31.1382 73.9378 28.8858 75.4337 27.2403L74.6937 26.5677ZM106.39 17.304V16.804H105.89V17.304H106.39ZM128.326 17.304H128.826V16.804H128.326V17.304ZM128.326 23.88V24.38H128.826V23.88H128.326ZM114.598 23.88V23.38H114.098V23.88H114.598ZM114.598 30.984H114.098V31.484H114.598V30.984ZM124.87 30.984H125.37V30.484H124.87V30.984ZM124.87 37.368V37.868H125.37V37.368H124.87ZM114.598 37.368V36.868H114.098V37.368H114.598ZM114.598 51V51.5H115.098V51H114.598ZM106.39 51H105.89V51.5H106.39V51ZM106.39 17.804H128.326V16.804H106.39V17.804ZM127.826 17.304V23.88H128.826V17.304H127.826ZM128.326 23.38H114.598V24.38H128.326V23.38ZM114.098 23.88V30.984H115.098V23.88H114.098ZM114.598 31.484H124.87V30.484H114.598V31.484ZM124.37 30.984V37.368H125.37V30.984H124.37ZM124.87 36.868H114.598V37.868H124.87V36.868ZM114.098 37.368V51H115.098V37.368H114.098ZM114.598 50.5H106.39V51.5H114.598V50.5ZM106.89 51V17.304H105.89V51H106.89ZM135.496 17.304V16.804H134.996V17.304H135.496ZM143.704 17.304H144.204V16.804H143.704V17.304ZM145.144 42.12L144.769 42.4509L144.775 42.4569L145.144 42.12ZM153.976 42.12L153.612 41.7773L153.607 41.7831L153.976 42.12ZM155.512 17.304V16.804H155.012V17.304H155.512ZM163.72 17.304H164.22V16.804H163.72V17.304ZM162.568 43.56L163.025 43.7631L163.026 43.76L162.568 43.56ZM159.448 47.88L159.118 47.5042L159.114 47.5084L159.448 47.88ZM154.936 50.472L154.778 49.9977L154.936 50.472ZM143.944 50.472L144.105 49.9986L143.944 50.472ZM139.528 47.88L139.867 47.5126L139.528 47.88ZM136.552 43.56L136.088 43.7457L136.092 43.7559L136.552 43.56ZM135.496 17.804H143.704V16.804H135.496V17.804ZM143.204 17.304V37.464H144.204V17.304H143.204ZM143.204 37.464C143.204 39.5544 143.702 41.2413 144.769 42.4508L145.519 41.7892C144.666 40.8227 144.204 39.4056 144.204 37.464H143.204ZM144.775 42.4569C145.89 43.6797 147.516 44.252 149.56 44.252V43.252C147.701 43.252 146.383 42.7363 145.514 41.7831L144.775 42.4569ZM149.56 44.252C151.605 44.252 153.231 43.6797 154.346 42.4569L153.607 41.7831C152.738 42.7363 151.42 43.252 149.56 43.252V44.252ZM154.34 42.4627C155.478 41.2535 156.012 39.562 156.012 37.464H155.012C155.012 39.398 154.522 40.8105 153.612 41.7773L154.34 42.4627ZM156.012 37.464V17.304H155.012V37.464H156.012ZM155.512 17.804H163.72V16.804H155.512V17.804ZM163.22 17.304V37.416H164.22V17.304H163.22ZM163.22 37.416C163.22 39.6977 162.845 41.6752 162.11 43.36L163.026 43.76C163.827 41.9248 164.22 39.8063 164.22 37.416H163.22ZM162.111 43.3569C161.37 45.0244 160.371 46.4038 159.118 47.5043L159.778 48.2557C161.149 47.0522 162.23 45.5516 163.025 43.7631L162.111 43.3569ZM159.114 47.5084C157.888 48.6117 156.445 49.4421 154.778 49.9977L155.094 50.9463C156.884 50.3499 158.449 49.4523 159.783 48.2516L159.114 47.5084ZM154.778 49.9977C153.104 50.5555 151.318 50.836 149.416 50.836V51.836C151.418 51.836 153.312 51.5405 155.094 50.9463L154.778 49.9977ZM149.416 50.836C147.514 50.836 145.745 50.5555 144.105 49.9986L143.783 50.9454C145.535 51.5405 147.414 51.836 149.416 51.836V50.836ZM144.105 49.9986C142.471 49.4438 141.061 48.6146 139.867 47.5126L139.189 48.2474C140.491 49.4494 142.025 50.3482 143.783 50.9454L144.105 49.9986ZM139.867 47.5126C138.676 46.4134 137.723 45.0339 137.012 43.3641L136.092 43.7559C136.853 45.5421 137.884 47.0426 139.189 48.2474L139.867 47.5126ZM137.016 43.3743C136.341 41.6853 135.996 39.7027 135.996 37.416H134.996C134.996 39.8013 135.355 41.9147 136.088 43.7457L137.016 43.3743ZM135.996 37.416V17.304H134.996V37.416H135.996ZM201.88 31.272L202.233 31.6256L202.241 31.618L201.88 31.272ZM201.88 25.08L201.519 25.426L201.526 25.4336L201.88 25.08ZM193.864 23.928V23.428H193.364V23.928H193.864ZM193.864 32.376H193.364V32.876H193.864V32.376ZM204.52 38.04L204.692 38.5094L204.7 38.5062L204.52 38.04ZM193.864 38.904V38.404H193.364V38.904H193.864ZM193.864 51V51.5H194.364V51H193.864ZM185.656 51H185.156V51.5H185.656V51ZM185.656 17.304V16.804H185.156V17.304H185.656ZM204.328 18.12L204.161 18.5913L204.164 18.5924L204.328 18.12ZM208.216 20.424L207.868 20.7831L207.873 20.7886L207.879 20.794L208.216 20.424ZM210.568 23.88L210.1 24.058L210.102 24.0618L210.568 23.88ZM198.328 32.876C200.019 32.876 201.362 32.4967 202.233 31.6256L201.526 30.9184C200.925 31.5193 199.9 31.876 198.328 31.876V32.876ZM202.241 31.618C203.086 30.7362 203.484 29.5612 203.484 28.152H202.484C202.484 29.3668 202.146 30.2718 201.519 30.926L202.241 31.618ZM203.484 28.152C203.484 26.7438 203.086 25.5791 202.233 24.7264L201.526 25.4336C202.145 26.0529 202.484 26.9362 202.484 28.152H203.484ZM202.241 24.734C201.37 23.8257 200.024 23.428 198.328 23.428V24.428C199.895 24.428 200.917 24.7983 201.519 25.426L202.241 24.734ZM198.328 23.428H193.864V24.428H198.328V23.428ZM193.364 23.928V32.376H194.364V23.928H193.364ZM193.864 32.876H198.328V31.876H193.864V32.876ZM210.836 28.152C210.836 29.5019 210.606 30.7863 210.148 32.0084L211.084 32.3596C211.586 31.0217 211.836 29.6181 211.836 28.152H210.836ZM210.148 32.0084C209.694 33.2177 208.983 34.3099 208.006 35.2864L208.713 35.9936C209.785 34.9221 210.577 33.7103 211.084 32.3596L210.148 32.0084ZM208.006 35.2864C207.072 36.2205 205.855 36.986 204.339 37.5738L204.7 38.5062C206.321 37.878 207.663 37.0435 208.713 35.9936L208.006 35.2864ZM204.347 37.5707C202.848 38.1215 201.053 38.404 198.952 38.404V39.404C201.139 39.404 203.056 39.1105 204.692 38.5093L204.347 37.5707ZM198.952 38.404H193.864V39.404H198.952V38.404ZM193.364 38.904V51H194.364V38.904H193.364ZM193.864 50.5H185.656V51.5H193.864V50.5ZM186.156 51V17.304H185.156V51H186.156ZM185.656 17.804H198.952V16.804H185.656V17.804ZM198.952 17.804C200.957 17.804 202.69 18.0705 204.161 18.5913L204.495 17.6487C202.893 17.0815 201.043 16.804 198.952 16.804V17.804ZM204.164 18.5924C205.674 19.1164 206.904 19.8495 207.868 20.7831L208.564 20.0649C207.479 19.0145 206.117 18.2116 204.492 17.6476L204.164 18.5924ZM207.879 20.794C208.877 21.7007 209.616 22.7868 210.1 24.058L211.035 23.702C210.495 22.2852 209.667 21.0673 208.552 20.054L207.879 20.794ZM210.102 24.0618C210.589 25.3108 210.836 26.6725 210.836 28.152H211.836C211.836 26.5595 211.57 25.0732 211.033 23.6982L210.102 24.0618ZM235.313 25.272L234.952 25.618L234.959 25.6256L235.313 25.272ZM226.817 24.12V23.62H226.317V24.12H226.817ZM226.817 32.472H226.317V32.972H226.817V32.472ZM237.761 18.168L237.585 18.6363L237.597 18.6404L237.761 18.168ZM241.649 20.424L241.307 20.7888L241.312 20.794L241.649 20.424ZM244.001 23.784L243.537 23.9697V23.9697L244.001 23.784ZM244.337 31.032L244.817 31.1714L244.818 31.1674L244.337 31.032ZM242.945 33.816L242.543 33.5184L242.541 33.521L242.945 33.816ZM240.593 36.072L240.306 35.6623L240.3 35.667L240.593 36.072ZM237.281 37.656L237.137 37.1771L236.529 37.3594L236.849 37.9077L237.281 37.656ZM245.057 51V51.5H245.927L245.489 50.7483L245.057 51ZM235.793 51L235.355 51.2413L235.497 51.5H235.793V51ZM228.785 38.28L229.223 38.0387L229.08 37.78H228.785V38.28ZM226.817 38.28V37.78H226.317V38.28H226.817ZM226.817 51V51.5H227.317V51H226.817ZM218.609 51H218.109V51.5H218.609V51ZM218.609 17.304V16.804H218.109V17.304H218.609ZM236.917 28.248C236.917 26.8956 236.514 25.7665 235.666 24.9184L234.959 25.6256C235.583 26.2495 235.917 27.1044 235.917 28.248H236.917ZM235.674 24.926C234.808 24.0229 233.516 23.62 231.905 23.62V24.62C233.366 24.62 234.345 24.9851 234.952 25.618L235.674 24.926ZM231.905 23.62H226.817V24.62H231.905V23.62ZM226.317 24.12V32.472H227.317V24.12H226.317ZM226.817 32.972H231.905V31.972H226.817V32.972ZM231.905 32.972C233.511 32.972 234.8 32.5879 235.666 31.7216L234.959 31.0144C234.354 31.6201 233.371 31.972 231.905 31.972V32.972ZM235.666 31.7216C236.521 30.8667 236.917 29.6843 236.917 28.248H235.917C235.917 29.4997 235.576 30.3973 234.959 31.0144L235.666 31.7216ZM232.385 17.804C234.387 17.804 236.117 18.0857 237.585 18.6362L237.936 17.6998C236.332 17.0983 234.478 16.804 232.385 16.804V17.804ZM237.597 18.6404C239.111 19.1655 240.342 19.8847 241.307 20.7888L241.991 20.0592C240.907 19.0433 239.547 18.2585 237.925 17.6956L237.597 18.6404ZM241.312 20.794C242.314 21.7049 243.054 22.7625 243.537 23.9697L244.465 23.5983C243.924 22.2455 243.095 21.0631 241.985 20.054L241.312 20.794ZM243.537 23.9697C244.023 25.1867 244.269 26.4993 244.269 27.912H245.269C245.269 26.3807 245.002 24.9413 244.465 23.5983L243.537 23.9697ZM244.269 27.912C244.269 28.9219 244.131 29.9164 243.855 30.8966L244.818 31.1674C245.118 30.0996 245.269 29.0141 245.269 27.912H244.269ZM243.857 30.8926C243.586 31.8253 243.149 32.7001 242.543 33.5184L243.347 34.1136C244.02 33.2039 244.512 32.2227 244.817 31.1714L243.857 30.8926ZM242.541 33.521C241.97 34.303 241.227 35.0176 240.306 35.6624L240.88 36.4816C241.878 35.7824 242.704 34.993 243.349 34.111L242.541 33.521ZM240.3 35.667C239.424 36.3012 238.372 36.8066 237.137 37.1771L237.424 38.1349C238.749 37.7374 239.906 37.1868 240.886 36.477L240.3 35.667ZM236.849 37.9077L244.625 51.2517L245.489 50.7483L237.713 37.4043L236.849 37.9077ZM245.057 50.5H235.793V51.5H245.057V50.5ZM236.231 50.7587L229.223 38.0387L228.347 38.5213L235.355 51.2413L236.231 50.7587ZM228.785 37.78H226.817V38.78H228.785V37.78ZM226.317 38.28V51H227.317V38.28H226.317ZM226.817 50.5H218.609V51.5H226.817V50.5ZM219.109 51V17.304H218.109V51H219.109ZM218.609 17.804H232.385V16.804H218.609V17.804ZM284.745 41.016L285.206 41.2113L284.745 41.016ZM281.049 46.488L280.699 46.1308L281.049 46.488ZM275.577 50.088L275.763 50.5523L275.769 50.5497L275.577 50.088ZM262.089 50.088L261.897 50.5498L261.906 50.5532L262.089 50.088ZM256.617 46.488L256.967 46.1308L256.617 46.488ZM252.873 41.016L252.413 41.2113L252.416 41.2171L252.873 41.016ZM252.873 27.096L252.416 26.8948L252.413 26.9007L252.873 27.096ZM256.617 21.672L256.963 22.0329L256.967 22.0292L256.617 21.672ZM262.089 18.12L262.275 18.5842L262.279 18.5828L262.089 18.12ZM275.577 18.12L275.385 18.5818L275.394 18.5852L275.577 18.12ZM281.049 21.672L280.696 22.0256L280.703 22.0328L281.049 21.672ZM284.745 27.096L285.206 26.9007L284.745 27.096ZM260.553 38.088L260.08 38.2498L260.082 38.2537L260.553 38.088ZM262.329 41.16L262.703 40.8278L262.329 41.16ZM265.113 43.176L264.911 43.6335L264.919 43.637L264.928 43.6402L265.113 43.176ZM272.505 43.176L272.696 43.6385L272.707 43.6335L272.505 43.176ZM275.289 41.16L274.922 40.8202L274.916 40.8278L275.289 41.16ZM277.113 38.088L277.585 38.2537L277.586 38.2498L277.113 38.088ZM277.113 30.024L276.64 30.1858L276.642 30.1897L277.113 30.024ZM275.289 26.952L274.916 27.2842L274.922 27.2915L274.929 27.2986L275.289 26.952ZM272.505 24.984L272.303 25.4416L272.315 25.4463L272.505 24.984ZM285.589 34.056C285.589 36.5238 285.152 38.7765 284.285 40.8207L285.206 41.2113C286.13 39.0315 286.589 36.6442 286.589 34.056H285.589ZM284.285 40.8207C283.414 42.8748 282.218 44.6431 280.699 46.1308L281.399 46.8452C283.016 45.2609 284.285 43.3812 285.206 41.2113L284.285 40.8207ZM280.699 46.1308C279.178 47.621 277.408 48.7861 275.386 49.6263L275.769 50.5497C277.906 49.6619 279.784 48.427 281.399 46.8452L280.699 46.1308ZM275.392 49.6238C273.375 50.4305 271.198 50.836 268.857 50.836V51.836C271.316 51.836 273.62 51.4095 275.763 50.5522L275.392 49.6238ZM268.857 50.836C266.516 50.836 264.323 50.4305 262.273 49.6228L261.906 50.5532C264.08 51.4095 266.398 51.836 268.857 51.836V50.836ZM262.281 49.6263C260.258 48.7861 258.488 47.621 256.967 46.1308L256.267 46.8452C257.882 48.427 259.76 49.6619 261.898 50.5497L262.281 49.6263ZM256.967 46.1308C255.447 44.6417 254.235 42.8715 253.331 40.8149L252.416 41.2171C253.368 43.3845 254.652 45.2623 256.267 46.8452L256.967 46.1308ZM253.334 40.8207C252.466 38.7765 252.029 36.5238 252.029 34.056H251.029C251.029 36.6442 251.488 39.0315 252.413 41.2113L253.334 40.8207ZM252.029 34.056C252.029 31.5882 252.466 29.3355 253.334 27.2913L252.413 26.9007C251.488 29.0805 251.029 31.4678 251.029 34.056H252.029ZM253.331 27.2971C254.234 25.2414 255.446 23.4887 256.963 22.0328L256.271 21.3112C254.653 22.8633 253.368 24.7266 252.416 26.8949L253.331 27.2971ZM256.967 22.0292C258.487 20.5403 260.255 19.3923 262.275 18.5842L261.904 17.6558C259.764 18.5117 257.884 19.7317 256.267 21.3148L256.967 22.0292ZM262.279 18.5828C264.327 17.7446 266.519 17.324 268.857 17.324V16.324C266.396 16.324 264.075 16.7674 261.9 17.6572L262.279 18.5828ZM268.857 17.324C271.196 17.324 273.37 17.7446 275.386 18.5817L275.769 17.6582C273.624 16.7674 271.319 16.324 268.857 16.324V17.324ZM275.394 18.5852C277.445 19.3932 279.21 20.5402 280.696 22.0256L281.403 21.3184C279.816 19.7318 277.933 18.5108 275.761 17.6548L275.394 18.5852ZM280.703 22.0328C282.22 23.4874 283.414 25.2381 284.285 27.2913L285.206 26.9007C284.285 24.7299 283.015 22.8646 281.395 21.3112L280.703 22.0328ZM284.285 27.2913C285.152 29.3355 285.589 31.5882 285.589 34.056H286.589C286.589 31.4678 286.13 29.0805 285.206 26.9007L284.285 27.2913ZM259.429 34.056C259.429 35.5752 259.644 36.9748 260.08 38.2498L261.026 37.9262C260.631 36.7692 260.429 35.4808 260.429 34.056H259.429ZM260.082 38.2537C260.517 39.4938 261.141 40.5756 261.956 41.4922L262.703 40.8278C261.982 40.0164 261.421 39.0502 261.025 37.9223L260.082 38.2537ZM261.956 41.4922C262.773 42.4113 263.76 43.1254 264.911 43.6335L265.315 42.7185C264.291 42.2666 263.422 41.6367 262.703 40.8278L261.956 41.4922ZM264.928 43.6402C266.114 44.1149 267.427 44.348 268.857 44.348V43.348C267.536 43.348 266.352 43.1331 265.299 42.7118L264.928 43.6402ZM268.857 44.348C270.257 44.348 271.539 44.1145 272.696 43.6383L272.315 42.7137C271.295 43.1335 270.145 43.348 268.857 43.348V44.348ZM272.707 43.6335C273.859 43.1254 274.846 42.4113 275.663 41.4922L274.916 40.8278C274.197 41.6367 273.328 42.2666 272.303 42.7185L272.707 43.6335ZM275.656 41.4997C276.506 40.5823 277.148 39.498 277.585 38.2537L276.642 37.9223C276.247 39.046 275.673 40.0097 274.922 40.8203L275.656 41.4997ZM277.586 38.2498C278.023 36.9748 278.237 35.5752 278.237 34.056H277.237C277.237 35.4808 277.036 36.7692 276.64 37.9262L277.586 38.2498ZM278.237 34.056C278.237 32.5064 278.023 31.1049 277.585 29.8583L276.642 30.1897C277.036 31.3111 277.237 32.5976 277.237 34.056H278.237ZM277.586 29.8622C277.149 28.585 276.506 27.4958 275.65 26.6054L274.929 27.2986C275.673 28.0722 276.245 29.031 276.64 30.1858L277.586 29.8622ZM275.663 26.6198C274.844 25.698 273.853 24.998 272.696 24.5217L272.315 25.4463C273.334 25.866 274.199 26.478 274.916 27.2842L275.663 26.6198ZM272.707 24.5265C271.548 24.0151 270.262 23.764 268.857 23.764V24.764C270.141 24.764 271.287 24.9929 272.303 25.4415L272.707 24.5265ZM268.857 23.764C265.989 23.764 263.669 24.6867 261.959 26.5677L262.699 27.2403C264.189 25.6013 266.222 24.764 268.857 24.764V23.764ZM261.959 26.5677C260.255 28.4422 259.429 30.9578 259.429 34.056H260.429C260.429 31.1382 261.203 28.8858 262.699 27.2403L261.959 26.5677Z" fill="url(#paint2_linear_1620_10383)"/>
    </g>
    <defs>
        <filter id="filter0_d_1620_10383" x="0.472656" y="0.823975" width="317.616" height="98.512" filterUnits="userSpaceOnUse" color-interpolation-filters="sRGB">
            <feFlood flood-opacity="0" result="BackgroundImageFix"/>
            <feColorMatrix in="SourceAlpha" type="matrix" values="0 0 0 0 0 0 0 0 0 0 0 0 0 0 0 0 0 0 127 0" result="hardAlpha"/>
            <feOffset dy="16"/>
            <feGaussianBlur stdDeviation="16"/>
            <feColorMatrix type="matrix" values="0 0 0 0 0.172549 0 0 0 0 0.0666667 0 0 0 0 0.403922 0 0 0 0.33 0"/>
            <feBlend mode="normal" in2="BackgroundImageFix" result="effect1_dropShadow_1620_10383"/>
            <feBlend mode="normal" in="SourceGraphic" in2="effect1_dropShadow_1620_10383" result="shape"/>
        </filter>
        <linearGradient id="paint0_linear_1620_10383" x1="-108.163" y1="35.086" x2="-92.4662" y2="124.945" gradientUnits="userSpaceOnUse">
            <stop stop-color="#BFAAFF"/>
            <stop offset="0.619792" stop-color="#FFBAAB"/>
            <stop offset="1" stop-color="#8055FF"/>
        </linearGradient>
        <linearGradient id="paint1_linear_1620_10383" x1="157" y1="60" x2="155.5" y2="7" gradientUnits="userSpaceOnUse">
            <stop offset="0.515525" stop-opacity="0"/>
            <stop offset="0.515995" stop-color="white"/>
            <stop offset="1" stop-color="white"/>
        </linearGradient>
        <linearGradient id="paint2_linear_1620_10383" x1="-108.163" y1="35.086" x2="-92.4662" y2="124.945" gradientUnits="userSpaceOnUse">
            <stop stop-color="#BFAAFF"/>
            <stop offset="0.619792" stop-color="#FFBAAB"/>
            <stop offset="1" stop-color="#8055FF"/>
        </linearGradient>
    </defs>
</svg>
