<svg width="44" height="94" viewBox="0 0 44 94" fill="none" xmlns="http://www.w3.org/2000/svg">
    <path d="M3 21C3 10.5066 11.5066 2 22 2V2C32.4934 2 41 10.5066 41 21V23C41 33.4934 32.4934 42 22 42V42C11.5066 42 3 33.4934 3 23V21Z" fill="#FFF8E6"/>
    <g filter="url(#filter0_d_2895_21132)">
        <path d="M27.2168 10.624C27.704 10.7128 28.2008 10.7632 28.676 10.8928C30.4208 11.368 31.7888 12.3784 32.7824 13.8856C33.6968 15.2704 34.0664 16.8088 33.92 18.4528C33.764 20.1904 33.0584 21.6952 31.8104 22.9168C30.3272 24.3712 28.5248 25.0456 26.4512 24.9808C25.4096 24.9472 24.4184 24.6784 23.492 24.196C23.3768 24.136 23.2976 24.1144 23.1872 24.2248C21.7352 25.6864 20.276 27.1432 18.8192 28.6C18.8048 28.6144 18.7904 28.6336 18.7664 28.6648C18.8192 28.7224 18.872 28.78 18.9272 28.8352C19.4096 29.3176 19.8944 29.7976 20.372 30.2824C20.7296 30.6448 20.7296 31.0336 20.372 31.3912C19.8032 31.9648 19.2296 32.536 18.6584 33.1048C18.2648 33.496 17.8952 33.496 17.504 33.1048C16.9808 32.5816 16.4552 32.056 15.9128 31.5136C15.7712 31.6504 15.6368 31.7824 15.5024 31.9168C15.2552 32.1616 15.0128 32.4136 14.7608 32.6536C14.4128 32.9896 14.0288 32.9848 13.6856 32.644C13.1168 32.08 12.5528 31.5136 11.9864 30.9472C11.5616 30.5224 11.5616 30.1648 11.984 29.7424C14.504 27.2272 17.0216 24.7144 19.5368 22.1992C19.8104 21.9256 20.0792 21.6496 20.3576 21.3832C20.4488 21.2968 20.4608 21.2296 20.4032 21.1168C19.7504 19.876 19.4936 18.5512 19.6208 17.1616C19.7816 15.4072 20.5016 13.9024 21.7616 12.6664C22.7552 11.692 23.9432 11.0728 25.2992 10.78C25.6376 10.708 25.9856 10.6744 26.3288 10.624C26.624 10.624 26.9192 10.624 27.2168 10.624ZM26.7944 14.2432C24.8912 14.1952 23.2592 15.7744 23.2088 17.7112C23.1584 19.708 24.7136 21.3208 26.7368 21.3688C28.6472 21.4144 30.2744 19.8424 30.3248 17.9032C30.3776 15.9112 28.8152 14.2936 26.7944 14.2432Z" fill="url(#paint0_linear_2895_21132)"/>
        <path d="M27.2168 10.624C27.704 10.7128 28.2008 10.7632 28.676 10.8928C30.4208 11.368 31.7888 12.3784 32.7824 13.8856C33.6968 15.2704 34.0664 16.8088 33.92 18.4528C33.764 20.1904 33.0584 21.6952 31.8104 22.9168C30.3272 24.3712 28.5248 25.0456 26.4512 24.9808C25.4096 24.9472 24.4184 24.6784 23.492 24.196C23.3768 24.136 23.2976 24.1144 23.1872 24.2248C21.7352 25.6864 20.276 27.1432 18.8192 28.6C18.8048 28.6144 18.7904 28.6336 18.7664 28.6648C18.8192 28.7224 18.872 28.78 18.9272 28.8352C19.4096 29.3176 19.8944 29.7976 20.372 30.2824C20.7296 30.6448 20.7296 31.0336 20.372 31.3912C19.8032 31.9648 19.2296 32.536 18.6584 33.1048C18.2648 33.496 17.8952 33.496 17.504 33.1048C16.9808 32.5816 16.4552 32.056 15.9128 31.5136C15.7712 31.6504 15.6368 31.7824 15.5024 31.9168C15.2552 32.1616 15.0128 32.4136 14.7608 32.6536C14.4128 32.9896 14.0288 32.9848 13.6856 32.644C13.1168 32.08 12.5528 31.5136 11.9864 30.9472C11.5616 30.5224 11.5616 30.1648 11.984 29.7424C14.504 27.2272 17.0216 24.7144 19.5368 22.1992C19.8104 21.9256 20.0792 21.6496 20.3576 21.3832C20.4488 21.2968 20.4608 21.2296 20.4032 21.1168C19.7504 19.876 19.4936 18.5512 19.6208 17.1616C19.7816 15.4072 20.5016 13.9024 21.7616 12.6664C22.7552 11.692 23.9432 11.0728 25.2992 10.78C25.6376 10.708 25.9856 10.6744 26.3288 10.624C26.624 10.624 26.9192 10.624 27.2168 10.624ZM26.7944 14.2432C24.8912 14.1952 23.2592 15.7744 23.2088 17.7112C23.1584 19.708 24.7136 21.3208 26.7368 21.3688C28.6472 21.4144 30.2744 19.8424 30.3248 17.9032C30.3776 15.9112 28.8152 14.2936 26.7944 14.2432Z" stroke="#FF9500" stroke-width="0.1"/>
    </g>
    <path d="M39 21V23H43V21H39ZM5 23V21H1V23H5ZM22 40C12.6112 40 5 32.3888 5 23H1C1 34.598 10.402 44 22 44V40ZM39 23C39 32.3888 31.3888 40 22 40V44C33.598 44 43 34.598 43 23H39ZM22 4C31.3888 4 39 11.6112 39 21H43C43 9.40202 33.598 0 22 0V4ZM22 0C10.402 0 1 9.40202 1 21H5C5 11.6112 12.6112 4 22 4V0Z" fill="url(#paint1_linear_2895_21132)"/>
    <rect x="20.5" y="50" width="3" height="42" rx="1.5" fill="#BFBFBF" fill-opacity="0.25"/>
    <defs>
        <filter id="filter0_d_2895_21132" x="3.61752" y="6.57349" width="38.3835" height="38.8748" filterUnits="userSpaceOnUse" color-interpolation-filters="sRGB">
            <feFlood flood-opacity="0" result="BackgroundImageFix"/>
            <feColorMatrix in="SourceAlpha" type="matrix" values="0 0 0 0 0 0 0 0 0 0 0 0 0 0 0 0 0 0 127 0" result="hardAlpha"/>
            <feOffset dy="4"/>
            <feGaussianBlur stdDeviation="4"/>
            <feComposite in2="hardAlpha" operator="out"/>
            <feColorMatrix type="matrix" values="0 0 0 0 1 0 0 0 0 0 0 0 0 0 0 0 0 0 0.17 0"/>
            <feBlend mode="normal" in2="BackgroundImageFix" result="effect1_dropShadow_2895_21132"/>
            <feBlend mode="normal" in="SourceGraphic" in2="effect1_dropShadow_2895_21132" result="shape"/>
        </filter>
        <linearGradient id="paint0_linear_2895_21132" x1="41.1136" y1="28.6363" x2="28.5672" y2="4.52259" gradientUnits="userSpaceOnUse">
            <stop stop-color="#FFA800"/>
            <stop offset="0.478967" stop-color="#FFB800"/>
            <stop offset="0.479067" stop-color="#FFB800"/>
            <stop offset="0.479167" stop-color="#FFC700"/>
            <stop offset="1" stop-color="#FFC700"/>
        </linearGradient>
        <linearGradient id="paint1_linear_2895_21132" x1="17.8438" y1="3.5625" x2="35.6272" y2="32.9373" gradientUnits="userSpaceOnUse">
            <stop stop-color="#FF9500"/>
            <stop offset="0.510317" stop-color="#FF9500"/>
            <stop offset="0.510417" stop-color="#FF7A00"/>
        </linearGradient>
    </defs>
</svg>
