<svg width="24" height="24" viewBox="0 0 24 24" fill="none" xmlns="http://www.w3.org/2000/svg">
<path d="M9.56789 15.6965L16.8921 21.2351C17.4642 21.6671 18.1411 21.9273 18.8478 21.9868C19.5544 22.0464 20.2633 21.903 20.8958 21.5725C21.5283 21.242 22.0597 20.7374 22.4311 20.1145C22.8025 19.4917 22.9994 18.7749 23 18.0437L23 6.96094C23.0011 6.22902 22.8052 5.51114 22.4342 4.88721C22.0631 4.26328 21.5314 3.75777 20.8983 3.42697C20.2652 3.09617 19.5555 2.95305 18.8482 3.01353C18.1409 3.07401 17.4637 3.33573 16.8921 3.76955L9.56789 9.30816C9.0819 9.67596 8.68671 10.1566 8.41433 10.7112C8.14194 11.2658 8 11.8787 8 12.5003C8 13.122 8.14194 13.7349 8.41433 14.2895C8.68671 14.8441 9.0819 15.3247 9.56789 15.6925L9.56789 15.6965Z" fill="white"/>
<rect x="6" y="22" width="4" height="19" rx="2" transform="rotate(180 6 22)" fill="white"/>
</svg>
