<svg width="16" height="16" viewBox="0 0 16 16" fill="none" xmlns="http://www.w3.org/2000/svg">
<g clip-path="url(#clip0_5572_43197)">
<rect width="16" height="16" fill="null"/>
<path d="M8 0C6.41775 0 4.87104 0.469192 3.55544 1.34824C2.23985 2.22729 1.21447 3.47672 0.608967 4.93853C0.00346629 6.40034 -0.15496 8.00887 0.153721 9.56072C0.462403 11.1126 1.22433 12.538 2.34315 13.6569C3.46197 14.7757 4.88743 15.5376 6.43928 15.8463C7.99113 16.155 9.59966 15.9965 11.0615 15.391C12.5233 14.7855 13.7727 13.7602 14.6518 12.4446C15.5308 11.129 16 9.58225 16 8C15.9977 5.87897 15.1541 3.84547 13.6543 2.34568C12.1545 0.845885 10.121 0.00229405 8 0ZM8 14.6667C6.68146 14.6667 5.39253 14.2757 4.2962 13.5431C3.19987 12.8106 2.34539 11.7694 1.84081 10.5512C1.33622 9.33305 1.2042 7.9926 1.46144 6.6994C1.71867 5.40619 2.35361 4.2183 3.28596 3.28595C4.21831 2.3536 5.4062 1.71867 6.6994 1.46143C7.99261 1.2042 9.33305 1.33622 10.5512 1.8408C11.7694 2.34539 12.8106 3.19987 13.5431 4.2962C14.2757 5.39253 14.6667 6.68146 14.6667 8C14.6647 9.76751 13.9617 11.4621 12.7119 12.7119C11.4621 13.9617 9.76752 14.6647 8 14.6667Z" fill="#008446"/>
<path d="M8.01041 4.19526C7.8336 4.19526 7.66403 4.2655 7.53901 4.39052C7.41399 4.51555 7.34375 4.68512 7.34375 4.86193V8.19526C7.34379 8.37206 7.41405 8.5416 7.53908 8.6666L9.53908 10.6666C9.66482 10.788 9.83322 10.8552 10.008 10.8537C10.1828 10.8522 10.35 10.7821 10.4736 10.6585C10.5972 10.5349 10.6673 10.3677 10.6689 10.1929C10.6704 10.0181 10.6032 9.84966 10.4817 9.72393L8.67708 7.91926V4.86193C8.67708 4.68512 8.60684 4.51555 8.48182 4.39052C8.3568 4.2655 8.18723 4.19526 8.01041 4.19526Z" fill="#008446"/>
</g>
<defs>
<clipPath id="clip0_5572_43197">
<rect width="16" height="16" fill="white"/>
</clipPath>
</defs>
</svg>
