<svg width="14" height="8" viewBox="0 0 14 8" fill="none" xmlns="http://www.w3.org/2000/svg">
<path d="M12.9963 1.707C13.1361 1.56715 13.2313 1.38898 13.2699 1.19503C13.3084 1.00108 13.2886 0.800046 13.213 0.617346C13.1373 0.434646 13.0091 0.278482 12.8447 0.168598C12.6803 0.0587139 12.487 4.21893e-05 12.2893 -4.37021e-08L1.11728 -5.32046e-07C0.919526 4.16836e-05 0.726228 0.0587133 0.561818 0.168598C0.397408 0.278482 0.269269 0.434645 0.193599 0.617345C0.117928 0.800045 0.0981254 1.00108 0.136693 1.19503C0.17526 1.38898 0.270466 1.56715 0.410275 1.707L5.99628 7.293C6.1838 7.48047 6.43811 7.58579 6.70327 7.58579C6.96844 7.58579 7.22275 7.48047 7.41027 7.293L12.9963 1.707Z" fill="#2BB857"/>
</svg>
