<svg width="14" height="8" viewBox="0 0 14 8" fill="none" xmlns="http://www.w3.org/2000/svg">
  <path d="M1.00372 6.293C0.863915 6.43285 0.768709 6.61102 0.730141 6.80497C0.691573 6.99892 0.711376 7.19995 0.787046 7.38265C0.862716 7.56535 0.990856 7.72152 1.15527 7.8314C1.31968 7.94129 1.51297 7.99996 1.71072 8L12.8827 8C13.0805 7.99996 13.2738 7.94129 13.4382 7.8314C13.6026 7.72152 13.7307 7.56535 13.8064 7.38265C13.8821 7.19995 13.9019 6.99892 13.8633 6.80497C13.8247 6.61102 13.7295 6.43285 13.5897 6.293L8.00372 0.707C7.8162 0.51953 7.56189 0.414213 7.29672 0.414213C7.03156 0.414213 6.77725 0.51953 6.58972 0.707L1.00372 6.293Z" fill="#2BB857"/>
</svg>
