<svg width="24" height="24" viewBox="0 0 24 24" fill="none" xmlns="http://www.w3.org/2000/svg">
<path d="M14.4321 8.30352L7.10788 2.76491C6.53582 2.33292 5.85893 2.07272 5.15224 2.01316C4.44556 1.9536 3.73668 2.09701 3.10419 2.42749C2.4717 2.75796 1.9403 3.2626 1.5689 3.88547C1.19749 4.50834 1.00058 5.2251 1 5.9563V17.0391C0.998902 17.771 1.19478 18.4889 1.56583 19.1128C1.93688 19.7367 2.46856 20.2422 3.10167 20.573C3.73477 20.9038 4.44448 21.047 5.15179 20.9865C5.8591 20.926 6.53625 20.6643 7.10788 20.2305L14.4321 14.6918C14.9181 14.324 15.3133 13.8434 15.5857 13.2888C15.8581 12.7342 16 12.1213 16 11.4997C16 10.878 15.8581 10.2651 15.5857 9.7105C15.3133 9.15592 14.9181 8.67528 14.4321 8.30748V8.30352Z" fill="white"/>
<rect x="18" y="2" width="4" height="19" rx="2" fill="white"/>
</svg>
