<svg width="40" height="40" viewBox="0 0 40 40" fill="none" xmlns="http://www.w3.org/2000/svg">
    <path d="M8.75 4.16669C6.6825 4.16669 5 5.84919 5 7.91669V26.25C5 28.3175 6.6825 30 8.75 30H13.3333V27.5H8.75C8.06083 27.5 7.5 26.9392 7.5 26.25V25.8334H13.3333V13.75C13.3333 13.6092 13.3445 13.4717 13.3545 13.3334H11.25C10.5592 13.3334 10 12.7742 10 12.0834C10 11.3925 10.5592 10.8334 11.25 10.8334H14.1927C15.1569 9.33252 16.8375 8.33335 18.75 8.33335H25V7.91669C25 5.84919 23.3175 4.16669 21.25 4.16669H8.75ZM18.75 10C16.6825 10 15 11.6825 15 13.75V32.0834C15 34.1509 16.6825 35.8334 18.75 35.8334H33.75C34.4408 35.8334 35 35.2742 35 34.5834C35 33.8925 34.4408 33.3334 33.75 33.3334H18.75C18.0608 33.3334 17.5 32.7725 17.5 32.0834V31.6667H33.75C34.4408 31.6667 35 31.1075 35 30.4167V13.75C35 11.6825 33.3175 10 31.25 10H18.75ZM21.25 16.6667H28.75C29.4408 16.6667 30 17.2259 30 17.9167C30 18.6075 29.4408 19.1667 28.75 19.1667H21.25C20.5592 19.1667 20 18.6075 20 17.9167C20 17.2259 20.5592 16.6667 21.25 16.6667Z" fill="white"/>
</svg>