<svg width="40" height="40" viewBox="0 0 40 40" fill="none" xmlns="http://www.w3.org/2000/svg">
    <path d="M7.91658 5.83331C5.38909 5.83331 3.33325 7.88998 3.33325 10.4166V29.5833C3.33325 32.11 5.38909 34.1666 7.91658 34.1666H19.5653C18.9987 33.0825 18.6156 31.8915 18.4439 30.6315C18.2989 30.7523 18.1199 30.8333 17.9166 30.8333H17.0833C16.6233 30.8333 16.2499 30.46 16.2499 30V29.1666C16.2499 28.7066 16.6233 28.3333 17.0833 28.3333H17.9166C18.0866 28.3333 18.2366 28.3972 18.3691 28.4847C18.7232 22.8297 23.4233 18.3333 29.1666 18.3333C32.0774 18.3333 34.7183 19.493 36.6666 21.3672V10.4166C36.6666 7.88998 34.6108 5.83331 32.0833 5.83331H7.91658ZM7.08325 9.16665H7.91658C8.37659 9.16665 8.74992 9.53998 8.74992 9.99998V10.8333C8.74992 11.2933 8.37659 11.6666 7.91658 11.6666H7.08325C6.62325 11.6666 6.24992 11.2933 6.24992 10.8333V9.99998C6.24992 9.53998 6.62325 9.16665 7.08325 9.16665ZM12.0833 9.16665H12.9166C13.3766 9.16665 13.7499 9.53998 13.7499 9.99998V10.8333C13.7499 11.2933 13.3766 11.6666 12.9166 11.6666H12.0833C11.6233 11.6666 11.2499 11.2933 11.2499 10.8333V9.99998C11.2499 9.53998 11.6233 9.16665 12.0833 9.16665ZM17.0833 9.16665H17.9166C18.3766 9.16665 18.7499 9.53998 18.7499 9.99998V10.8333C18.7499 11.2933 18.3766 11.6666 17.9166 11.6666H17.0833C16.6233 11.6666 16.2499 11.2933 16.2499 10.8333V9.99998C16.2499 9.53998 16.6233 9.16665 17.0833 9.16665ZM22.0833 9.16665H22.9166C23.3766 9.16665 23.7499 9.53998 23.7499 9.99998V10.8333C23.7499 11.2933 23.3766 11.6666 22.9166 11.6666H22.0833C21.6233 11.6666 21.2499 11.2933 21.2499 10.8333V9.99998C21.2499 9.53998 21.6233 9.16665 22.0833 9.16665ZM27.0833 9.16665H27.9166C28.3766 9.16665 28.7499 9.53998 28.7499 9.99998V10.8333C28.7499 11.2933 28.3766 11.6666 27.9166 11.6666H27.0833C26.6233 11.6666 26.2499 11.2933 26.2499 10.8333V9.99998C26.2499 9.53998 26.6233 9.16665 27.0833 9.16665ZM32.0833 9.16665H32.9166C33.3766 9.16665 33.7499 9.53998 33.7499 9.99998V10.8333C33.7499 11.2933 33.3766 11.6666 32.9166 11.6666H32.0833C31.6233 11.6666 31.2499 11.2933 31.2499 10.8333V9.99998C31.2499 9.53998 31.6233 9.16665 32.0833 9.16665ZM29.1666 20C24.1041 20 19.9999 24.1041 19.9999 29.1666C19.9999 34.2291 24.1041 38.3333 29.1666 38.3333C34.2291 38.3333 38.3333 34.2291 38.3333 29.1666C38.3333 24.1041 34.2291 20 29.1666 20ZM26.6877 24.1666C26.8339 24.1704 26.9789 24.2116 27.1077 24.292L33.7743 28.4586C34.0177 28.612 34.1666 28.8791 34.1666 29.1666C34.1666 29.4541 34.0177 29.7205 33.7743 29.873L27.1077 34.0397C26.9727 34.1239 26.8199 34.1666 26.6666 34.1666C26.5274 34.1666 26.3896 34.1316 26.2629 34.0625C25.9979 33.915 25.8333 33.6366 25.8333 33.3333V25C25.8333 24.6966 25.9979 24.4183 26.2629 24.2708C26.3954 24.1971 26.5416 24.1629 26.6877 24.1666ZM7.08325 28.3333H7.91658C8.37659 28.3333 8.74992 28.7066 8.74992 29.1666V30C8.74992 30.46 8.37659 30.8333 7.91658 30.8333H7.08325C6.62325 30.8333 6.24992 30.46 6.24992 30V29.1666C6.24992 28.7066 6.62325 28.3333 7.08325 28.3333ZM12.0833 28.3333H12.9166C13.3766 28.3333 13.7499 28.7066 13.7499 29.1666V30C13.7499 30.46 13.3766 30.8333 12.9166 30.8333H12.0833C11.6233 30.8333 11.2499 30.46 11.2499 30V29.1666C11.2499 28.7066 11.6233 28.3333 12.0833 28.3333Z" fill="white"/>
</svg>