<svg width="40" height="40" viewBox="0 0 40 40" fill="none" xmlns="http://www.w3.org/2000/svg">
    <path d="M28.8508 3.33822C28.4009 3.32698 27.9421 3.38199 27.4885 3.51237L7.48363 9.26758C5.06499 9.96318 3.65219 12.5218 4.34398 14.943L4.99991 17.2363V32.0833C4.99991 34.61 7.05574 36.6667 9.58324 36.6667H31.2499C33.7774 36.6667 35.8332 34.61 35.8332 32.0833V17.9167C35.8332 17.2267 35.2741 16.6667 34.5832 16.6667H15.5582L33.2616 11.5739C33.5798 11.4823 33.8486 11.2682 34.0091 10.9786C34.1696 10.6891 34.2087 10.3476 34.1177 10.0293L33.1558 6.66016C32.637 4.84412 31.0685 3.59083 29.2968 3.37077C29.1491 3.35243 29.0008 3.34196 28.8508 3.33822ZM29.8225 6.16374C30.2466 6.42598 30.6007 6.8178 30.7519 7.347C30.7519 7.34755 30.7519 7.34809 30.7519 7.34863L31.372 9.5166L27.3648 10.6689L29.8225 6.16374ZM26.9123 6.2793L23.9875 11.6406L19.4465 12.9476L22.3697 7.58626L26.9123 6.2793ZM18.994 8.55794L16.0692 13.9193L11.5282 15.2246L14.4514 9.86491L18.994 8.55794ZM11.0741 10.8366L8.14932 16.1963L7.36644 16.4209L6.74795 14.2562C6.42642 13.1308 7.05901 11.991 8.17536 11.6699L11.0741 10.8366ZM18.7548 22.5C18.971 22.5007 19.1865 22.5568 19.3798 22.6693L24.3798 25.5859C24.764 25.8109 24.9999 26.2225 24.9999 26.6667C24.9999 27.1108 24.764 27.5224 24.3798 27.7474L19.3798 30.6641C19.1848 30.7774 18.9674 30.8333 18.7499 30.8333C18.5349 30.8333 18.3207 30.7782 18.1282 30.6673C17.7398 30.444 17.4999 30.0308 17.4999 29.5833V23.75C17.4999 23.3025 17.7398 22.8893 18.1282 22.666C18.3223 22.5548 18.5385 22.4993 18.7548 22.5Z" fill="white"/>
</svg>