<svg width="13" height="12" viewBox="0 0 13 12" fill="none" xmlns="http://www.w3.org/2000/svg">
<g clip-path="url(#clip0_7121_53334)">
<path d="M5 12H1C0.867392 12 0.740215 11.9473 0.646447 11.8536C0.552678 11.7598 0.5 11.6326 0.5 11.5C0.5 11.3674 0.552678 11.2402 0.646447 11.1464C0.740215 11.0527 0.867392 11 1 11H5C5.13261 11 5.25979 11.0527 5.35355 11.1464C5.44732 11.2402 5.5 11.3674 5.5 11.5C5.5 11.6326 5.44732 11.7598 5.35355 11.8536C5.25979 11.9473 5.13261 12 5 12Z" fill="white"/>
<path d="M4 10H1C0.867392 10 0.740215 9.94732 0.646447 9.85355C0.552678 9.75979 0.5 9.63261 0.5 9.5C0.5 9.36739 0.552678 9.24021 0.646447 9.14645C0.740215 9.05268 0.867392 9 1 9H4C4.13261 9 4.25979 9.05268 4.35355 9.14645C4.44732 9.24021 4.5 9.36739 4.5 9.5C4.5 9.63261 4.44732 9.75979 4.35355 9.85355C4.25979 9.94732 4.13261 10 4 10Z" fill="white"/>
<path d="M3 8H1C0.867392 8 0.740215 7.94732 0.646447 7.85355C0.552678 7.75979 0.5 7.63261 0.5 7.5C0.5 7.36739 0.552678 7.24021 0.646447 7.14645C0.740215 7.05268 0.867392 7 1 7H3C3.13261 7 3.25979 7.05268 3.35355 7.14645C3.44732 7.24021 3.5 7.36739 3.5 7.5C3.5 7.63261 3.44732 7.75979 3.35355 7.85355C3.25979 7.94732 3.13261 8 3 8Z" fill="white"/>
<path d="M7.00097 11.9774C6.86836 11.9833 6.73884 11.9363 6.6409 11.8467C6.54296 11.7571 6.48462 11.6323 6.47872 11.4997C6.47282 11.3671 6.51983 11.2376 6.60943 11.1396C6.69903 11.0417 6.82386 10.9833 6.95647 10.9774C7.9027 10.8909 8.80466 10.5364 9.55673 9.95573C10.3088 9.375 10.8798 8.592 11.2029 7.69844C11.526 6.80488 11.5878 5.83776 11.3811 4.91034C11.1743 3.98292 10.7076 3.13361 10.0356 2.46189C9.36356 1.79016 8.51404 1.32383 7.58652 1.11752C6.65901 0.911207 5.69191 0.973452 4.7985 1.29697C3.90509 1.62048 3.12236 2.19186 2.54198 2.9442C1.9616 3.69653 1.60761 4.59867 1.52147 5.54493C1.51556 5.61033 1.49682 5.67393 1.46634 5.73209C1.43585 5.79024 1.39421 5.84183 1.34379 5.88389C1.29336 5.92596 1.23515 5.95768 1.17247 5.97725C1.10979 5.99681 1.04386 6.00384 0.978467 5.99793C0.913068 5.99202 0.849474 5.97329 0.791316 5.94281C0.733157 5.91232 0.681572 5.87068 0.639508 5.82025C0.597443 5.76983 0.565721 5.71162 0.546154 5.64894C0.526587 5.58625 0.519557 5.52033 0.525467 5.45493C0.664911 3.91659 1.39227 2.49128 2.55613 1.47572C3.71999 0.460151 5.23069 -0.0674325 6.77374 0.00279131C8.3168 0.0730151 9.77333 0.735635 10.8401 1.85272C11.9069 2.9698 12.5018 4.45528 12.501 5.99993C12.5086 7.49911 11.9517 8.94623 10.9409 10.0534C9.93015 11.1607 8.53963 11.8468 7.04597 11.9754C7.03097 11.9769 7.01547 11.9774 7.00097 11.9774Z" fill="white"/>
<path d="M6.5 3C6.36739 3 6.24021 3.05268 6.14645 3.14645C6.05268 3.24021 6 3.36739 6 3.5V6C6.00003 6.1326 6.05273 6.25975 6.1465 6.3535L7.6465 7.8535C7.7408 7.94458 7.8671 7.99498 7.9982 7.99384C8.1293 7.9927 8.25471 7.94011 8.34741 7.84741C8.44011 7.7547 8.4927 7.6293 8.49384 7.4982C8.49498 7.3671 8.44458 7.2408 8.3535 7.1465L7 5.793V3.5C7 3.36739 6.94732 3.24021 6.85355 3.14645C6.75979 3.05268 6.63261 3 6.5 3Z" fill="white"/>
</g>
<defs>
<clipPath id="clip0_7121_53334">
<rect width="12" height="12" fill="white" transform="translate(0.5)"/>
</clipPath>
</defs>
</svg>
