<svg width="64" height="64" viewBox="0 0 64 64" fill="none" xmlns="http://www.w3.org/2000/svg">
<path d="M64 32C64 56.8358 49.6731 64 32 64C14.3269 64 0 56.8358 0 32C0 9.55224 14.3269 0 32 0C49.6731 0 64 7.16418 64 32Z" fill="#F9F9F9"/>
<path d="M37.3094 40.6225C37.3094 40.6225 41.9349 37.8209 44.1873 32.4133C46.4397 27.0057 43.1518 21.7084 36.7809 20.3795C36.7809 20.3795 33.5852 16.2946 26.5392 16.5222C19.4535 16.7421 19.0041 24.9324 20.4321 27.1063C21.8601 29.2802 23.1984 30.86 23.1984 30.86L25.4232 26.4355L33.5325 24.5626C33.5006 24.5152 32.0406 35.5554 37.3094 40.6225Z" fill="#D7D7D7"/>
<path d="M40.228 44.8588C40.228 44.8588 37.2651 39.5839 36.0148 36.2916C36.0148 36.2916 37.5221 36.5865 38.6319 34.7032C39.4977 33.2252 38.6095 31.2393 36.8737 31.2703C36.0019 31.3057 35.2913 31.9903 35.2077 32.8389L35.0697 33.965C35.0697 33.965 32.1982 29.6965 34.6947 23.8836C34.6947 23.8836 30.5668 22.4582 26.976 24.3915C24.0812 25.9255 23.8872 28.8117 23.8872 28.8117C23.8872 28.8117 22.2824 29.8568 21.721 32.0945C21.1199 34.3245 20.9922 39.8184 26.8603 40.3487L28.8022 46.0004C28.8022 46.0004 37.7773 48.3331 40.228 44.8588Z" fill="#EAEAEA"/>
<path fill-rule="evenodd" clip-rule="evenodd" d="M37.3649 32.4989C37.221 32.4429 37.0445 32.4379 36.8297 32.5399C36.4092 32.7396 36.2345 33.2221 36.1807 33.7275C36.1547 33.9723 36.1593 34.2043 36.1707 34.376C36.1763 34.4615 36.1836 34.5312 36.1894 34.5791C36.1923 34.603 36.1949 34.6214 36.1966 34.6335L36.1986 34.6469L36.1991 34.6498L36.1991 34.6503C36.1991 34.6502 36.1991 34.6502 35.9997 34.683C35.8003 34.7158 35.8003 34.7157 35.8003 34.7156L35.8002 34.715L35.7999 34.7135L35.7992 34.7086L35.7966 34.6912C35.7944 34.6762 35.7915 34.6548 35.7882 34.6277C35.7816 34.5736 35.7736 34.4965 35.7674 34.4027C35.755 34.2158 35.7496 33.9593 35.7788 33.6847C35.8356 33.1512 36.0326 32.4709 36.6564 32.1748C36.9638 32.0288 37.256 32.0228 37.5115 32.1222C37.7611 32.2193 37.9564 32.4092 38.0952 32.6227C38.2343 32.8368 38.3246 33.0864 38.3585 33.3239C38.3917 33.5568 38.374 33.8043 38.265 33.997L37.9132 33.7979C37.9616 33.7125 37.9848 33.5664 37.9584 33.381C37.9325 33.2001 37.8625 33.0064 37.7563 32.843C37.6497 32.6791 37.5148 32.5572 37.3649 32.4989Z" fill="#BFBFBF"/>
<path d="M26.8686 40.3087C29.3193 40.6235 31.5794 38.9652 32.1615 37.8848C32.1615 37.8848 31.2336 41.5746 27.5748 42.3826L26.8686 40.3087Z" fill="url(#paint0_linear_1433_10658)"/>
<path d="M23.8046 31.9687L27.9282 32.3637C28.5784 32.4085 28.9932 33.0251 28.869 33.6598C28.4404 35.4292 27.4547 38.5724 25.9086 38.4758C23.7519 38.3421 23.8046 31.9687 23.8046 31.9687Z" fill="white"/>
<path fill-rule="evenodd" clip-rule="evenodd" d="M26.3006 29.3066L27.1353 28.0901L27.4686 28.3188L26.4543 29.797L26.3034 29.7349L26.3023 29.7345L26.2962 29.7321C26.2905 29.7299 26.2816 29.7265 26.2698 29.7222C26.2463 29.7137 26.2117 29.7018 26.1691 29.6891C26.083 29.6634 25.9684 29.6354 25.8489 29.6233C25.595 29.5976 25.4159 29.6484 25.337 29.8018C25.3182 29.8534 25.3247 29.9307 25.4059 30.0515C25.4886 30.1744 25.6249 30.304 25.7814 30.4261C25.9357 30.5463 26.0985 30.6509 26.2239 30.7259C26.2863 30.7632 26.3388 30.7928 26.3754 30.8129C26.3937 30.8229 26.408 30.8306 26.4175 30.8356L26.4282 30.8413L26.4307 30.8426L26.4312 30.8428C26.4311 30.8428 26.4311 30.8428 26.3387 31.0225C26.2463 31.2022 26.2463 31.2022 26.2462 31.2022L26.2458 31.202L26.2447 31.2014L26.2411 31.1996L26.2281 31.1927C26.2169 31.1868 26.2009 31.1782 26.1808 31.1671C26.1405 31.145 26.0837 31.113 26.0165 31.0728C25.8827 30.9928 25.7047 30.8788 25.5329 30.7448C25.3634 30.6126 25.1883 30.4521 25.0706 30.2771C24.9543 30.1042 24.8688 29.8769 24.9653 29.6426L24.9677 29.6367L24.9705 29.6309C25.1684 29.2253 25.6019 29.1921 25.8897 29.2212C26.0428 29.2367 26.1836 29.2716 26.2848 29.3018C26.2902 29.3034 26.2954 29.305 26.3006 29.3066Z" fill="#BFBFBF"/>
<path d="M24.3402 36.6014C24.6377 37.6069 25.1404 38.4054 25.8699 38.4658C27.1306 38.5477 27.9861 36.4911 28.5259 34.7845C27.4963 34.9949 25.7147 35.47 24.3402 36.6014Z" fill="url(#paint1_linear_1433_10658)"/>
<path d="M49.0065 30.5737C51.5702 28.7094 52.1372 25.1198 50.2729 22.5561C48.4086 19.9923 44.819 19.4254 42.2553 21.2897C39.6916 23.154 39.1246 26.7436 40.9889 29.3073C42.8532 31.871 46.4428 32.438 49.0065 30.5737Z" fill="#D7D7D7"/>
<path d="M25.3309 27.3237C25.6552 27.1401 26.0191 26.9641 26.3752 26.8279C26.3036 26.7727 26.2243 26.7572 26.1527 26.702C26.2493 27.0504 26.3933 27.3669 26.4899 27.7152C26.5701 27.9369 26.9262 27.8006 26.846 27.579C26.7495 27.2306 26.6055 26.9141 26.5089 26.5658C26.4847 26.4787 26.3735 26.4157 26.2864 26.4399C25.8906 26.5683 25.5189 26.7839 25.1473 26.9995C25.0524 27.0633 25.0291 27.1823 25.1007 27.2375C25.1568 27.372 25.2758 27.3953 25.3309 27.3237Z" fill="#BFBFBF"/>
<path d="M29.5399 28.971C29.8642 28.7873 30.2281 28.6114 30.5842 28.4751C30.5126 28.4199 30.4333 28.4044 30.3617 28.3492C30.4583 28.6976 30.6023 29.0141 30.6989 29.3625C30.7791 29.5841 31.1352 29.4478 31.055 29.2262C30.9584 28.8778 30.8144 28.5614 30.7179 28.213C30.6937 28.1259 30.5825 28.0629 30.4954 28.0871C30.0996 28.2156 29.7279 28.4311 29.3563 28.6467C29.2614 28.7105 29.2381 28.8295 29.3097 28.8847C29.3657 29.0192 29.4847 29.0425 29.5399 28.971Z" fill="#BFBFBF"/>
<path fill-rule="evenodd" clip-rule="evenodd" d="M17.1422 36.9528C16.8425 37.2048 16.3953 37.1661 16.1434 36.8664C15.664 36.2964 15.3017 35.6375 15.077 34.9274L15.7529 34.7135L15.077 34.9274C14.8523 34.2173 14.7697 33.4699 14.8338 32.7278C14.898 31.9858 15.1076 31.2637 15.4509 30.6027C15.7941 29.9417 16.2642 29.3548 16.8343 28.8754C17.1339 28.6234 17.5811 28.6621 17.8331 28.9618C18.0851 29.2615 18.0465 29.7087 17.7468 29.9607C17.3192 30.3202 16.9667 30.7604 16.7092 31.2561C16.4518 31.7518 16.2946 32.2934 16.2464 32.85C16.1983 33.4065 16.2603 33.9671 16.4288 34.4996C16.5973 35.0322 16.8691 35.5264 17.2286 35.9539C17.4806 36.2536 17.4419 36.7008 17.1422 36.9528Z" fill="#BFBFBF" fill-opacity="0.25"/>
<path fill-rule="evenodd" clip-rule="evenodd" d="M15.2858 38.0501C14.9861 38.3021 14.5389 38.2634 14.2869 37.9637C13.6544 37.2115 13.1848 36.3363 12.9041 35.3888C12.6235 34.4415 12.5376 33.4417 12.6494 32.4469C12.7611 31.4523 13.0683 30.4819 13.5514 29.5906C14.0346 28.6993 14.6849 27.9033 15.465 27.2474C15.7647 26.9954 16.2119 27.0341 16.4639 27.3338C16.7159 27.6334 16.6772 28.0806 16.3775 28.3326C15.7325 28.875 15.1958 29.5324 14.798 30.2663C14.4001 31.0002 14.1494 31.7952 14.0584 32.6052C13.9674 33.4152 14.0379 34.224 14.2636 34.9861C14.4893 35.7481 14.8662 36.4495 15.3721 37.0512C15.6241 37.3509 15.5855 37.7981 15.2858 38.0501Z" fill="#BFBFBF" fill-opacity="0.25"/>
<path fill-rule="evenodd" clip-rule="evenodd" d="M18.7702 35.5844C18.4705 35.8364 18.0233 35.7977 17.7713 35.498C17.4796 35.1511 17.2493 34.756 17.0944 34.3337C16.9396 33.9113 16.8622 33.4671 16.8709 33.0253C16.8796 32.5833 16.9744 32.1511 17.1556 31.7555C17.337 31.3595 17.6003 31.0105 17.9318 30.7318C18.2315 30.4798 18.6787 30.5185 18.9307 30.8181C19.1826 31.1178 19.144 31.565 18.8443 31.817C18.677 31.9577 18.5408 32.1363 18.4447 32.3459C18.3485 32.556 18.2935 32.7956 18.2885 33.0532C18.2834 33.3111 18.3286 33.5807 18.4257 33.8456C18.5228 34.1104 18.6689 34.3624 18.8565 34.5855C19.1085 34.8852 19.0698 35.3324 18.7702 35.5844Z" fill="#BFBFBF" fill-opacity="0.25"/>
<defs>
<linearGradient id="paint0_linear_1433_10658" x1="31.7028" y1="42.9655" x2="27.8523" y2="37.4299" gradientUnits="userSpaceOnUse">
<stop stop-color="#C9C6C6"/>
<stop offset="1" stop-color="#E0E0E0"/>
</linearGradient>
<linearGradient id="paint1_linear_1433_10658" x1="28.1759" y1="38.7482" x2="25.1854" y2="34.3604" gradientUnits="userSpaceOnUse">
<stop stop-color="#C9C6C6"/>
<stop offset="1" stop-color="#E0E0E0"/>
</linearGradient>
</defs>
</svg>
