<svg width="64" height="64" viewBox="0 0 64 64" fill="none" xmlns="http://www.w3.org/2000/svg">
<path d="M64 32C64 56.8358 49.6731 64 32 64C14.3269 64 0 56.8358 0 32C0 9.55224 14.3269 0 32 0C49.6731 0 64 7.16418 64 32Z" fill="#F9F9F9"/>
<path fill-rule="evenodd" clip-rule="evenodd" d="M12.6635 28.1941C12.2971 25.4571 14.2188 22.9412 16.9558 22.5748L23.762 21.6636C26.499 21.2971 29.0149 23.2189 29.3813 25.9559L30.7402 36.1057C31.1066 38.8427 29.1849 41.3585 26.4479 41.7249L19.6416 42.6362C16.9046 43.0026 14.3888 41.0809 14.0224 38.3439L12.6635 28.1941ZM16.127 28.6431C16.0034 27.7198 16.6517 26.8711 17.5749 26.7475L24.2621 25.8522C25.1854 25.7286 26.0341 26.3769 26.1577 27.3001C26.2813 28.2234 25.633 29.0721 24.7097 29.1957L18.0226 30.091C17.0993 30.2146 16.2506 29.5664 16.127 28.6431ZM18.3585 32.598C17.4352 32.7216 16.787 33.5703 16.9106 34.4936C17.0342 35.4169 17.8829 36.0652 18.8062 35.9416L25.4933 35.0463C26.4166 34.9227 27.0649 34.074 26.9412 33.1507C26.8176 32.2274 25.9689 31.5791 25.0456 31.7027L18.3585 32.598Z" fill="#D7D7D7"/>
<path fill-rule="evenodd" clip-rule="evenodd" d="M34.5392 32.7246C34.7947 29.9751 37.2309 27.9533 39.9805 28.2089L46.818 28.8445C49.5675 29.1001 51.5893 31.5363 51.3337 34.2858L50.3859 44.4822C50.1303 47.2318 47.6941 49.2536 44.9445 48.998L38.107 48.3624C35.3575 48.1068 33.3357 45.6706 33.5913 42.921L34.5392 32.7246ZM37.8152 33.9358C37.9014 33.0083 38.7233 32.3263 39.6508 32.4125L46.3686 33.037C47.2962 33.1232 47.9782 33.945 47.892 34.8726C47.8057 35.8001 46.9839 36.4821 46.0564 36.3959L39.3386 35.7714C38.411 35.6852 37.729 34.8634 37.8152 33.9358ZM39.1036 38.2904C38.176 38.2041 37.3542 38.8862 37.268 39.8137C37.1818 40.7412 37.8638 41.563 38.7913 41.6493L45.5091 42.2738C46.4367 42.36 47.2585 41.678 47.3447 40.7504C47.4309 39.8229 46.7489 39.0011 45.8214 38.9148L39.1036 38.2904Z" fill="#D7D7D7"/>
<rect x="50.6729" y="24.0858" width="2" height="4" rx="1" transform="rotate(19.4051 50.6729 24.0858)" fill="#BFBFBF" fill-opacity="0.25"/>
<rect x="53.7715" y="26.5223" width="2" height="4" rx="1" transform="rotate(49.4051 53.7715 26.5223)" fill="#BFBFBF" fill-opacity="0.25"/>
<rect x="56.6377" y="29.5095" width="2" height="4" rx="1" transform="rotate(79.4051 56.6377 29.5095)" fill="#BFBFBF" fill-opacity="0.25"/>
<rect x="7.2334" y="24.2029" width="2" height="4" rx="1" transform="rotate(-77.4315 7.2334 24.2029)" fill="#BFBFBF" fill-opacity="0.25"/>
<rect x="9.2832" y="20.8364" width="2" height="4" rx="1" transform="rotate(-47.4315 9.2832 20.8364)" fill="#BFBFBF" fill-opacity="0.25"/>
<rect x="11.9082" y="17.6344" width="2" height="4" rx="1" transform="rotate(-17.4315 11.9082 17.6344)" fill="#BFBFBF" fill-opacity="0.25"/>
</svg>
