<svg width="160" height="160" viewBox="0 0 160 160" fill="none" xmlns="http://www.w3.org/2000/svg">
    <path d="M160 80C160 142.09 124.183 160 80 160C35.8172 160 0 142.09 0 80C0 23.8806 35.8172 0 80 0C124.183 0 160 17.9104 160 80Z" fill="#FFF2E6"/>
    <g filter="url(#filter0_d_2929_27418)">
        <path d="M93.2729 101.556C93.2729 101.556 104.837 94.552 110.468 81.033C116.099 67.514 107.879 54.2708 91.9519 50.9486C91.9519 50.9486 83.9625 40.7365 66.3475 41.3055C48.6332 41.855 47.5099 62.3308 51.0798 67.7657C54.6498 73.2005 57.9956 77.1499 57.9956 77.1499L63.5576 66.0886L83.8309 61.4063C83.7511 61.2878 80.1011 88.8885 93.2729 101.556Z" fill="url(#paint0_linear_2929_27418)"/>
        <path d="M100.571 112.147C100.571 112.147 93.1638 98.9599 90.0379 90.729C90.0379 90.729 93.8062 91.4663 96.5808 86.7581C98.7453 83.0631 96.5248 78.0982 92.1852 78.1758C90.0057 78.2642 88.2293 79.9758 88.0202 82.0971L87.6752 84.9126C87.6752 84.9126 80.4965 74.2413 86.7377 59.7091C86.7377 59.7091 76.4179 56.1455 67.4411 60.9787C60.204 64.8138 59.7189 72.0293 59.7189 72.0293C59.7189 72.0293 55.7069 74.6421 54.3034 80.2364C52.8008 85.8113 52.4816 99.5459 67.1518 100.872L72.0065 115.001C72.0065 115.001 94.4441 120.833 100.571 112.147Z" fill="#FFCECB"/>
        <path fill-rule="evenodd" clip-rule="evenodd" d="M93.4128 81.2472C93.0529 81.1072 92.6117 81.0947 92.0748 81.3496C91.0235 81.8488 90.5868 83.0553 90.4523 84.3187C90.3872 84.9306 90.3987 85.5106 90.4271 85.9398C90.4413 86.1536 90.4596 86.3279 90.4741 86.4476C90.4813 86.5074 90.4877 86.5534 90.492 86.5837L90.497 86.6171L90.4982 86.6245L90.4983 86.6257C90.4983 86.6256 90.4983 86.6254 89.9998 86.7074C89.5012 86.7894 89.5012 86.7892 89.5012 86.7891L89.5009 86.7874L89.5003 86.7837L89.4984 86.7714L89.4919 86.7278C89.4865 86.6905 89.4792 86.637 89.471 86.5693C89.4546 86.4339 89.4344 86.2412 89.4189 86.0067C89.3879 85.5395 89.3744 84.8983 89.4475 84.2117C89.5896 82.8778 90.0821 81.1772 91.6414 80.4368C92.4099 80.072 93.1404 80.057 93.7791 80.3055C94.4032 80.5482 94.8914 81.0229 95.2384 81.5568C95.5862 82.0919 95.812 82.7159 95.8967 83.3096C95.9799 83.892 95.9356 84.5107 95.663 84.9924L94.7836 84.4947C94.9044 84.2812 94.9626 83.916 94.8964 83.4524C94.8319 83.0001 94.6567 82.516 94.3912 82.1074C94.1249 81.6977 93.7875 81.393 93.4128 81.2472Z" fill="url(#paint1_linear_2929_27418)"/>
        <path d="M67.1699 100.772C73.2967 101.559 78.9471 97.4133 80.4023 94.7121C80.4023 94.7121 78.0826 103.937 68.9355 105.957L67.1699 100.772Z" fill="#FF7F61"/>
        <path d="M59.511 79.9215L69.8201 80.909C71.4455 81.0211 72.4825 82.5625 72.172 84.1492C71.1005 88.5729 68.6364 96.4308 64.771 96.1893C59.3794 95.8551 59.511 79.9215 59.511 79.9215Z" fill="white"/>
        <path fill-rule="evenodd" clip-rule="evenodd" d="M65.7511 73.2665L67.8378 70.2253L68.671 70.797L66.1352 74.4926L65.7581 74.3373L65.7552 74.3361L65.74 74.3302C65.7258 74.3246 65.7035 74.3162 65.6741 74.3055C65.6153 74.2842 65.5288 74.2546 65.4222 74.2227C65.207 74.1584 64.9206 74.0886 64.6219 74.0583C63.987 73.994 63.5392 74.1211 63.342 74.5046C63.2949 74.6336 63.3112 74.8268 63.5144 75.1288C63.721 75.4361 64.0617 75.7599 64.4531 76.0652C64.8387 76.3658 65.2457 76.6272 65.5593 76.8147C65.7153 76.9079 65.8465 76.9819 65.938 77.0322C65.9837 77.0573 66.0195 77.0765 66.0433 77.0891L66.07 77.1032L66.0762 77.1064L66.0774 77.107C66.0773 77.107 66.0774 77.107 65.8463 77.5563C65.6152 78.0056 65.6151 78.0056 65.615 78.0055L65.6139 78.0049L65.6113 78.0036L65.6023 77.9989L65.5697 77.9817C65.5418 77.9669 65.5017 77.9454 65.4514 77.9177C65.3508 77.8625 65.2089 77.7824 65.0408 77.682C64.7062 77.482 64.2613 77.197 63.8317 76.862C63.408 76.5315 62.9703 76.1303 62.6759 75.6928C62.3852 75.2606 62.1716 74.6922 62.4128 74.1065L62.4189 74.0917L62.4259 74.0774C62.9205 73.0632 64.0042 72.9802 64.7237 73.053C65.1064 73.0917 65.4586 73.179 65.7115 73.2545C65.7249 73.2586 65.7381 73.2626 65.7511 73.2665Z" fill="url(#paint2_linear_2929_27418)"/>
        <path d="M60.849 91.5034C61.5928 94.017 62.8496 96.0134 64.6734 96.1643C67.8252 96.3691 69.9637 91.2276 71.3133 86.9612C68.7393 87.4872 64.2854 88.675 60.849 91.5034Z" fill="url(#paint3_linear_2929_27418)"/>
        <path d="M122.516 76.4346C128.926 71.7738 130.343 62.7998 125.682 56.3905C121.022 49.9812 112.047 48.5638 105.638 53.2245C99.2289 57.8853 97.8115 66.8593 102.472 73.2686C107.133 79.6779 116.107 81.0954 122.516 76.4346Z" fill="url(#paint4_linear_2929_27418)"/>
        <path d="M63.3274 68.3096C64.138 67.8505 65.0477 67.4107 65.938 67.0701C65.7591 66.9321 65.5608 66.8933 65.3819 66.7553C65.6233 67.6263 65.9833 68.4175 66.2248 69.2884C66.4252 69.8424 67.3156 69.5018 67.1151 68.9478C66.8736 68.0768 66.5136 67.2857 66.2722 66.4147C66.2118 66.197 65.9337 66.0396 65.716 66.1C64.7265 66.4212 63.7973 66.9601 62.8682 67.499C62.631 67.6586 62.5728 67.9561 62.7518 68.0941C62.8919 68.4304 63.1894 68.4886 63.3274 68.3096Z" fill="#253255"/>
        <path d="M73.8488 72.4273C74.6594 71.9681 75.5692 71.5284 76.4595 71.1877C76.2806 71.0498 76.0823 71.011 75.9034 70.873C76.1448 71.744 76.5048 72.5351 76.7462 73.4061C76.9467 73.9601 77.8371 73.6195 77.6366 73.0655C77.3951 72.1945 77.0351 71.4034 76.7937 70.5324C76.7333 70.3147 76.4552 70.1573 76.2375 70.2176C75.248 70.5388 74.3188 71.0778 73.3897 71.6167C73.1525 71.7762 73.0943 72.0738 73.2732 72.2117C73.4134 72.548 73.7109 72.6063 73.8488 72.4273Z" fill="#253255"/>
    </g>
    <g filter="url(#filter1_d_2929_27418)">
        <path fill-rule="evenodd" clip-rule="evenodd" d="M42.8546 92.3818C42.1054 93.0118 40.9874 92.9151 40.3574 92.1659C39.1591 90.7408 38.2532 89.0935 37.6915 87.3183L39.3812 86.7836L37.6915 87.3183C37.1297 85.543 36.9232 83.6745 37.0836 81.8194C37.2439 79.9643 37.7681 78.159 38.6262 76.5065C39.4843 74.854 40.6595 73.3867 42.0847 72.1884C42.8339 71.5584 43.9519 71.6551 44.5819 72.4043C45.2118 73.1535 45.1152 74.2715 44.3659 74.9015C43.2971 75.8002 42.4157 76.9007 41.7721 78.1401C41.1286 79.3794 40.7354 80.7334 40.6151 82.1248C40.4948 83.5161 40.6497 84.9175 41.071 86.2489C41.4923 87.5803 42.1718 88.8158 43.0705 89.8846C43.7005 90.6338 43.6038 91.7519 42.8546 92.3818Z" fill="#1CB6AC"/>
        <path fill-rule="evenodd" clip-rule="evenodd" d="M38.2149 95.1255C37.4657 95.7554 36.3477 95.6588 35.7178 94.9096C34.1366 93.0291 32.9624 90.8409 32.2607 88.4723C31.5592 86.104 31.3446 83.6045 31.624 81.1175C31.9034 78.6309 32.6711 76.205 33.8791 73.9766C35.087 71.7484 36.7129 69.7585 38.6631 68.1187C39.4123 67.4888 40.5303 67.5854 41.1603 68.3346C41.7902 69.0838 41.6935 70.2019 40.9443 70.8318C39.3317 72.1878 37.99 73.8312 36.9954 75.666C36.0008 77.5007 35.3741 79.4882 35.1466 81.5133C34.9191 83.5381 35.0951 85.5603 35.6595 87.4655C36.2238 89.3705 37.166 91.124 38.4309 92.6283C39.0608 93.3775 38.9642 94.4955 38.2149 95.1255Z" fill="#1CB6AC"/>
        <path fill-rule="evenodd" clip-rule="evenodd" d="M46.9239 88.9609C46.1747 89.5909 45.0567 89.4942 44.4267 88.745C43.6974 87.8776 43.1218 86.8899 42.7346 85.8341C42.3475 84.7783 42.1539 83.6677 42.1757 82.5633C42.1974 81.4583 42.4346 80.3777 42.8876 79.3887C43.3411 78.3986 43.9992 77.5263 44.828 76.8294C45.5772 76.1994 46.6952 76.2961 47.3252 77.0453C47.9552 77.7945 47.8585 78.9125 47.1093 79.5425C46.6911 79.8941 46.3504 80.3407 46.1104 80.8648C45.8699 81.3898 45.7324 81.9889 45.7197 82.633C45.707 83.2778 45.8199 83.9517 46.0627 84.6138C46.3055 85.276 46.6708 85.9059 47.1398 86.4637C47.7698 87.2129 47.6731 88.331 46.9239 88.9609Z" fill="#1CB6AC"/>
    </g>
    <defs>
        <filter id="filter0_d_2929_27418" x="45.4463" y="39.2827" width="86.9814" height="83.6343" filterUnits="userSpaceOnUse" color-interpolation-filters="sRGB">
            <feFlood flood-opacity="0" result="BackgroundImageFix"/>
            <feColorMatrix in="SourceAlpha" type="matrix" values="0 0 0 0 0 0 0 0 0 0 0 0 0 0 0 0 0 0 127 0" result="hardAlpha"/>
            <feOffset dy="2"/>
            <feGaussianBlur stdDeviation="2"/>
            <feComposite in2="hardAlpha" operator="out"/>
            <feColorMatrix type="matrix" values="0 0 0 0 1 0 0 0 0 0 0 0 0 0 0 0 0 0 0.1 0"/>
            <feBlend mode="normal" in2="BackgroundImageFix" result="effect1_dropShadow_2929_27418"/>
            <feBlend mode="normal" in="SourceGraphic" in2="effect1_dropShadow_2929_27418" result="shape"/>
        </filter>
        <filter id="filter1_d_2929_27418" x="27.5049" y="65.7026" width="24.2363" height="35.8389" filterUnits="userSpaceOnUse" color-interpolation-filters="sRGB">
            <feFlood flood-opacity="0" result="BackgroundImageFix"/>
            <feColorMatrix in="SourceAlpha" type="matrix" values="0 0 0 0 0 0 0 0 0 0 0 0 0 0 0 0 0 0 127 0" result="hardAlpha"/>
            <feOffset dy="2"/>
            <feGaussianBlur stdDeviation="2"/>
            <feComposite in2="hardAlpha" operator="out"/>
            <feColorMatrix type="matrix" values="0 0 0 0 1 0 0 0 0 0 0 0 0 0 0 0 0 0 0.1 0"/>
            <feBlend mode="normal" in2="BackgroundImageFix" result="effect1_dropShadow_2929_27418"/>
            <feBlend mode="normal" in="SourceGraphic" in2="effect1_dropShadow_2929_27418" result="shape"/>
        </filter>
        <linearGradient id="paint0_linear_2929_27418" x1="77.8542" y1="44.6826" x2="90.6562" y2="92.6002" gradientUnits="userSpaceOnUse">
            <stop stop-color="#FF9500"/>
            <stop offset="0.510317" stop-color="#FF9500"/>
            <stop offset="0.510417" stop-color="#FF7A00"/>
        </linearGradient>
        <linearGradient id="paint1_linear_2929_27418" x1="90.6262" y1="80.1087" x2="96.9021" y2="83.2731" gradientUnits="userSpaceOnUse">
            <stop stop-color="#FF6847"/>
            <stop offset="1" stop-color="#D84B4B"/>
        </linearGradient>
        <linearGradient id="paint2_linear_2929_27418" x1="63.5611" y1="69.902" x2="69.2401" y2="72.3575" gradientUnits="userSpaceOnUse">
            <stop stop-color="#FF6847"/>
            <stop offset="1" stop-color="#D84B4B"/>
        </linearGradient>
        <linearGradient id="paint3_linear_2929_27418" x1="62.5452" y1="85.9031" x2="71.7318" y2="90.6276" gradientUnits="userSpaceOnUse">
            <stop stop-color="#FF6847"/>
            <stop offset="1" stop-color="#D84B4B"/>
        </linearGradient>
        <linearGradient id="paint4_linear_2929_27418" x1="103.759" y1="55.9772" x2="126.553" y2="66.1596" gradientUnits="userSpaceOnUse">
            <stop stop-color="#FF9500"/>
            <stop offset="0.510317" stop-color="#FF9500"/>
            <stop offset="0.510417" stop-color="#FF7A00"/>
        </linearGradient>
    </defs>
</svg>
