<svg width="64" height="64" viewBox="0 0 64 64" fill="none" xmlns="http://www.w3.org/2000/svg">
    <path d="M64 32C64 56.8358 49.6731 64 32 64C14.3269 64 0 56.8358 0 32C0 9.55224 14.3269 0 32 0C49.6731 0 64 7.16418 64 32Z" fill="#FFF2E6"/>
    <g filter="url(#filter0_d_3120_9180)">
        <path d="M37.3094 40.6225C37.3094 40.6225 41.9349 37.8209 44.1873 32.4133C46.4397 27.0057 43.1518 21.7084 36.7809 20.3795C36.7809 20.3795 33.5852 16.2946 26.5392 16.5222C19.4535 16.7421 19.0041 24.9324 20.4321 27.1063C21.8601 29.2802 23.1984 30.86 23.1984 30.86L25.4232 26.4355L33.5325 24.5626C33.5006 24.5152 32.0406 35.5554 37.3094 40.6225Z" fill="url(#paint0_linear_3120_9180)"/>
        <path d="M40.2285 44.8588C40.2285 44.8588 37.2656 39.5839 36.0153 36.2916C36.0153 36.2916 37.5226 36.5865 38.6324 34.7032C39.4982 33.2252 38.61 31.2393 36.8742 31.2703C36.0024 31.3057 35.2918 31.9903 35.2082 32.8389L35.0702 33.965C35.0702 33.965 32.1987 29.6965 34.6952 23.8836C34.6952 23.8836 30.5672 22.4582 26.9765 24.3915C24.0817 25.9255 23.8877 28.8117 23.8877 28.8117C23.8877 28.8117 22.2829 29.8568 21.7215 32.0945C21.1204 34.3245 20.9927 39.8184 26.8608 40.3487L28.8027 46.0004C28.8027 46.0004 37.7777 48.3331 40.2285 44.8588Z" fill="#FFCECB"/>
        <path fill-rule="evenodd" clip-rule="evenodd" d="M37.3652 32.4989C37.2212 32.4429 37.0447 32.4379 36.83 32.5399C36.4094 32.7396 36.2348 33.2221 36.181 33.7275C36.1549 33.9723 36.1595 34.2043 36.1709 34.376C36.1766 34.4615 36.1839 34.5312 36.1897 34.5791C36.1926 34.603 36.1951 34.6214 36.1969 34.6335L36.1988 34.6469L36.1993 34.6498L36.1994 34.6503C36.1994 34.6502 36.1994 34.6502 36 34.683C35.8005 34.7158 35.8005 34.7157 35.8005 34.7156L35.8004 34.715L35.8002 34.7135L35.7994 34.7086L35.7968 34.6912C35.7947 34.6762 35.7917 34.6548 35.7884 34.6277C35.7819 34.5736 35.7738 34.4965 35.7676 34.4027C35.7552 34.2158 35.7498 33.9593 35.7791 33.6847C35.8359 33.1512 36.0329 32.4709 36.6566 32.1748C36.964 32.0288 37.2562 32.0228 37.5117 32.1222C37.7613 32.2193 37.9566 32.4092 38.0954 32.6227C38.2345 32.8368 38.3248 33.0864 38.3587 33.3239C38.392 33.5568 38.3743 33.8043 38.2652 33.997L37.9135 33.7979C37.9618 33.7125 37.9851 33.5664 37.9586 33.381C37.9328 33.2001 37.8627 33.0064 37.7565 32.843C37.65 32.6791 37.515 32.5572 37.3652 32.4989Z" fill="url(#paint1_linear_3120_9180)"/>
        <path d="M26.8683 40.3087C29.319 40.6235 31.5792 38.9652 32.1613 37.8848C32.1613 37.8848 31.2334 41.5746 27.5745 42.3826L26.8683 40.3087Z" fill="#FF7F61"/>
        <path d="M23.8046 31.9687L27.9282 32.3637C28.5784 32.4085 28.9932 33.0251 28.869 33.6598C28.4404 35.4292 27.4547 38.5724 25.9086 38.4758C23.7519 38.3421 23.8046 31.9687 23.8046 31.9687Z" fill="white"/>
        <path fill-rule="evenodd" clip-rule="evenodd" d="M26.3006 29.3067L27.1353 28.0902L27.4686 28.3189L26.4543 29.7971L26.3034 29.735L26.3023 29.7345L26.2962 29.7321C26.2905 29.7299 26.2816 29.7265 26.2698 29.7223C26.2463 29.7138 26.2117 29.7019 26.1691 29.6892C26.083 29.6634 25.9684 29.6355 25.8489 29.6234C25.595 29.5977 25.4159 29.6485 25.337 29.8019C25.3182 29.8535 25.3247 29.9308 25.4059 30.0516C25.4886 30.1745 25.6249 30.304 25.7814 30.4261C25.9357 30.5464 26.0985 30.651 26.2239 30.7259C26.2863 30.7632 26.3388 30.7928 26.3754 30.8129C26.3937 30.823 26.408 30.8306 26.4175 30.8357L26.4282 30.8413L26.4307 30.8426L26.4312 30.8429C26.4311 30.8429 26.4311 30.8429 26.3387 31.0226C26.2463 31.2023 26.2463 31.2023 26.2462 31.2023L26.2458 31.202L26.2447 31.2015L26.2411 31.1996L26.2281 31.1928C26.2169 31.1868 26.2009 31.1782 26.1808 31.1672C26.1405 31.1451 26.0837 31.113 26.0165 31.0729C25.8827 30.9928 25.7047 30.8789 25.5329 30.7448C25.3634 30.6127 25.1883 30.4522 25.0706 30.2772C24.9543 30.1043 24.8688 29.8769 24.9653 29.6427L24.9677 29.6367L24.9705 29.631C25.1684 29.2253 25.6019 29.1921 25.8897 29.2213C26.0428 29.2368 26.1836 29.2717 26.2848 29.3019C26.2902 29.3035 26.2954 29.3051 26.3006 29.3067Z" fill="url(#paint2_linear_3120_9180)"/>
        <path d="M24.3397 36.6014C24.6372 37.6069 25.1399 38.4054 25.8694 38.4658C27.1302 38.5477 27.9856 36.4911 28.5254 34.7845C27.4958 34.9949 25.7143 35.47 24.3397 36.6014Z" fill="#CF1E1E"/>
        <path d="M49.0068 30.5738C51.5705 28.7094 52.1375 25.1198 50.2732 22.5561C48.4089 19.9924 44.8192 19.4254 42.2555 21.2897C39.6918 23.154 39.1248 26.7436 40.9892 29.3074C42.8535 31.8711 46.4431 32.4381 49.0068 30.5738Z" fill="url(#paint3_linear_3120_9180)"/>
        <path d="M25.3314 27.3238C25.6557 27.1401 26.0196 26.9642 26.3757 26.828C26.3041 26.7728 26.2248 26.7573 26.1532 26.7021C26.2498 27.0505 26.3938 27.3669 26.4904 27.7153C26.5706 27.9369 26.9267 27.8007 26.8465 27.5791C26.7499 27.2307 26.6059 26.9142 26.5094 26.5658C26.4852 26.4787 26.374 26.4158 26.2869 26.4399C25.8911 26.5684 25.5194 26.784 25.1478 26.9996C25.0529 27.0634 25.0296 27.1824 25.1012 27.2376C25.1572 27.3721 25.2762 27.3954 25.3314 27.3238Z" fill="#253255"/>
        <path d="M29.5397 28.971C29.8639 28.7873 30.2278 28.6114 30.584 28.4751C30.5124 28.4199 30.4331 28.4044 30.3615 28.3492C30.4581 28.6976 30.6021 29.0141 30.6986 29.3625C30.7788 29.5841 31.135 29.4478 31.0548 29.2262C30.9582 28.8778 30.8142 28.5614 30.7176 28.213C30.6935 28.1259 30.5822 28.0629 30.4951 28.0871C30.0993 28.2156 29.7277 28.4311 29.356 28.6467C29.2612 28.7105 29.2379 28.8295 29.3094 28.8847C29.3655 29.0192 29.4845 29.0425 29.5397 28.971Z" fill="#253255"/>
    </g>
    <g filter="url(#filter1_d_3120_9180)">
        <path fill-rule="evenodd" clip-rule="evenodd" d="M17.142 36.9528C16.8423 37.2048 16.3951 37.1661 16.1431 36.8664C15.6638 36.2964 15.3014 35.6375 15.0767 34.9274L15.7526 34.7135L15.0767 34.9274C14.852 34.2173 14.7694 33.4699 14.8336 32.7278C14.8977 31.9858 15.1074 31.2637 15.4506 30.6027C15.7939 29.9417 16.2639 29.3548 16.834 28.8754C17.1337 28.6234 17.5809 28.6621 17.8329 28.9618C18.0849 29.2615 18.0462 29.7087 17.7465 29.9607C17.319 30.3202 16.9664 30.7604 16.709 31.2561C16.4516 31.7518 16.2943 32.2934 16.2462 32.85C16.1981 33.4065 16.26 33.9671 16.4286 34.4996C16.5971 35.0322 16.8688 35.5264 17.2283 35.9539C17.4803 36.2536 17.4417 36.7008 17.142 36.9528Z" fill="#253255"/>
        <path fill-rule="evenodd" clip-rule="evenodd" d="M15.2863 38.0501C14.9866 38.3021 14.5394 38.2634 14.2874 37.9637C13.6549 37.2115 13.1852 36.3363 12.9046 35.3888C12.624 34.4415 12.5381 33.4417 12.6499 32.4469C12.7616 31.4523 13.0687 30.4819 13.5519 29.5906C14.0351 28.6993 14.6854 27.9033 15.4655 27.2474C15.7652 26.9954 16.2124 27.0341 16.4644 27.3338C16.7164 27.6334 16.6777 28.0806 16.378 28.3326C15.733 28.875 15.1963 29.5324 14.7985 30.2663C14.4006 31.0002 14.1499 31.7952 14.0589 32.6052C13.9679 33.4152 14.0383 34.224 14.2641 34.9861C14.4898 35.7481 14.8667 36.4495 15.3726 37.0512C15.6246 37.3509 15.586 37.7981 15.2863 38.0501Z" fill="#253255"/>
        <path fill-rule="evenodd" clip-rule="evenodd" d="M18.7697 35.5844C18.47 35.8364 18.0228 35.7977 17.7708 35.498C17.4791 35.1511 17.2488 34.756 17.094 34.3337C16.9391 33.9113 16.8617 33.4671 16.8704 33.0253C16.8791 32.5833 16.9739 32.1511 17.1551 31.7555C17.3365 31.3595 17.5998 31.0105 17.9313 30.7318C18.231 30.4798 18.6782 30.5185 18.9302 30.8181C19.1822 31.1178 19.1435 31.565 18.8438 31.817C18.6765 31.9577 18.5403 32.1363 18.4442 32.3459C18.3481 32.556 18.2931 32.7956 18.288 33.0532C18.2829 33.3111 18.3281 33.5807 18.4252 33.8456C18.5223 34.1104 18.6684 34.3624 18.856 34.5855C19.108 34.8852 19.0694 35.3324 18.7697 35.5844Z" fill="#253255"/>
    </g>
    <defs>
        <filter id="filter0_d_3120_9180" x="15.7786" y="14.5131" width="39.5925" height="38.2537" filterUnits="userSpaceOnUse" color-interpolation-filters="sRGB">
            <feFlood flood-opacity="0" result="BackgroundImageFix"/>
            <feColorMatrix in="SourceAlpha" type="matrix" values="0 0 0 0 0 0 0 0 0 0 0 0 0 0 0 0 0 0 127 0" result="hardAlpha"/>
            <feOffset dy="2"/>
            <feGaussianBlur stdDeviation="2"/>
            <feComposite in2="hardAlpha" operator="out"/>
            <feColorMatrix type="matrix" values="0 0 0 0 1 0 0 0 0 0 0 0 0 0 0 0 0 0 0.1 0"/>
            <feBlend mode="normal" in2="BackgroundImageFix" result="effect1_dropShadow_3120_9180"/>
            <feBlend mode="normal" in="SourceGraphic" in2="effect1_dropShadow_3120_9180" result="shape"/>
        </filter>
        <filter id="filter1_d_3120_9180" x="8.60229" y="25.0811" width="14.4941" height="19.1354" filterUnits="userSpaceOnUse" color-interpolation-filters="sRGB">
            <feFlood flood-opacity="0" result="BackgroundImageFix"/>
            <feColorMatrix in="SourceAlpha" type="matrix" values="0 0 0 0 0 0 0 0 0 0 0 0 0 0 0 0 0 0 127 0" result="hardAlpha"/>
            <feOffset dy="2"/>
            <feGaussianBlur stdDeviation="2"/>
            <feComposite in2="hardAlpha" operator="out"/>
            <feColorMatrix type="matrix" values="0 0 0 0 1 0 0 0 0 0 0 0 0 0 0 0 0 0 0.1 0"/>
            <feBlend mode="normal" in2="BackgroundImageFix" result="effect1_dropShadow_3120_9180"/>
            <feBlend mode="normal" in="SourceGraphic" in2="effect1_dropShadow_3120_9180" result="shape"/>
        </filter>
        <linearGradient id="paint0_linear_3120_9180" x1="31.1419" y1="17.8731" x2="36.2627" y2="37.0401" gradientUnits="userSpaceOnUse">
            <stop stop-color="#FF9500"/>
            <stop offset="0.510317" stop-color="#FF9500"/>
            <stop offset="0.510417" stop-color="#FF7A00"/>
        </linearGradient>
        <linearGradient id="paint1_linear_3120_9180" x1="37.9119" y1="34.4257" x2="35.4255" y2="32.7743" gradientUnits="userSpaceOnUse">
            <stop stop-color="#EF4C36"/>
            <stop offset="1" stop-color="#FF5B52"/>
        </linearGradient>
        <linearGradient id="paint2_linear_3120_9180" x1="26.7694" y1="30.5199" x2="24.4346" y2="29.2293" gradientUnits="userSpaceOnUse">
            <stop stop-color="#EF4C36"/>
            <stop offset="1" stop-color="#FF5B52"/>
        </linearGradient>
        <linearGradient id="paint3_linear_3120_9180" x1="41.5038" y1="22.3908" x2="50.6213" y2="26.4638" gradientUnits="userSpaceOnUse">
            <stop stop-color="#FF9500"/>
            <stop offset="0.510317" stop-color="#FF9500"/>
            <stop offset="0.510417" stop-color="#FF7A00"/>
        </linearGradient>
    </defs>
</svg>
