<svg width="160" height="160" viewBox="0 0 160 160" fill="none" xmlns="http://www.w3.org/2000/svg">
    <path d="M160 80C160 142.09 124.183 160 80 160C35.8172 160 0 142.09 0 80C0 23.8806 35.8172 0 80 0C124.183 0 160 17.9104 160 80Z" fill="#FFF2E6"/>
    <mask id="path-2-inside-1_2929_27387" fill="white">
        <path fill-rule="evenodd" clip-rule="evenodd" d="M31.5924 69.9896C30.7129 63.4208 35.3251 57.3828 41.8939 56.5033L59.9006 54.0926C66.4694 53.2131 72.5074 57.8253 73.3869 64.3941L76.9167 90.7597C77.7962 97.3285 73.184 103.367 66.6152 104.246L48.6085 106.657C42.0397 107.536 36.0017 102.924 35.1222 96.3552L31.5924 69.9896ZM40.3175 71.6077C40.0084 69.2994 41.6291 67.1777 43.9374 66.8687L60.6552 64.6305C62.9634 64.3214 65.0851 65.9421 65.3942 68.2504C65.7032 70.5586 64.0825 72.6803 61.7743 72.9894L45.0565 75.2276C42.7482 75.5366 40.6265 73.9159 40.3175 71.6077ZM45.8963 81.4951C43.5881 81.8041 41.9674 83.9258 42.2764 86.2341C42.5854 88.5423 44.7072 90.163 47.0154 89.854L63.7332 87.6158C66.0415 87.3067 67.6621 85.185 67.3531 82.8768C67.0441 80.5685 64.9224 78.9478 62.6141 79.2569L45.8963 81.4951Z"/>
    </mask>
    <path fill-rule="evenodd" clip-rule="evenodd" d="M31.5924 69.9896C30.7129 63.4208 35.3251 57.3828 41.8939 56.5033L59.9006 54.0926C66.4694 53.2131 72.5074 57.8253 73.3869 64.3941L76.9167 90.7597C77.7962 97.3285 73.184 103.367 66.6152 104.246L48.6085 106.657C42.0397 107.536 36.0017 102.924 35.1222 96.3552L31.5924 69.9896ZM40.3175 71.6077C40.0084 69.2994 41.6291 67.1777 43.9374 66.8687L60.6552 64.6305C62.9634 64.3214 65.0851 65.9421 65.3942 68.2504C65.7032 70.5586 64.0825 72.6803 61.7743 72.9894L45.0565 75.2276C42.7482 75.5366 40.6265 73.9159 40.3175 71.6077ZM45.8963 81.4951C43.5881 81.8041 41.9674 83.9258 42.2764 86.2341C42.5854 88.5423 44.7072 90.163 47.0154 89.854L63.7332 87.6158C66.0415 87.3067 67.6621 85.185 67.3531 82.8768C67.0441 80.5685 64.9224 78.9478 62.6141 79.2569L45.8963 81.4951Z" fill="#253255"/>
    <path d="M31.5924 69.9896L32.0879 69.9232L31.5924 69.9896ZM73.3869 64.3941L73.8824 64.3277L73.3869 64.3941ZM76.9167 90.7597L76.4212 90.8261L76.9167 90.7597ZM35.1222 96.3552L34.6267 96.4216L35.1222 96.3552ZM60.6552 64.6305L60.5888 64.1349L60.5888 64.1349L60.6552 64.6305ZM61.7743 72.9894L61.8406 73.4849L61.7743 72.9894ZM45.0565 75.2276L44.9901 74.732L45.0565 75.2276ZM45.8963 81.4951L45.9627 81.9906L45.9627 81.9906L45.8963 81.4951ZM62.6141 79.2569L62.5478 78.7613L62.5478 78.7613L62.6141 79.2569ZM41.8275 56.0078C34.985 56.9238 30.1807 63.2134 31.0968 70.0559L32.0879 69.9232C31.2452 63.6281 35.6651 57.8417 41.9602 56.9989L41.8275 56.0078ZM59.8343 53.597L41.8275 56.0078L41.9602 56.9989L59.967 54.5881L59.8343 53.597ZM73.8824 64.3277C72.9664 57.4852 66.6768 52.6809 59.8343 53.597L59.967 54.5881C66.2621 53.7453 72.0485 58.1653 72.8913 64.4604L73.8824 64.3277ZM77.4123 90.6934L73.8824 64.3277L72.8913 64.4604L76.4212 90.8261L77.4123 90.6934ZM66.6816 104.742C73.5241 103.825 78.3284 97.5359 77.4123 90.6934L76.4212 90.8261C77.264 97.1212 72.844 102.908 66.5489 103.75L66.6816 104.742ZM48.6749 107.152L66.6816 104.742L66.5489 103.75L48.5422 106.161L48.6749 107.152ZM34.6267 96.4216C35.5427 103.264 41.8323 108.068 48.6749 107.152L48.5422 106.161C42.247 107.004 36.4606 102.584 35.6178 96.2889L34.6267 96.4216ZM31.0968 70.0559L34.6267 96.4216L35.6178 96.2889L32.0879 69.9232L31.0968 70.0559ZM43.871 66.3731C41.2891 66.7188 39.4762 69.0921 39.8219 71.674L40.8131 71.5413C40.5407 69.5068 41.9692 67.6366 44.0037 67.3643L43.871 66.3731ZM60.5888 64.1349L43.871 66.3731L44.0037 67.3643L60.7215 65.1261L60.5888 64.1349ZM65.8898 68.184C65.5441 65.6021 63.1708 63.7892 60.5888 64.1349L60.7215 65.1261C62.7561 64.8537 64.6262 66.2822 64.8986 68.3167L65.8898 68.184ZM61.8406 73.4849C64.4226 73.1393 66.2354 70.766 65.8898 68.184L64.8986 68.3167C65.171 70.3513 63.7425 72.2214 61.7079 72.4938L61.8406 73.4849ZM45.1228 75.7232L61.8406 73.4849L61.7079 72.4938L44.9901 74.732L45.1228 75.7232ZM39.8219 71.674C40.1676 74.256 42.5409 76.0688 45.1228 75.7232L44.9901 74.732C42.9556 75.0044 41.0854 73.5759 40.8131 71.5413L39.8219 71.674ZM42.772 86.1677C42.4996 84.1332 43.9281 82.263 45.9627 81.9906L45.83 80.9995C43.248 81.3452 41.4352 83.7185 41.7808 86.3004L42.772 86.1677ZM46.9491 89.3584C44.9145 89.6308 43.0444 88.2023 42.772 86.1677L41.7808 86.3004C42.1265 88.8824 44.4998 90.6952 47.0818 90.3495L46.9491 89.3584ZM63.6669 87.1202L46.9491 89.3584L47.0818 90.3495L63.7996 88.1113L63.6669 87.1202ZM66.8575 82.9431C67.1299 84.9777 65.7014 86.8478 63.6669 87.1202L63.7996 88.1113C66.3815 87.7657 68.1944 85.3924 67.8487 82.8104L66.8575 82.9431ZM62.6805 79.7524C64.715 79.48 66.5851 80.9086 66.8575 82.9431L67.8487 82.8104C67.503 80.2285 65.1297 78.4156 62.5478 78.7613L62.6805 79.7524ZM45.9627 81.9906L62.6805 79.7524L62.5478 78.7613L45.83 80.9995L45.9627 81.9906Z" fill="url(#paint0_linear_2929_27387)" fill-opacity="0.5" mask="url(#path-2-inside-1_2929_27387)"/>
    <g filter="url(#filter0_d_2929_27387)">
        <path fill-rule="evenodd" clip-rule="evenodd" d="M86.3942 81.3137C87.0076 74.7148 92.8544 69.8625 99.4534 70.476L117.543 72.1575C124.142 72.771 128.994 78.6178 128.381 85.2168L125.918 111.703C125.305 118.302 119.458 123.155 112.859 122.541L94.7697 120.86C88.1708 120.246 83.3185 114.399 83.932 107.8L86.3942 81.3137ZM94.5381 84.8396C94.7536 82.5207 96.8082 80.8157 99.127 81.0312L115.922 82.5925C118.24 82.808 119.945 84.8626 119.73 87.1814C119.514 89.5002 117.46 91.2053 115.141 90.9897L98.3464 89.4285C96.0276 89.213 94.3225 87.1584 94.5381 84.8396ZM97.7589 95.7259C95.4401 95.5103 93.3855 97.2154 93.17 99.5342C92.9544 101.853 94.6595 103.908 96.9783 104.123L113.773 105.684C116.092 105.9 118.146 104.195 118.362 101.876C118.577 99.5572 116.872 97.5027 114.553 97.2871L97.7589 95.7259Z" fill="url(#paint1_linear_2929_27387)"/>
    </g>
    <g filter="url(#filter1_d_2929_27387)">
        <rect x="126.682" y="60.2144" width="5" height="10" rx="2.5" transform="rotate(19.4051 126.682 60.2144)" fill="#2C1167"/>
        <rect x="134.429" y="66.3059" width="5" height="10" rx="2.5" transform="rotate(49.4051 134.429 66.3059)" fill="#2C1167"/>
        <rect x="141.596" y="73.7739" width="5" height="9.99999" rx="2.5" transform="rotate(79.4051 141.596 73.7739)" fill="#2C1167"/>
    </g>
    <g filter="url(#filter2_d_2929_27387)">
        <rect x="18.082" y="60.5073" width="5" height="10" rx="2.5" transform="rotate(-77.4315 18.082 60.5073)" fill="#FF7B01"/>
        <rect x="23.208" y="52.0911" width="5" height="10" rx="2.5" transform="rotate(-47.4315 23.208 52.0911)" fill="#FF7B01"/>
        <rect x="29.7695" y="44.0859" width="5" height="10" rx="2.5" transform="rotate(-17.4315 29.7695 44.0859)" fill="#FF7B01"/>
    </g>
    <defs>
        <filter id="filter0_d_2929_27387" x="79.8799" y="68.4236" width="52.5527" height="60.1699" filterUnits="userSpaceOnUse" color-interpolation-filters="sRGB">
            <feFlood flood-opacity="0" result="BackgroundImageFix"/>
            <feColorMatrix in="SourceAlpha" type="matrix" values="0 0 0 0 0 0 0 0 0 0 0 0 0 0 0 0 0 0 127 0" result="hardAlpha"/>
            <feOffset dy="2"/>
            <feGaussianBlur stdDeviation="2"/>
            <feComposite in2="hardAlpha" operator="out"/>
            <feColorMatrix type="matrix" values="0 0 0 0 1 0 0 0 0 0 0 0 0 0 0 0 0 0 0.1 0"/>
            <feBlend mode="normal" in2="BackgroundImageFix" result="effect1_dropShadow_2929_27387"/>
            <feBlend mode="normal" in="SourceGraphic" in2="effect1_dropShadow_2929_27387" result="shape"/>
        </filter>
        <filter id="filter1_d_2929_27387" x="120.047" y="58.9023" width="26.0518" height="27.2085" filterUnits="userSpaceOnUse" color-interpolation-filters="sRGB">
            <feFlood flood-opacity="0" result="BackgroundImageFix"/>
            <feColorMatrix in="SourceAlpha" type="matrix" values="0 0 0 0 0 0 0 0 0 0 0 0 0 0 0 0 0 0 127 0" result="hardAlpha"/>
            <feOffset dy="2"/>
            <feGaussianBlur stdDeviation="2"/>
            <feComposite in2="hardAlpha" operator="out"/>
            <feColorMatrix type="matrix" values="0 0 0 0 1 0 0 0 0 0 0 0 0 0 0 0 0 0 0.1 0"/>
            <feBlend mode="normal" in2="BackgroundImageFix" result="effect1_dropShadow_2929_27387"/>
            <feBlend mode="normal" in="SourceGraphic" in2="effect1_dropShadow_2929_27387" result="shape"/>
        </filter>
        <filter id="filter2_d_2929_27387" x="14.5654" y="41.2214" width="26.3369" height="26.9783" filterUnits="userSpaceOnUse" color-interpolation-filters="sRGB">
            <feFlood flood-opacity="0" result="BackgroundImageFix"/>
            <feColorMatrix in="SourceAlpha" type="matrix" values="0 0 0 0 0 0 0 0 0 0 0 0 0 0 0 0 0 0 127 0" result="hardAlpha"/>
            <feOffset dy="2"/>
            <feGaussianBlur stdDeviation="2"/>
            <feComposite in2="hardAlpha" operator="out"/>
            <feColorMatrix type="matrix" values="0 0 0 0 1 0 0 0 0 0 0 0 0 0 0 0 0 0 0.1 0"/>
            <feBlend mode="normal" in2="BackgroundImageFix" result="effect1_dropShadow_2929_27387"/>
            <feBlend mode="normal" in="SourceGraphic" in2="effect1_dropShadow_2929_27387" result="shape"/>
        </filter>
        <linearGradient id="paint0_linear_2929_27387" x1="12.6569" y1="83.5273" x2="63.3665" y2="118.109" gradientUnits="userSpaceOnUse">
            <stop stop-color="#BFAAFF"/>
            <stop offset="1" stop-color="#8055FF"/>
        </linearGradient>
        <linearGradient id="paint1_linear_2929_27387" x1="146.882" y1="105.838" x2="130.114" y2="62.8795" gradientUnits="userSpaceOnUse">
            <stop stop-color="#1CB6AC"/>
            <stop offset="0.448142" stop-color="#1CB6AC"/>
            <stop offset="0.453125" stop-color="#20C2A8"/>
            <stop offset="1" stop-color="#24D0A3"/>
        </linearGradient>
    </defs>
</svg>
