<svg width="113" height="113" viewBox="0 0 113 113" fill="none" xmlns="http://www.w3.org/2000/svg">
<rect x="0.5" y="0.5" width="112" height="112" rx="24" fill="#F9F7FF"/>
<g clip-path="url(#clip0_1098_8171)">
<path d="M79.9667 35.948C79.458 35.4946 78.7951 35.2531 78.1139 35.2731C77.4328 35.2931 76.7851 35.5732 76.304 36.0557C75.8228 36.5382 75.5446 37.1866 75.5265 37.8678C75.5084 38.549 75.7518 39.2113 76.2067 39.7187C80.65 44.1733 83.1452 50.2083 83.1452 56.5C83.1452 62.7918 80.65 68.8267 76.2067 73.2813C75.9359 73.5227 75.7172 73.8168 75.564 74.1456C75.4108 74.4744 75.3263 74.831 75.3156 75.1936C75.3049 75.5562 75.3684 75.9171 75.502 76.2544C75.6357 76.5916 75.8367 76.898 76.0928 77.1549C76.349 77.4118 76.6548 77.6137 76.9917 77.7483C77.3285 77.8829 77.6893 77.9473 78.0519 77.9377C78.4145 77.928 78.7714 77.8445 79.1006 77.6922C79.4298 77.54 79.7246 77.3221 79.9667 77.052C85.4098 71.5973 88.4668 64.206 88.4668 56.5C88.4668 48.794 85.4098 41.4028 79.9667 35.948Z" fill="#2C1167"/>
<path d="M72.7478 43.9479C72.5018 43.6932 72.2076 43.49 71.8823 43.3503C71.5569 43.2105 71.207 43.137 70.8529 43.1339C70.4988 43.1308 70.1477 43.1983 69.82 43.3324C69.4923 43.4664 69.1945 43.6645 68.9441 43.9148C68.6938 44.1652 68.4957 44.463 68.3617 44.7907C68.2276 45.1184 68.1601 45.4695 68.1632 45.8236C68.1663 46.1777 68.2398 46.5276 68.3796 46.853C68.5193 47.1783 68.7225 47.4726 68.9772 47.7186C71.3016 50.0499 72.6068 53.2078 72.6068 56.4999C72.6068 59.792 71.3016 62.9499 68.9772 65.2812C68.7225 65.5272 68.5193 65.8215 68.3796 66.1468C68.2398 66.4722 68.1663 66.8221 68.1632 67.1762C68.1601 67.5302 68.2276 67.8814 68.3617 68.2091C68.4957 68.5368 68.6938 68.8346 68.9441 69.0849C69.1945 69.3353 69.4923 69.5333 69.82 69.6674C70.1477 69.8015 70.4988 69.869 70.8529 69.8659C71.207 69.8628 71.5569 69.7893 71.8823 69.6495C72.2076 69.5097 72.5018 69.3066 72.7478 69.0519C76.0714 65.72 77.9379 61.206 77.9379 56.4999C77.9379 51.7938 76.0714 47.2798 72.7478 43.9479Z" fill="#2C1167"/>
<path d="M61.3506 25.0519C53.2481 26.5727 46.0394 31.1484 41.2147 37.8332H37.8333C34.2984 37.8374 30.9095 39.2435 28.4099 41.7431C25.9104 44.2427 24.5042 47.6316 24.5 51.1665L24.5 61.8332C24.5042 65.3681 25.9104 68.757 28.4099 71.2566C30.9095 73.7562 34.2984 75.1623 37.8333 75.1665H41.2173C46.0407 81.8516 53.2486 86.4274 61.3506 87.9479C61.7352 88.0186 62.1305 88.004 62.5087 87.905C62.887 87.8059 63.2388 87.6249 63.5393 87.3748C63.8398 87.1247 64.0816 86.8116 64.2476 86.4576C64.4136 86.1036 64.4998 85.7175 64.5 85.3265V27.6732C64.4998 27.2822 64.4136 26.8961 64.2476 26.5421C64.0816 26.1881 63.8398 25.875 63.5393 25.6249C63.2388 25.3748 62.887 25.1938 62.5087 25.0948C62.1305 24.9957 61.7352 24.9811 61.3506 25.0519Z" fill="#2C1167"/>
</g>
<defs>
<clipPath id="clip0_1098_8171">
<rect width="64" height="64" fill="white" transform="translate(24.5 24.5)"/>
</clipPath>
</defs>
</svg>
