<svg width="32" height="32" viewBox="0 0 32 32" fill="none" xmlns="http://www.w3.org/2000/svg">
    <rect width="32" height="32" rx="12" fill="#F2F4F9"/>
    <g clip-path="url(#clip0_2921_24273)">
        <path d="M21.8662 10.8619C21.739 10.7485 21.5733 10.6882 21.403 10.6932C21.2327 10.6982 21.0708 10.7682 20.9505 10.8888C20.8302 11.0094 20.7607 11.1715 20.7561 11.3418C20.7516 11.5121 20.8125 11.6777 20.9262 11.8046C22.037 12.9182 22.6608 14.4269 22.6608 15.9999C22.6608 17.5728 22.037 19.0816 20.9262 20.1952C20.8585 20.2556 20.8038 20.3291 20.7655 20.4113C20.7272 20.4935 20.7061 20.5826 20.7034 20.6733C20.7007 20.7639 20.7166 20.8542 20.75 20.9385C20.7834 21.0228 20.8337 21.0994 20.8977 21.1636C20.9618 21.2278 21.0382 21.2783 21.1224 21.3119C21.2066 21.3456 21.2968 21.3617 21.3875 21.3593C21.4781 21.3569 21.5674 21.336 21.6497 21.2979C21.732 21.2599 21.8056 21.2054 21.8662 21.1379C23.227 19.7742 23.9912 17.9264 23.9912 15.9999C23.9912 14.0734 23.227 12.2256 21.8662 10.8619Z" fill="#253255"/>
        <path d="M20.0622 12.8622C20.0007 12.7985 19.9271 12.7478 19.8458 12.7128C19.7645 12.6779 19.677 12.6595 19.5885 12.6587C19.5 12.6579 19.4122 12.6748 19.3302 12.7083C19.2483 12.7419 19.1739 12.7914 19.1113 12.854C19.0487 12.9165 18.9992 12.991 18.9657 13.0729C18.9321 13.1548 18.9153 13.2426 18.916 13.3312C18.9168 13.4197 18.9352 13.5072 18.9701 13.5885C19.0051 13.6698 19.0559 13.7434 19.1195 13.8049C19.7006 14.3877 20.0269 15.1772 20.0269 16.0002C20.0269 16.8232 19.7006 17.6127 19.1195 18.1956C19.0559 18.257 19.0051 18.3306 18.9701 18.4119C18.9352 18.4933 18.9168 18.5808 18.916 18.6693C18.9153 18.7578 18.9321 18.8456 18.9657 18.9275C18.9992 19.0094 19.0487 19.0839 19.1113 19.1465C19.1739 19.2091 19.2483 19.2586 19.3302 19.2921C19.4122 19.3256 19.5 19.3425 19.5885 19.3417C19.677 19.3409 19.7645 19.3226 19.8458 19.2876C19.9271 19.2527 20.0007 19.2019 20.0622 19.1382C20.8931 18.3053 21.3597 17.1767 21.3597 16.0002C21.3597 14.8237 20.8931 13.6952 20.0622 12.8622Z" fill="#253255"/>
        <path d="M17.2127 8.13796C15.187 8.51818 13.3849 9.6621 12.1787 11.3333H11.3333C10.4496 11.3344 9.60237 11.6859 8.97748 12.3108C8.35259 12.9357 8.00106 13.7829 8 14.6666L8 17.3333C8.00106 18.217 8.35259 19.0643 8.97748 19.6892C9.60237 20.314 10.4496 20.6656 11.3333 20.6666H12.1793C13.3852 22.3379 15.1872 23.4818 17.2127 23.862C17.3088 23.8797 17.4076 23.876 17.5022 23.8512C17.5967 23.8265 17.6847 23.7812 17.7598 23.7187C17.8349 23.6562 17.8954 23.5779 17.9369 23.4894C17.9784 23.4009 17.9999 23.3044 18 23.2066V8.7933C17.9999 8.69556 17.9784 8.59902 17.9369 8.51053C17.8954 8.42204 17.8349 8.34375 17.7598 8.28122C17.6847 8.21869 17.5967 8.17345 17.5022 8.14869C17.4076 8.12394 17.3088 8.12027 17.2127 8.13796Z" fill="#253255"/>
    </g>
    <defs>
        <clipPath id="clip0_2921_24273">
            <rect width="16" height="16" fill="white" transform="translate(8 8)"/>
        </clipPath>
    </defs>
</svg>
