<svg width="24" height="25" viewBox="0 0 24 25" fill="none" xmlns="http://www.w3.org/2000/svg">
    <g clip-path="url(#clip0_488_3309)">
        <path d="M20.8 4.79258C20.6093 4.62255 20.3606 4.53199 20.1052 4.53949C19.8498 4.547 19.6069 4.65201 19.4265 4.83296C19.2461 5.01391 19.1417 5.25706 19.135 5.51251C19.1282 5.76796 19.2194 6.01631 19.39 6.20658C21.0562 7.87706 21.992 10.1402 21.992 12.4996C21.992 14.859 21.0562 17.1221 19.39 18.7926C19.2885 18.8831 19.2065 18.9934 19.149 19.1167C19.0915 19.24 19.0598 19.3737 19.0559 19.5097C19.0519 19.6456 19.0756 19.781 19.1258 19.9075C19.1759 20.0339 19.2513 20.1488 19.3473 20.2452C19.4434 20.3415 19.5581 20.4172 19.6844 20.4677C19.8107 20.5181 19.946 20.5423 20.082 20.5387C20.218 20.5351 20.3518 20.5038 20.4752 20.4467C20.5987 20.3896 20.7092 20.3079 20.8 20.2066C22.8412 18.161 23.9875 15.3893 23.9875 12.4996C23.9875 9.60984 22.8412 6.83812 20.8 4.79258Z" fill="url(#paint0_linear_488_3309)"/>
        <path d="M18.0929 7.79357C18.0007 7.69806 17.8903 7.62188 17.7683 7.56947C17.6463 7.51706 17.5151 7.48947 17.3823 7.48832C17.2496 7.48717 17.1179 7.51247 16.995 7.56275C16.8721 7.61303 16.7604 7.68728 16.6666 7.78117C16.5727 7.87507 16.4984 7.98672 16.4481 8.10962C16.3978 8.23251 16.3725 8.36419 16.3737 8.49697C16.3748 8.62975 16.4024 8.76097 16.4548 8.88297C16.5073 9.00498 16.5834 9.11532 16.6789 9.20757C17.5506 10.0818 18.0401 11.266 18.0401 12.5006C18.0401 13.7351 17.5506 14.9193 16.6789 15.7936C16.5834 15.8858 16.5073 15.9962 16.4548 16.1182C16.4024 16.2402 16.3748 16.3714 16.3737 16.5042C16.3725 16.6369 16.3978 16.7686 16.4481 16.8915C16.4984 17.0144 16.5727 17.1261 16.6666 17.22C16.7604 17.3139 16.8721 17.3881 16.995 17.4384C17.1179 17.4887 17.2496 17.514 17.3823 17.5128C17.5151 17.5117 17.6463 17.4841 17.7683 17.4317C17.8903 17.3793 18.0007 17.3031 18.0929 17.2076C19.3393 15.9581 20.0392 14.2654 20.0392 12.5006C20.0392 10.7358 19.3393 9.04302 18.0929 7.79357Z" fill="url(#paint1_linear_488_3309)"/>
        <path d="M13.819 0.707923C10.7805 1.27825 8.07729 2.99412 6.268 5.50092H5C3.6744 5.50251 2.40356 6.02981 1.46622 6.96714C0.528882 7.90448 0.00158786 9.17533 0 10.5009L0 14.5009C0.00158786 15.8265 0.528882 17.0974 1.46622 18.0347C2.40356 18.972 3.6744 19.4993 5 19.5009H6.269C8.07777 22.0078 10.7807 23.7237 13.819 24.2939C13.9632 24.3205 14.1114 24.315 14.2533 24.2778C14.3951 24.2407 14.527 24.1728 14.6397 24.079C14.7524 23.9852 14.8431 23.8678 14.9054 23.7351C14.9676 23.6023 14.9999 23.4575 15 23.3109V1.69092C14.9999 1.54431 14.9676 1.39951 14.9054 1.26677C14.8431 1.13403 14.7524 1.01661 14.6397 0.922812C14.527 0.829018 14.3951 0.76115 14.2533 0.724015C14.1114 0.68688 13.9632 0.681386 13.819 0.707923Z" fill="url(#paint2_linear_488_3309)"/>
    </g>
    <defs>
        <linearGradient id="paint0_linear_488_3309" x1="25.926" y1="30.2057" x2="15.7237" y2="29.9929" gradientUnits="userSpaceOnUse">
            <stop stop-color="#2C1167"/>
            <stop offset="1" stop-color="#620AD2"/>
        </linearGradient>
        <linearGradient id="paint1_linear_488_3309" x1="21.4799" y1="23.5694" x2="13.8989" y2="23.3818" gradientUnits="userSpaceOnUse">
            <stop stop-color="#2C1167"/>
            <stop offset="1" stop-color="#620AD2"/>
        </linearGradient>
        <linearGradient id="paint2_linear_488_3309" x1="20.8953" y1="38.5802" x2="-10.089" y2="37.2488" gradientUnits="userSpaceOnUse">
            <stop stop-color="#2C1167"/>
            <stop offset="1" stop-color="#620AD2"/>
        </linearGradient>
        <clipPath id="clip0_488_3309">
            <rect width="24" height="24" fill="white" transform="translate(0 0.5)"/>
        </clipPath>
    </defs>
</svg>
