<svg width="24" height="25" viewBox="0 0 24 25" fill="none" xmlns="http://www.w3.org/2000/svg">
    <g clip-path="url(#clip0_4201_5124)">
        <path d="M20.8 4.793C20.6093 4.62296 20.3606 4.5324 20.1052 4.53991C19.8498 4.54741 19.6069 4.65242 19.4265 4.83337C19.2461 5.01432 19.1417 5.25748 19.135 5.51292C19.1282 5.76837 19.2194 6.01672 19.39 6.207C21.0562 7.87747 21.992 10.1406 21.992 12.5C21.992 14.8594 21.0562 17.1225 19.39 18.793C19.2885 18.8835 19.2065 18.9938 19.149 19.1171C19.0915 19.2404 19.0598 19.3741 19.0559 19.5101C19.0519 19.6461 19.0756 19.7814 19.1258 19.9079C19.1759 20.0343 19.2513 20.1492 19.3473 20.2456C19.4434 20.3419 19.5581 20.4176 19.6844 20.4681C19.8107 20.5186 19.946 20.5427 20.082 20.5391C20.218 20.5355 20.3518 20.5042 20.4752 20.4471C20.5987 20.39 20.7092 20.3083 20.8 20.207C22.8412 18.1615 23.9875 15.3897 23.9875 12.5C23.9875 9.61025 22.8412 6.83853 20.8 4.793Z" fill="#253255"/>
        <path d="M18.0931 7.793C18.0008 7.69749 17.8905 7.6213 17.7685 7.5689C17.6465 7.51649 17.5152 7.4889 17.3825 7.48775C17.2497 7.48659 17.118 7.51189 16.9951 7.56218C16.8722 7.61246 16.7606 7.68671 16.6667 7.7806C16.5728 7.87449 16.4985 7.98615 16.4482 8.10904C16.398 8.23194 16.3727 8.36362 16.3738 8.4964C16.375 8.62918 16.4026 8.7604 16.455 8.8824C16.5074 9.00441 16.5836 9.11475 16.6791 9.207C17.5507 10.0813 18.0402 11.2654 18.0402 12.5C18.0402 13.7345 17.5507 14.9187 16.6791 15.793C16.5836 15.8852 16.5074 15.9956 16.455 16.1176C16.4026 16.2396 16.375 16.3708 16.3738 16.5036C16.3727 16.6364 16.398 16.7681 16.4482 16.891C16.4985 17.0138 16.5728 17.1255 16.6667 17.2194C16.7606 17.3133 16.8722 17.3875 16.9951 17.4378C17.118 17.4881 17.2497 17.5134 17.3825 17.5122C17.5152 17.5111 17.6465 17.4835 17.7685 17.4311C17.8905 17.3787 18.0008 17.3025 18.0931 17.207C19.3394 15.9575 20.0393 14.2648 20.0393 12.5C20.0393 10.7352 19.3394 9.04245 18.0931 7.793Z" fill="#253255"/>
        <path d="M13.819 0.707C10.7805 1.27733 8.07729 2.9932 6.268 5.5H5C3.6744 5.50159 2.40356 6.02888 1.46622 6.96622C0.528882 7.90356 0.00158786 9.17441 0 10.5L0 14.5C0.00158786 15.8256 0.528882 17.0964 1.46622 18.0338C2.40356 18.9711 3.6744 19.4984 5 19.5H6.269C8.07777 22.0069 10.7807 23.7228 13.819 24.293C13.9632 24.3195 14.1114 24.314 14.2533 24.2769C14.3951 24.2398 14.527 24.1719 14.6397 24.0781C14.7524 23.9843 14.8431 23.8669 14.9054 23.7342C14.9676 23.6014 14.9999 23.4566 15 23.31V1.69C14.9999 1.54339 14.9676 1.39858 14.9054 1.26585C14.8431 1.13311 14.7524 1.01568 14.6397 0.921889C14.527 0.828095 14.3951 0.760227 14.2533 0.723092C14.1114 0.685957 13.9632 0.680463 13.819 0.707Z" fill="#253255"/>
    </g>
    <defs>
        <clipPath id="clip0_4201_5124">
            <rect width="24" height="24" fill="white" transform="translate(0 0.5)"/>
        </clipPath>
    </defs>
</svg>
