<svg width="24" height="24" viewBox="0 0 24 24" fill="#404040" xmlns="http://www.w3.org/2000/svg">
    <g clip-path="url(#clip0_179_4215)">
        <path fill-rule="evenodd" clip-rule="evenodd" d="M4.92898 4.92893C4.14793 5.70998 4.14793 6.97631 4.92898 7.75736L9.17162 12L4.92898 16.2426C4.14793 17.0237 4.14793 18.29 4.92898 19.0711C5.71003 19.8521 6.97636 19.8521 7.7574 19.0711L12 14.8284L16.2427 19.0711C17.0237 19.8521 18.2901 19.8521 19.0711 19.0711C19.8522 18.29 19.8522 17.0237 19.0711 16.2426L14.8285 12L19.0711 7.75736C19.8522 6.97631 19.8522 5.70998 19.0711 4.92893C18.2901 4.14788 17.0237 4.14788 16.2427 4.92893L12 9.17157L7.7574 4.92893C6.97636 4.14788 5.71003 4.14788 4.92898 4.92893Z"/>
    </g>
    <defs>
        <clipPath id="clip0_179_4215">
            <rect width="24" height="24"/>
        </clipPath>
    </defs>
</svg>
