<svg width="24" height="24" viewBox="0 0 24 24" fill="none" xmlns="http://www.w3.org/2000/svg">
  <g clip-path="url(#clip0_4958_32011)">
    <path d="M19.3322 14.668C18.5761 14.6686 17.8315 14.8532 17.1627 15.2058C16.4939 15.5584 15.9209 16.0685 15.4932 16.692L8.9842 13.753C9.44651 12.6366 9.4483 11.3827 8.9892 10.265L15.4892 7.31098C16.1231 8.22774 17.0645 8.88695 18.1428 9.16903C19.2211 9.45111 20.3647 9.33739 21.3663 8.84849C22.3679 8.35958 23.1611 7.52788 23.602 6.50425C24.043 5.48062 24.1024 4.33285 23.7696 3.26916C23.4367 2.20546 22.7337 1.29628 21.7879 0.706535C20.8422 0.116794 19.7164 -0.114448 18.6147 0.054756C17.5131 0.22396 16.5086 0.782401 15.7834 1.62878C15.0583 2.47517 14.6605 3.55343 14.6622 4.66798C14.6664 4.93178 14.6932 5.19474 14.7422 5.45398L7.8322 8.59398C7.16854 7.9722 6.3377 7.55782 5.44177 7.40175C4.54584 7.24567 3.62383 7.3547 2.78901 7.71544C1.95419 8.07618 1.24292 8.67292 0.742596 9.43235C0.242267 10.1918 -0.0253343 11.0808 -0.0273325 11.9902C-0.0293306 12.8997 0.234361 13.7899 0.731348 14.5515C1.22834 15.3131 1.93697 15.913 2.7702 16.2774C3.60342 16.6418 4.52495 16.7548 5.42156 16.6027C6.31817 16.4506 7.15081 16.0398 7.8172 15.421L14.7452 18.549C14.6971 18.808 14.6706 19.0706 14.6662 19.334C14.666 20.2571 14.9396 21.1596 15.4523 21.9272C15.965 22.6949 16.6939 23.2932 17.5467 23.6465C18.3996 23.9999 19.338 24.0924 20.2434 23.9124C21.1488 23.7323 21.9805 23.2878 22.6333 22.6351C23.286 21.9823 23.7305 21.1506 23.9106 20.2452C24.0906 19.3398 23.9981 18.4014 23.6447 17.5485C23.2914 16.6957 22.693 15.9668 21.9254 15.4541C21.1578 14.9414 20.2553 14.6678 19.3322 14.668V14.668ZM19.3322 2.00098C19.8597 2.00078 20.3755 2.15703 20.8142 2.44997C21.2529 2.7429 21.5949 3.15936 21.7969 3.64667C21.9989 4.13399 22.0519 4.67026 21.9491 5.18768C21.8463 5.70509 21.5923 6.1804 21.2194 6.55348C20.8465 6.92657 20.3712 7.18068 19.8539 7.28367C19.3365 7.38665 18.8002 7.3339 18.3128 7.13207C17.8254 6.93024 17.4088 6.5884 17.1157 6.14979C16.8226 5.71119 16.6662 5.19551 16.6662 4.66798C16.6667 3.96099 16.9477 3.28308 17.4476 2.78307C17.9474 2.28305 18.6252 2.00178 19.3322 2.00098V2.00098ZM4.6662 14.668C4.13867 14.6682 3.62294 14.5119 3.18422 14.219C2.7455 13.9261 2.40351 13.5096 2.2015 13.0223C1.99949 12.535 1.94653 11.9987 2.04932 11.4813C2.15212 10.9639 2.40604 10.4886 2.77899 10.1155C3.15194 9.7424 3.62715 9.48829 4.14452 9.3853C4.6619 9.28232 5.19819 9.33507 5.68558 9.5369C6.17297 9.73873 6.58956 10.0806 6.88266 10.5192C7.17575 10.9578 7.3322 11.4735 7.3322 12.001C7.3314 12.7079 7.0503 13.3857 6.55053 13.8856C6.05076 14.3856 5.37311 14.6669 4.6662 14.668ZM19.3322 22.001C18.8047 22.001 18.2891 21.8446 17.8505 21.5515C17.4119 21.2585 17.0701 20.8419 16.8682 20.3546C16.6663 19.8673 16.6135 19.331 16.7164 18.8137C16.8193 18.2963 17.0734 17.8211 17.4463 17.4481C17.8193 17.0751 18.2945 16.8211 18.8119 16.7182C19.3292 16.6153 19.8655 16.6681 20.3528 16.87C20.8401 17.0719 21.2567 17.4137 21.5497 17.8523C21.8428 18.2909 21.9992 18.8065 21.9992 19.334C21.9987 20.0412 21.7175 20.7192 21.2175 21.2193C20.7174 21.7193 20.0394 22.0005 19.3322 22.001V22.001Z" fill="#4A4A4A"/>
  </g>
  <defs>
    <clipPath id="clip0_4958_32011">
      <rect width="24" height="24" fill="white"/>
    </clipPath>
  </defs>
</svg>
