<svg width="24" height="24" viewBox="0 0 24 24" fill="none" xmlns="http://www.w3.org/2000/svg">
  <path d="M18.0002 18.0001C18.1877 17.8125 18.293 17.5582 18.293 17.2931C18.293 17.0279 18.1877 16.7736 18.0002 16.5861L13.4142 12.0001L18.0002 7.41406C18.1877 7.22653 18.293 6.97223 18.293 6.70706C18.293 6.4419 18.1877 6.18759 18.0002 6.00006C17.8127 5.81259 17.5583 5.70728 17.2932 5.70728C17.028 5.70728 16.7737 5.81259 16.5862 6.00006L12.0002 10.5861L7.41418 6.00006C7.22665 5.81259 6.97235 5.70728 6.70718 5.70728C6.44202 5.70728 6.18771 5.81259 6.00018 6.00006C5.81271 6.18759 5.7074 6.4419 5.7074 6.70706C5.7074 6.97223 5.81271 7.22653 6.00018 7.41406L10.5862 12.0001L6.00018 16.5861C5.81271 16.7736 5.7074 17.0279 5.7074 17.2931C5.7074 17.5582 5.81271 17.8125 6.00018 18.0001C6.18771 18.1875 6.44202 18.2928 6.70718 18.2928C6.97235 18.2928 7.22665 18.1875 7.41418 18.0001L12.0002 13.4141L16.5862 18.0001C16.7737 18.1875 17.028 18.2928 17.2932 18.2928C17.5583 18.2928 17.8127 18.1875 18.0002 18.0001V18.0001Z" fill="#4A4A4A"/>
</svg>
