<svg width="24" height="24" viewBox="0 0 24 24" fill="none" xmlns="http://www.w3.org/2000/svg">
  <g clip-path="url(#clip0_4958_32007)">
    <path d="M23 16C22.7348 16 22.4804 16.1054 22.2929 16.2929C22.1054 16.4804 22 16.7348 22 17V21C22 21.2652 21.8946 21.5196 21.7071 21.7071C21.5196 21.8946 21.2652 22 21 22H3C2.73478 22 2.48043 21.8946 2.29289 21.7071C2.10536 21.5196 2 21.2652 2 21V17C2 16.7348 1.89464 16.4804 1.70711 16.2929C1.51957 16.1054 1.26522 16 1 16C0.734784 16 0.48043 16.1054 0.292893 16.2929C0.105357 16.4804 0 16.7348 0 17L0 21C0 21.7956 0.31607 22.5587 0.87868 23.1213C1.44129 23.6839 2.20435 24 3 24H21C21.7956 24 22.5587 23.6839 23.1213 23.1213C23.6839 22.5587 24 21.7956 24 21V17C24 16.7348 23.8946 16.4804 23.7071 16.2929C23.5196 16.1054 23.2652 16 23 16Z" fill="#4A4A4A"/>
    <path d="M5.29357 13.538L9.87957 18.125C10.4431 18.6857 11.2056 19.0005 12.0006 19.0005C12.7955 19.0005 13.5581 18.6857 14.1216 18.125L18.7076 13.539C18.8031 13.4468 18.8793 13.3364 18.9317 13.2144C18.9841 13.0924 19.0117 12.9612 19.0128 12.8284C19.014 12.6956 18.9887 12.5639 18.9384 12.441C18.8881 12.3181 18.8139 12.2065 18.72 12.1126C18.6261 12.0187 18.5144 11.9445 18.3915 11.8942C18.2686 11.8439 18.1369 11.8186 18.0042 11.8197C17.8714 11.8209 17.7402 11.8485 17.6182 11.9009C17.4962 11.9533 17.3858 12.0295 17.2936 12.125L13.0006 16.416V1C13.0006 0.734784 12.8952 0.48043 12.7077 0.292893C12.5201 0.105357 12.2658 0 12.0006 0C11.7354 0 11.481 0.105357 11.2935 0.292893C11.1059 0.48043 11.0006 0.734784 11.0006 1V16.417L6.70757 12.124C6.61532 12.0285 6.50498 11.9523 6.38297 11.8999C6.26097 11.8475 6.12975 11.8199 5.99697 11.8187C5.86419 11.8176 5.73251 11.8429 5.60962 11.8932C5.48672 11.9435 5.37507 12.0177 5.28117 12.1116C5.18728 12.2055 5.11303 12.3172 5.06275 12.44C5.01247 12.5629 4.98717 12.6946 4.98832 12.8274C4.98947 12.9602 5.01706 13.0914 5.06947 13.2134C5.12188 13.3354 5.19806 13.4458 5.29357 13.538Z" fill="#4A4A4A"/>
  </g>
  <defs>
    <clipPath id="clip0_4958_32007">
      <rect width="24" height="24" fill="white"/>
    </clipPath>
  </defs>
</svg>
