<svg width="24" height="24" viewBox="0 0 24 24" fill="none" xmlns="http://www.w3.org/2000/svg">
    <path d="M8.94891 21.5232C6.66629 20.7919 4.72228 19.265 3.47093 17.2206C2.21959 15.1763 1.74417 12.7505 2.13127 10.385C2.51836 8.01958 3.74221 5.87186 5.57992 4.33302C7.41763 2.79418 9.74694 1.96661 12.1436 2.00103C14.5403 2.03545 16.8449 2.92957 18.6376 4.52055C20.4304 6.11153 21.592 8.29352 21.911 10.6691C22.23 13.0447 21.6852 15.4559 20.3756 17.4634C19.0661 19.471 17.079 20.9414 14.7763 21.6069L13.0665 15.6905C13.9511 15.4349 14.7144 14.87 15.2175 14.0988C15.7206 13.3276 15.9299 12.4013 15.8073 11.4887C15.6848 10.5761 15.2385 9.73793 14.5498 9.12676C13.8612 8.51558 12.9758 8.1721 12.0552 8.15888C11.1345 8.14566 10.2397 8.46357 9.53372 9.05472C8.82776 9.64586 8.35761 10.4709 8.20891 11.3796C8.06021 12.2883 8.24284 13.2202 8.72355 14.0055C9.20425 14.7909 9.95105 15.3774 10.8279 15.6583L8.94891 21.5232Z" fill="#253255"/>
</svg>
