<svg width="23" height="23" viewBox="0 0 23 23" fill="none" xmlns="http://www.w3.org/2000/svg">
    <path fill-rule="evenodd" clip-rule="evenodd" d="M2.58653 6.41189C2.85249 4.39816 4.39791 2.85273 6.41164 2.58678C7.79603 2.40394 9.52779 2.24854 11.415 2.24854C13.3021 2.24854 15.0339 2.40394 16.4183 2.58678C18.432 2.85273 19.9774 4.39816 20.2434 6.41189C20.4262 7.79628 20.5816 9.52804 20.5816 11.4152C20.5816 13.3024 20.4262 15.0341 20.2434 16.4185C19.9774 18.4322 18.432 19.9777 16.4183 20.2436C15.0339 20.4265 13.3021 20.5819 11.415 20.5819C9.52779 20.5819 7.79603 20.4265 6.41164 20.2436C4.39791 19.9777 2.85249 18.4322 2.58653 16.4185C2.4037 15.0341 2.24829 13.3024 2.24829 11.4152C2.24829 9.52804 2.4037 7.79628 2.58653 6.41189ZM9.31314 8.01702C8.95516 7.65904 8.37476 7.65904 8.01678 8.01702C7.6588 8.375 7.6588 8.9554 8.01678 9.31338L10.1186 11.4152L8.01678 13.517C7.6588 13.875 7.6588 14.4554 8.01678 14.8134C8.37476 15.1714 8.95516 15.1714 9.31314 14.8134L11.415 12.7116L13.5168 14.8134C13.8748 15.1714 14.4552 15.1714 14.8131 14.8134C15.1711 14.4554 15.1711 13.875 14.8131 13.517L12.7113 11.4152L14.8131 9.31338C15.1711 8.9554 15.1711 8.375 14.8131 8.01702C14.4552 7.65904 13.8748 7.65904 13.5168 8.01702L11.415 10.1188L9.31314 8.01702Z" fill="#DA4545"/>
</svg>
