<svg width="16" height="16" viewBox="0 0 16 16" fill="none" xmlns="http://www.w3.org/2000/svg">
    <path d="M11.3742 6.34943L8.9835 3.95877C8.7959 3.77126 8.5415 3.66595 8.27626 3.66602C8.01102 3.66608 7.75667 3.7715 7.56917 3.9591C7.38166 4.1467 7.27635 4.4011 7.27641 4.66633C7.27648 4.93157 7.3819 5.18592 7.5695 5.37343L9.1955 6.99943H3.3335C3.06828 6.99943 2.81393 7.10479 2.62639 7.29232C2.43885 7.47986 2.3335 7.73421 2.3335 7.99943C2.3335 8.26465 2.43885 8.519 2.62639 8.70654C2.81393 8.89407 3.06828 8.99943 3.3335 8.99943H9.1955L7.5695 10.6254C7.3819 10.8129 7.27648 11.0673 7.27641 11.3325C7.27635 11.5978 7.38166 11.8522 7.56917 12.0398C7.75667 12.2274 8.01102 12.3328 8.27626 12.3328C8.5415 12.3329 8.7959 12.2276 8.9835 12.0401L11.3742 9.64943C11.811 9.21141 12.0563 8.61804 12.0563 7.99943C12.0563 7.38082 11.811 6.78745 11.3742 6.34943Z" fill="#ffffff"/>
</svg>
