<svg width="16" height="16" viewBox="0 0 16 16" fill="#8055FF" xmlns="http://www.w3.org/2000/svg">
    <path d="M13.9998 8.28271V7.33338C13.9998 5.74208 13.3677 4.21595 12.2424 3.09073C11.1172 1.96552 9.5911 1.33337 7.9998 1.33337C6.40851 1.33337 4.88238 1.96552 3.75716 3.09073C2.63195 4.21595 1.9998 5.74208 1.9998 7.33338V8.28271C1.30058 8.5906 0.728338 9.12934 0.378885 9.80875C0.0294327 10.4882 -0.0760217 11.267 0.080176 12.0149C0.236374 12.7627 0.644743 13.4343 1.23692 13.917C1.82909 14.3998 2.56913 14.6644 3.33314 14.6667C3.68676 14.6667 4.0259 14.5262 4.27595 14.2762C4.526 14.0261 4.66647 13.687 4.66647 13.3334V9.33338C4.66647 8.97975 4.526 8.64062 4.27595 8.39057C4.0259 8.14052 3.68676 8.00004 3.33314 8.00004V7.33338C3.33314 6.0957 3.8248 4.90871 4.69997 4.03354C5.57514 3.15837 6.76213 2.66671 7.9998 2.66671C9.23748 2.66671 10.4245 3.15837 11.2996 4.03354C12.1748 4.90871 12.6665 6.0957 12.6665 7.33338V8.00004C12.3128 8.00004 11.9737 8.14052 11.7237 8.39057C11.4736 8.64062 11.3331 8.97975 11.3331 9.33338V13.3334C11.3331 13.687 11.4736 14.0261 11.7237 14.2762C11.9737 14.5262 12.3128 14.6667 12.6665 14.6667C13.4305 14.6644 14.1705 14.3998 14.7627 13.917C15.3549 13.4343 15.7632 12.7627 15.9194 12.0149C16.0756 11.267 15.9702 10.4882 15.6207 9.80875C15.2713 9.12934 14.699 8.5906 13.9998 8.28271Z"/>
</svg>
