<svg width="24" height="24" viewBox="0 0 24 24" fill="none" xmlns="http://www.w3.org/2000/svg">
    <path d="M21 6C20.2044 6 19.4413 6.31607 18.8787 6.87868C18.3161 7.44129 18 8.20435 18 9V21C18 21.7956 18.3161 22.5587 18.8787 23.1213C19.4413 23.6839 20.2044 24 21 24C21.7956 24 22.5587 23.6839 23.1213 23.1213C23.6839 22.5587 24 21.7956 24 21V9C24 8.20435 23.6839 7.44129 23.1213 6.87868C22.5587 6.31607 21.7956 6 21 6Z" fill="url(#paint0_linear_2895_21464)"/>
    <path d="M12 0C11.2044 0 10.4413 0.31607 9.87868 0.878679C9.31607 1.44129 9 2.20435 9 3V21C9 21.7956 9.31607 22.5587 9.87868 23.1213C10.4413 23.6839 11.2044 24 12 24C12.7956 24 13.5587 23.6839 14.1213 23.1213C14.6839 22.5587 15 21.7956 15 21V3C15 2.20435 14.6839 1.44129 14.1213 0.878679C13.5587 0.31607 12.7956 0 12 0V0Z" fill="url(#paint1_linear_2895_21464)"/>
    <path d="M3 12C2.20435 12 1.44129 12.3161 0.87868 12.8787C0.31607 13.4413 0 14.2044 0 15L0 21C0 21.7956 0.31607 22.5587 0.87868 23.1213C1.44129 23.6839 2.20435 24 3 24C3.79565 24 4.55871 23.6839 5.12132 23.1213C5.68393 22.5587 6 21.7956 6 21V15C6 14.2044 5.68393 13.4413 5.12132 12.8787C4.55871 12.3161 3.79565 12 3 12Z" fill="url(#paint2_linear_2895_21464)"/>
    <defs>
        <linearGradient id="paint0_linear_2895_21464" x1="26.8929" y1="16.9636" x2="17.9467" y2="9.82801" gradientUnits="userSpaceOnUse">
            <stop stop-color="#1CB6AC"/>
            <stop offset="0.448142" stop-color="#1CB6AC"/>
            <stop offset="0.453125" stop-color="#20C2A8"/>
            <stop offset="1" stop-color="#24D0A3"/>
        </linearGradient>
        <linearGradient id="paint1_linear_2895_21464" x1="17.8929" y1="14.6182" x2="7.11291" y2="8.16946" gradientUnits="userSpaceOnUse">
            <stop stop-color="#1CB6AC"/>
            <stop offset="0.448142" stop-color="#1CB6AC"/>
            <stop offset="0.453125" stop-color="#20C2A8"/>
            <stop offset="1" stop-color="#24D0A3"/>
        </linearGradient>
        <linearGradient id="paint2_linear_2895_21464" x1="8.89286" y1="19.3091" x2="2.8727" y2="12.1064" gradientUnits="userSpaceOnUse">
            <stop stop-color="#1CB6AC"/>
            <stop offset="0.448142" stop-color="#1CB6AC"/>
            <stop offset="0.453125" stop-color="#20C2A8"/>
            <stop offset="1" stop-color="#24D0A3"/>
        </linearGradient>
    </defs>
</svg>
