<svg width="25" height="24" viewBox="0 0 25 24" fill="none" xmlns="http://www.w3.org/2000/svg">
    <g clip-path="url(#clip0_1101_4923)">
        <path d="M20.992 7.96895L11.454 0.974946C10.709 0.429431 9.82755 0.100859 8.90727 0.0256494C7.98699 -0.0495601 7.06385 0.131531 6.24019 0.54885C5.41653 0.96617 4.72451 1.60342 4.24085 2.38995C3.75718 3.17649 3.50076 4.0816 3.50001 5.00495V18.9999C3.49857 19.9242 3.75365 20.8307 4.23686 21.6186C4.72006 22.4065 5.41243 23.0448 6.2369 23.4625C7.06137 23.8803 7.98558 24.061 8.90668 23.9846C9.82777 23.9083 10.7096 23.5778 11.454 23.0299L20.992 16.0359C21.6249 15.5715 22.1395 14.9646 22.4942 14.2643C22.8489 13.5639 23.0338 12.79 23.0338 12.0049C23.0338 11.2199 22.8489 10.4459 22.4942 9.74564C22.1395 9.04534 21.6249 8.4384 20.992 7.97395V7.96895Z" fill="white"/>
    </g>
    <defs>
        <clipPath id="clip0_1101_4923">
            <rect width="24" height="24" fill="white" transform="translate(0.5)"/>
        </clipPath>
    </defs>
</svg>
