<svg width="25" height="24" viewBox="0 0 25 24" fill="#404040" xmlns="http://www.w3.org/2000/svg">
    <g clip-path="url(#clip0_627_332)">
        <path d="M19.5 2.00002H10.456C9.69419 1.99767 8.94208 2.1706 8.25783 2.50545C7.57358 2.84029 6.97553 3.32806 6.50997 3.93102L0.709962 11.386C0.573407 11.5616 0.499268 11.7776 0.499268 12C0.499268 12.2224 0.573407 12.4385 0.709962 12.614L6.50997 20.069C6.97553 20.672 7.57358 21.1597 8.25783 21.4946C8.94208 21.8294 9.69419 22.0024 10.456 22H19.5C20.8256 21.9984 22.0964 21.4711 23.0338 20.5338C23.9711 19.5965 24.4984 18.3256 24.5 17V7.00002C24.4984 5.67443 23.9711 4.40358 23.0338 3.46624C22.0964 2.52891 20.8256 2.00161 19.5 2.00002ZM18.207 14.293C18.3025 14.3853 18.3787 14.4956 18.4311 14.6176C18.4835 14.7396 18.5111 14.8708 18.5122 15.0036C18.5134 15.1364 18.4881 15.2681 18.4378 15.391C18.3875 15.5139 18.3133 15.6255 18.2194 15.7194C18.1255 15.8133 18.0138 15.8876 17.8909 15.9378C17.768 15.9881 17.6364 16.0134 17.5036 16.0123C17.3708 16.0111 17.2396 15.9835 17.1176 15.9311C16.9956 15.8787 16.8852 15.8025 16.793 15.707L14.5 13.414L12.207 15.707C12.0184 15.8892 11.7658 15.99 11.5036 15.9877C11.2414 15.9854 10.9906 15.8802 10.8052 15.6948C10.6197 15.5094 10.5146 15.2586 10.5123 14.9964C10.51 14.7342 10.6108 14.4816 10.793 14.293L13.086 12L10.793 9.70702C10.6108 9.51842 10.51 9.26582 10.5123 9.00362C10.5146 8.74142 10.6197 8.49061 10.8052 8.3052C10.9906 8.11979 11.2414 8.01462 11.5036 8.01235C11.7658 8.01007 12.0184 8.11086 12.207 8.29302L14.5 10.586L16.793 8.29302C16.9816 8.11086 17.2342 8.01007 17.4964 8.01235C17.7586 8.01462 18.0094 8.11979 18.1948 8.3052C18.3802 8.49061 18.4854 8.74142 18.4877 9.00362C18.4899 9.26582 18.3891 9.51842 18.207 9.70702L15.914 12L18.207 14.293Z"/>
    </g>
    <defs>
        <clipPath id="clip0_627_332">
            <rect width="24" height="24" fill="white" transform="translate(0.5)"/>
        </clipPath>
    </defs>
</svg>
