<svg width="24" height="24" viewBox="0 0 24 24" fill="none" xmlns="http://www.w3.org/2000/svg">
    <circle cx="12" cy="12" r="11" fill="#34C659" stroke="#489E5E" stroke-width="2"/>
    <path fill-rule="evenodd" clip-rule="evenodd" d="M18.5 8.79986C18.5 8.44343 18.3479 8.10929 18.0899 7.86862C17.833 7.62913 17.4915 7.5 17.1423 7.5C16.793 7.5 16.4516 7.62908 16.1947 7.86857L10.279 13.3852L7.79496 11.0686L7.78853 11.0629C7.53053 10.8305 7.19177 10.707 6.8464 10.7098C6.50102 10.7126 6.16428 10.8416 5.91027 11.0784C5.65513 11.3164 5.50334 11.6458 5.50005 11.9982C5.49677 12.3506 5.6424 12.683 5.89347 12.9254L9.33151 16.1315C9.5884 16.371 9.92976 16.5 10.279 16.5C10.6282 16.5 10.9697 16.3709 11.2265 16.1314L18.0899 9.73111C18.3479 9.49044 18.5 9.1563 18.5 8.79986Z" fill="white"/>
</svg>
