<svg width="41" height="40" viewBox="0 0 41 40" fill="white" xmlns="http://www.w3.org/2000/svg">
    <g clip-path="url(#clip0_2430_1750)">
        <path d="M35.1667 7.15496C34.8488 6.87156 34.4344 6.72063 34.0087 6.73314C33.583 6.74566 33.1782 6.92067 32.8775 7.22225C32.5768 7.52383 32.4029 7.92909 32.3916 8.35484C32.3803 8.78058 32.5324 9.1945 32.8167 9.51162C35.5937 12.2958 37.1533 16.0676 37.1533 20C37.1533 23.9323 35.5937 27.7041 32.8167 30.4883C32.6474 30.6391 32.5108 30.8229 32.415 31.0284C32.3192 31.2339 32.2664 31.4568 32.2598 31.6834C32.2531 31.9101 32.2927 32.1357 32.3763 32.3464C32.4598 32.5572 32.5854 32.7487 32.7455 32.9092C32.9056 33.0698 33.0968 33.196 33.3073 33.2801C33.5178 33.3642 33.7433 33.4045 33.9699 33.3985C34.1966 33.3925 34.4196 33.3403 34.6254 33.2451C34.8312 33.1499 35.0153 33.0138 35.1667 32.8449C38.5686 29.4357 40.4792 24.8162 40.4792 20C40.4792 15.1837 38.5686 10.5642 35.1667 7.15496Z"/>
        <path d="M30.655 12.1551C30.5012 11.9959 30.3173 11.8689 30.114 11.7816C29.9107 11.6942 29.692 11.6482 29.4707 11.6463C29.2494 11.6444 29.0299 11.6865 28.8251 11.7704C28.6202 11.8542 28.4342 11.9779 28.2777 12.1344C28.1212 12.2909 27.9974 12.477 27.9136 12.6818C27.8298 12.8866 27.7877 13.1061 27.7896 13.3274C27.7915 13.5487 27.8375 13.7674 27.9248 13.9707C28.0122 14.1741 28.1392 14.358 28.2983 14.5117C29.7511 15.9688 30.5668 17.9425 30.5668 20.0001C30.5668 22.0576 29.7511 24.0313 28.2983 25.4884C28.1392 25.6421 28.0122 25.826 27.9248 26.0294C27.8375 26.2327 27.7915 26.4514 27.7896 26.6727C27.7877 26.894 27.8298 27.1135 27.9136 27.3183C27.9974 27.5231 28.1212 27.7092 28.2777 27.8657C28.4342 28.0222 28.6202 28.146 28.8251 28.2298C29.0299 28.3136 29.2494 28.3557 29.4707 28.3538C29.692 28.3519 29.9107 28.3059 30.114 28.2186C30.3173 28.1312 30.5012 28.0042 30.655 27.8451C32.7322 25.7626 33.8988 22.9414 33.8988 20.0001C33.8988 17.0587 32.7322 14.2375 30.655 12.1551Z"/>
        <path d="M23.5317 0.344911C18.4675 1.29545 13.9622 4.15525 10.9467 8.33324H8.83333C6.62401 8.33589 4.50593 9.21472 2.9437 10.7769C1.38147 12.3392 0.502646 14.4573 0.5 16.6666L0.5 23.3332C0.502646 25.5426 1.38147 27.6607 2.9437 29.2229C4.50593 30.7851 6.62401 31.6639 8.83333 31.6666H10.9483C13.9629 35.8447 18.4679 38.7046 23.5317 39.6549C23.772 39.6991 24.0191 39.69 24.2555 39.6281C24.4919 39.5662 24.7117 39.4531 24.8995 39.2968C25.0874 39.1404 25.2385 38.9447 25.3423 38.7235C25.446 38.5023 25.4999 38.2609 25.5 38.0166V1.98324C25.4999 1.73889 25.446 1.49755 25.3423 1.27632C25.2385 1.05509 25.0874 0.859381 24.8995 0.703059C24.7117 0.546736 24.4919 0.433622 24.2555 0.371731C24.0191 0.309839 23.772 0.300683 23.5317 0.344911Z"/>
    </g>
    <defs>
        <clipPath id="clip0_2430_1750">
            <rect width="40" height="40" transform="translate(0.5)"/>
        </clipPath>
    </defs>
</svg>
