<svg width="20" height="20" viewBox="0 0 20 20" fill="none" xmlns="http://www.w3.org/2000/svg">
<path fill-rule="evenodd" clip-rule="evenodd" d="M19.5999 10C19.5999 12.5461 18.5885 14.9879 16.7881 16.7882C14.9878 18.5886 12.546 19.6 9.9999 19.6C7.45382 19.6 5.01203 18.5886 3.21168 16.7882C1.41133 14.9879 0.399902 12.5461 0.399902 10C0.399902 7.45395 1.41133 5.01215 3.21168 3.2118C5.01203 1.41145 7.45382 0.400024 9.9999 0.400024C12.546 0.400024 14.9878 1.41145 16.7881 3.2118C18.5885 5.01215 19.5999 7.45395 19.5999 10ZM11.1999 14.8C11.1999 15.1183 11.0735 15.4235 10.8484 15.6486C10.6234 15.8736 10.3182 16 9.9999 16C9.68164 16 9.37642 15.8736 9.15137 15.6486C8.92633 15.4235 8.7999 15.1183 8.7999 14.8C8.7999 14.4818 8.92633 14.1765 9.15137 13.9515C9.37642 13.7265 9.68164 13.6 9.9999 13.6C10.3182 13.6 10.6234 13.7265 10.8484 13.9515C11.0735 14.1765 11.1999 14.4818 11.1999 14.8ZM9.9999 4.00002C9.68164 4.00002 9.37642 4.12645 9.15137 4.3515C8.92633 4.57654 8.7999 4.88176 8.7999 5.20002V10C8.7999 10.3183 8.92633 10.6235 9.15137 10.8486C9.37642 11.0736 9.68164 11.2 9.9999 11.2C10.3182 11.2 10.6234 11.0736 10.8484 10.8486C11.0735 10.6235 11.1999 10.3183 11.1999 10V5.20002C11.1999 4.88176 11.0735 4.57654 10.8484 4.3515C10.6234 4.12645 10.3182 4.00002 9.9999 4.00002Z" fill="#253255"/>
</svg>
