<svg width="64" height="64" viewBox="0 0 64 64" fill="none" xmlns="http://www.w3.org/2000/svg">
    <g clip-path="url(#clip0_838_6714)">
        <path fill-rule="evenodd" clip-rule="evenodd" d="M13.1443 13.1438C11.0615 15.2266 11.0615 18.6035 13.1443 20.6863L24.458 32L13.1443 43.3137C11.0615 45.3965 11.0615 48.7734 13.1443 50.8562C15.2271 52.939 18.6039 52.939 20.6867 50.8562L32.0004 39.5425L43.3142 50.8562C45.397 52.939 48.7738 52.939 50.8566 50.8562C52.9394 48.7734 52.9394 45.3965 50.8566 43.3137L39.5429 32L50.8566 20.6863C52.9394 18.6035 52.9394 15.2266 50.8566 13.1438C48.7738 11.061 45.397 11.061 43.3142 13.1438L32.0004 24.4575L20.6867 13.1438C18.6039 11.061 15.2271 11.061 13.1443 13.1438Z" fill="white"/>
    </g>
    <defs>
        <clipPath id="clip0_838_6714">
            <rect width="64" height="64" fill="white"/>
        </clipPath>
    </defs>
</svg>
