<svg width="43" height="47" viewBox="0 0 43 47" fill="none" xmlns="http://www.w3.org/2000/svg">
    <path d="M41.4884 27.9592C36.0606 42.1693 23.9806 44.0389 16.4043 41.3937C16.1524 41.3058 15.8779 41.3146 15.6353 41.4255L7.05141 45.3522C6.38909 45.6552 5.6645 45.1737 5.71272 44.447C5.82128 42.8109 6.06085 39.8578 6.53275 35.0783C6.56209 34.7811 6.45894 34.4882 6.25701 34.2682C-0.112304 27.3284 -2.56158 8.53531 15.0709 2.32292C33.9379 -4.32444 46.2033 15.6152 41.4884 27.9592Z" fill="white"/>
    <path d="M39.5377 27.761C34.3797 41.3265 22.9061 43.1227 15.698 40.6057C15.4451 40.5174 15.1693 40.5261 14.9258 40.638L6.85125 44.3486C6.18877 44.653 5.46349 44.1696 5.51213 43.4422C5.61747 41.8668 5.8447 39.0678 6.28538 34.5828C6.31448 34.2865 6.21171 33.9948 6.0113 33.7746C-0.037149 27.1313 -2.35084 9.19594 14.4089 3.26413C32.3556 -3.08779 44.0227 15.9657 39.5377 27.761Z" stroke="#1cb6ac" stroke-width="2"/>
    <path d="M20.8855 25.408C20.4695 25.408 20.1415 25.272 19.9015 25C19.6775 24.728 19.5655 24.344 19.5655 23.848C19.5655 23.096 19.7095 22.472 19.9975 21.976C20.2855 21.464 20.6855 20.944 21.1975 20.416C21.5655 20.016 21.8375 19.672 22.0135 19.384C22.2055 19.096 22.3015 18.776 22.3015 18.424C22.3015 18.072 22.1735 17.792 21.9175 17.584C21.6615 17.376 21.3095 17.272 20.8615 17.272C20.4935 17.272 20.1255 17.344 19.7575 17.488C19.4055 17.616 19.0055 17.808 18.5575 18.064L17.9815 18.352C17.4375 18.656 16.9975 18.808 16.6615 18.808C16.2615 18.808 15.9175 18.64 15.6295 18.304C15.3575 17.952 15.2215 17.528 15.2215 17.032C15.2215 16.696 15.2775 16.416 15.3895 16.192C15.5175 15.968 15.7175 15.752 15.9895 15.544C16.7095 15.016 17.5255 14.608 18.4375 14.32C19.3655 14.016 20.2935 13.864 21.2215 13.864C22.2615 13.864 23.1895 14.048 24.0055 14.416C24.8215 14.768 25.4615 15.264 25.9255 15.904C26.3895 16.528 26.6215 17.24 26.6215 18.04C26.6215 18.632 26.4935 19.176 26.2375 19.672C25.9975 20.168 25.7015 20.592 25.3495 20.944C24.9975 21.296 24.5415 21.72 23.9815 22.216C23.4535 22.648 23.0455 23.024 22.7575 23.344C22.4855 23.648 22.3095 23.968 22.2295 24.304C22.1655 24.656 22.0055 24.928 21.7495 25.12C21.5095 25.312 21.2215 25.408 20.8855 25.408ZM20.9335 31.144C20.2775 31.144 19.7255 30.92 19.2775 30.472C18.8455 30.024 18.6295 29.472 18.6295 28.816C18.6295 28.16 18.8455 27.608 19.2775 27.16C19.7255 26.712 20.2775 26.488 20.9335 26.488C21.6055 26.488 22.1575 26.712 22.5895 27.16C23.0375 27.608 23.2615 28.16 23.2615 28.816C23.2615 29.472 23.0375 30.024 22.5895 30.472C22.1575 30.92 21.6055 31.144 20.9335 31.144Z" fill="#1cb6ac"/>
</svg>
