<svg width="24" height="24" viewBox="0 0 24 24" fill="none" xmlns="http://www.w3.org/2000/svg">
  <path fill-rule="evenodd" clip-rule="evenodd" d="M12 24C18.6274 24 24 18.6274 24 12C24 5.37258 18.6274 0 12 0C5.37258 0 0 5.37258 0 12C0 18.6274 5.37258 24 12 24ZM16.7931 7.41549C17.116 6.9674 17.741 6.86588 18.189 7.18874C18.6371 7.5116 18.7386 8.13657 18.4158 8.58466L12.1627 17.2632C11.8778 17.6586 11.3577 17.7841 10.9314 17.5864C10.8536 17.554 10.7786 17.5112 10.7084 17.4577L6.39383 14.1689C5.9546 13.8341 5.86995 13.2066 6.20476 12.7674C6.53956 12.3281 7.16705 12.2435 7.60628 12.5783L11.1351 15.2682L16.7931 7.41549Z" fill="#2BB857"/>
</svg>
