<svg width="24" height="22" viewBox="0 0 24 22" fill="#BFBFBF" xmlns="http://www.w3.org/2000/svg">
<path d="M23.2668 8.40765C22.3644 6.9299 21.2261 5.60993 19.8971 4.5001L22.696 1.70116C23.0796 1.30404 23.0685 0.671228 22.6714 0.287699C22.284 -0.0864594 21.6699 -0.0864594 21.2825 0.287699L18.2386 3.33555C16.3517 2.21481 14.1946 1.63064 12 1.64619C5.81126 1.64619 2.28457 5.88264 0.733158 8.4077C-0.244386 9.98882 -0.244386 11.9866 0.733158 13.5678C1.63559 15.0455 2.7739 16.3655 4.10292 17.4753L1.30398 20.2743C0.906859 20.6578 0.895847 21.2907 1.27938 21.6878C1.66291 22.0849 2.29577 22.0959 2.69284 21.7124C2.70118 21.7043 2.70938 21.6961 2.71744 21.6878L5.76829 18.6369C7.65285 19.7575 9.80746 20.3426 12 20.3293C18.1887 20.3293 21.7154 16.0928 23.2668 13.5678C24.2444 11.9866 24.2444 9.98882 23.2668 8.40765ZM6.00225 10.9877C5.99658 7.68075 8.67276 4.99534 11.9797 4.98967C13.231 4.98752 14.4515 5.37742 15.4697 6.10455L14.0183 7.55602C13.4089 7.18856 12.7116 6.99269 12 6.98923C9.79172 6.98923 8.00152 8.77942 8.00152 10.9877C8.00499 11.6993 8.20086 12.3966 8.56831 13.006L7.11685 14.4574C6.39206 13.4456 6.0023 12.2323 6.00225 10.9877ZM12 16.9855C10.7554 16.9855 9.54211 16.5957 8.53031 15.8709L9.98177 14.4194C10.5911 14.7869 11.2885 14.9828 12 14.9862C14.2083 14.9862 15.9985 13.196 15.9985 10.9877C15.9951 10.2762 15.7992 9.57881 15.4317 8.96948L16.8832 7.51801C18.805 10.2092 18.1812 13.9488 15.49 15.8706C14.4718 16.5978 13.2513 16.9877 12 16.9855Z"/>
</svg>
