<svg width="8" height="14" viewBox="0 0 8 14" fill="none" xmlns="http://www.w3.org/2000/svg">
  <path d="M6.29285 13.0858L0.706849 7.49982C0.519378 7.31229 0.414062 7.05798 0.414062 6.79282C0.414062 6.52765 0.519378 6.27335 0.706849 6.08582L6.29285 0.499818C6.4327 0.360009 6.61086 0.264802 6.80482 0.226235C6.99877 0.187667 7.1998 0.20747 7.3825 0.28314C7.5652 0.35881 7.72137 0.48695 7.83125 0.65136C7.94113 0.81577 7.99981 1.00907 7.99985 1.20682V12.3788C7.99981 12.5766 7.94113 12.7699 7.83125 12.9343C7.72137 13.0987 7.5652 13.2268 7.3825 13.3025C7.1998 13.3782 6.99877 13.398 6.80482 13.3594C6.61086 13.3208 6.4327 13.2256 6.29285 13.0858Z" fill="#D3D3D3"/>
</svg>
