<svg width="8" height="14" viewBox="0 0 8 14" fill="none" xmlns="http://www.w3.org/2000/svg">
  <path d="M1.707 0.499818C1.56715 0.360009 1.38898 0.264802 1.19503 0.226235C1.00108 0.187667 0.800046 0.20747 0.617346 0.28314C0.434646 0.35881 0.278482 0.48695 0.168598 0.65136C0.0587139 0.81577 4.22243e-05 1.00907 0 1.20682V12.3788C4.22243e-05 12.5766 0.0587139 12.7699 0.168598 12.9343C0.278482 13.0987 0.434646 13.2268 0.617346 13.3025C0.800046 13.3782 1.00108 13.398 1.19503 13.3594C1.38898 13.3208 1.56715 13.2256 1.707 13.0858L7.293 7.49982C7.48047 7.31229 7.58579 7.05798 7.58579 6.79282C7.58579 6.52765 7.48047 6.27335 7.293 6.08582L1.707 0.499818Z" fill="#D3D3D3"/>
</svg>
