<svg width="32" height="44" viewBox="0 0 32 44" fill="none" xmlns="http://www.w3.org/2000/svg">
    <path d="M16.8495 1.30469C17.5572 1.46407 18.2857 1.55971 18.9725 1.78285C23.0938 3.07919 25.935 6.95758 25.9766 11.3566C26.0078 14.8631 26.0078 18.3696 25.9766 21.8761C25.9141 27.8478 20.7834 32.4806 14.9658 31.8537C9.89749 31.3118 6.04683 26.9977 6.01561 21.8017C5.9948 18.3484 5.9948 14.895 6.01561 11.4416C6.04683 6.26691 9.83505 1.98473 14.8825 1.37907C14.9658 1.36844 15.0595 1.33656 15.1427 1.31531C15.7047 1.30469 16.2771 1.30469 16.8495 1.30469Z" fill="white"/>
    <path d="M10.2457 43.7137C10.1346 43.6571 10.0346 43.6006 9.92349 43.5441C9.20131 43.1935 8.81245 42.4696 8.91244 41.6327C9.00133 40.8863 9.57906 40.2417 10.3457 40.1399C10.9234 40.072 11.5123 40.0946 12.09 40.0833C12.7789 40.072 13.4788 40.0833 14.1899 40.0833C14.1899 39.4387 14.1899 38.8393 14.1899 38.206C13.6233 38.0929 13.0566 38.025 12.49 37.8667C5.85708 36.1137 1.77956 31.8161 0.279651 25.0304C0.0685532 24.0804 0.0463323 23.0738 0.00189068 22.0899C-0.042551 21.0381 0.701847 20.2351 1.66845 20.2012C2.70172 20.156 3.45723 20.8911 3.55722 21.9881C3.64611 22.9833 3.70166 23.9899 3.91276 24.9625C4.97936 29.8256 9.03466 33.6708 13.8788 34.4738C20.3228 35.5482 26.3447 31.6125 28.0112 25.2113C28.2779 24.1935 28.3334 23.1304 28.4223 22.0786C28.5112 20.9589 29.2112 20.2012 30.2333 20.2012C31.2555 20.2012 32.011 21.0042 31.9999 22.1012C31.9554 25.7202 30.9 29 28.7223 31.8613C26.0447 35.4012 22.5116 37.5048 18.1452 38.1381C18.0341 38.1494 17.9341 38.1833 17.7674 38.2173C17.7674 38.5226 17.7674 38.828 17.7674 39.1333C17.7674 39.4274 17.7674 39.7214 17.7674 40.0607C17.9452 40.072 18.0896 40.0833 18.2341 40.0833C19.1785 40.0833 20.1228 40.0833 21.0672 40.0833C22.1449 40.0833 22.8782 40.6149 23.0671 41.5083C23.2671 42.447 22.8116 43.2048 21.8005 43.6458C21.7783 43.6571 21.7672 43.6911 21.745 43.7024C17.9119 43.7137 14.0788 43.7137 10.2457 43.7137Z" fill="white"/>
</svg>
