<svg width="32" height="32" viewBox="0 0 32 32" fill="none" xmlns="http://www.w3.org/2000/svg">
    <g clip-path="url(#clip0_413_4945)">
        <path d="M27.3227 10.6249L14.6053 1.2996C13.612 0.57225 12.4367 0.134153 11.2097 0.0338736C9.98265 -0.0664056 8.7518 0.17505 7.65359 0.731475C6.55537 1.2879 5.63268 2.13756 4.9878 3.18628C4.34291 4.235 4.00101 5.4418 4.00001 6.67294V25.3329C3.99809 26.5653 4.3382 27.774 4.98247 28.8245C5.62675 29.875 6.54991 30.7261 7.6492 31.2831C8.74849 31.84 9.98078 32.081 11.2089 31.9792C12.437 31.8773 13.6128 31.4367 14.6053 30.7063L27.3227 21.3809C28.1665 20.7617 28.8527 19.9524 29.3256 19.0187C29.7986 18.0849 30.045 17.053 30.045 16.0063C30.045 14.9596 29.7986 13.9276 29.3256 12.9939C28.8527 12.0601 28.1665 11.2509 27.3227 10.6316V10.6249Z" fill="white"/>
    </g>
    <defs>
        <clipPath id="clip0_413_4945">
            <rect width="32" height="32" fill="white"/>
        </clipPath>
    </defs>
</svg>
