<svg width="24" height="24" viewBox="0 0 24 24" fill="none" xmlns="http://www.w3.org/2000/svg">
    <path d="M11.5 8.875C9.32913 8.875 7.5625 7.10838 7.5625 4.9375C7.5625 2.76663 9.32913 1 11.5 1C13.6709 1 15.4375 2.76663 15.4375 4.9375C15.4375 7.10838 13.6709 8.875 11.5 8.875ZM21.0568 9.47087C20.4565 8.97037 19.6751 8.76388 18.8552 8.91438L15.2485 9.792C13.5834 10.0948 12.375 11.5429 12.375 13.236V20.0627L11.5 20.222L10.625 20.0627V13.236C10.625 11.5429 9.41663 10.0956 7.80137 9.80338L4.094 8.90387C3.32313 8.76213 2.54175 8.97125 1.94325 9.47087C1.343 9.97137 1 10.7055 1 11.486V20.0908L11.5 22L22 20.0908V11.486C22 10.7055 21.6561 9.97137 21.0568 9.47087Z" fill="#253255"/>
</svg>
