<svg width="24" height="24" viewBox="0 0 24 24" fill="none" xmlns="http://www.w3.org/2000/svg">
    <path d="M17.9229 2.78351L12.2844 1.0427C12.0998 0.985767 11.9002 0.985767 11.7156 1.0427L6.0771 2.78351C5.18062 3.05924 4.40078 3.58954 3.84838 4.29908C3.29599 5.00861 2.99913 5.86128 3 6.73595V11C3 17.3025 11.28 20.7832 11.6346 20.9282C11.7496 20.9755 11.8741 21 12 21C12.1259 21 12.2504 20.9755 12.3654 20.9282C12.72 20.7832 21 17.3025 21 11V6.73595C21.0009 5.86128 20.704 5.00861 20.1516 4.29908C19.5992 3.58954 18.8194 3.05924 17.9229 2.78351ZM16.2462 9.09758L12.4014 12.6575C12.2441 12.8042 12.0568 12.9204 11.8506 12.9995C11.6443 13.0786 11.4232 13.119 11.1999 13.1183H11.1702C10.9424 13.1151 10.7177 13.0691 10.5096 12.9832C10.3016 12.8973 10.1145 12.7731 9.9597 12.6184L7.8843 10.6184C7.79442 10.5412 7.72253 10.4478 7.67303 10.3439C7.62353 10.24 7.59748 10.1279 7.59646 10.0144C7.59545 9.90087 7.6195 9.78835 7.66713 9.68375C7.71477 9.57914 7.78498 9.48465 7.87347 9.40607C7.96196 9.32749 8.06686 9.26648 8.18173 9.22678C8.2966 9.18709 8.41902 9.16954 8.54147 9.17522C8.66393 9.1809 8.78384 9.20969 8.89384 9.25982C9.00385 9.30995 9.10164 9.38036 9.1812 9.46674L11.2008 11.4167L14.97 7.91676C15.1397 7.76497 15.3671 7.68097 15.6031 7.68287C15.839 7.68477 16.0648 7.77241 16.2316 7.92691C16.3985 8.08142 16.4932 8.29042 16.4952 8.50892C16.4973 8.72741 16.4065 8.93791 16.2426 9.09508L16.2462 9.09758Z" fill="#253255"/>
</svg>
