<svg width="24" height="23" viewBox="0 0 24 23" fill="none" xmlns="http://www.w3.org/2000/svg">
    <path fill-rule="evenodd" clip-rule="evenodd" d="M2.30054 11.4157C2.30054 6.21029 6.52011 1.99072 11.7255 1.99072C16.931 1.99072 21.1505 6.21029 21.1505 11.4157C21.1505 16.6202 16.931 20.8407 11.7255 20.8407C6.52011 20.8407 2.30054 16.6202 2.30054 11.4157ZM11.4682 14.8134L15.7735 9.15844C16.0893 8.74469 16.0091 8.15374 15.5954 7.838C15.1797 7.52226 14.5888 7.60332 14.274 8.01708L10.7076 12.7004L9.16848 10.7343C8.84803 10.3234 8.25425 10.2517 7.84521 10.5731C7.43522 10.8936 7.36359 11.4864 7.68404 11.8955L9.9762 14.8238C10.1553 15.0519 10.4286 15.1857 10.7179 15.1857H10.7245C11.0167 15.1838 11.291 15.0462 11.4682 14.8134Z" fill="#10A342"/>
    <mask id="mask0_405_1810" style="mask-type:alpha" maskUnits="userSpaceOnUse" x="2" y="1" width="20" height="20">
        <path fill-rule="evenodd" clip-rule="evenodd" d="M2.30054 11.4157C2.30054 6.21029 6.52011 1.99072 11.7255 1.99072C16.931 1.99072 21.1505 6.21029 21.1505 11.4157C21.1505 16.6202 16.931 20.8407 11.7255 20.8407C6.52011 20.8407 2.30054 16.6202 2.30054 11.4157ZM11.4682 14.8134L15.7735 9.15844C16.0893 8.74469 16.0091 8.15374 15.5954 7.838C15.1797 7.52226 14.5888 7.60332 14.274 8.01708L10.7076 12.7004L9.16848 10.7343C8.84803 10.3234 8.25425 10.2517 7.84521 10.5731C7.43522 10.8936 7.36359 11.4864 7.68404 11.8955L9.9762 14.8238C10.1553 15.0519 10.4286 15.1857 10.7179 15.1857H10.7245C11.0167 15.1838 11.291 15.0462 11.4682 14.8134Z" fill="white"/>
    </mask>
    <g mask="url(#mask0_405_1810)">
    </g>
</svg>
