<svg width="24" height="24" viewBox="0 0 24 24" fill="none" xmlns="http://www.w3.org/2000/svg">
    <rect x="2.61816" y="10.2504" width="2.61818" height="3.52394" fill="#253255"/>
    <rect x="18.7636" y="10.2504" width="2.61818" height="3.52394" fill="#253255"/>
    <path d="M0 13.9946C0 11.6834 1.87354 9.80988 4.18468 9.80988H4.25455C5.03779 9.80988 5.67273 10.4448 5.67273 11.2281V16.7611C5.67273 17.5443 5.03779 18.1792 4.25455 18.1792H4.18468C1.87354 18.1792 0 16.3057 0 13.9946Z" fill="#253255"/>
    <path d="M24 13.9945C24 16.3057 22.1265 18.1792 19.8153 18.1792H19.7455C18.9622 18.1792 18.3273 17.5443 18.3273 16.761V11.228C18.3273 10.4448 18.9622 9.80984 19.7455 9.80984H19.8153C22.1265 9.80984 24 11.6834 24 13.9945Z" fill="#253255"/>
    <path d="M2.61816 10.4706C2.61816 7.95883 3.6066 5.54995 5.36603 3.77387C7.12547 1.99779 9.51177 1 12 1C14.4882 0.999999 16.8745 1.99779 18.6339 3.77387C20.3934 5.54995 21.3818 7.95883 21.3818 10.4706L19.322 10.4706C19.322 8.51029 18.5506 6.63029 17.1774 5.24416C15.8043 3.85803 13.9419 3.07931 12 3.07931C10.0581 3.07931 8.19569 3.85803 6.82255 5.24417C5.44941 6.6303 4.67798 8.5103 4.67798 10.4706H2.61816Z" fill="#253255"/>
    <path fill-rule="evenodd" clip-rule="evenodd" d="M4.5 19.9412C4.5 19.665 4.27614 19.4412 4 19.4412C3.72386 19.4412 3.5 19.665 3.5 19.9412V20.647C3.5 22.0278 4.61929 23.147 6 23.147H10.7621C10.9609 23.6468 11.449 24 12.0196 24H13.3137C14.0609 24 14.6667 23.3943 14.6667 22.647C14.6667 21.8998 14.0609 21.2941 13.3137 21.2941H12.0196C11.449 21.2941 10.9609 21.6473 10.7621 22.147H6C5.17157 22.147 4.5 21.4755 4.5 20.647V19.9412Z" fill="#253255"/>
</svg>
