<svg width="48" height="48" viewBox="0 0 48 48" fill="none" xmlns="http://www.w3.org/2000/svg">
    <rect width="48" height="48" rx="24" fill="#F2F4F9"/>
    <g clip-path="url(#clip0_3107_21054)">
        <path d="M30.3348 14.1659C30.1045 14.055 29.8406 14.0365 29.5971 14.1141C29.3537 14.1918 29.1492 14.3596 29.0256 14.5833C28.902 14.807 28.8688 15.0695 28.9327 15.3169C28.9966 15.5643 29.1527 15.7779 29.3691 15.9138C31.4313 17.0603 32.9546 18.9778 33.6049 21.2458C34.2552 23.5138 33.9796 25.9472 32.8383 28.0122C32.7657 28.1272 32.7172 28.2558 32.696 28.3902C32.6747 28.5245 32.6811 28.6618 32.7148 28.7936C32.7484 28.9254 32.8086 29.049 32.8916 29.1567C32.9746 29.2645 33.0788 29.3542 33.1977 29.4203C33.3165 29.4864 33.4477 29.5276 33.583 29.5413C33.7183 29.555 33.8551 29.5409 33.9848 29.5C34.1145 29.459 34.2345 29.392 34.3374 29.3031C34.4404 29.2142 34.5241 29.1052 34.5834 28.9828C35.9817 26.4539 36.3197 23.4735 35.5232 20.6957C34.7266 17.9179 32.8607 15.5696 30.3348 14.1659Z" fill="#253255"/>
        <path d="M28.5596 17.7959C28.4446 17.7295 28.3175 17.6867 28.1858 17.6699C28.0541 17.6532 27.9203 17.6628 27.7924 17.6983C27.6644 17.7338 27.5448 17.7944 27.4405 17.8766C27.3363 17.9588 27.2494 18.061 27.185 18.1771C27.1207 18.2933 27.0801 18.4211 27.0656 18.5531C27.0511 18.6851 27.0631 18.8186 27.1008 18.9459C27.1385 19.0732 27.2012 19.1918 27.2852 19.2946C27.3692 19.3974 27.4729 19.4825 27.5901 19.5449C28.669 20.145 29.4659 21.1484 29.8062 22.3351C30.1465 23.5218 30.0024 24.7951 29.4055 25.8757C29.3391 25.9907 29.2963 26.1178 29.2795 26.2495C29.2628 26.3812 29.2724 26.515 29.3079 26.6429C29.3434 26.7709 29.404 26.8905 29.4862 26.9948C29.5684 27.099 29.6706 27.1859 29.7867 27.2503C29.9029 27.3147 30.0306 27.3553 30.1626 27.3697C30.2946 27.3842 30.4282 27.3722 30.5555 27.3345C30.6828 27.2968 30.8014 27.2341 30.9042 27.1501C31.007 27.0661 31.0921 26.9624 31.1544 26.8452C32.0081 25.3006 32.2143 23.4805 31.7279 21.7841C31.2414 20.0876 30.102 18.6534 28.5596 17.7959Z" fill="#253255"/>
        <path d="M22.4979 12.1624C19.7344 13.5482 17.6088 15.9427 16.5606 18.8511L15.3417 19.2006C14.0679 19.5675 12.9916 20.4247 12.349 21.584C11.7063 22.7434 11.5497 24.1104 11.9136 25.3851L13.0161 29.2301C13.383 30.5039 14.2402 31.5802 15.3996 32.2229C16.559 32.8655 17.9259 33.0221 19.2006 32.6583L20.4205 32.3085C22.8502 34.2197 25.9214 35.1241 28.9991 34.8347C29.145 34.8205 29.286 34.7744 29.4121 34.6996C29.5383 34.6248 29.6464 34.5232 29.7288 34.4019C29.8113 34.2807 29.8661 34.1429 29.8894 33.9981C29.9126 33.8533 29.9038 33.7052 29.8634 33.5643L23.9041 12.7818C23.8637 12.6409 23.7927 12.5106 23.6963 12.4002C23.5998 12.2897 23.4803 12.2019 23.3461 12.1428C23.2119 12.0837 23.0664 12.0548 22.9198 12.0582C22.7733 12.0616 22.6292 12.0972 22.4979 12.1624Z" fill="#253255"/>
    </g>
    <defs>
        <clipPath id="clip0_3107_21054">
            <rect width="24" height="24" fill="white" transform="translate(9.15723 15.7725) rotate(-16)"/>
        </clipPath>
    </defs>
</svg>
