<svg width="194" height="75" viewBox="0 0 194 75" fill="none" xmlns="http://www.w3.org/2000/svg">
    <path d="M6.32857 33.5043H0V20.2887H6.32857V7.63159H22.2431V20.2887H32.6666V33.5043H22.2431V54.3513C22.2431 55.9025 22.5843 57.0193 23.2668 57.7018C24.0114 58.3843 25.2833 58.7255 27.0826 58.7255H32.7597V72.2203H24.6628C21.9328 72.2203 19.4511 71.91 17.2174 71.2896C14.9838 70.6691 13.0604 69.6764 11.4473 68.3114C9.83411 66.8844 8.56219 65.0231 7.63152 62.7274C6.76289 60.3697 6.32857 57.5156 6.32857 54.1652V33.5043Z" fill="white"/>
    <path d="M106.421 34.2317H100.65V21.0161H106.421V19.5271C106.421 12.7021 108.468 7.64548 112.563 4.3571C116.658 1.06872 122.676 -0.358308 130.618 0.0760043V13.5708C127.516 13.3846 125.344 13.8189 124.103 14.8737C122.924 15.8664 122.335 17.7588 122.335 20.5508V21.0161H130.897V34.2317H122.335V72.9477H106.421V34.2317Z" fill="white"/>
    <path d="M59.8661 71.6983C53.8913 69.7841 48.8028 65.7874 45.5274 60.4363C42.252 55.0852 41.0076 48.7356 42.0208 42.544C43.0341 36.3524 46.2375 30.7307 51.0477 26.7028C55.858 22.6749 61.955 20.5087 68.2283 20.5988C74.5016 20.6889 80.5339 23.0292 85.2265 27.1937C89.919 31.3581 92.9597 37.0695 93.7947 43.2876C94.6297 49.5058 93.2035 55.817 89.7757 61.0718C86.348 66.3267 81.1469 70.1755 75.1195 71.9174L70.6441 56.4312C72.9595 55.762 74.9575 54.2835 76.2743 52.2648C77.5911 50.2462 78.139 47.8217 77.8182 45.433C77.4974 43.0443 76.3293 40.8502 74.5267 39.2505C72.724 37.6507 70.4067 36.7517 67.9968 36.717C65.5869 36.6824 63.2447 37.5146 61.3969 39.0619C59.549 40.6092 58.3184 42.7688 57.9292 45.1473C57.5399 47.5259 58.018 49.9651 59.2762 52.0207C60.5345 54.0763 62.4892 55.6116 64.7845 56.347L59.8661 71.6983Z" fill="white"/>
    <path fill-rule="evenodd" clip-rule="evenodd" d="M141.274 22.4777H157.27V48.6528H157.241C157.241 49.9934 157.505 51.3208 158.018 52.5594C158.531 53.7979 159.283 54.9233 160.231 55.8712C161.179 56.8191 162.304 57.5711 163.543 58.0841C164.781 58.5971 166.109 58.8611 167.449 58.8611C168.79 58.8611 170.117 58.5971 171.356 58.0841C172.594 57.5711 173.72 56.8191 174.667 55.8712C175.615 54.9233 176.367 53.7979 176.88 52.5594C177.393 51.3208 177.657 49.9934 177.657 48.6528L177.63 48.6528V22.4777H193.626V48.6528L193.624 48.6528C193.624 52.0902 192.947 55.4939 191.632 58.6696C190.316 61.8453 188.388 64.7309 185.958 67.1615C183.527 69.592 180.642 71.5201 177.466 72.8355C174.29 74.1509 170.886 74.828 167.449 74.828C164.012 74.828 160.608 74.1509 157.432 72.8355C154.257 71.5201 151.371 69.592 148.94 67.1615C146.51 64.7309 144.582 61.8453 143.266 58.6696C141.951 55.4939 141.274 52.0902 141.274 48.6528V22.4777Z" fill="white"/>
</svg>
