<svg width="46" height="44" viewBox="0 0 46 44" fill="none" xmlns="http://www.w3.org/2000/svg">
<path d="M10.8623 18C10.8623 11.3726 16.2349 6 22.8623 6H23.2761C29.9035 6 35.2761 11.3726 35.2761 18V18C35.2761 24.6274 29.9035 30 23.2761 30H22.8623C16.2349 30 10.8623 24.6274 10.8623 18V18Z" fill="white"/>
<g filter="url(#filter0_d_450_2687)">
<path d="M23.0694 28C17.4512 28 12.897 23.523 12.897 18C12.897 12.477 17.4512 8 23.0694 8C28.6876 8 33.2418 12.477 33.2418 18C33.2418 23.523 28.6876 28 23.0694 28ZM22.0552 22L29.2471 14.929L27.8087 13.515L22.0552 19.172L19.1774 16.343L17.739 17.757L22.0552 22Z" fill="#34C659"/>
</g>
<defs>
<filter id="filter0_d_450_2687" x="0.896973" y="0" width="44.3447" height="44" filterUnits="userSpaceOnUse" color-interpolation-filters="sRGB">
<feFlood flood-opacity="0" result="BackgroundImageFix"/>
<feColorMatrix in="SourceAlpha" type="matrix" values="0 0 0 0 0 0 0 0 0 0 0 0 0 0 0 0 0 0 127 0" result="hardAlpha"/>
<feOffset dy="4"/>
<feGaussianBlur stdDeviation="6"/>
<feColorMatrix type="matrix" values="0 0 0 0 0 0 0 0 0 0.754167 0 0 0 0 0.256417 0 0 0 0.12 0"/>
<feBlend mode="normal" in2="BackgroundImageFix" result="effect1_dropShadow_450_2687"/>
<feBlend mode="normal" in="SourceGraphic" in2="effect1_dropShadow_450_2687" result="shape"/>
</filter>
</defs>
</svg>
