<svg width="129" height="128" viewBox="0 0 129 128" fill="none" xmlns="http://www.w3.org/2000/svg">
    <path d="M64.5 6C79.8826 6 94.6351 12.1107 105.512 22.9878C116.389 33.8649 122.5 48.6174 122.5 64C122.5 76.2 117.654 87.9002 109.027 96.5269C100.4 105.154 88.7 110 76.5 110H52.5C40.3 110 28.5998 105.154 19.9731 96.5269C11.3464 87.9002 6.5 76.2 6.5 64C6.5 48.6174 12.6107 33.8649 23.4878 22.9878C34.3649 12.1107 49.1174 6 64.5 6Z" fill="#1CB6AC"/>
    <path d="M122.5 64C122.5 76.2 117.654 87.9003 109.027 96.5269C100.4 105.154 88.7 110 76.5 110H52.5C40.3 110 28.5998 105.154 19.9731 96.5269C11.3464 87.9003 6.5 76.2 6.5 64C6.49923 55.3127 8.44996 46.7362 12.2081 38.9038C15.9663 31.0715 21.4359 24.1834 28.213 18.7483C34.9901 13.3132 42.9016 9.46986 51.3631 7.5022C59.8247 5.53454 68.6201 5.49279 77.1 7.38003C77.4208 9.40952 77.8819 11.4143 78.48 13.38C79.7972 17.721 81.7446 21.8449 84.26 25.62L86.66 29.22C90.4027 34.8492 96.1061 38.8843 102.66 40.54C104.385 40.976 105.952 41.8907 107.18 43.1788C108.408 44.4669 109.247 46.0758 109.6 47.82C109.867 49.1268 110.405 50.3628 111.181 51.4481C111.956 52.5334 112.95 53.4437 114.1 54.12C116.472 55.5127 119.169 56.2576 121.92 56.28C122.287 58.8374 122.48 61.4166 122.5 64Z" fill="url(#paint0_linear_3209_24450)"/>
    <path d="M61.64 110H52.5C40.3001 110 28.5998 105.154 19.9731 96.5269C11.3464 87.9002 6.50001 76.2 6.50001 64C6.47967 51.2923 10.6333 38.9297 18.3225 28.8123C26.0117 18.6949 36.8109 11.3829 49.06 8C47.0941 9.50857 45.23 11.1455 43.48 12.9C38.0772 18.2909 33.7951 24.6982 30.8808 31.7523C27.9665 38.8064 26.4776 46.3677 26.5 54C26.5 75.66 41.48 102.56 61.64 110Z" fill="url(#paint1_linear_3209_24450)"/>
    <path d="M64.5 122C54.4218 122 44.7563 117.996 37.6299 110.87C30.5036 103.744 26.5 94.0782 26.5 84V56.94C26.4989 55.4538 26.9119 53.9966 27.6926 52.7319C28.4733 51.4673 29.5909 50.4451 30.92 49.78C33.2681 48.608 35.3057 46.8971 36.8664 44.7873C38.427 42.6774 39.4666 40.2283 39.9 37.64L40.5 34L42.34 39.54C42.9685 41.4197 44.1715 43.0544 45.7792 44.2135C47.3869 45.3727 49.318 45.9975 51.3 46C53.9773 46.0023 56.5873 45.161 58.7594 43.5957C60.9315 42.0304 62.5552 39.8206 63.4 37.28L64.5 34L65.6 37.28C66.4448 39.8206 68.0685 42.0304 70.2406 43.5957C72.4127 45.161 75.0227 46.0023 77.7 46H78.5L80.5 32L81.78 36.48C82.6061 39.3563 84.1917 41.9569 86.3702 44.0086C88.5486 46.0604 91.2395 47.4875 94.16 48.14L96.16 48.6C97.9526 48.9802 99.5602 49.9643 100.714 51.3877C101.868 52.8111 102.499 54.5876 102.5 56.42V84C102.5 94.0782 98.4964 103.744 91.3701 110.87C84.2437 117.996 74.5782 122 64.5 122Z" fill="#FFF0E4"/>
    <path d="M82.5 72C84.7091 72 86.5 70.2091 86.5 68C86.5 65.7909 84.7091 64 82.5 64C80.2909 64 78.5 65.7909 78.5 68C78.5 70.2091 80.2909 72 82.5 72Z" fill="#FFF2E6"/>
    <path d="M46.5 72C48.7091 72 50.5 70.2091 50.5 68C50.5 65.7909 48.7091 64 46.5 64C44.2909 64 42.5 65.7909 42.5 68C42.5 70.2091 44.2909 72 46.5 72Z" fill="#FFF2E6"/>
    <path d="M50.5 90H78.5V96C78.5 99.713 77.025 103.274 74.3995 105.899C71.774 108.525 68.213 110 64.5 110C60.787 110 57.226 108.525 54.6005 105.899C51.975 103.274 50.5 99.713 50.5 96V90Z" fill="#CC5144"/>
    <path d="M75.04 105.2C73.7259 106.703 72.1056 107.908 70.2877 108.733C68.4698 109.558 66.4964 109.985 64.5 109.985C62.5035 109.985 60.5301 109.558 58.7122 108.733C56.8943 107.908 55.274 106.703 53.96 105.2C55.1608 103.541 56.7485 102.2 58.5854 101.294C60.4222 100.387 62.4525 99.9433 64.5 100C66.5474 99.9433 68.5777 100.387 70.4146 101.294C72.2514 102.2 73.8392 103.541 75.04 105.2Z" fill="#FFB9A3"/>
    <path d="M22.5 56H26.5V80C23.3174 80 20.2652 78.7357 18.0147 76.4853C15.7643 74.2348 14.5 71.1826 14.5 68V64C14.5 61.8783 15.3429 59.8434 16.8431 58.3431C18.3434 56.8429 20.3783 56 22.5 56Z" fill="#FFD4B3"/>
    <path d="M102.5 56H106.5C108.622 56 110.657 56.8429 112.157 58.3431C113.657 59.8434 114.5 61.8783 114.5 64V68C114.5 71.1826 113.236 74.2348 110.985 76.4853C108.735 78.7357 105.683 80 102.5 80V56Z" fill="#FFF0E4"/>
    <path d="M102.5 56.42V66.42C102.503 64.5986 101.884 62.8309 100.745 61.409C99.6071 59.9871 98.0178 58.9961 96.24 58.6L94.24 58.14C91.3195 57.4875 88.6286 56.0604 86.4502 54.0086C84.2717 51.9569 82.6861 49.3563 81.86 46.48L80.5 42L78.5 56H77.7C75.0227 56.0023 72.4127 55.161 70.2406 53.5957C68.0685 52.0304 66.4448 49.8206 65.6 47.28L64.5 44L63.4 47.28C62.5552 49.8206 60.9315 52.0304 58.7594 53.5957C56.5873 55.161 53.9773 56.0023 51.3 56C49.318 55.9975 47.3869 55.3727 45.7792 54.2135C44.1715 53.0544 42.9685 51.4197 42.34 49.54L40.78 44.86L40.3 45.16L39.9 47.64C39.4207 50.418 38.2516 53.0312 36.5 55.24V79C36.5 89.0782 40.5036 98.7437 47.6299 105.87C54.7563 112.996 64.4218 117 74.5 117C78.5155 116.974 82.5003 116.299 86.3 115C79.9365 119.54 72.3173 121.987 64.5 122C54.4218 122 44.7563 117.996 37.6299 110.87C30.5036 103.744 26.5 94.0782 26.5 84V56.94C26.4989 55.4538 26.9119 53.9966 27.6926 52.7319C28.4733 51.4673 29.5909 50.4451 30.92 49.78C33.2691 48.6093 35.3075 46.8988 36.8683 44.7887C38.4292 42.6786 39.4681 40.2289 39.9 37.64L40.5 34L42.34 39.54C42.9685 41.4197 44.1715 43.0544 45.7792 44.2135C47.3869 45.3727 49.318 45.9975 51.3 46C53.9781 46.0053 56.5895 45.1653 58.7621 43.5995C60.9348 42.0338 62.5579 39.8222 63.4 37.28L64.5 34L65.6 37.28C66.4448 39.8206 68.0685 42.0304 70.2406 43.5957C72.4127 45.161 75.0227 46.0023 77.7 46H78.5L80.5 32L81.78 36.48C82.6061 39.3563 84.1917 41.9569 86.3702 44.0086C88.5486 46.0604 91.2395 47.4875 94.16 48.14L96.16 48.6C97.9526 48.9802 99.5602 49.9643 100.714 51.3877C101.868 52.8111 102.499 54.5876 102.5 56.42Z" fill="#FFD4B3"/>
    <path d="M88.5 88C92.9183 88 96.5 85.3137 96.5 82C96.5 78.6863 92.9183 76 88.5 76C84.0817 76 80.5 78.6863 80.5 82C80.5 85.3137 84.0817 88 88.5 88Z" fill="#FFB9A3"/>
    <path d="M40.5 88C44.9183 88 48.5 85.3137 48.5 82C48.5 78.6863 44.9183 76 40.5 76C36.0817 76 32.5 78.6863 32.5 82C32.5 85.3137 36.0817 88 40.5 88Z" fill="#FFB9A3"/>
    <path d="M84.5 70C85.6046 70 86.5 69.1046 86.5 68C86.5 66.8954 85.6046 66 84.5 66C83.3954 66 82.5 66.8954 82.5 68C82.5 69.1046 83.3954 70 84.5 70Z" fill="#FFF2E6"/>
    <path d="M48.5 70C49.6046 70 50.5 69.1046 50.5 68C50.5 66.8954 49.6046 66 48.5 66C47.3954 66 46.5 66.8954 46.5 68C46.5 69.1046 47.3954 70 48.5 70Z" fill="#FFF2E6"/>
    <path d="M112.98 73.86C111.937 75.7232 110.416 77.2745 108.574 78.3539C106.732 79.4332 104.635 80.0014 102.5 80V56H106.5V66C106.499 67.859 107.145 69.6603 108.327 71.0947C109.51 72.529 111.155 73.5068 112.98 73.86Z" fill="#FFD4B3"/>
    <path d="M16.02 73.86C17.0627 75.7232 18.5836 77.2745 20.4258 78.3539C22.268 79.4332 24.3649 80.0014 26.5 80V56H22.5V66C22.5013 67.859 21.8553 69.6603 20.6727 71.0947C19.4902 72.529 17.8451 73.5068 16.02 73.86Z" fill="#DA9367"/>
    <path d="M124.5 64C124.54 50.5241 119.998 37.4348 111.62 26.88C111.467 26.6494 111.267 26.4531 111.034 26.3036C110.801 26.1541 110.539 26.0547 110.266 26.0116C109.992 25.9685 109.713 25.9826 109.445 26.0532C109.177 26.1238 108.927 26.2492 108.71 26.4215C108.493 26.5939 108.314 26.8093 108.185 27.0543C108.056 27.2993 107.979 27.5684 107.959 27.8447C107.94 28.1209 107.978 28.3983 108.071 28.6591C108.164 28.92 108.31 29.1586 108.5 29.36C116.315 39.2103 120.547 51.4261 120.5 64C120.494 71.2514 118.697 78.3889 115.267 84.7778C111.837 91.1666 106.881 96.6087 100.84 100.62C103.245 95.4089 104.493 89.7392 104.5 84V81.84C107.829 81.3595 110.874 79.6964 113.078 77.155C115.281 74.6136 116.496 71.3637 116.5 68V64C116.5 61.3479 115.446 58.8043 113.571 56.929C111.696 55.0536 109.152 54 106.5 54H104.18C103.731 52.1993 102.79 50.5589 101.462 49.2626C100.134 47.9663 98.4711 47.0652 96.66 46.66L94.66 46.2C92.0834 45.6456 89.7046 44.405 87.7752 42.6095C85.8459 40.8139 84.4378 38.5302 83.7 36L82.5 31.46C82.3277 30.9856 81.9823 30.5939 81.5333 30.3634C81.0842 30.133 80.5646 30.0809 80.0787 30.2175C79.5928 30.3542 79.1765 30.6695 78.9134 31.1003C78.6503 31.531 78.5598 32.0453 78.66 32.54L79.94 37.02C80.8594 40.2491 82.6348 43.1695 85.0782 45.472C87.5216 47.7746 90.5421 49.3737 93.82 50.1L95.82 50.56C97.1497 50.8599 98.3377 51.6036 99.1883 52.6688C100.039 53.7339 100.502 55.0569 100.5 56.42V84C100.5 93.5478 96.7072 102.705 89.9558 109.456C83.2045 116.207 74.0478 120 64.5 120C54.9522 120 45.7955 116.207 39.0442 109.456C32.2928 102.705 28.5 93.5478 28.5 84V64C28.5 63.4696 28.2893 62.9609 27.9142 62.5858C27.5391 62.2107 27.0304 62 26.5 62C25.9696 62 25.4609 62.2107 25.0858 62.5858C24.7107 62.9609 24.5 63.4696 24.5 64V77.8C22.2413 77.339 20.2112 76.1117 18.7534 74.3258C17.2956 72.54 16.4995 70.3053 16.5 68V64C16.5 62.4087 17.1321 60.8826 18.2574 59.7574C19.3826 58.6322 20.9087 58 22.5 58H26.3C26.5622 58.0312 26.828 58.0101 27.082 57.938C27.336 57.8659 27.5732 57.7443 27.78 57.58C27.989 57.418 28.1637 57.2162 28.2942 56.9861C28.4246 56.7561 28.5082 56.5025 28.54 56.24C28.6576 55.2523 29.0189 54.3092 29.5915 53.4958C30.164 52.6823 30.9298 52.024 31.82 51.58C36.0282 49.459 39.284 45.832 40.94 41.42C41.8634 43.3877 43.3282 45.0516 45.1629 46.2169C46.9977 47.3822 49.1265 48.0007 51.3 48C54.0393 48.0038 56.7254 47.2441 59.057 45.8063C61.3886 44.3685 63.2735 42.3094 64.5 39.86C65.7265 42.3094 67.6114 44.3685 69.943 45.8063C72.2746 47.2441 74.9607 48.0038 77.7 48H78.5C79.0304 48 79.5391 47.7893 79.9142 47.4142C80.2893 47.0392 80.5 46.5305 80.5 46C80.5 45.4696 80.2893 44.9609 79.9142 44.5858C79.5391 44.2107 79.0304 44 78.5 44H77.7C75.4419 44.0012 73.241 43.2907 71.4098 41.9694C69.5787 40.6482 68.2106 38.7833 67.5 36.64L66.5 33.36C66.3685 32.9599 66.114 32.6115 65.7728 32.3645C65.4316 32.1175 65.0212 31.9845 64.6 31.9845C64.1788 31.9845 63.7684 32.1175 63.4272 32.3645C63.086 32.6115 62.8315 32.9599 62.7 33.36L61.6 36.64C60.8841 38.7997 59.5008 40.6761 57.6497 41.9989C55.7985 43.3217 53.5751 44.0224 51.3 44C49.7391 44.0009 48.2174 43.5108 46.9504 42.5991C45.6833 41.6875 44.7351 40.4004 44.24 38.92L42.5 33.36C42.3609 32.9314 42.0811 32.5624 41.706 32.3127C41.3309 32.063 40.8824 31.9473 40.4333 31.9844C39.9843 32.0214 39.5609 32.209 39.2317 32.5168C38.9026 32.8245 38.687 33.2344 38.62 33.68L38.02 37.32C37.6282 39.6068 36.6985 41.7676 35.3076 43.6245C33.9166 45.4814 32.1043 46.9811 30.02 48C28.8118 48.605 27.7388 49.4486 26.8656 50.4799C25.9925 51.5111 25.3375 52.7086 24.94 54H22.5C19.8478 54 17.3043 55.0536 15.4289 56.929C13.5536 58.8043 12.5 61.3479 12.5 64V68C12.5039 71.3637 13.7188 74.6136 15.9224 77.155C18.1259 79.6964 21.1708 81.3595 24.5 81.84V84C24.5087 89.739 25.7572 95.4083 28.16 100.62C24.2725 98.0222 20.8171 94.83 17.92 91.16C17.5911 90.7436 17.1103 90.475 16.5833 90.4131C16.0564 90.3512 15.5264 90.5012 15.11 90.83C14.6936 91.1589 14.4249 91.6397 14.363 92.1667C14.3011 92.6937 14.4511 93.2236 14.78 93.64C19.427 99.5416 25.3842 104.28 32.18 107.48C35.8738 112.597 40.7299 116.765 46.3488 119.639C51.9677 122.512 58.1888 124.011 64.5 124.011C70.8112 124.011 77.0323 122.512 82.6512 119.639C88.2701 116.765 93.1262 112.597 96.82 107.48C105.081 103.601 112.069 97.4549 116.969 89.7567C121.87 82.0584 124.482 73.1258 124.5 64ZM112.5 64V68C112.5 70.3053 111.704 72.54 110.247 74.3258C108.789 76.1117 106.759 77.339 104.5 77.8V58H106.5C108.091 58 109.617 58.6322 110.743 59.7574C111.868 60.8826 112.5 62.4087 112.5 64Z" fill="#39519D"/>
    <path d="M8.5 64C8.5038 53.0234 11.7334 42.29 17.7873 33.1338C23.8412 23.9776 32.4525 16.8025 42.5508 12.5002C52.6491 8.19792 63.7891 6.95824 74.5862 8.93524C85.3833 10.9122 95.3613 16.0187 103.28 23.62C103.669 23.9413 104.166 24.1035 104.67 24.074C105.174 24.0445 105.648 23.8257 105.997 23.4612C106.346 23.0968 106.545 22.6138 106.553 22.1091C106.561 21.6044 106.378 21.1153 106.04 20.74C97.5555 12.5994 86.8661 7.13113 75.2998 5.01467C63.7336 2.89822 51.8004 4.22685 40.983 8.83551C30.1655 13.4442 20.9406 21.1297 14.4545 30.9372C7.96831 40.7446 4.50679 52.2418 4.5 64C4.50115 71.9016 6.45947 79.6799 10.2 86.64C10.4688 87.0696 10.8906 87.3811 11.3802 87.5116C11.8698 87.6421 12.3907 87.582 12.8376 87.3432C13.2846 87.1045 13.6242 86.7051 13.788 86.2256C13.9518 85.7461 13.9275 85.2223 13.72 84.76C10.2976 78.3753 8.5045 71.2442 8.5 64Z" fill="#39519D"/>
    <path d="M88.5 68C88.5 66.8133 88.1481 65.6533 87.4888 64.6666C86.8295 63.6799 85.8925 62.9109 84.7961 62.4567C83.6997 62.0026 82.4933 61.8838 81.3295 62.1153C80.1656 62.3468 79.0965 62.9182 78.2574 63.7574C77.4182 64.5965 76.8468 65.6656 76.6153 66.8295C76.3838 67.9934 76.5026 69.1997 76.9567 70.2961C77.4109 71.3925 78.1799 72.3295 79.1666 72.9888C80.1533 73.6481 81.3133 74 82.5 74C84.0913 74 85.6174 73.3679 86.7426 72.2426C87.8679 71.1174 88.5 69.5913 88.5 68ZM80.5 68C80.5 67.6044 80.6173 67.2178 80.8371 66.8889C81.0568 66.56 81.3692 66.3036 81.7346 66.1522C82.1001 66.0009 82.5022 65.9613 82.8902 66.0384C83.2781 66.1156 83.6345 66.3061 83.9142 66.5858C84.1939 66.8655 84.3844 67.2219 84.4616 67.6098C84.5387 67.9978 84.4991 68.3999 84.3478 68.7654C84.1964 69.1308 83.94 69.4432 83.6111 69.6629C83.2822 69.8827 82.8956 70 82.5 70C81.9696 70 81.4609 69.7893 81.0858 69.4142C80.7107 69.0391 80.5 68.5304 80.5 68Z" fill="#39519D"/>
    <path d="M52.5 68C52.5 66.8133 52.1481 65.6533 51.4888 64.6666C50.8295 63.6799 49.8925 62.9109 48.7961 62.4567C47.6997 62.0026 46.4933 61.8838 45.3295 62.1153C44.1656 62.3468 43.0965 62.9182 42.2574 63.7574C41.4182 64.5965 40.8468 65.6656 40.6153 66.8295C40.3838 67.9934 40.5026 69.1997 40.9567 70.2961C41.4109 71.3925 42.1799 72.3295 43.1666 72.9888C44.1533 73.6481 45.3133 74 46.5 74C48.0913 74 49.6174 73.3679 50.7426 72.2426C51.8679 71.1174 52.5 69.5913 52.5 68ZM44.5 68C44.5 67.6044 44.6173 67.2178 44.8371 66.8889C45.0568 66.56 45.3692 66.3036 45.7346 66.1522C46.1001 66.0009 46.5022 65.9613 46.8902 66.0384C47.2781 66.1156 47.6345 66.3061 47.9142 66.5858C48.1939 66.8655 48.3844 67.2219 48.4616 67.6098C48.5387 67.9978 48.4991 68.3999 48.3478 68.7654C48.1964 69.1308 47.94 69.4432 47.6111 69.6629C47.2822 69.8827 46.8956 70 46.5 70C45.9696 70 45.4609 69.7893 45.0858 69.4142C44.7107 69.0391 44.5 68.5304 44.5 68Z" fill="#39519D"/>
    <path d="M39.42 60.92C40.3489 59.9888 41.4525 59.2499 42.6674 58.7458C43.8823 58.2417 45.1847 57.9822 46.5 57.9822C47.8154 57.9822 49.1178 58.2417 50.3327 58.7458C51.5476 59.2499 52.6511 59.9888 53.58 60.92C53.9493 61.2969 54.4525 61.5125 54.98 61.52C55.3858 61.5434 55.7891 61.4426 56.1361 61.231C56.4832 61.0194 56.7575 60.707 56.9226 60.3356C57.0877 59.9642 57.1357 59.5513 57.0602 59.1519C56.9847 58.7525 56.7893 58.3856 56.5 58.1C55.2 56.7999 53.6566 55.7685 51.9579 55.0648C50.2593 54.3612 48.4387 53.999 46.6 53.999C44.7614 53.999 42.9408 54.3612 41.2421 55.0648C39.5435 55.7685 38.0001 56.7999 36.7 58.1C36.3724 58.4826 36.2012 58.9748 36.2206 59.4781C36.2401 59.9815 36.4487 60.459 36.8049 60.8152C37.1611 61.1714 37.6386 61.38 38.1419 61.3995C38.6453 61.4189 39.1374 61.2477 39.52 60.92H39.42Z" fill="#39519D"/>
    <path d="M72.6 58.1C72.3906 58.2793 72.2206 58.4999 72.1005 58.7481C71.9805 58.9962 71.913 59.2665 71.9024 59.5419C71.8917 59.8173 71.9381 60.092 72.0387 60.3486C72.1392 60.6053 72.2918 60.8384 72.4867 61.0333C72.6816 61.2282 72.9147 61.3807 73.1713 61.4813C73.428 61.5818 73.7026 61.6282 73.9781 61.6176C74.2535 61.607 74.5238 61.5395 74.7719 61.4195C75.02 61.2994 75.2407 61.1294 75.42 60.92C76.3489 59.9887 77.4524 59.2499 78.6673 58.7458C79.8822 58.2416 81.1846 57.9821 82.5 57.9821C83.8153 57.9821 85.1177 58.2416 86.3326 58.7458C87.5475 59.2499 88.651 59.9887 89.58 60.92C89.9492 61.2968 90.4524 61.5125 90.98 61.52C91.3858 61.5434 91.789 61.4425 92.1361 61.2309C92.4831 61.0193 92.7574 60.707 92.9225 60.3356C93.0876 59.9642 93.1356 59.5512 93.0601 59.1519C92.9846 58.7525 92.7892 58.3856 92.5 58.1C91.1981 56.7848 89.6485 55.7407 87.9406 55.0282C86.2327 54.3156 84.4005 53.9487 82.55 53.9487C80.6994 53.9487 78.8672 54.3156 77.1593 55.0282C75.4515 55.7407 73.9018 56.7848 72.6 58.1Z" fill="#39519D"/>
    <path d="M74.88 102C72.0264 99.4447 68.3305 98.0318 64.5 98.0318C60.6695 98.0318 56.9736 99.4447 54.12 102C53.3589 100.695 52.8564 99.2553 52.64 97.76C52.6032 97.4974 52.5151 97.2445 52.3806 97.0159C52.2461 96.7874 52.0679 96.5875 51.8562 96.4278C51.6445 96.2681 51.4034 96.1516 51.1467 96.0851C50.89 96.0186 50.6226 96.0032 50.36 96.04C50.0974 96.0768 49.8445 96.1649 49.6159 96.2994C49.3874 96.4339 49.1875 96.6121 49.0278 96.8238C48.8681 97.0355 48.7516 97.2766 48.6851 97.5333C48.6186 97.79 48.6032 98.0574 48.64 98.32C49.1757 102.365 51.2365 106.052 54.4008 108.628C57.5652 111.204 61.5941 112.473 65.6635 112.177C69.7329 111.881 73.5354 110.041 76.2933 107.034C79.0511 104.027 80.5559 100.08 80.5 96V90C80.5 89.4696 80.2893 88.9609 79.9142 88.5858C79.5391 88.2107 79.0304 88 78.5 88H50.5C49.9696 88 49.4609 88.2107 49.0858 88.5858C48.7107 88.9609 48.5 89.4696 48.5 90C48.5 90.5304 48.7107 91.0391 49.0858 91.4142C49.4609 91.7893 49.9696 92 50.5 92H76.5V96C76.4963 98.1076 75.9375 100.177 74.88 102ZM56.68 105.08C58.812 103.111 61.6077 102.017 64.51 102.017C67.4123 102.017 70.208 103.111 72.34 105.08C70.1716 106.975 67.3896 108.019 64.51 108.019C61.6304 108.019 58.8484 106.975 56.68 105.08Z" fill="#39519D"/>
    <path d="M70.5 78C70.5 77.4696 70.2893 76.9609 69.9142 76.5858C69.5391 76.2107 69.0304 76 68.5 76C67.9696 76 67.4609 76.2107 67.0858 76.5858C66.7107 76.9609 66.5 77.4696 66.5 78C66.5 78.5304 66.2893 79.0391 65.9142 79.4142C65.5391 79.7893 65.0304 80 64.5 80C63.9696 80 63.4609 79.7893 63.0858 79.4142C62.7107 79.0391 62.5 78.5304 62.5 78C62.5 77.4696 62.2893 76.9609 61.9142 76.5858C61.5391 76.2107 61.0304 76 60.5 76C59.9696 76 59.4609 76.2107 59.0858 76.5858C58.7107 76.9609 58.5 77.4696 58.5 78C58.5 79.5913 59.1321 81.1174 60.2574 82.2426C61.3826 83.3679 62.9087 84 64.5 84C66.0913 84 67.6174 83.3679 68.7426 82.2426C69.8679 81.1174 70.5 79.5913 70.5 78Z" fill="#39519D"/>
    <path d="M84.5 84H92.5C93.0304 84 93.5391 83.7893 93.9142 83.4142C94.2893 83.0391 94.5 82.5304 94.5 82C94.5 81.4696 94.2893 80.9609 93.9142 80.5858C93.5391 80.2107 93.0304 80 92.5 80H84.5C83.9696 80 83.4609 80.2107 83.0858 80.5858C82.7107 80.9609 82.5 81.4696 82.5 82C82.5 82.5304 82.7107 83.0391 83.0858 83.4142C83.4609 83.7893 83.9696 84 84.5 84Z" fill="#39519D"/>
    <path d="M34.5 82C34.5 82.5304 34.7107 83.0391 35.0858 83.4142C35.4609 83.7893 35.9696 84 36.5 84H44.5C45.0304 84 45.5391 83.7893 45.9142 83.4142C46.2893 83.0391 46.5 82.5304 46.5 82C46.5 81.4696 46.2893 80.9609 45.9142 80.5858C45.5391 80.2107 45.0304 80 44.5 80H36.5C35.9696 80 35.4609 80.2107 35.0858 80.5858C34.7107 80.9609 34.5 81.4696 34.5 82Z" fill="#39519D"/>
    <defs>
        <linearGradient id="paint0_linear_3209_24450" x1="178.429" y1="69.3435" x2="143.588" y2="-23.6392" gradientUnits="userSpaceOnUse">
            <stop stop-color="#1CB6AC"/>
            <stop offset="0.448142" stop-color="#1CB6AC"/>
            <stop offset="0.453125" stop-color="#20C2A8"/>
            <stop offset="1" stop-color="#24D0A3"/>
        </linearGradient>
        <linearGradient id="paint1_linear_3209_24450" x1="48.2539" y1="80.1534" x2="-0.0125077" y2="72.5019" gradientUnits="userSpaceOnUse">
            <stop stop-color="#1CB6AC"/>
            <stop offset="1" stop-color="#24D0A3"/>
        </linearGradient>
    </defs>
</svg>
