<svg width="51" height="51" viewBox="0 0 51 51" fill="none" xmlns="http://www.w3.org/2000/svg">
    <rect width="51" height="51" rx="12" fill="#F9F9F9"/>
    <path fill-rule="evenodd" clip-rule="evenodd" d="M26.1375 16.2888L21.7003 21.07L26.1375 25.8513L21.7003 30.6L12.75 21.0538L21.7003 11.475L26.1375 16.2888ZM39.525 21.07L30.6051 11.4913L26.1375 16.2725L30.6051 21.0538L26.1375 25.835L30.6051 30.5837L39.525 21.07Z" fill="#ED1C24"/>
    <path fill-rule="evenodd" clip-rule="evenodd" d="M22.3743 34.5797V35.2977C22.2677 35.2049 22.1611 35.1244 22.0616 35.0749C21.955 35.0254 21.8484 35.0068 21.7205 35.0068C21.5073 35.0068 21.3296 35.0749 21.1946 35.2049C21.0595 35.3348 20.9885 35.4958 20.9885 35.7124C20.9885 35.9104 21.0595 36.0652 21.1946 36.1951C21.3296 36.3251 21.5073 36.3932 21.7205 36.3932C21.8413 36.3932 21.9479 36.3684 22.0616 36.3251C22.154 36.2756 22.2606 36.1951 22.3743 36.1023V36.8203C22.2535 36.876 22.1327 36.9131 22.0119 36.9379C21.8911 36.9626 21.7702 36.975 21.6494 36.975C21.5002 36.975 21.3651 36.9626 21.2301 36.9255C21.1093 36.9007 20.9885 36.845 20.8819 36.7831C20.6686 36.6655 20.5194 36.5108 20.3986 36.3251C20.292 36.1394 20.2351 35.9352 20.2351 35.7C20.2351 35.5143 20.2778 35.3472 20.3417 35.1925C20.4057 35.0377 20.5194 34.9016 20.6544 34.784C20.7895 34.6664 20.9387 34.5735 21.1022 34.5117C21.2798 34.4498 21.4504 34.4312 21.6565 34.4312C21.7773 34.4312 21.8982 34.4436 22.019 34.4683C22.1327 34.4869 22.2535 34.5178 22.3743 34.5797ZM17.236 36.9069V34.4869H17.9893V35.4277H18.9985V34.4869H19.7518V36.9069H18.9985V35.9166H17.9893V36.9069H17.236ZM16.8024 34.5797V35.2977C16.6958 35.2049 16.5963 35.1244 16.4897 35.0749C16.3831 35.0254 16.2765 35.0068 16.1557 35.0068C15.9425 35.0068 15.7648 35.0749 15.6298 35.2049C15.4947 35.3348 15.4308 35.4958 15.4308 35.7124C15.4308 35.9104 15.5018 36.0652 15.6298 36.1951C15.779 36.3251 15.9567 36.3932 16.1557 36.3932C16.2765 36.3932 16.3831 36.3684 16.4897 36.3251C16.5963 36.2756 16.6887 36.1951 16.8024 36.1023V36.8203C16.6816 36.876 16.5608 36.9131 16.44 36.9379C16.3191 36.9626 16.2125 36.975 16.0917 36.975C15.9283 36.975 15.7932 36.9626 15.6582 36.9255C15.5374 36.9007 15.4166 36.845 15.31 36.7831C15.111 36.6655 14.9475 36.5108 14.8409 36.3251C14.7343 36.1394 14.6774 35.9352 14.6774 35.7C14.6774 35.5143 14.7059 35.3472 14.7698 35.1925C14.8338 35.0377 14.9475 34.9016 15.0896 34.784C15.2105 34.6664 15.3597 34.5735 15.5374 34.5117C15.7008 34.4498 15.8714 34.4312 16.0917 34.4312C16.2125 34.4312 16.3191 34.4436 16.44 34.4683C16.5608 34.4869 16.6816 34.5178 16.8024 34.5797ZM12.5809 36.9069V34.4869H14.2794V35.013H13.32V35.4339H14.2226V35.9538H13.32V36.3623H14.2794V36.9007H12.5809V36.9069ZM24.1653 34.425V34.9882C23.9521 34.9882 23.7886 35.0501 23.6394 35.1863C23.5043 35.3163 23.4404 35.4896 23.4404 35.6938C23.4404 35.9043 23.5115 36.0714 23.6394 36.2137C23.7744 36.3437 23.9521 36.4118 24.1653 36.4118V36.9626C23.9592 36.9626 23.7744 36.9379 23.5967 36.8698C23.4049 36.8141 23.2485 36.7151 23.1135 36.5975C22.9642 36.4799 22.8576 36.3375 22.7865 36.189C22.7084 36.0342 22.6799 35.8733 22.6799 35.6938C22.6799 35.5205 22.7084 35.3658 22.7865 35.211C22.8576 35.0563 22.9642 34.9201 23.1135 34.8026C23.2485 34.685 23.412 34.5921 23.5967 34.5178C23.7744 34.4621 23.9663 34.425 24.1653 34.425ZM10.8254 36.9069V35.0501H10.2V34.4869H12.1971V35.0501H11.5788V36.9069H10.8254ZM29.325 36.9069H28.6214L28.4437 35.8609C28.4437 35.7928 28.4295 35.6938 28.4153 35.6134C28.4011 35.5205 28.4011 35.4277 28.3869 35.3225C28.3727 35.4153 28.33 35.5453 28.2803 35.7C28.2803 35.7371 28.2661 35.7557 28.2661 35.7681L27.8894 36.9069H27.3777L27.001 35.7681C27.001 35.7557 26.9868 35.7309 26.9726 35.7C26.9157 35.5453 26.8944 35.4153 26.8802 35.3225C26.866 35.4153 26.8518 35.5019 26.8518 35.5948C26.8375 35.6876 26.8233 35.7743 26.8091 35.8671L26.6457 36.9131H25.9421L26.3614 34.4931H27.1147L27.5411 35.7309C27.5411 35.7433 27.5554 35.7557 27.5554 35.7805C27.598 35.8857 27.6264 35.9785 27.6335 36.0652C27.6335 36.0157 27.6477 35.9723 27.662 35.9228C27.6762 35.8609 27.6904 35.8052 27.7188 35.7371L28.1523 34.4931H28.8915L29.325 36.9069ZM24.1653 36.9626V36.4118C24.3785 36.4118 24.542 36.3437 24.6912 36.2137C24.8263 36.0714 24.8902 35.9104 24.8902 35.6938C24.8902 35.4958 24.8263 35.3286 24.6912 35.1863C24.542 35.0439 24.3643 34.9882 24.1653 34.9882V34.425C24.3643 34.425 24.5562 34.4621 24.7339 34.5178C24.9258 34.5859 25.0821 34.685 25.2171 34.8026C25.3664 34.9201 25.4588 35.0501 25.5441 35.211C25.608 35.3658 25.6507 35.5143 25.6507 35.6938C25.6507 35.8671 25.608 36.0342 25.5441 36.189C25.473 36.3437 25.3664 36.4799 25.2171 36.5975C25.0821 36.7151 24.9186 36.8079 24.7339 36.8698C24.5562 36.9379 24.3714 36.9626 24.1653 36.9626Z" fill="#ED1C24"/>
    <path fill-rule="evenodd" clip-rule="evenodd" d="M31.3028 35.4372H31.4678C31.5252 35.4372 31.561 35.4372 31.6184 35.4372V35.8914C31.6041 35.8914 31.5897 35.8914 31.5754 35.8914H31.3028V36.4429H31.561C31.5754 36.4429 31.6041 36.4429 31.6184 36.4429V36.962C31.5467 36.962 31.4821 36.962 31.3889 36.962H30.6V34.425H31.3746C31.4678 34.425 31.5395 34.425 31.6184 34.425V34.9311C31.5754 34.9311 31.5252 34.9311 31.4678 34.9311H31.3028V35.4372ZM34.3796 34.4315V34.8532C34.3796 34.8403 34.3796 34.8403 34.3796 34.8403C34.3509 34.9052 34.3365 34.9636 34.3222 35.0284C34.3079 35.0803 34.2935 35.1387 34.2648 35.1907L33.9923 36.0277H34.3724V36.5208H33.8273L33.6767 36.975H32.9165L33.8847 34.438H34.3796V34.4315ZM31.6184 35.4372C31.7116 35.4242 31.7977 35.4113 31.8336 35.3853C31.8981 35.3464 31.9411 35.275 31.9411 35.1907C31.9411 35.0933 31.9125 35.0284 31.8479 34.983C31.7905 34.9571 31.726 34.9441 31.6184 34.9311V34.425C31.7977 34.425 31.934 34.438 32.0272 34.451C32.1491 34.4769 32.2567 34.5029 32.3571 34.5483C32.4503 34.6002 32.5364 34.6716 32.5866 34.7559C32.644 34.8403 32.6655 34.9441 32.6655 35.0544C32.6655 35.2036 32.6225 35.3269 32.5436 35.3983C32.4647 35.4826 32.3284 35.5605 32.1491 35.5929C32.3499 35.6059 32.5149 35.6643 32.6225 35.7876C32.73 35.8979 32.7874 36.0471 32.7874 36.2288C32.7874 36.3651 32.7587 36.4884 32.6942 36.5857C32.6368 36.696 32.5436 36.7674 32.4217 36.8323C32.3284 36.8842 32.2208 36.9036 32.0702 36.9296C31.977 36.9426 31.8264 36.9555 31.6184 36.9555V36.4365C31.769 36.4365 31.8766 36.4105 31.9483 36.3716C32.0272 36.3326 32.0702 36.2613 32.0702 36.1639C32.0702 36.0666 32.0272 35.9887 31.9627 35.9433C31.8909 35.9044 31.7834 35.8784 31.6256 35.8784V35.4372H31.6184ZM39.4501 36.9685V34.4315H40.196V35.5865L41.0925 34.4315H41.9746L40.9418 35.6708L42.075 36.962H41.1211L40.196 35.8265V36.9685H39.4501ZM36.1008 36.9685V34.4315H36.8395L37.901 35.7357C37.9153 35.7616 37.9583 35.82 37.9942 35.8979C38.0516 35.9823 38.1018 36.0731 38.1592 36.1834C38.1448 36.0861 38.1305 35.9887 38.1161 35.9109C38.1161 35.8265 38.1018 35.7487 38.1018 35.6903V34.4315H38.8405V36.9685H38.1018L37.0403 35.6643C37.026 35.6384 36.983 35.58 36.9471 35.5021C36.8897 35.4178 36.8539 35.3204 36.7965 35.2166C36.8108 35.3139 36.8252 35.4113 36.8252 35.5021C36.8395 35.5735 36.8395 35.6513 36.8395 35.7097V36.9685H36.1008ZM34.3796 36.5143V36.0212H34.7597L34.4728 35.1842C34.4585 35.1582 34.4441 35.1193 34.4298 35.0609C34.4154 35.009 34.3867 34.9376 34.3724 34.8532V34.4315H34.8457L35.814 36.9685H35.0609L34.9103 36.5143H34.3796Z" fill="#231F20"/>
</svg>
