<svg width="129" height="128" viewBox="0 0 129 128" fill="none" xmlns="http://www.w3.org/2000/svg">
    <path d="M64.5 6C79.8826 6 94.6351 12.1107 105.512 22.9878C116.389 33.8649 122.5 48.6174 122.5 64C122.5 76.2 117.654 87.9002 109.027 96.5269C100.4 105.154 88.7 110 76.5 110H52.5C40.3 110 28.5998 105.154 19.9731 96.5269C11.3464 87.9002 6.5 76.2 6.5 64C6.5 48.6174 12.6107 33.8649 23.4878 22.9878C34.3649 12.1107 49.1174 6 64.5 6Z" fill="#1CB6AC"/>
    <path d="M122.5 64C122.5 76.2 117.654 87.9002 109.027 96.5269C100.4 105.154 88.7 110 76.5 110H52.5C40.3 110 28.5998 105.154 19.9731 96.5269C11.3464 87.9002 6.5 76.2 6.5 64C6.49923 55.3127 8.44996 46.7361 12.2081 38.9038C15.9663 31.0715 21.4359 24.1834 28.213 18.7483C34.9901 13.3131 42.9016 9.46983 51.3631 7.50217C59.8247 5.53451 68.6201 5.49276 77.1 7.38C77.4208 9.40949 77.8819 11.4143 78.48 13.38C79.7972 17.7209 81.7446 21.8449 84.26 25.62L86.66 29.22C90.4027 34.8492 96.1061 38.8843 102.66 40.54C104.385 40.9759 105.952 41.8907 107.18 43.1788C108.408 44.4668 109.247 46.0758 109.6 47.82C109.867 49.1267 110.405 50.3628 111.181 51.4481C111.956 52.5334 112.95 53.4437 114.1 54.12C116.472 55.5127 119.169 56.2576 121.92 56.28C122.287 58.8374 122.48 61.4166 122.5 64Z" fill="url(#paint0_linear_3209_24432)"/>
    <path d="M61.64 110H52.5C40.3001 110 28.5998 105.154 19.9731 96.5269C11.3464 87.9002 6.50001 76.2 6.50001 64C6.47967 51.2923 10.6333 38.9297 18.3225 28.8123C26.0117 18.6949 36.8109 11.3829 49.06 8C47.0941 9.50857 45.23 11.1455 43.48 12.9C38.0772 18.2909 33.7951 24.6982 30.8808 31.7523C27.9665 38.8064 26.4776 46.3677 26.5 54C26.5 75.66 41.48 102.56 61.64 110Z" fill="url(#paint1_linear_3209_24432)"/>
    <path d="M64.5 122C54.4218 122 44.7563 117.996 37.6299 110.87C30.5036 103.744 26.5 94.0782 26.5 84V56.94C26.4989 55.4538 26.9119 53.9966 27.6926 52.7319C28.4733 51.4673 29.5909 50.4451 30.92 49.78C33.2681 48.608 35.3057 46.8971 36.8664 44.7873C38.427 42.6774 39.4666 40.2283 39.9 37.64L40.5 34L42.34 39.54C42.9685 41.4197 44.1715 43.0544 45.7792 44.2135C47.3869 45.3727 49.318 45.9975 51.3 46C53.9773 46.0023 56.5873 45.161 58.7594 43.5957C60.9315 42.0304 62.5552 39.8206 63.4 37.28L64.5 34L65.6 37.28C66.4448 39.8206 68.0685 42.0304 70.2406 43.5957C72.4127 45.161 75.0227 46.0023 77.7 46H78.5L80.5 32L81.78 36.48C82.6061 39.3563 84.1917 41.9569 86.3702 44.0086C88.5486 46.0604 91.2395 47.4875 94.16 48.14L96.16 48.6C97.9526 48.9802 99.5602 49.9643 100.714 51.3877C101.868 52.8111 102.499 54.5876 102.5 56.42V84C102.5 94.0782 98.4964 103.744 91.3701 110.87C84.2437 117.996 74.5782 122 64.5 122Z" fill="#FFF0E4"/>
    <path d="M22.5 56H26.5V80C23.3174 80 20.2652 78.7357 18.0147 76.4853C15.7643 74.2348 14.5 71.1826 14.5 68V64C14.5 61.8783 15.3429 59.8434 16.8431 58.3431C18.3434 56.8429 20.3783 56 22.5 56Z" fill="#FFD4B3"/>
    <path d="M102.5 56H106.5C108.622 56 110.657 56.8429 112.157 58.3431C113.657 59.8434 114.5 61.8783 114.5 64V68C114.5 71.1826 113.236 74.2348 110.985 76.4853C108.735 78.7357 105.683 80 102.5 80V56Z" fill="#FFF0E4"/>
    <path d="M102.5 56.42V66.42C102.503 64.5986 101.884 62.8309 100.745 61.409C99.6071 59.9871 98.0178 58.9961 96.24 58.6L94.24 58.14C91.3195 57.4875 88.6286 56.0604 86.4502 54.0086C84.2717 51.9569 82.6861 49.3563 81.86 46.48L80.5 42L78.5 56H77.7C75.0227 56.0023 72.4127 55.161 70.2406 53.5957C68.0685 52.0304 66.4448 49.8206 65.6 47.28L64.5 44L63.4 47.28C62.5552 49.8206 60.9315 52.0304 58.7594 53.5957C56.5873 55.161 53.9773 56.0023 51.3 56C49.318 55.9975 47.3869 55.3727 45.7792 54.2135C44.1715 53.0544 42.9685 51.4197 42.34 49.54L40.78 44.86L40.3 45.16L39.9 47.64C39.4207 50.418 38.2516 53.0312 36.5 55.24V79C36.5 89.0782 40.5036 98.7437 47.6299 105.87C54.7563 112.996 64.4218 117 74.5 117C78.5155 116.974 82.5003 116.299 86.3 115C79.9365 119.54 72.3173 121.987 64.5 122C54.4218 122 44.7563 117.996 37.6299 110.87C30.5036 103.744 26.5 94.0782 26.5 84V56.94C26.4989 55.4538 26.9119 53.9966 27.6926 52.7319C28.4733 51.4673 29.5909 50.4451 30.92 49.78C33.2691 48.6093 35.3075 46.8988 36.8683 44.7887C38.4292 42.6786 39.4681 40.2289 39.9 37.64L40.5 34L42.34 39.54C42.9685 41.4197 44.1715 43.0544 45.7792 44.2135C47.3869 45.3727 49.318 45.9975 51.3 46C53.9781 46.0053 56.5895 45.1653 58.7621 43.5995C60.9348 42.0338 62.5579 39.8222 63.4 37.28L64.5 34L65.6 37.28C66.4448 39.8206 68.0685 42.0304 70.2406 43.5957C72.4127 45.161 75.0227 46.0023 77.7 46H78.5L80.5 32L81.78 36.48C82.6061 39.3563 84.1917 41.9569 86.3702 44.0086C88.5486 46.0604 91.2395 47.4875 94.16 48.14L96.16 48.6C97.9526 48.9802 99.5602 49.9643 100.714 51.3877C101.868 52.8111 102.499 54.5876 102.5 56.42Z" fill="#FFD4B3"/>
    <path d="M88.5 96C92.9183 96 96.5 93.3137 96.5 90C96.5 86.6863 92.9183 84 88.5 84C84.0817 84 80.5 86.6863 80.5 90C80.5 93.3137 84.0817 96 88.5 96Z" fill="#FFB9A3"/>
    <path d="M40.5 96C44.9183 96 48.5 93.3137 48.5 90C48.5 86.6863 44.9183 84 40.5 84C36.0817 84 32.5 86.6863 32.5 90C32.5 93.3137 36.0817 96 40.5 96Z" fill="#FFB9A3"/>
    <path d="M112.98 73.86C111.937 75.7232 110.416 77.2745 108.574 78.3539C106.732 79.4332 104.635 80.0014 102.5 80V56H106.5V66C106.499 67.859 107.145 69.6603 108.327 71.0947C109.51 72.529 111.155 73.5068 112.98 73.86Z" fill="#FFD4B3"/>
    <path d="M16.02 73.86C17.0627 75.7232 18.5836 77.2745 20.4258 78.3539C22.268 79.4332 24.3649 80.0014 26.5 80V56H22.5V66C22.5013 67.859 21.8553 69.6603 20.6727 71.0947C19.4902 72.529 17.8451 73.5068 16.02 73.86Z" fill="#DA9367"/>
    <path d="M82.5 82C90.232 82 96.5 75.732 96.5 68C96.5 60.268 90.232 54 82.5 54C74.768 54 68.5 60.268 68.5 68C68.5 75.732 74.768 82 82.5 82Z" fill="#00B2FF"/>
    <path d="M46.5 82C54.232 82 60.5 75.732 60.5 68C60.5 60.268 54.232 54 46.5 54C38.768 54 32.5 60.268 32.5 68C32.5 75.732 38.768 82 46.5 82Z" fill="#00B2FF"/>
    <path d="M60.5 69.26C60.2779 72.2244 59.0907 75.0344 57.12 77.26L37.3 57.46C39.5256 55.4893 42.3356 54.3021 45.3 54.08L60.5 69.26Z" fill="#4CC9FF"/>
    <path d="M96.5 69.26C96.278 72.2244 95.0908 75.0344 93.12 77.26L73.3 57.46C75.5256 55.4893 78.3356 54.3021 81.3 54.08L96.5 69.26Z" fill="#4CC9FF"/>
    <path d="M82.5 72C84.7091 72 86.5 70.2091 86.5 68C86.5 65.7909 84.7091 64 82.5 64C80.2909 64 78.5 65.7909 78.5 68C78.5 70.2091 80.2909 72 82.5 72Z" fill="#00B2FF"/>
    <path d="M46.5 72C48.7091 72 50.5 70.2091 50.5 68C50.5 65.7909 48.7091 64 46.5 64C44.2909 64 42.5 65.7909 42.5 68C42.5 70.2091 44.2909 72 46.5 72Z" fill="#00B2FF"/>
    <path d="M50.5 68C50.4866 68.7062 50.2865 69.3962 49.92 70L44.5 64.58C45.1038 64.2135 45.7938 64.0134 46.5 64C47.5609 64 48.5783 64.4214 49.3284 65.1716C50.0786 65.9217 50.5 66.9391 50.5 68Z" fill="url(#paint2_linear_3209_24432)"/>
    <path d="M86.5 68C86.4866 68.7062 86.2865 69.3962 85.92 70L80.5 64.58C81.1038 64.2135 81.7938 64.0134 82.5 64C83.5609 64 84.5783 64.4214 85.3284 65.1716C86.0786 65.9217 86.5 66.9391 86.5 68Z" fill="url(#paint3_linear_3209_24432)"/>
    <path d="M86.5 68C86.4866 68.7062 86.2865 69.3962 85.92 70L80.5 64.58C81.1038 64.2135 81.7938 64.0134 82.5 64C83.5609 64 84.5783 64.4214 85.3284 65.1716C86.0786 65.9217 86.5 66.9391 86.5 68Z" fill="#00B2FF"/>
    <path d="M50.5 68C50.4866 68.7062 50.2865 69.3962 49.92 70L44.5 64.58C45.1038 64.2135 45.7938 64.0134 46.5 64C47.5609 64 48.5783 64.4214 49.3284 65.1716C50.0786 65.9217 50.5 66.9391 50.5 68Z" fill="#00B2FF"/>
    <path d="M64.5 110C60.787 110 57.226 108.525 54.6005 105.899C51.975 103.274 50.5 99.713 50.5 96V94C59.6495 96.6197 69.3505 96.6197 78.5 94V96C78.5 99.713 77.025 103.274 74.3995 105.899C71.774 108.525 68.213 110 64.5 110Z" fill="#CC5144"/>
    <path d="M75.04 105.2C73.7259 106.703 72.1056 107.908 70.2877 108.733C68.4698 109.558 66.4964 109.985 64.5 109.985C62.5035 109.985 60.5301 109.558 58.7122 108.733C56.8943 107.908 55.274 106.703 53.96 105.2C55.1608 103.541 56.7485 102.2 58.5854 101.293C60.4222 100.387 62.4525 99.9432 64.5 100C66.5474 99.9432 68.5777 100.387 70.4146 101.293C72.2514 102.2 73.8392 103.541 75.04 105.2Z" fill="#FFB9A3"/>
    <path d="M82.5 62C81.3133 62 80.1533 62.3519 79.1666 63.0112C78.1799 63.6705 77.4109 64.6075 76.9567 65.7039C76.5026 66.8003 76.3838 68.0067 76.6153 69.1705C76.8468 70.3344 77.4182 71.4035 78.2574 72.2426C79.0965 73.0818 80.1656 73.6532 81.3295 73.8847C82.4933 74.1162 83.6997 73.9974 84.7961 73.5433C85.8925 73.0891 86.8295 72.3201 87.4888 71.3334C88.1481 70.3467 88.5 69.1867 88.5 68C88.5 66.4087 87.8679 64.8826 86.7426 63.7574C85.6174 62.6321 84.0913 62 82.5 62ZM82.5 70C82.1044 70 81.7178 69.8827 81.3889 69.6629C81.06 69.4432 80.8036 69.1308 80.6522 68.7654C80.5009 68.3999 80.4613 67.9978 80.5384 67.6098C80.6156 67.2219 80.8061 66.8655 81.0858 66.5858C81.3655 66.3061 81.7219 66.1156 82.1098 66.0384C82.4978 65.9613 82.8999 66.0009 83.2654 66.1522C83.6308 66.3036 83.9432 66.56 84.1629 66.8889C84.3827 67.2178 84.5 67.6044 84.5 68C84.5 68.5304 84.2893 69.0391 83.9142 69.4142C83.5391 69.7893 83.0304 70 82.5 70Z" fill="#39519D"/>
    <path d="M46.5 62C45.3133 62 44.1533 62.3519 43.1666 63.0112C42.1799 63.6705 41.4109 64.6075 40.9567 65.7039C40.5026 66.8003 40.3838 68.0067 40.6153 69.1705C40.8468 70.3344 41.4182 71.4035 42.2574 72.2426C43.0965 73.0818 44.1656 73.6532 45.3295 73.8847C46.4933 74.1162 47.6997 73.9974 48.7961 73.5433C49.8925 73.0891 50.8295 72.3201 51.4888 71.3334C52.1481 70.3467 52.5 69.1867 52.5 68C52.5 66.4087 51.8679 64.8826 50.7426 63.7574C49.6174 62.6321 48.0913 62 46.5 62ZM46.5 70C46.1044 70 45.7178 69.8827 45.3889 69.6629C45.06 69.4432 44.8036 69.1308 44.6522 68.7654C44.5009 68.3999 44.4613 67.9978 44.5384 67.6098C44.6156 67.2219 44.8061 66.8655 45.0858 66.5858C45.3655 66.3061 45.7219 66.1156 46.1098 66.0384C46.4978 65.9613 46.8999 66.0009 47.2654 66.1522C47.6308 66.3036 47.9432 66.56 48.1629 66.8889C48.3827 67.2178 48.5 67.6044 48.5 68C48.5 68.5304 48.2893 69.0391 47.9142 69.4142C47.5391 69.7893 47.0304 70 46.5 70Z" fill="#39519D"/>
    <path d="M77.96 92C69.1635 94.5197 59.8365 94.5197 51.04 92C50.7449 91.9163 50.4344 91.9017 50.1327 91.9572C49.831 92.0126 49.5461 92.1368 49.3 92.32C49.0516 92.5063 48.85 92.7479 48.7111 93.0256C48.5723 93.3033 48.5 93.6095 48.5 93.92V95.92C48.5 100.163 50.1857 104.233 53.1863 107.234C56.1869 110.234 60.2565 111.92 64.5 111.92C68.7435 111.92 72.8131 110.234 75.8137 107.234C78.8143 104.233 80.5 100.163 80.5 95.92V94C80.5 93.6895 80.4277 93.3833 80.2889 93.1056C80.15 92.8279 79.9484 92.5863 79.7 92.4C79.4608 92.2031 79.1791 92.0645 78.8771 91.9951C78.5752 91.9257 78.2612 91.9274 77.96 92ZM76.5 96.58C76.4135 98.4896 75.8645 100.35 74.9 102C72.0419 99.4377 68.3385 98.0207 64.5 98.0207C60.6615 98.0207 56.9581 99.4377 54.1 102C53.1456 100.354 52.6036 98.5011 52.52 96.6C60.4087 98.4362 68.6144 98.4294 76.5 96.58ZM56.68 105.06C58.8174 103.094 61.6157 102.002 64.52 102.002C67.4243 102.002 70.2226 103.094 72.36 105.06C70.1809 106.941 67.3984 107.975 64.52 107.975C61.6416 107.975 58.8591 106.941 56.68 105.06Z" fill="#39519D"/>
    <path d="M64.5 90C66.0913 90 67.6174 89.3679 68.7426 88.2426C69.8679 87.1174 70.5 85.5913 70.5 84C70.5 83.4696 70.2893 82.9609 69.9142 82.5858C69.5391 82.2107 69.0304 82 68.5 82C67.9696 82 67.4609 82.2107 67.0858 82.5858C66.7107 82.9609 66.5 83.4696 66.5 84C66.5 84.5304 66.2893 85.0391 65.9142 85.4142C65.5391 85.7893 65.0304 86 64.5 86C63.9696 86 63.4609 85.7893 63.0858 85.4142C62.7107 85.0391 62.5 84.5304 62.5 84C62.5 83.4696 62.2893 82.9609 61.9142 82.5858C61.5391 82.2107 61.0304 82 60.5 82C59.9696 82 59.4609 82.2107 59.0858 82.5858C58.7107 82.9609 58.5 83.4696 58.5 84C58.5 85.5913 59.1321 87.1174 60.2574 88.2426C61.3826 89.3679 62.9087 90 64.5 90Z" fill="#39519D"/>
    <path d="M92.5 88H86.5C85.9696 88 85.4609 88.2107 85.0858 88.5858C84.7107 88.9609 84.5 89.4696 84.5 90C84.5 90.5304 84.7107 91.0391 85.0858 91.4142C85.4609 91.7893 85.9696 92 86.5 92H92.5C93.0304 92 93.5391 91.7893 93.9142 91.4142C94.2893 91.0391 94.5 90.5304 94.5 90C94.5 89.4696 94.2893 88.9609 93.9142 88.5858C93.5391 88.2107 93.0304 88 92.5 88Z" fill="#39519D"/>
    <path d="M42.5 88H36.5C35.9696 88 35.4609 88.2107 35.0858 88.5858C34.7107 88.9609 34.5 89.4696 34.5 90C34.5 90.5304 34.7107 91.0391 35.0858 91.4142C35.4609 91.7893 35.9696 92 36.5 92H42.5C43.0304 92 43.5391 91.7893 43.9142 91.4142C44.2893 91.0391 44.5 90.5304 44.5 90C44.5 89.4696 44.2893 88.9609 43.9142 88.5858C43.5391 88.2107 43.0304 88 42.5 88Z" fill="#39519D"/>
    <path d="M124.5 64C124.54 50.5241 119.998 37.4348 111.62 26.88C111.467 26.6494 111.267 26.4531 111.034 26.3036C110.801 26.1541 110.539 26.0546 110.266 26.0115C109.992 25.9684 109.713 25.9826 109.445 26.0532C109.177 26.1238 108.927 26.2492 108.71 26.4215C108.493 26.5938 108.314 26.8093 108.185 27.0543C108.056 27.2993 107.979 27.5684 107.959 27.8446C107.94 28.1209 107.978 28.3982 108.071 28.6591C108.164 28.9199 108.31 29.1586 108.5 29.36C116.315 39.2103 120.547 51.4261 120.5 64C120.494 71.2513 118.697 78.3889 115.267 84.7777C111.837 91.1666 106.881 96.6087 100.84 100.62C103.245 95.4089 104.493 89.7392 104.5 84V81.84C107.829 81.3595 110.874 79.6964 113.078 77.1549C115.281 74.6135 116.496 71.3637 116.5 68V64C116.5 61.3478 115.446 58.8043 113.571 56.9289C111.696 55.0536 109.152 54 106.5 54C106.502 53.7368 106.451 53.4759 106.352 53.2322C106.252 52.9885 106.105 52.7669 105.92 52.58C105.614 52.2852 105.223 52.0952 104.802 52.0377C104.382 51.9802 103.953 52.058 103.58 52.26C102.937 50.8556 101.978 49.6191 100.778 48.6475C99.5769 47.6759 98.1676 46.9956 96.66 46.66L94.66 46.2C92.0852 45.6416 89.7084 44.3996 87.7797 42.6046C85.851 40.8097 84.4417 38.5282 83.7 36L82.5 31.46C82.3277 30.9856 81.9823 30.5938 81.5333 30.3634C81.0842 30.1329 80.5646 30.0808 80.0787 30.2175C79.5928 30.3541 79.1765 30.6695 78.9134 31.1002C78.6503 31.531 78.5598 32.0453 78.66 32.54L79.94 37.02C80.8594 40.2491 82.6348 43.1694 85.0782 45.472C87.5216 47.7746 90.5421 49.3737 93.82 50.1L95.82 50.56C96.9601 50.8154 98.0007 51.3981 98.8143 52.2366C99.6279 53.075 100.179 54.1328 100.4 55.28L96.1 59.58C94.7758 57.4421 92.9664 55.6464 90.8184 54.3386C88.6704 53.0308 86.2444 52.2477 83.7372 52.0529C81.2299 51.8581 78.7121 52.257 76.3879 53.2173C74.0636 54.1776 71.9985 55.6723 70.36 57.58C68.5557 56.6438 66.5527 56.1551 64.52 56.1551C62.4873 56.1551 60.4843 56.6438 58.68 57.58C57.0415 55.6723 54.9764 54.1776 52.6521 53.2173C50.3279 52.257 47.8101 51.8581 45.3028 52.0529C42.7956 52.2477 40.3696 53.0308 38.2216 54.3386C36.0736 55.6464 34.2642 57.4421 32.94 59.58L28.76 55.42C28.9727 54.5985 29.3571 53.8315 29.8881 53.1696C30.419 52.5077 31.0843 51.9659 31.84 51.58C36.0482 49.459 39.304 45.8319 40.96 41.42C41.8819 43.3846 43.3436 45.0464 45.1745 46.2115C47.0054 47.3766 49.1299 47.9969 51.3 48C54.0393 48.0038 56.7254 47.2441 59.057 45.8063C61.3886 44.3685 63.2735 42.3093 64.5 39.86C65.7265 42.3093 67.6114 44.3685 69.943 45.8063C72.2746 47.2441 74.9607 48.0038 77.7 48H78.5C79.0304 48 79.5391 47.7893 79.9142 47.4142C80.2893 47.0391 80.5 46.5304 80.5 46C80.5 45.4696 80.2893 44.9609 79.9142 44.5858C79.5391 44.2107 79.0304 44 78.5 44H77.7C75.4419 44.0012 73.241 43.2907 71.4098 41.9694C69.5787 40.6481 68.2106 38.7833 67.5 36.64L66.5 33.36C66.3685 32.9599 66.114 32.6115 65.7728 32.3645C65.4316 32.1175 65.0212 31.9845 64.6 31.9845C64.1788 31.9845 63.7684 32.1175 63.4272 32.3645C63.086 32.6115 62.8315 32.9599 62.7 33.36L61.6 36.64C60.8841 38.7996 59.5008 40.6761 57.6497 41.9989C55.7985 43.3216 53.5751 44.0224 51.3 44C49.7391 44.0009 48.2174 43.5108 46.9504 42.5991C45.6833 41.6874 44.7351 40.4003 44.24 38.92L42.5 33.36C42.3608 32.946 42.09 32.589 41.7289 32.3434C41.3677 32.0979 40.9361 31.9772 40.5 32C40.052 32.0349 39.6288 32.2196 39.2986 32.5244C38.9685 32.8291 38.7505 33.2362 38.68 33.68L38.08 37.32C37.6882 39.6067 36.7585 41.7676 35.3676 43.6245C33.9766 45.4813 32.1643 46.9811 30.08 48C28.1769 48.9533 26.6333 50.4969 25.68 52.4C25.3016 52.1303 24.8412 52.0007 24.3777 52.0335C23.9141 52.0664 23.4765 52.2596 23.14 52.58C22.9438 52.7619 22.786 52.9812 22.6761 53.2251C22.5662 53.4691 22.5063 53.7325 22.5 54C19.8478 54 17.3043 55.0536 15.4289 56.9289C13.5536 58.8043 12.5 61.3478 12.5 64V68C12.5039 71.3637 13.7188 74.6135 15.9224 77.1549C18.1259 79.6964 21.1708 81.3595 24.5 81.84V84C24.5087 89.739 25.7572 95.4083 28.16 100.62C24.2725 98.0221 20.8171 94.8299 17.92 91.16C17.5911 90.7436 17.1103 90.4749 16.5833 90.413C16.0564 90.3511 15.5264 90.5011 15.11 90.83C14.6936 91.1589 14.4249 91.6397 14.363 92.1667C14.3011 92.6936 14.4511 93.2236 14.78 93.64C19.4224 99.5411 25.3812 104.274 32.18 107.46C35.8711 112.581 40.7263 116.752 46.3456 119.629C51.9648 122.505 58.1872 124.005 64.5 124.005C70.8128 124.005 77.0352 122.505 82.6544 119.629C88.2737 116.752 93.1289 112.581 96.82 107.46C105.077 103.583 112.063 97.4394 116.964 89.7451C121.865 82.0507 124.478 73.1224 124.5 64ZM112.5 64V68C112.5 70.3053 111.704 72.54 110.247 74.3258C108.789 76.1116 106.759 77.3389 104.5 77.8V58H106.5C108.091 58 109.617 58.6321 110.743 59.7574C111.868 60.8826 112.5 62.4087 112.5 64ZM64.5 120C54.9522 120 45.7955 116.207 39.0442 109.456C32.2928 102.705 28.5 93.5478 28.5 84V66C28.5 65.4696 28.2893 64.9609 27.9142 64.5858C27.5391 64.2107 27.0304 64 26.5 64C25.9696 64 25.4609 64.2107 25.0858 64.5858C24.7107 64.9609 24.5 65.4696 24.5 66V77.8C22.2413 77.3389 20.2112 76.1116 18.7534 74.3258C17.2956 72.54 16.4995 70.3053 16.5 68V64C16.5 62.4087 17.1321 60.8826 18.2574 59.7574C19.3826 58.6321 20.9087 58 22.5 58H25.66L31.08 63.42C30.1767 66.4608 30.1977 69.7015 31.1403 72.7303C32.0829 75.7592 33.9046 78.4395 36.3738 80.4307C38.8431 82.422 41.8485 83.6344 45.0083 83.9138C48.1681 84.1932 51.3396 83.5271 54.12 82C54.3511 81.8687 54.5541 81.6931 54.7174 81.4833C54.8807 81.2736 55.001 81.0337 55.0716 80.7774C55.1422 80.5211 55.1616 80.2534 55.1287 79.9897C55.0958 79.7259 55.0113 79.4711 54.88 79.24C54.7487 79.0089 54.5731 78.8059 54.3633 78.6426C54.1536 78.4793 53.9137 78.359 53.6574 78.2884C53.4011 78.2178 53.1334 78.1984 52.8696 78.2313C52.6059 78.2642 52.3511 78.3487 52.12 78.48C49.5841 79.8488 46.6403 80.2593 43.8267 79.6365C41.0131 79.0138 38.5176 77.3993 36.7962 75.0882C35.0749 72.777 34.2427 69.9237 34.4517 67.0495C34.6608 64.1754 35.8972 61.4725 37.9348 59.4348C39.9725 57.3972 42.6754 56.1608 45.5495 55.9517C48.4237 55.7427 51.277 56.5749 53.5882 58.2962C55.8993 60.0176 57.5137 62.5131 58.1365 65.3267C58.7593 68.1404 58.3488 71.0841 56.98 73.62C56.7148 74.0868 56.6459 74.6398 56.7884 75.1574C56.9309 75.675 57.2732 76.1148 57.74 76.38C58.2068 76.6452 58.7598 76.7141 59.2774 76.5716C59.795 76.4291 60.2348 76.0868 60.5 75.62C61.7085 73.3782 62.3643 70.8802 62.413 68.3339C62.4617 65.7876 61.9019 63.2664 60.78 60.98C61.9222 60.4568 63.1637 60.1859 64.42 60.1859C65.6763 60.1859 66.9178 60.4568 68.06 60.98C66.8667 63.424 66.3161 66.1319 66.4602 68.8479C66.6043 71.5639 67.4384 74.1983 68.8836 76.5023C70.3289 78.8063 72.3376 80.7039 74.7201 82.0158C77.1026 83.3277 79.7802 84.0106 82.5 84C85.167 83.9789 87.7864 83.2913 90.12 82C90.3511 81.8687 90.5541 81.6931 90.7174 81.4833C90.8807 81.2736 91.001 81.0337 91.0716 80.7774C91.1422 80.5211 91.1616 80.2534 91.1287 79.9897C91.0958 79.7259 91.0113 79.4711 90.88 79.24C90.7487 79.0089 90.5731 78.8059 90.3633 78.6426C90.1536 78.4793 89.9137 78.359 89.6574 78.2884C89.4011 78.2178 89.1334 78.1984 88.8696 78.2313C88.6059 78.2642 88.3511 78.3487 88.12 78.48C85.5841 79.8488 82.6404 80.2593 79.8267 79.6365C77.0131 79.0138 74.5176 77.3993 72.7962 75.0882C71.0749 72.777 70.2427 69.9237 70.4517 67.0495C70.6608 64.1754 71.8971 61.4725 73.9348 59.4348C75.9725 57.3972 78.6754 56.1608 81.5495 55.9517C84.4237 55.7427 87.277 56.5749 89.5882 58.2962C91.8993 60.0176 93.5137 62.5131 94.1365 65.3267C94.7593 68.1404 94.3488 71.0841 92.98 73.62C92.8487 73.8511 92.7642 74.1059 92.7313 74.3696C92.6984 74.6334 92.7178 74.9011 92.7884 75.1574C92.859 75.4137 92.9793 75.6536 93.1426 75.8633C93.3059 76.0731 93.5089 76.2487 93.74 76.38C94.2068 76.6452 94.7598 76.7141 95.2774 76.5716C95.5337 76.501 95.7736 76.3807 95.9833 76.2174C96.1931 76.0541 96.3687 75.8511 96.5 75.62C98.513 71.8932 98.9661 67.5203 97.76 63.46L100.5 60.82V84C100.5 93.5478 96.7072 102.705 89.9558 109.456C83.2045 116.207 74.0478 120 64.5 120Z" fill="#39519D"/>
    <path d="M8.5 64C8.5038 53.0234 11.7334 42.29 17.7873 33.1338C23.8412 23.9776 32.4525 16.8024 42.5508 12.5002C52.6491 8.19789 63.7891 6.95821 74.5862 8.93521C85.3833 10.9122 95.3613 16.0187 103.28 23.62C103.669 23.9413 104.166 24.1034 104.67 24.074C105.174 24.0445 105.648 23.8256 105.997 23.4612C106.346 23.0968 106.545 22.6138 106.553 22.1091C106.561 21.6044 106.378 21.1153 106.04 20.74C97.5555 12.5994 86.8661 7.1311 75.2998 5.01464C63.7336 2.89818 51.8004 4.22682 40.983 8.83548C30.1655 13.4441 20.9406 21.1297 14.4545 30.9371C7.96831 40.7446 4.50679 52.2417 4.5 64C4.50115 71.9016 6.45947 79.6799 10.2 86.64C10.4502 87.1059 10.8748 87.4537 11.3807 87.6073C11.8867 87.761 12.433 87.708 12.9 87.46C13.1333 87.3361 13.3397 87.1673 13.5074 86.9632C13.675 86.7591 13.8006 86.5238 13.8769 86.2709C13.9531 86.018 13.9785 85.7525 13.9516 85.4898C13.9246 85.227 13.8459 84.9722 13.72 84.74C10.3007 78.3612 8.50779 71.2374 8.5 64Z" fill="#39519D"/>
    <defs>
        <linearGradient id="paint0_linear_3209_24432" x1="178.429" y1="69.3434" x2="143.588" y2="-23.6393" gradientUnits="userSpaceOnUse">
            <stop stop-color="#1CB6AC"/>
            <stop offset="0.448142" stop-color="#1CB6AC"/>
            <stop offset="0.453125" stop-color="#20C2A8"/>
            <stop offset="1" stop-color="#24D0A3"/>
        </linearGradient>
        <linearGradient id="paint1_linear_3209_24432" x1="48.2539" y1="80.1534" x2="-0.0125077" y2="72.5019" gradientUnits="userSpaceOnUse">
            <stop stop-color="#1CB6AC"/>
            <stop offset="1" stop-color="#24D0A3"/>
        </linearGradient>
        <linearGradient id="paint2_linear_3209_24432" x1="53.3929" y1="67.6545" x2="51.2165" y2="62.4468" gradientUnits="userSpaceOnUse">
            <stop stop-color="#1CB6AC"/>
            <stop offset="0.448142" stop-color="#1CB6AC"/>
            <stop offset="0.453125" stop-color="#20C2A8"/>
            <stop offset="1" stop-color="#24D0A3"/>
        </linearGradient>
        <linearGradient id="paint3_linear_3209_24432" x1="89.3929" y1="67.6545" x2="87.2165" y2="62.4468" gradientUnits="userSpaceOnUse">
            <stop stop-color="#1CB6AC"/>
            <stop offset="0.448142" stop-color="#1CB6AC"/>
            <stop offset="0.453125" stop-color="#20C2A8"/>
            <stop offset="1" stop-color="#24D0A3"/>
        </linearGradient>
    </defs>
</svg>
