<svg width="129" height="128" viewBox="0 0 129 128" fill="none" xmlns="http://www.w3.org/2000/svg">
    <path d="M64.5 6C79.8826 6 94.6351 12.1107 105.512 22.9878C116.389 33.8649 122.5 48.6174 122.5 64C122.5 76.2 117.654 87.9002 109.027 96.5269C100.4 105.154 88.7 110 76.5 110H52.5C40.3 110 28.5998 105.154 19.9731 96.5269C11.3464 87.9002 6.5 76.2 6.5 64V64C6.5 48.6174 12.6107 33.8649 23.4878 22.9878C34.3649 12.1107 49.1174 6 64.5 6V6Z" fill="#1CB6AC"/>
    <path d="M122.5 64C122.5 76.1999 117.654 87.9002 109.027 96.5269C100.4 105.154 88.7 110 76.5 110H52.5C40.3 110 28.5998 105.154 19.9731 96.5269C11.3464 87.9002 6.5 76.1999 6.5 64C6.49923 55.3127 8.44996 46.7361 12.2081 38.9038C15.9663 31.0714 21.4359 24.1833 28.213 18.7482C34.9901 13.3131 42.9016 9.4698 51.3631 7.50214C59.8247 5.53448 68.6201 5.49273 77.1 7.37997C77.4208 9.40946 77.8819 11.4143 78.48 13.38C79.7972 17.7209 81.7446 21.8449 84.26 25.62L86.66 29.22C90.4027 34.8491 96.1061 38.8843 102.66 40.54C104.385 40.9759 105.952 41.8907 107.18 43.1787C108.408 44.4668 109.247 46.0757 109.6 47.82C109.867 49.1267 110.405 50.3628 111.181 51.4481C111.956 52.5334 112.95 53.4437 114.1 54.12C116.472 55.5127 119.169 56.2575 121.92 56.28C122.287 58.8373 122.481 61.4165 122.5 64V64Z" fill="url(#paint0_linear_3241_24402)"/>
    <path d="M61.64 110H52.5C40.3001 110 28.5998 105.154 19.9731 96.5269C11.3464 87.9002 6.50001 76.2 6.50001 64C6.47967 51.2923 10.6333 38.9297 18.3225 28.8123C26.0117 18.6949 36.8109 11.3829 49.06 8C47.0941 9.50857 45.23 11.1455 43.48 12.9C38.0772 18.2909 33.7951 24.6982 30.8808 31.7523C27.9665 38.8064 26.4776 46.3677 26.5 54C26.5 75.66 41.48 102.56 61.64 110Z" fill="url(#paint1_linear_3241_24402)"/>
    <path d="M64.5 122C54.4218 122 44.7563 117.996 37.6299 110.87C30.5036 103.744 26.5 94.0782 26.5 84V56.94C26.4989 55.4538 26.9119 53.9966 27.6926 52.7319C28.4733 51.4673 29.5909 50.4451 30.92 49.78C33.2681 48.608 35.3057 46.8971 36.8664 44.7873C38.427 42.6774 39.4666 40.2283 39.9 37.64L40.5 34L42.34 39.54C42.9685 41.4197 44.1715 43.0544 45.7792 44.2135C47.3869 45.3727 49.318 45.9975 51.3 46V46C53.9773 46.0023 56.5873 45.161 58.7594 43.5957C60.9315 42.0304 62.5552 39.8206 63.4 37.28L64.5 34L65.6 37.28C66.4448 39.8206 68.0685 42.0304 70.2406 43.5957C72.4127 45.161 75.0227 46.0023 77.7 46H78.5L80.5 32L81.78 36.48C82.6061 39.3563 84.1917 41.9569 86.3702 44.0086C88.5486 46.0604 91.2395 47.4875 94.16 48.14L96.16 48.6C97.9526 48.9802 99.5602 49.9643 100.714 51.3877C101.868 52.8111 102.499 54.5876 102.5 56.42V84C102.5 94.0782 98.4964 103.744 91.3701 110.87C84.2437 117.996 74.5782 122 64.5 122V122Z" fill="#FFF0E4"/>
    <path d="M22.5 56H26.5V80C23.3174 80 20.2652 78.7357 18.0147 76.4853C15.7643 74.2348 14.5 71.1826 14.5 68V64C14.5 61.8783 15.3429 59.8434 16.8431 58.3431C18.3434 56.8429 20.3783 56 22.5 56V56Z" fill="#FFD4B3"/>
    <path d="M102.5 56H106.5C108.622 56 110.657 56.8429 112.157 58.3431C113.657 59.8434 114.5 61.8783 114.5 64V68C114.5 71.1826 113.236 74.2348 110.985 76.4853C108.735 78.7357 105.683 80 102.5 80V56Z" fill="#FFF0E4"/>
    <path d="M102.5 56.42V66.42C102.503 64.5986 101.884 62.8309 100.745 61.409C99.6072 59.9871 98.0178 58.9961 96.24 58.6L94.24 58.14C91.3195 57.4875 88.6286 56.0604 86.4502 54.0086C84.2717 51.9569 82.6861 49.3563 81.86 46.48L80.5 42L78.5 56H77.7C75.0227 56.0023 72.4127 55.161 70.2406 53.5957C68.0685 52.0304 66.4448 49.8206 65.6 47.28L64.5 44L63.4 47.28C62.5552 49.8206 60.9315 52.0304 58.7594 53.5957C56.5873 55.161 53.9773 56.0023 51.3 56C49.318 55.9975 47.3869 55.3727 45.7792 54.2135C44.1715 53.0544 42.9685 51.4197 42.34 49.54L40.78 44.86L40.3 45.16L39.9 47.64C39.4207 50.418 38.2516 53.0312 36.5 55.24V79C36.5 89.0782 40.5036 98.7437 47.6299 105.87C54.7563 112.996 64.4218 117 74.5 117C78.5155 116.974 82.5003 116.299 86.3 115C79.9365 119.54 72.3173 121.987 64.5 122C54.4218 122 44.7563 117.996 37.6299 110.87C30.5036 103.744 26.5 94.0782 26.5 84V56.94C26.4989 55.4538 26.9119 53.9966 27.6926 52.7319C28.4733 51.4673 29.5909 50.4451 30.92 49.78C33.2691 48.6093 35.3075 46.8988 36.8683 44.7887C38.4292 42.6786 39.4681 40.2289 39.9 37.64L40.5 34L42.34 39.54C42.9685 41.4197 44.1715 43.0544 45.7792 44.2135C47.3869 45.3727 49.318 45.9975 51.3 46C53.9781 46.0053 56.5895 45.1653 58.7621 43.5995C60.9348 42.0338 62.5579 39.8222 63.4 37.28L64.5 34L65.6 37.28C66.4448 39.8206 68.0685 42.0304 70.2406 43.5957C72.4127 45.161 75.0227 46.0023 77.7 46H78.5L80.5 32L81.78 36.48C82.6061 39.3563 84.1917 41.9569 86.3702 44.0086C88.5486 46.0604 91.2395 47.4875 94.16 48.14L96.16 48.6C97.9526 48.9802 99.5602 49.9643 100.714 51.3877C101.868 52.8111 102.499 54.5876 102.5 56.42Z" fill="#FFD4B3"/>
    <path d="M88.5 88C92.9183 88 96.5 85.3137 96.5 82C96.5 78.6863 92.9183 76 88.5 76C84.0817 76 80.5 78.6863 80.5 82C80.5 85.3137 84.0817 88 88.5 88Z" fill="#FFB9A3"/>
    <path d="M40.5 88C44.9183 88 48.5 85.3137 48.5 82C48.5 78.6863 44.9183 76 40.5 76C36.0817 76 32.5 78.6863 32.5 82C32.5 85.3137 36.0817 88 40.5 88Z" fill="#FFB9A3"/>
    <path d="M112.98 73.86C111.937 75.7232 110.416 77.2745 108.574 78.3539C106.732 79.4332 104.635 80.0014 102.5 80V56H106.5V66C106.499 67.859 107.145 69.6603 108.327 71.0947C109.51 72.529 111.155 73.5068 112.98 73.86Z" fill="#FFD4B3"/>
    <path d="M16.02 73.86C17.0627 75.7232 18.5836 77.2745 20.4258 78.3539C22.268 79.4332 24.3649 80.0014 26.5 80V56H22.5V66C22.5013 67.859 21.8553 69.6603 20.6727 71.0947C19.4902 72.529 17.8451 73.5068 16.02 73.86Z" fill="#DA9367"/>
    <path d="M64.5 112C60.787 112 57.226 110.525 54.6005 107.899C51.975 105.274 50.5 101.713 50.5 98V94C59.6495 91.3802 69.3505 91.3802 78.5 94V94V98C78.5 101.713 77.025 105.274 74.3995 107.899C71.774 110.525 68.213 112 64.5 112V112Z" fill="#CC5144"/>
    <path d="M75.04 107.2C73.7259 108.703 72.1056 109.908 70.2877 110.733C68.4698 111.558 66.4964 111.985 64.5 111.985C62.5035 111.985 60.5301 111.558 58.7122 110.733C56.8943 109.908 55.274 108.703 53.96 107.2C55.1608 105.541 56.7485 104.2 58.5854 103.293C60.4222 102.387 62.4525 101.943 64.5 102C66.5474 101.943 68.5777 102.387 70.4146 103.293C72.2514 104.2 73.8392 105.541 75.04 107.2V107.2Z" fill="#FFB9A3"/>
    <path d="M48.3 53.1999L49.94 56.5199C50.0823 56.8111 50.2931 57.0633 50.5544 57.2549C50.8157 57.4466 51.1196 57.5718 51.44 57.6199L55.12 58.1399C55.4904 58.1937 55.8383 58.3503 56.1241 58.5919C56.4099 58.8336 56.6222 59.1506 56.7368 59.5068C56.8514 59.8631 56.8637 60.2444 56.7724 60.6074C56.681 60.9703 56.4897 61.3004 56.22 61.56L53.56 64.16C53.3286 64.3848 53.1549 64.6622 53.0539 64.9687C52.9529 65.2752 52.9276 65.6016 52.98 65.9199L53.62 69.58C53.681 69.9469 53.6385 70.3235 53.4971 70.6676C53.3558 71.0117 53.1214 71.3095 52.8201 71.5277C52.5189 71.7458 52.1627 71.8756 51.7917 71.9025C51.4208 71.9294 51.0496 71.8524 50.72 71.68L47.44 70C47.1507 69.8459 46.8279 69.7653 46.5 69.7653C46.1722 69.7653 45.8494 69.8459 45.56 70L42.28 71.72C41.9505 71.8924 41.5793 71.9694 41.2083 71.9425C40.8374 71.9156 40.4812 71.7858 40.18 71.5677C39.8787 71.3495 39.6443 71.0517 39.5029 70.7076C39.3616 70.3635 39.3191 69.9869 39.38 69.62L40.02 66C40.0725 65.6816 40.0472 65.3552 39.9462 65.0487C39.8452 64.7423 39.6715 64.4648 39.44 64.2399L36.78 61.6399C36.5104 61.3804 36.3191 61.0503 36.2277 60.6874C36.1364 60.3244 36.1487 59.9431 36.2633 59.5868C36.3779 59.2306 36.5902 58.9136 36.876 58.6719C37.1618 58.4303 37.5097 58.2737 37.88 58.22L41.56 57.6999C41.8805 57.6518 42.1844 57.5266 42.4457 57.3349C42.707 57.1433 42.9178 56.8911 43.06 56.5999L44.7 53.2799C44.8562 52.938 45.1055 52.647 45.4194 52.4403C45.7333 52.2335 46.0992 52.1194 46.475 52.1111C46.8508 52.1027 47.2213 52.2005 47.5441 52.393C47.8669 52.5856 48.1289 52.8653 48.3 53.1999Z" fill="#FCEA42"/>
    <path d="M84.3 53.1999L85.94 56.5199C86.0823 56.8111 86.2931 57.0633 86.5544 57.2549C86.8157 57.4466 87.1196 57.5718 87.44 57.6199L91.12 58.1399C91.4904 58.1937 91.8383 58.3503 92.1241 58.5919C92.4099 58.8336 92.6222 59.1506 92.7368 59.5068C92.8514 59.8631 92.8637 60.2444 92.7724 60.6074C92.681 60.9703 92.4897 61.3004 92.22 61.56L89.56 64.16C89.3286 64.3848 89.1549 64.6622 89.0539 64.9687C88.9529 65.2752 88.9276 65.6016 88.98 65.9199L89.62 69.58C89.681 69.9469 89.6385 70.3235 89.4971 70.6676C89.3558 71.0117 89.1214 71.3095 88.8201 71.5277C88.5188 71.7458 88.1627 71.8756 87.7917 71.9025C87.4208 71.9294 87.0496 71.8524 86.72 71.68L83.44 70C83.1507 69.8459 82.8279 69.7653 82.5 69.7653C82.1722 69.7653 81.8494 69.8459 81.56 70L78.28 71.72C77.9505 71.8924 77.5793 71.9694 77.2083 71.9425C76.8374 71.9156 76.4812 71.7858 76.18 71.5677C75.8787 71.3495 75.6443 71.0517 75.5029 70.7076C75.3616 70.3635 75.3191 69.9869 75.38 69.62L76.02 66C76.0725 65.6816 76.0472 65.3552 75.9462 65.0487C75.8452 64.7423 75.6715 64.4648 75.44 64.2399L72.78 61.6399C72.5104 61.3804 72.3191 61.0503 72.2277 60.6874C72.1364 60.3244 72.1487 59.9431 72.2633 59.5868C72.3779 59.2306 72.5902 58.9136 72.876 58.6719C73.1618 58.4303 73.5097 58.2737 73.88 58.22L77.56 57.6999C77.8805 57.6518 78.1844 57.5266 78.4457 57.3349C78.707 57.1433 78.9178 56.8911 79.06 56.5999L80.7 53.2799C80.8562 52.938 81.1055 52.647 81.4194 52.4403C81.7333 52.2335 82.0992 52.1194 82.475 52.1111C82.8508 52.1027 83.2213 52.2005 83.5441 52.393C83.8669 52.5856 84.1289 52.8653 84.3 53.1999Z" fill="#FCEA42"/>
    <path d="M92.22 61.56L89.56 64.16C89.3286 64.3848 89.1549 64.6623 89.0539 64.9687C88.9529 65.2752 88.9276 65.6016 88.98 65.92L89.62 69.58C89.681 69.9469 89.6385 70.3236 89.4971 70.6676C89.3558 71.0117 89.1214 71.3095 88.8201 71.5277C88.5189 71.7458 88.1627 71.8757 87.7917 71.9026C87.4208 71.9295 87.0496 71.8524 86.72 71.68L83.44 70C83.1507 69.8459 82.8279 69.7653 82.5 69.7653C82.1722 69.7653 81.8494 69.8459 81.56 70L78.28 71.72C77.9505 71.8924 77.5793 71.9695 77.2083 71.9426C76.8374 71.9157 76.4812 71.7858 76.18 71.5677C75.8787 71.3495 75.6443 71.0517 75.5029 70.7076C75.3616 70.3636 75.3191 69.9869 75.38 69.62L76.02 66C76.0725 65.6816 76.0472 65.3552 75.9462 65.0487C75.8452 64.7423 75.6715 64.4648 75.44 64.24L72.78 61.64C72.5104 61.3804 72.3191 61.0503 72.2277 60.6874C72.1364 60.3245 72.1487 59.9432 72.2633 59.5869C72.3779 59.2306 72.5902 58.9136 72.876 58.6719C73.1618 58.4303 73.5097 58.2737 73.88 58.22L77.56 57.7C77.8805 57.6518 78.1844 57.5266 78.4457 57.335C78.707 57.1433 78.9178 56.8911 79.06 56.6L80.7 53.28L80.86 54.2C81.0675 55.4596 81.5342 56.6623 82.2306 57.7322C82.9271 58.802 83.8381 59.7155 84.906 60.4149C85.9739 61.1143 87.1754 61.5843 88.4344 61.7952C89.6934 62.0061 90.9825 61.9532 92.22 61.64V61.56Z" fill="#FDC741"/>
    <path d="M56.22 61.56L53.56 64.16C53.3286 64.3848 53.1549 64.6623 53.0539 64.9687C52.9529 65.2752 52.9276 65.6016 52.98 65.92L53.62 69.58C53.681 69.9469 53.6385 70.3236 53.4971 70.6676C53.3558 71.0117 53.1214 71.3095 52.8201 71.5277C52.5189 71.7458 52.1627 71.8757 51.7917 71.9026C51.4208 71.9295 51.0496 71.8524 50.72 71.68L47.44 70C47.1507 69.8459 46.8279 69.7653 46.5 69.7653C46.1722 69.7653 45.8494 69.8459 45.56 70L42.28 71.72C41.9505 71.8924 41.5793 71.9695 41.2083 71.9426C40.8374 71.9157 40.4812 71.7858 40.18 71.5677C39.8787 71.3495 39.6443 71.0517 39.5029 70.7076C39.3616 70.3636 39.3191 69.9869 39.38 69.62L40.02 66C40.0725 65.6816 40.0472 65.3552 39.9462 65.0487C39.8452 64.7423 39.6715 64.4648 39.44 64.24L36.78 61.64C36.5104 61.3804 36.3191 61.0503 36.2277 60.6874C36.1364 60.3245 36.1487 59.9432 36.2633 59.5869C36.3779 59.2306 36.5902 58.9136 36.876 58.6719C37.1618 58.4303 37.5097 58.2737 37.88 58.22L41.56 57.7C41.8805 57.6518 42.1844 57.5266 42.4457 57.335C42.707 57.1433 42.9178 56.8911 43.06 56.6L44.7 53.28L44.86 54.2C45.0675 55.4596 45.5342 56.6623 46.2306 57.7322C46.9271 58.802 47.8381 59.7155 48.906 60.4149C49.9739 61.1143 51.1754 61.5843 52.4344 61.7952C53.6934 62.0061 54.9825 61.9532 56.22 61.64V61.56Z" fill="#FDC741"/>
    <path d="M64.5 84C66.0913 84 67.6174 83.3679 68.7426 82.2426C69.8679 81.1174 70.5 79.5913 70.5 78C70.5 77.4696 70.2893 76.9609 69.9142 76.5858C69.5391 76.2107 69.0304 76 68.5 76C67.9696 76 67.4609 76.2107 67.0858 76.5858C66.7107 76.9609 66.5 77.4696 66.5 78C66.5 78.5304 66.2893 79.0391 65.9142 79.4142C65.5391 79.7893 65.0304 80 64.5 80C63.9696 80 63.4609 79.7893 63.0858 79.4142C62.7107 79.0391 62.5 78.5304 62.5 78C62.5 77.4696 62.2893 76.9609 61.9142 76.5858C61.5391 76.2107 61.0304 76 60.5 76C59.9696 76 59.4609 76.2107 59.0858 76.5858C58.7107 76.9609 58.5 77.4696 58.5 78C58.5 79.5913 59.1321 81.1174 60.2574 82.2426C61.3826 83.3679 62.9087 84 64.5 84Z" fill="#39519D"/>
    <path d="M84.72 79.0999L82.7199 83.0999C82.4827 83.5723 82.4421 84.1193 82.607 84.6215C82.7719 85.1237 83.1289 85.5402 83.5999 85.7799C83.8766 85.928 84.1862 86.0037 84.4999 86C84.8693 85.9988 85.2311 85.8955 85.5453 85.7013C85.8595 85.5071 86.1137 85.2298 86.2799 84.9L88.2799 80.9C88.4741 80.4338 88.4847 79.9114 88.3096 79.4377C88.1345 78.9641 87.7867 78.5741 87.3361 78.3463C86.8854 78.1184 86.3652 78.0695 85.88 78.2093C85.3947 78.3491 84.9803 78.6672 84.72 79.0999Z" fill="#39519D"/>
    <path d="M91.7799 80.96L90.7199 83.1C90.4827 83.5723 90.4421 84.1193 90.607 84.6215C90.7719 85.1237 91.1289 85.5402 91.5999 85.7799C91.8766 85.928 92.1862 86.0037 92.4999 86C92.8693 85.9988 93.2311 85.8955 93.5453 85.7013C93.8595 85.5071 94.1137 85.2298 94.2799 84.9L95.3599 82.7399C95.5769 82.2676 95.6015 81.7294 95.4284 81.2393C95.2554 80.7492 94.8983 80.3457 94.4329 80.1143C93.9675 79.8829 93.4303 79.8418 92.9351 79.9996C92.4399 80.1575 92.0256 80.5019 91.7799 80.96Z" fill="#39519D"/>
    <path d="M36.36 80.28C35.8852 80.0442 35.3363 80.0065 34.8337 80.1753C34.3312 80.344 33.9162 80.7054 33.68 81.18L32.72 83.18C32.4828 83.6523 32.4422 84.1993 32.6071 84.7015C32.772 85.2037 33.129 85.6202 33.6 85.86C33.8838 85.9805 34.193 86.0286 34.5 86C34.8693 85.9988 35.2312 85.8955 35.5453 85.7013C35.8595 85.5072 36.1138 85.2298 36.28 84.9L37.26 82.9C37.4772 82.4315 37.5048 81.8972 37.3371 81.4089C37.1693 80.9206 36.8192 80.516 36.36 80.28Z" fill="#39519D"/>
    <path d="M42.72 79.0999L40.72 83.0999C40.4828 83.5723 40.4422 84.1193 40.6071 84.6215C40.772 85.1237 41.129 85.5402 41.6 85.7799C41.8766 85.928 42.1863 86.0037 42.5 86C42.8693 85.9988 43.2312 85.8955 43.5453 85.7013C43.8595 85.5071 44.1138 85.2298 44.28 84.9L46.28 80.9C46.4741 80.4338 46.4847 79.9114 46.3097 79.4377C46.1346 78.9641 45.7868 78.5741 45.3361 78.3463C44.8855 78.1184 44.3653 78.0695 43.88 78.2093C43.3948 78.3491 42.9804 78.6672 42.72 79.0999Z" fill="#39519D"/>
    <path d="M76.4999 86C76.8693 85.9988 77.2311 85.8955 77.5453 85.7013C77.8595 85.5072 78.1137 85.2298 78.2799 84.9L79.22 83.04C79.4557 82.5652 79.4934 82.0162 79.3246 81.5137C79.1559 81.0112 78.7945 80.5962 78.3199 80.36C77.8476 80.1227 77.3006 80.0821 76.7984 80.247C76.2962 80.4119 75.8797 80.7689 75.6399 81.24L74.7199 83.1C74.4827 83.5723 74.4421 84.1193 74.607 84.6215C74.7719 85.1237 75.1289 85.5402 75.5999 85.78C75.8766 85.928 76.1862 86.0037 76.4999 86Z" fill="#39519D"/>
    <path d="M49.6 85.78C49.8766 85.9281 50.1863 86.0037 50.5 86C50.8693 85.9989 51.2312 85.8955 51.5453 85.7013C51.8595 85.5072 52.1138 85.2298 52.28 84.9L53.22 83.02C53.437 82.5477 53.4615 82.0094 53.2885 81.5193C53.1154 81.0292 52.7584 80.6257 52.293 80.3943C51.8276 80.1629 51.2904 80.1218 50.7952 80.2796C50.3 80.4375 49.8856 80.7819 49.64 81.24L48.72 83.1C48.4828 83.5723 48.4422 84.1194 48.6071 84.6215C48.772 85.1237 49.129 85.5402 49.6 85.78Z" fill="#39519D"/>
    <path d="M49.78 73.46C50.4408 73.8065 51.1854 73.9614 51.9295 73.9069C52.6737 73.8525 53.3878 73.591 53.9912 73.1521C54.5945 72.7131 55.0631 72.1141 55.3438 71.4227C55.6246 70.7314 55.7064 69.9754 55.58 69.24L54.96 65.58L57.62 63C58.1596 62.4795 58.5421 61.8178 58.7238 61.0905C58.9055 60.3631 58.8791 59.5993 58.6477 58.8862C58.4162 58.1731 57.989 57.5394 57.4148 57.0573C56.8406 56.5753 56.1424 56.2644 55.4 56.16L51.72 55.64L50.08 52.32C49.7483 51.6544 49.2375 51.0944 48.6051 50.703C47.9727 50.3116 47.2437 50.1042 46.5 50.1042C45.7563 50.1042 45.0273 50.3116 44.3949 50.703C43.7625 51.0944 43.2518 51.6544 42.92 52.32L41.28 55.64L37.6 56.16C36.8576 56.2644 36.1595 56.5753 35.5852 57.0573C35.011 57.5394 34.5838 58.1731 34.3524 58.8862C34.1209 59.5993 34.0945 60.3631 34.2762 61.0905C34.4579 61.8178 34.8404 62.4795 35.38 63L38.04 65.58L37.42 69.24C37.2751 69.988 37.3468 70.7618 37.6267 71.4704C37.9066 72.179 38.3831 72.7929 39 73.24C39.6863 73.7369 40.5127 74.003 41.36 74C42.0073 73.9927 42.644 73.8353 43.22 73.54L46.5 71.72L49.78 73.46ZM41.36 70L41.98 66.34C42.0909 65.7017 42.045 65.0461 41.8464 64.4294C41.6479 63.8128 41.3025 63.2536 40.84 62.8L38.18 60.2L41.84 59.68C42.4844 59.5868 43.0964 59.3377 43.6227 58.9543C44.149 58.5709 44.5737 58.0648 44.86 57.48L46.5 54L48.14 57.36C48.4288 57.9411 48.8547 58.4431 49.3808 58.8229C49.9069 59.2027 50.5176 59.4488 51.16 59.54L54.82 60.06L52.16 62.66C51.6975 63.1136 51.3522 63.6728 51.1536 64.2894C50.955 64.9061 50.9092 65.5617 51.02 66.2L51.64 70L48.36 68.26C47.7863 67.9587 47.148 67.8012 46.5 67.8012C45.852 67.8012 45.2137 67.9587 44.64 68.26L41.36 70Z" fill="#39519D"/>
    <path d="M91.4 56.16L87.72 55.64L86.08 52.32C85.7483 51.6544 85.2375 51.0944 84.6051 50.703C83.9727 50.3116 83.2437 50.1042 82.5 50.1042C81.7563 50.1042 81.0273 50.3116 80.3949 50.703C79.7625 51.0944 79.2518 51.6544 78.92 52.32L77.28 55.64L73.6 56.16C72.8576 56.2644 72.1595 56.5753 71.5852 57.0573C71.011 57.5394 70.5838 58.1731 70.3524 58.8862C70.1209 59.5993 70.0945 60.3631 70.2762 61.0905C70.4579 61.8178 70.8404 62.4795 71.38 63L74.04 65.58L73.42 69.24C73.2751 69.988 73.3468 70.7618 73.6267 71.4704C73.9066 72.179 74.3831 72.7929 75 73.24C75.6863 73.7369 76.5127 74.003 77.36 74C78.0073 73.9927 78.644 73.8353 79.22 73.54L82.5 71.72L85.78 73.46C86.4408 73.8065 87.1854 73.9614 87.9295 73.9069C88.6737 73.8525 89.3878 73.591 89.9912 73.1521C90.5945 72.7131 91.0631 72.1141 91.3438 71.4227C91.6246 70.7314 91.7064 69.9754 91.58 69.24L90.96 65.58L93.62 63C94.1596 62.4795 94.5421 61.8178 94.7238 61.0905C94.9055 60.3631 94.8791 59.5993 94.6477 58.8862C94.4162 58.1731 93.989 57.5394 93.4148 57.0573C92.8406 56.5753 92.1424 56.2644 91.4 56.16ZM88.16 62.72C87.6975 63.1736 87.3522 63.7328 87.1536 64.3494C86.955 64.9661 86.9092 65.6217 87.02 66.26L87.64 70L84.36 68.26C83.7863 67.9587 83.148 67.8012 82.5 67.8012C81.852 67.8012 81.2137 67.9587 80.64 68.26L77.36 70L77.98 66.34C78.0909 65.7017 78.045 65.0461 77.8464 64.4294C77.6479 63.8128 77.3025 63.2536 76.84 62.8L74.18 60.2L77.84 59.68C78.4844 59.5868 79.0964 59.3377 79.6227 58.9543C80.149 58.5709 80.5737 58.0648 80.86 57.48L82.5 54L84.14 57.36C84.4288 57.9411 84.8547 58.4431 85.3808 58.8229C85.9069 59.2027 86.5176 59.4488 87.16 59.54L90.82 60.06L88.16 62.72Z" fill="#39519D"/>
    <path d="M124.5 64C124.54 50.5241 119.998 37.4348 111.62 26.88C111.467 26.6493 111.267 26.453 111.034 26.3035C110.801 26.154 110.539 26.0546 110.266 26.0115C109.992 25.9684 109.713 25.9826 109.445 26.0531C109.177 26.1237 108.927 26.2491 108.71 26.4215C108.493 26.5938 108.314 26.8093 108.185 27.0543C108.056 27.2992 107.979 27.5684 107.959 27.8446C107.94 28.1209 107.978 28.3982 108.071 28.659C108.164 28.9199 108.31 29.1586 108.5 29.36C116.315 39.2103 120.547 51.4261 120.5 64C120.494 71.2513 118.697 78.3888 115.267 84.7777C111.837 91.1665 106.881 96.6087 100.84 100.62C103.245 95.4089 104.493 89.7391 104.5 84V81.84C107.829 81.3594 110.874 79.6963 113.078 77.1549C115.281 74.6135 116.496 71.3637 116.5 68V64C116.5 61.3478 115.446 58.8043 113.571 56.9289C111.696 55.0535 109.152 54 106.5 54H104.18C103.731 52.1992 102.79 50.5589 101.462 49.2626C100.134 47.9663 98.4711 47.0651 96.66 46.66L94.66 46.2C92.0834 45.6456 89.7046 44.4049 87.7752 42.6094C85.8459 40.8139 84.4378 38.5302 83.7 36L82.5 31.46C82.3277 30.9855 81.9823 30.5938 81.5333 30.3634C81.0842 30.1329 80.5646 30.0808 80.0787 30.2175C79.5928 30.3541 79.1765 30.6694 78.9134 31.1002C78.6503 31.531 78.5598 32.0453 78.66 32.54L79.94 37.02C80.8594 40.249 82.6348 43.1694 85.0782 45.472C87.5216 47.7745 90.5421 49.3736 93.82 50.1L95.82 50.56C97.1497 50.8599 98.3377 51.6036 99.1883 52.6687C100.039 53.7338 100.502 55.0569 100.5 56.42V84C100.5 93.5478 96.7072 102.704 89.9558 109.456C83.2045 116.207 74.0478 120 64.5 120C54.9522 120 45.7955 116.207 39.0442 109.456C32.2928 102.704 28.5 93.5478 28.5 84V64C28.5 63.4695 28.2893 62.9608 27.9142 62.5858C27.5391 62.2107 27.0304 62 26.5 62C25.9696 62 25.4609 62.2107 25.0858 62.5858C24.7107 62.9608 24.5 63.4695 24.5 64V77.8C22.2413 77.3389 20.2112 76.1116 18.7534 74.3258C17.2956 72.5399 16.4995 70.3053 16.5 68V64C16.5 62.4087 17.1321 60.8825 18.2574 59.7573C19.3826 58.6321 20.9087 58 22.5 58H26.3C26.8247 58.0562 27.3504 57.9028 27.7625 57.5731C28.1746 57.2434 28.4397 56.7642 28.5 56.24C28.6176 55.2522 28.9789 54.3092 29.5515 53.4957C30.124 52.6823 30.8898 52.0239 31.78 51.58C35.9882 49.459 39.244 45.8319 40.9 41.42C41.8263 43.3938 43.2973 45.0618 45.1398 46.2276C46.9824 47.3933 49.1197 48.0083 51.3 48C54.0393 48.0037 56.7254 47.2441 59.057 45.8062C61.3886 44.3684 63.2735 42.3093 64.5 39.86C65.7265 42.3093 67.6114 44.3684 69.943 45.8062C72.2746 47.2441 74.9607 48.0037 77.7 48H78.5C79.0304 48 79.5391 47.7893 79.9142 47.4142C80.2893 47.0391 80.5 46.5304 80.5 46C80.5 45.4695 80.2893 44.9608 79.9142 44.5858C79.5391 44.2107 79.0304 44 78.5 44H77.7C75.4419 44.0012 73.241 43.2906 71.4098 41.9694C69.5787 40.6481 68.2106 38.7833 67.5 36.64L66.5 33.36C66.3685 32.9598 66.114 32.6114 65.7728 32.3644C65.4316 32.1174 65.0212 31.9845 64.6 31.9845C64.1788 31.9845 63.7684 32.1174 63.4272 32.3644C63.086 32.6114 62.8315 32.9598 62.7 33.36L61.6 36.64C60.8841 38.7996 59.5008 40.6761 57.6497 41.9988C55.7985 43.3216 53.5751 44.0223 51.3 44C49.7391 44.0009 48.2174 43.5108 46.9504 42.5991C45.6833 41.6874 44.7351 40.4003 44.24 38.92L42.5 33.36C42.3609 32.9314 42.0811 32.5623 41.706 32.3127C41.3309 32.063 40.8824 31.9473 40.4333 31.9843C39.9843 32.0214 39.5609 32.209 39.2317 32.5167C38.9026 32.8245 38.687 33.2344 38.62 33.68L38.02 37.32C37.6282 39.6067 36.6985 41.7676 35.3076 43.6244C33.9166 45.4813 32.1043 46.981 30.02 48C28.8118 48.605 27.7388 49.4486 26.8656 50.4798C25.9925 51.5111 25.3375 52.7085 24.94 54H22.5C19.8478 54 17.3043 55.0535 15.4289 56.9289C13.5536 58.8043 12.5 61.3478 12.5 64V68C12.5039 71.3637 13.7188 74.6135 15.9224 77.1549C18.1259 79.6963 21.1708 81.3594 24.5 81.84V84C24.5087 89.7389 25.7572 95.4082 28.16 100.62C24.2725 98.0221 20.8171 94.8299 17.92 91.16C17.5911 90.7436 17.1103 90.4749 16.5833 90.413C16.0564 90.3511 15.5264 90.5011 15.11 90.83C14.6936 91.1588 14.4249 91.6396 14.363 92.1666C14.3011 92.6936 14.4511 93.2236 14.78 93.64C19.427 99.5415 25.3842 104.28 32.18 107.48C35.8738 112.597 40.7299 116.764 46.3488 119.638C51.9677 122.512 58.1888 124.011 64.5 124.011C70.8112 124.011 77.0323 122.512 82.6512 119.638C88.2701 116.764 93.1262 112.597 96.82 107.48C105.081 103.601 112.069 97.4548 116.969 89.7566C121.87 82.0584 124.482 73.1258 124.5 64ZM112.5 64V68C112.5 70.3053 111.704 72.5399 110.247 74.3258C108.789 76.1116 106.759 77.3389 104.5 77.8V58H106.5C108.091 58 109.617 58.6321 110.743 59.7573C111.868 60.8825 112.5 62.4087 112.5 64Z" fill="#39519D"/>
    <path d="M8.5 64C8.5038 53.0234 11.7334 42.2899 17.7873 33.1338C23.8412 23.9776 32.4525 16.8024 42.5508 12.5001C52.6491 8.19786 63.7891 6.95818 74.5862 8.93518C85.3833 10.9122 95.3613 16.0187 103.28 23.62C103.669 23.9412 104.166 24.1034 104.67 24.0739C105.174 24.0445 105.648 23.8256 105.997 23.4612C106.346 23.0967 106.545 22.6137 106.553 22.109C106.561 21.6043 106.378 21.1153 106.04 20.74C97.5555 12.5993 86.8661 7.13107 75.2998 5.01461C63.7336 2.89815 51.8004 4.22679 40.983 8.83545C30.1655 13.4441 20.9406 21.1296 14.4545 30.9371C7.96831 40.7446 4.50679 52.2417 4.5 64C4.50115 71.9016 6.45947 79.6798 10.2 86.64C10.4688 87.0695 10.8906 87.381 11.3802 87.5115C11.8698 87.6421 12.3907 87.5819 12.8376 87.3432C13.2846 87.1045 13.6242 86.705 13.788 86.2255C13.9518 85.746 13.9275 85.2222 13.72 84.76C10.2976 78.3752 8.5045 71.2442 8.5 64Z" fill="#39519D"/>
    <path d="M74.88 104C72.0317 101.442 68.3384 100.027 64.51 100.027C60.6817 100.027 56.9884 101.442 54.14 104C53.6639 103.2 53.2814 102.348 53 101.46C52.9375 101.197 52.8222 100.949 52.6611 100.731C52.5 100.514 52.2964 100.331 52.0627 100.195C51.8289 100.058 51.5699 99.9705 51.3013 99.937C51.0327 99.9036 50.7601 99.925 50.5 99.9999C50.2475 100.075 50.0123 100.2 49.8081 100.367C49.6039 100.534 49.4347 100.739 49.3102 100.971C49.1856 101.204 49.1083 101.458 49.0825 101.721C49.0567 101.983 49.0831 102.248 49.16 102.5C50.2518 106.183 52.6322 109.35 55.8661 111.423C59.1001 113.496 62.9719 114.336 66.7742 113.79C70.5764 113.244 74.0554 111.348 76.5755 108.449C79.0955 105.55 80.4886 101.841 80.5 97.9999V93.9999C80.5166 93.5511 80.3816 93.1096 80.1168 92.7468C79.8519 92.384 79.4726 92.1209 79.04 91.9999C69.5375 89.2801 59.4626 89.2801 49.96 91.9999C49.6974 92.0709 49.4513 92.1928 49.2358 92.3588C49.0202 92.5249 48.8395 92.7317 48.704 92.9676C48.5684 93.2034 48.4806 93.4637 48.4456 93.7335C48.4106 94.0033 48.4291 94.2773 48.5 94.5399C48.5709 94.8026 48.6929 95.0487 48.8589 95.2642C49.0249 95.4797 49.2318 95.6604 49.4676 95.796C49.7035 95.9316 49.9638 96.0194 50.2336 96.0544C50.5033 96.0893 50.7774 96.0709 51.04 95.9999C59.3369 93.599 68.1219 93.4402 76.5 95.5399V97.9999C76.4963 100.108 75.9375 102.177 74.88 104ZM56.7 107.04C58.7989 105.04 61.6014 103.948 64.5 104C67.4129 103.956 70.2273 105.054 72.34 107.06C70.1786 108.961 67.3986 110.01 64.52 110.01C61.6414 110.01 58.8614 108.961 56.7 107.06V107.04Z" fill="#39519D"/>
    <defs>
        <linearGradient id="paint0_linear_3241_24402" x1="178.429" y1="69.3434" x2="143.588" y2="-23.6393" gradientUnits="userSpaceOnUse">
            <stop stop-color="#1CB6AC"/>
            <stop offset="0.448142" stop-color="#1CB6AC"/>
            <stop offset="0.453125" stop-color="#20C2A8"/>
            <stop offset="1" stop-color="#24D0A3"/>
        </linearGradient>
        <linearGradient id="paint1_linear_3241_24402" x1="48.2539" y1="80.1534" x2="-0.0125077" y2="72.5019" gradientUnits="userSpaceOnUse">
            <stop stop-color="#1CB6AC"/>
            <stop offset="1" stop-color="#24D0A3"/>
        </linearGradient>
    </defs>
</svg>
