<svg width="129" height="128" viewBox="0 0 129 128" fill="none" xmlns="http://www.w3.org/2000/svg">
    <g clip-path="url(#clip0_4040_32508)">
        <path d="M0.5 32C0.5 14.3269 14.8269 0 32.5 0H96.5C114.173 0 128.5 14.3269 128.5 32V96C128.5 113.673 114.173 128 96.5 128H32.5C14.8269 128 0.5 113.673 0.5 96V32Z" fill="url(#paint0_linear_4040_32508)"/>
        <path d="M168.774 86.2808C166.655 70.373 159.547 55.419 148.491 43.6119C137.435 31.8049 123.013 23.7662 107.341 20.6747C91.6682 17.5833 75.5699 19.6019 61.4067 26.4343C47.2435 33.2668 35.7608 44.5537 28.6425 58.6395C21.5243 72.7254 19.1451 88.8691 21.8539 104.703C24.5628 120.537 32.2171 135.228 43.6943 146.621C55.1715 158.014 69.8676 165.51 85.6272 168.009C101.387 170.508 117.381 167.88 131.263 160.508L113.512 127.907C106.444 131.659 98.3014 132.998 90.2782 131.725C82.2549 130.453 74.7731 126.637 68.9301 120.836C63.087 115.036 59.1902 107.557 57.8111 99.496C56.4321 91.435 57.6433 83.2162 61.2672 76.0451C64.8911 68.8739 70.737 63.1278 77.9475 59.6494C85.158 56.171 93.3536 55.1433 101.332 56.7172C109.311 58.291 116.653 62.3835 122.282 68.3945C127.911 74.4055 131.53 82.0186 132.608 90.1173L168.774 86.2808Z" fill="url(#paint1_linear_4040_32508)"/>
        <path d="M21.409 60.1817H18.5V54.1071H21.409V48.2892H28.7242V54.1071H33.5154V60.1817H28.7242V69.7642C28.7242 70.4772 28.881 70.9906 29.1948 71.3043C29.537 71.618 30.1216 71.7748 30.9487 71.7748H33.5582V77.9778H29.8364C28.5816 77.9778 27.4408 77.8352 26.4141 77.55C25.3874 77.2648 24.5033 76.8085 23.7618 76.1811C23.0203 75.5251 22.4357 74.6696 22.0079 73.6143C21.6086 72.5306 21.409 71.2187 21.409 69.6787V60.1817Z" fill="white"/>
        <path d="M67.4169 60.5161H64.7646V54.4415H67.4169V53.757C67.4169 50.6199 68.3581 48.2955 70.2404 46.784C72.1226 45.2725 74.889 44.6166 78.5395 44.8162V51.0191C77.1135 50.9336 76.1154 51.1332 75.545 51.6181C75.0031 52.0744 74.7322 52.9442 74.7322 54.2276V54.4415H78.6678V60.5161H74.7322V78.3122H67.4169V60.5161Z" fill="white"/>
        <path d="M46.0179 77.7379C43.2715 76.858 40.9326 75.0209 39.427 72.5612C37.9214 70.1015 37.3494 67.1829 37.8152 64.3369C38.2809 61.4909 39.7534 58.9068 41.9644 57.0553C44.1755 55.2039 46.978 54.2082 49.8616 54.2496C52.7452 54.291 55.518 55.3668 57.6749 57.281C59.8319 59.1952 61.2296 61.8205 61.6134 64.6787C61.9972 67.5369 61.3416 70.4379 59.766 72.8533C58.1905 75.2687 55.7997 77.0379 53.0292 77.8386L50.972 70.7202C52.0363 70.4126 52.9547 69.733 53.56 68.8051C54.1653 67.8772 54.4171 66.7628 54.2697 65.6648C54.1222 64.5668 53.5853 63.5583 52.7567 62.823C51.9281 62.0876 50.8629 61.6744 49.7552 61.6585C48.6475 61.6426 47.5709 62.0251 46.7215 62.7363C45.8721 63.4476 45.3065 64.4402 45.1275 65.5335C44.9486 66.6268 45.1684 67.748 45.7467 68.6929C46.3251 69.6378 47.2236 70.3435 48.2786 70.6815L46.0179 77.7379Z" fill="white"/>
        <path fill-rule="evenodd" clip-rule="evenodd" d="M83.4375 55.1133H90.7901V67.1449H90.7768C90.7768 67.7611 90.8981 68.3713 91.134 68.9406C91.3698 69.5099 91.7154 70.0271 92.1511 70.4629C92.5868 70.8986 93.1041 71.2442 93.6734 71.48C94.2427 71.7158 94.8529 71.8372 95.4691 71.8372C96.0853 71.8372 96.6955 71.7158 97.2648 71.48C97.8341 71.2442 98.3514 70.8986 98.7871 70.4629C99.2228 70.0271 99.5684 69.5099 99.8042 68.9406C100.04 68.3713 100.161 67.7611 100.161 67.1449H100.149V55.1133H107.501V67.1449H107.501C107.501 68.7249 107.189 70.2894 106.585 71.7492C105.98 73.2089 105.094 74.5353 103.977 75.6525C102.859 76.7697 101.533 77.656 100.073 78.2606C98.6137 78.8653 97.0491 79.1765 95.4691 79.1765C93.8891 79.1765 92.3245 78.8653 90.8648 78.2606C89.4051 77.656 88.0787 76.7697 86.9615 75.6525C85.8442 74.5353 84.958 73.2089 84.3534 71.7492C83.7487 70.2894 83.4375 68.7249 83.4375 67.1449V55.1133Z" fill="white"/>
    </g>
    <defs>
        <linearGradient id="paint0_linear_4040_32508" x1="97.426" y1="90.5455" x2="-8.33835" y2="59.5303" gradientUnits="userSpaceOnUse">
            <stop stop-color="#1CB6AC"/>
            <stop offset="1" stop-color="#24D0A3"/>
        </linearGradient>
        <linearGradient id="paint1_linear_4040_32508" x1="132.843" y1="125.134" x2="10.3322" y2="89.6061" gradientUnits="userSpaceOnUse">
            <stop stop-color="#1CB6AC"/>
            <stop offset="1" stop-color="#24D0A3"/>
        </linearGradient>
        <clipPath id="clip0_4040_32508">
            <path d="M0.5 32C0.5 14.3269 14.8269 0 32.5 0H96.5C114.173 0 128.5 14.3269 128.5 32V96C128.5 113.673 114.173 128 96.5 128H32.5C14.8269 128 0.5 113.673 0.5 96V32Z" fill="white"/>
        </clipPath>
    </defs>
</svg>
