<svg width="26" height="24" viewBox="0 0 26 24" fill="none" xmlns="http://www.w3.org/2000/svg">
    <g clip-path="url(#clip0_3209_24344)">
        <path d="M20.1699 0.5C17.2261 0.5 14.8399 2.8128 14.8399 5.66599C14.8399 8.51915 17.2261 10.832 20.1699 10.832C23.1137 10.832 25.5 8.51915 25.5 5.66599C25.5 2.8128 23.1137 0.5 20.1699 0.5ZM20.1699 7.87071C18.921 7.87071 17.9063 6.88723 17.9063 5.6768C17.9063 4.46634 18.921 3.48286 20.1699 3.48286C21.4188 3.48286 22.4335 4.46634 22.4335 5.6768C22.4335 6.88723 21.4188 7.87071 20.1699 7.87071ZM13.3011 4.37989V10.8428H10.2346V4.34748C10.2346 3.86112 9.83318 3.47205 9.33141 3.47205C8.82961 3.47205 8.42818 3.86112 8.42818 4.34748V10.8428H5.36172V4.34748C5.36172 3.86112 4.96031 3.47205 4.45852 3.47205C3.95674 3.47205 3.55531 3.86112 3.55531 4.34748V10.8428H0.5V4.37989C0.5 2.24001 2.29527 0.5 4.50312 0.5C5.40633 0.5 6.23148 0.791801 6.90055 1.27814C7.56958 0.791801 8.40589 0.5 9.29794 0.5C11.5058 0.5 13.3011 2.24001 13.3011 4.37989ZM20.1699 13.0691C17.2261 13.0691 14.8399 15.3819 14.8399 18.2351C14.8399 21.0883 17.2261 23.4011 20.1699 23.4011C23.1137 23.4011 25.5 21.0883 25.5 18.2351C25.5 15.3819 23.1137 13.0691 20.1699 13.0691ZM20.1699 20.4398C18.921 20.4398 17.9063 19.4563 17.9063 18.2459C17.9063 17.0355 18.921 16.052 20.1699 16.052C21.4188 16.052 22.4335 17.0355 22.4335 18.2459C22.4335 19.4563 21.4188 20.4398 20.1699 20.4398ZM13.3011 16.949V23.4119H10.2346V16.9166C10.2346 16.4302 9.83318 16.0412 9.33141 16.0412C8.82961 16.0412 8.42818 16.4302 8.42818 16.9166V23.4119H5.36172V16.9166C5.36172 16.4302 4.96031 16.0412 4.45852 16.0412C3.95674 16.0412 3.55531 16.4302 3.55531 16.9166V23.4119H0.5V16.949C0.5 14.8091 2.29527 13.0691 4.50312 13.0691C5.40633 13.0691 6.23148 13.3609 6.90055 13.8472C7.56958 13.3609 8.39474 13.0691 9.29794 13.0691C11.5058 13.0691 13.3011 14.8091 13.3011 16.949Z" fill="white"/>
    </g>
    <defs>
        <clipPath id="clip0_3209_24344">
            <rect width="25" height="23" fill="white" transform="translate(0.5 0.5)"/>
        </clipPath>
    </defs>
</svg>
