<svg viewBox="0 0 218 87" fill="none" xmlns="http://www.w3.org/2000/svg">
    <g filter="url(#filter0_d_3209_24280)">
        <g clip-path="url(#clip0_3209_24280)">
            <path d="M8.99854 27C8.99854 18.1634 16.162 11 24.9985 11H56.9985C65.8351 11 72.9985 18.1634 72.9985 27V59C72.9985 67.8366 65.8351 75 56.9985 75H24.9985C16.162 75 8.99854 67.8366 8.99854 59V27Z" fill="url(#paint0_linear_3209_24280)"/>
            <path d="M93.1355 54.1404C92.0763 46.1865 88.522 38.7094 82.994 32.8059C77.466 26.9024 70.2551 22.883 62.4189 21.3373C54.5827 19.7916 46.5335 20.8009 39.4519 24.2171C32.3704 27.6334 26.629 33.2768 23.0699 40.3197C19.5107 47.3627 18.3211 55.4345 19.6756 63.3514C21.03 71.2683 24.8571 78.6137 30.5957 84.3103C36.3343 90.0068 43.6824 93.7548 51.5622 95.0044C59.442 96.2541 67.439 94.9398 74.3802 91.2541L65.5044 74.9533C61.9706 76.8296 57.8993 77.4988 53.8877 76.8625C49.8761 76.2263 46.1352 74.3182 43.2136 71.4181C40.2921 68.518 38.3437 64.7785 37.6542 60.748C36.9646 56.7175 37.5702 52.6081 39.3822 49.0225C41.1942 45.4369 44.1171 42.5639 47.7223 40.8246C51.3276 39.0854 55.4254 38.5716 59.4148 39.3585C63.4042 40.1455 67.0753 42.1917 69.8896 45.1972C72.704 48.2027 74.5135 52.0093 75.0527 56.0586L93.1355 54.1404Z" fill="url(#paint1_linear_3209_24280)"/>
            <path d="M19.453 41.0908H17.9985V38.0535H19.453V35.1445H23.1106V38.0535H25.5063V41.0908H23.1106V45.8821C23.1106 46.2386 23.1891 46.4952 23.3459 46.6521C23.517 46.8089 23.8094 46.8874 24.2229 46.8874H25.5276V49.9889H23.6668C23.0393 49.9889 22.4689 49.9176 21.9556 49.775C21.4422 49.6324 21.0002 49.4042 20.6294 49.0905C20.2587 48.7625 19.9664 48.3347 19.7525 47.8071C19.5528 47.2653 19.453 46.6093 19.453 45.8393V41.0908Z" fill="white"/>
            <path d="M42.4571 41.258H41.1309V38.2207H42.4571V37.8785C42.4571 36.3099 42.9276 35.1478 43.8688 34.392C44.8099 33.6362 46.1931 33.3083 48.0183 33.4081V36.5096C47.3054 36.4668 46.8063 36.5666 46.5211 36.809C46.2501 37.0372 46.1147 37.4721 46.1147 38.1138V38.2207H48.0825V41.258H46.1147V50.1561H42.4571V41.258Z" fill="white"/>
            <path d="M31.7575 49.8689C30.3843 49.429 29.2148 48.5104 28.462 47.2806C27.7093 46.0507 27.4232 44.5914 27.6561 43.1684C27.889 41.7454 28.6252 40.4534 29.7308 39.5276C30.8363 38.6019 32.2376 38.1041 33.6793 38.1248C35.1211 38.1455 36.5075 38.6834 37.586 39.6405C38.6645 40.5976 39.3633 41.9102 39.5552 43.3393C39.7471 44.7684 39.4193 46.2189 38.6316 47.4266C37.8438 48.6343 36.6484 49.5189 35.2631 49.9192L34.2346 46.3601C34.7667 46.2063 35.2259 45.8665 35.5285 45.4025C35.8312 44.9386 35.9571 44.3814 35.8834 43.8324C35.8096 43.2834 35.5412 42.7791 35.1269 42.4115C34.7126 42.0438 34.18 41.8372 33.6261 41.8292C33.0723 41.8213 32.534 42.0125 32.1093 42.3681C31.6846 42.7237 31.4018 43.2201 31.3123 43.7667C31.2228 44.3134 31.3327 44.874 31.6219 45.3464C31.9111 45.8189 32.3603 46.1717 32.8878 46.3407L31.7575 49.8689Z" fill="white"/>
            <path fill-rule="evenodd" clip-rule="evenodd" d="M50.4673 38.5566H54.1436V44.5724H54.1369C54.1369 44.8805 54.1976 45.1856 54.3155 45.4703C54.4334 45.7549 54.6062 46.0136 54.8241 46.2314C55.042 46.4493 55.3006 46.6221 55.5852 46.74C55.8699 46.8579 56.175 46.9186 56.4831 46.9186C56.7912 46.9186 57.0963 46.8579 57.3809 46.74C57.6656 46.6221 57.9242 46.4493 58.1421 46.2314C58.3599 46.0136 58.5328 45.7549 58.6507 45.4703C58.7686 45.1856 58.8292 44.8805 58.8292 44.5724H58.8229V38.5566H62.4992V44.5724H62.4989C62.4989 45.3624 62.3433 46.1447 62.041 46.8746C61.7386 47.6045 61.2955 48.2676 60.7369 48.8263C60.1783 49.3849 59.5151 49.828 58.7852 50.1303C58.0554 50.4326 57.2731 50.5882 56.4831 50.5882C55.6931 50.5882 54.9108 50.4326 54.1809 50.1303C53.4511 49.828 52.7879 49.3849 52.2293 48.8263C51.6707 48.2676 51.2275 47.6045 50.9252 46.8746C50.6229 46.1447 50.4673 45.3624 50.4673 44.5724V38.5566Z" fill="white"/>
        </g>
        <path d="M24.9985 12H56.9985V10H24.9985V12ZM71.9985 27V59H73.9985V27H71.9985ZM56.9985 74H24.9985V76H56.9985V74ZM9.99854 59V27H7.99854V59H9.99854ZM24.9985 74C16.7143 74 9.99854 67.2843 9.99854 59H7.99854C7.99854 68.3888 15.6097 76 24.9985 76V74ZM71.9985 59C71.9985 67.2843 65.2828 74 56.9985 74V76C66.3874 76 73.9985 68.3888 73.9985 59H71.9985ZM56.9985 12C65.2828 12 71.9985 18.7157 71.9985 27H73.9985C73.9985 17.6112 66.3874 10 56.9985 10V12ZM24.9985 10C15.6097 10 7.99854 17.6112 7.99854 27H9.99854C9.99854 18.7157 16.7143 12 24.9985 12V10Z" fill="url(#paint2_linear_3209_24280)"/>
    </g>
    <path d="M89.7971 26.024V31H87.5571V19.832H89.7971V24.84L93.8611 19.832H96.5651L91.9571 25.368L96.6931 31H93.8611L89.7971 26.024ZM98.2625 22.136H100.503V31H98.2625V22.136ZM101.415 19.4L98.6625 21.032L97.8465 19.832L100.599 18.152L101.415 19.4ZM102.231 26.568C102.231 25.8747 102.338 25.2453 102.551 24.68C102.775 24.1147 103.079 23.6347 103.463 23.24C103.847 22.8347 104.306 22.5253 104.839 22.312C105.383 22.0987 105.975 21.992 106.615 21.992C107.724 21.992 108.636 22.264 109.351 22.808C110.066 23.352 110.546 24.1253 110.791 25.128H108.375C108.247 24.7547 108.034 24.456 107.735 24.232C107.447 24.008 107.068 23.896 106.599 23.896C105.97 23.896 105.463 24.1253 105.079 24.584C104.706 25.0427 104.519 25.704 104.519 26.568C104.519 27.432 104.706 28.0933 105.079 28.552C105.463 29 105.97 29.224 106.599 29.224C107.506 29.224 108.098 28.8187 108.375 28.008H110.791C110.546 28.9573 110.066 29.72 109.351 30.296C108.636 30.8613 107.724 31.144 106.615 31.144C105.975 31.144 105.383 31.0373 104.839 30.824C104.306 30.6107 103.847 30.3067 103.463 29.912C103.079 29.5067 102.775 29.0213 102.551 28.456C102.338 27.8907 102.231 27.2613 102.231 26.568ZM112.432 19.16H114.672V23.24C114.96 22.8667 115.339 22.568 115.808 22.344C116.288 22.12 116.827 22.008 117.424 22.008C117.925 22.008 118.384 22.0933 118.8 22.264C119.227 22.424 119.595 22.664 119.904 22.984C120.213 23.304 120.453 23.704 120.624 24.184C120.795 24.6533 120.88 25.192 120.88 25.8V31H118.64V26.104C118.64 25.3893 118.459 24.8453 118.096 24.472C117.744 24.0987 117.269 23.912 116.672 23.912C116.064 23.912 115.579 24.0987 115.216 24.472C114.853 24.8453 114.672 25.3893 114.672 26.104V31H112.432V19.16ZM126.823 19.16H129.063V23.24C129.351 22.8667 129.729 22.568 130.199 22.344C130.679 22.12 131.217 22.008 131.815 22.008C132.316 22.008 132.775 22.0933 133.191 22.264C133.617 22.424 133.985 22.664 134.295 22.984C134.604 23.304 134.844 23.704 135.015 24.184C135.185 24.6533 135.271 25.192 135.271 25.8V31H133.031V26.104C133.031 25.3893 132.849 24.8453 132.487 24.472C132.135 24.0987 131.66 23.912 131.063 23.912C130.455 23.912 129.969 24.0987 129.607 24.472C129.244 24.8453 129.063 25.3893 129.063 26.104V31H126.823V19.16ZM145.961 26.568C145.961 27.2613 145.838 27.8907 145.593 28.456C145.358 29.0213 145.033 29.5067 144.617 29.912C144.201 30.3067 143.71 30.6107 143.145 30.824C142.58 31.0373 141.977 31.144 141.337 31.144C140.697 31.144 140.1 31.0373 139.545 30.824C139.001 30.6107 138.526 30.3067 138.121 29.912C137.726 29.5067 137.412 29.0213 137.177 28.456C136.953 27.8907 136.841 27.2613 136.841 26.568C136.841 25.864 136.958 25.2347 137.193 24.68C137.428 24.1147 137.748 23.6347 138.153 23.24C138.569 22.8347 139.054 22.5253 139.609 22.312C140.164 22.0987 140.761 21.992 141.401 21.992C142.041 21.992 142.638 22.0987 143.193 22.312C143.748 22.5253 144.228 22.8347 144.633 23.24C145.049 23.6347 145.374 24.1147 145.609 24.68C145.844 25.2347 145.961 25.864 145.961 26.568ZM139.113 26.568C139.113 27.0053 139.172 27.3893 139.289 27.72C139.406 28.0507 139.566 28.328 139.769 28.552C139.972 28.7653 140.206 28.9253 140.473 29.032C140.75 29.1387 141.038 29.192 141.337 29.192C141.636 29.192 141.924 29.1387 142.201 29.032C142.478 28.9253 142.724 28.7653 142.937 28.552C143.15 28.328 143.321 28.0507 143.449 27.72C143.588 27.3893 143.657 27.0053 143.657 26.568C143.657 26.12 143.593 25.736 143.465 25.416C143.337 25.0853 143.166 24.8133 142.953 24.6C142.74 24.376 142.494 24.2107 142.217 24.104C141.95 23.9973 141.668 23.944 141.369 23.944C141.07 23.944 140.782 23.9973 140.505 24.104C140.238 24.2107 139.998 24.376 139.785 24.6C139.582 24.8133 139.417 25.0853 139.289 25.416C139.172 25.736 139.113 26.12 139.113 26.568ZM151.684 34.776C151.311 34.776 151.007 34.6587 150.772 34.424C150.537 34.1893 150.42 33.9013 150.42 33.56C150.42 33.2187 150.537 32.9307 150.772 32.696C151.007 32.472 151.311 32.36 151.684 32.36C152.057 32.36 152.361 32.472 152.596 32.696C152.841 32.9307 152.964 33.2187 152.964 33.56C152.964 33.9013 152.841 34.1893 152.596 34.424C152.361 34.6587 152.057 34.776 151.684 34.776ZM147.028 26.536C147.028 25.8427 147.129 25.2187 147.332 24.664C147.545 24.0987 147.833 23.6187 148.196 23.224C148.569 22.8293 149.001 22.5253 149.492 22.312C149.983 22.0987 150.511 21.992 151.076 21.992C151.791 21.992 152.388 22.136 152.868 22.424C153.359 22.7013 153.737 23.0267 154.004 23.4V22.136H156.26V31H154.004V29.704C153.737 30.088 153.353 30.424 152.852 30.712C152.361 31 151.764 31.144 151.06 31.144C150.495 31.144 149.967 31.0373 149.476 30.824C148.996 30.6 148.569 30.2853 148.196 29.88C147.833 29.4747 147.545 28.9893 147.332 28.424C147.129 27.8587 147.028 27.2293 147.028 26.536ZM154.004 26.568C154.004 26.152 153.94 25.784 153.812 25.464C153.684 25.1333 153.508 24.856 153.284 24.632C153.071 24.408 152.82 24.2427 152.532 24.136C152.255 24.0187 151.961 23.96 151.652 23.96C151.353 23.96 151.06 24.0187 150.772 24.136C150.495 24.2427 150.249 24.4027 150.036 24.616C149.823 24.8293 149.647 25.1013 149.508 25.432C149.38 25.752 149.316 26.12 149.316 26.536C149.316 26.952 149.38 27.3253 149.508 27.656C149.647 27.9867 149.823 28.264 150.036 28.488C150.249 28.712 150.495 28.8827 150.772 29C151.06 29.1173 151.353 29.176 151.652 29.176C151.961 29.176 152.255 29.1227 152.532 29.016C152.82 28.8987 153.071 28.728 153.284 28.504C153.508 28.28 153.684 28.008 153.812 27.688C153.94 27.3573 154.004 26.984 154.004 26.568ZM158.8 23.976H157.744V22.136H158.8V19.944H161.056V22.136H163.04V23.976H161.056V28.264C161.056 28.5627 161.125 28.7813 161.264 28.92C161.402 29.048 161.648 29.112 162 29.112H163.04V31H161.632C161.205 31 160.816 30.952 160.464 30.856C160.122 30.76 159.824 30.6053 159.568 30.392C159.322 30.168 159.13 29.8853 158.992 29.544C158.864 29.192 158.8 28.76 158.8 28.248V23.976Z" fill="#D3D6DD"/>
    <path d="M87.0495 40.728H106.598V45.66H99.9015V66H93.7455V45.66H87.0495V40.728ZM127.55 55.956C127.55 57.54 127.274 58.98 126.722 60.276C126.194 61.548 125.45 62.628 124.49 63.516C123.554 64.404 122.438 65.088 121.142 65.568C119.87 66.048 118.502 66.288 117.038 66.288C115.55 66.288 114.17 66.048 112.898 65.568C111.65 65.088 110.558 64.404 109.622 63.516C108.71 62.628 107.99 61.548 107.462 60.276C106.934 58.98 106.67 57.54 106.67 55.956C106.67 54.372 106.934 52.944 107.462 51.672C108.014 50.376 108.758 49.284 109.694 48.396C110.63 47.508 111.734 46.824 113.006 46.344C114.278 45.864 115.646 45.624 117.11 45.624C118.574 45.624 119.942 45.864 121.214 46.344C122.486 46.824 123.59 47.508 124.526 48.396C125.462 49.284 126.194 50.376 126.722 51.672C127.274 52.944 127.55 54.372 127.55 55.956ZM112.934 55.956C112.934 56.796 113.042 57.54 113.258 58.188C113.474 58.812 113.762 59.328 114.122 59.736C114.506 60.144 114.95 60.456 115.454 60.672C115.958 60.864 116.486 60.96 117.038 60.96C117.59 60.96 118.118 60.864 118.622 60.672C119.126 60.456 119.57 60.144 119.954 59.736C120.362 59.328 120.686 58.812 120.926 58.188C121.166 57.54 121.286 56.796 121.286 55.956C121.286 55.092 121.166 54.348 120.926 53.724C120.71 53.1 120.398 52.584 119.99 52.176C119.606 51.768 119.162 51.468 118.658 51.276C118.154 51.06 117.638 50.952 117.11 50.952C116.558 50.952 116.03 51.06 115.526 51.276C115.022 51.468 114.578 51.768 114.194 52.176C113.81 52.584 113.498 53.1 113.258 53.724C113.042 54.348 112.934 55.092 112.934 55.956ZM131.428 51.024H129.196V45.912H131.428V45.336C131.428 42.696 132.22 40.74 133.804 39.468C135.388 38.196 137.716 37.644 140.788 37.812V43.032C139.588 42.96 138.748 43.128 138.268 43.536C137.812 43.92 137.584 44.652 137.584 45.732V45.912H140.896V51.024H137.584V66H131.428V51.024ZM163.625 66H157.469V63.264C156.845 64.128 156.017 64.836 154.985 65.388C153.953 65.94 152.753 66.216 151.385 66.216C150.233 66.216 149.177 66.024 148.217 65.64C147.257 65.256 146.429 64.692 145.733 63.948C145.061 63.204 144.533 62.304 144.149 61.248C143.789 60.192 143.609 58.992 143.609 57.648V45.912H149.729V56.82C149.729 58.188 150.077 59.244 150.773 59.988C151.493 60.708 152.429 61.068 153.581 61.068C154.781 61.068 155.729 60.708 156.425 59.988C157.121 59.244 157.469 58.188 157.469 56.82V45.912H163.625V66Z" fill="white"/>
    <g filter="url(#filter1_d_3209_24280)">
        <rect x="172" y="37" width="46" height="28.3203" rx="9" fill="url(#paint3_linear_3209_24280)" shape-rendering="crispEdges"/>
        <path d="M182.802 50.3402C183.482 50.3402 183.976 50.1868 184.282 49.8802C184.589 49.5602 184.742 49.1268 184.742 48.5802C184.742 48.0335 184.589 47.6068 184.282 47.3002C183.976 46.9802 183.482 46.8202 182.802 46.8202H180.942V50.3402H182.802ZM188.222 48.5802C188.222 49.1668 188.122 49.7268 187.922 50.2602C187.722 50.7935 187.409 51.2735 186.982 51.7002C186.569 52.1135 186.036 52.4468 185.382 52.7002C184.729 52.9402 183.956 53.0602 183.062 53.0602H180.942V58.1002H177.522V44.0602H183.062C183.916 44.0602 184.662 44.1735 185.302 44.4002C185.956 44.6268 186.496 44.9468 186.922 45.3602C187.362 45.7602 187.689 46.2402 187.902 46.8002C188.116 47.3468 188.222 47.9402 188.222 48.5802Z" fill="white"/>
        <path d="M194.923 58.1002H191.503V46.9402H194.923V48.8002C195.31 48.2002 195.796 47.7202 196.383 47.3602C196.983 47.0002 197.663 46.8202 198.423 46.8202V50.4402H197.483C196.67 50.4402 196.036 50.6135 195.583 50.9602C195.143 51.3068 194.923 51.9602 194.923 52.9202V58.1002Z" fill="white"/>
        <path d="M212.478 52.5202C212.478 53.4002 212.324 54.2002 212.018 54.9202C211.724 55.6268 211.311 56.2268 210.778 56.7202C210.258 57.2135 209.638 57.5935 208.918 57.8602C208.211 58.1268 207.451 58.2602 206.638 58.2602C205.811 58.2602 205.044 58.1268 204.338 57.8602C203.644 57.5935 203.038 57.2135 202.518 56.7202C202.011 56.2268 201.611 55.6268 201.318 54.9202C201.024 54.2002 200.878 53.4002 200.878 52.5202C200.878 51.6402 201.024 50.8468 201.318 50.1402C201.624 49.4202 202.038 48.8135 202.558 48.3202C203.078 47.8268 203.691 47.4468 204.398 47.1802C205.104 46.9135 205.864 46.7802 206.678 46.7802C207.491 46.7802 208.251 46.9135 208.958 47.1802C209.664 47.4468 210.278 47.8268 210.798 48.3202C211.318 48.8135 211.724 49.4202 212.018 50.1402C212.324 50.8468 212.478 51.6402 212.478 52.5202ZM204.358 52.5202C204.358 52.9868 204.418 53.4002 204.538 53.7602C204.658 54.1068 204.818 54.3935 205.018 54.6202C205.231 54.8468 205.478 55.0202 205.758 55.1402C206.038 55.2468 206.331 55.3002 206.638 55.3002C206.944 55.3002 207.238 55.2468 207.518 55.1402C207.798 55.0202 208.044 54.8468 208.258 54.6202C208.484 54.3935 208.664 54.1068 208.798 53.7602C208.931 53.4002 208.998 52.9868 208.998 52.5202C208.998 52.0402 208.931 51.6268 208.798 51.2802C208.678 50.9335 208.504 50.6468 208.278 50.4202C208.064 50.1935 207.818 50.0268 207.538 49.9202C207.258 49.8002 206.971 49.7402 206.678 49.7402C206.371 49.7402 206.078 49.8002 205.798 49.9202C205.518 50.0268 205.271 50.1935 205.058 50.4202C204.844 50.6468 204.671 50.9335 204.538 51.2802C204.418 51.6268 204.358 52.0402 204.358 52.5202Z" fill="white"/>
    </g>
    <g filter="url(#filter2_df_3209_24280)">
        <path d="M64.9985 1L66.837 9.16152L74.9985 11L66.837 12.8385L64.9985 21L63.1601 12.8385L54.9985 11L63.1601 9.16152L64.9985 1Z" fill="white"/>
    </g>
    <g filter="url(#filter3_df_3209_24280)">
        <path d="M73.9985 19L75.4835 24.5151L80.9985 26L75.4835 27.4849L73.9985 33L72.5136 27.4849L66.9985 26L72.5136 24.5151L73.9985 19Z" fill="white"/>
    </g>
    <defs>
        <filter id="filter0_d_3209_24280" x="0.998535" y="7" width="80" height="80" filterUnits="userSpaceOnUse" color-interpolation-filters="sRGB">
            <feFlood flood-opacity="0" result="BackgroundImageFix"/>
            <feColorMatrix in="SourceAlpha" type="matrix" values="0 0 0 0 0 0 0 0 0 0 0 0 0 0 0 0 0 0 127 0" result="hardAlpha"/>
            <feOffset dy="4"/>
            <feGaussianBlur stdDeviation="3.5"/>
            <feComposite in2="hardAlpha" operator="out"/>
            <feColorMatrix type="matrix" values="0 0 0 0 0 0 0 0 0 0 0 0 0 0 0 0 0 0 0.25 0"/>
            <feBlend mode="normal" in2="BackgroundImageFix" result="effect1_dropShadow_3209_24280"/>
            <feBlend mode="normal" in="SourceGraphic" in2="effect1_dropShadow_3209_24280" result="shape"/>
        </filter>
        <filter id="filter1_d_3209_24280" x="172" y="37" width="46" height="29.3203" filterUnits="userSpaceOnUse" color-interpolation-filters="sRGB">
            <feFlood flood-opacity="0" result="BackgroundImageFix"/>
            <feColorMatrix in="SourceAlpha" type="matrix" values="0 0 0 0 0 0 0 0 0 0 0 0 0 0 0 0 0 0 127 0" result="hardAlpha"/>
            <feOffset dy="1"/>
            <feComposite in2="hardAlpha" operator="out"/>
            <feColorMatrix type="matrix" values="0 0 0 0 1 0 0 0 0 0.6 0 0 0 0 0 0 0 0 1 0"/>
            <feBlend mode="normal" in2="BackgroundImageFix" result="effect1_dropShadow_3209_24280"/>
            <feBlend mode="normal" in="SourceGraphic" in2="effect1_dropShadow_3209_24280" result="shape"/>
        </filter>
        <filter id="filter2_df_3209_24280" x="50.9985" y="0" width="28" height="29" filterUnits="userSpaceOnUse" color-interpolation-filters="sRGB">
            <feFlood flood-opacity="0" result="BackgroundImageFix"/>
            <feColorMatrix in="SourceAlpha" type="matrix" values="0 0 0 0 0 0 0 0 0 0 0 0 0 0 0 0 0 0 127 0" result="hardAlpha"/>
            <feOffset dy="4"/>
            <feGaussianBlur stdDeviation="2"/>
            <feComposite in2="hardAlpha" operator="out"/>
            <feColorMatrix type="matrix" values="0 0 0 0 0 0 0 0 0 0 0 0 0 0 0 0 0 0 0.25 0"/>
            <feBlend mode="normal" in2="BackgroundImageFix" result="effect1_dropShadow_3209_24280"/>
            <feBlend mode="normal" in="SourceGraphic" in2="effect1_dropShadow_3209_24280" result="shape"/>
            <feGaussianBlur stdDeviation="0.5" result="effect2_foregroundBlur_3209_24280"/>
        </filter>
        <filter id="filter3_df_3209_24280" x="62.9985" y="18" width="22" height="23" filterUnits="userSpaceOnUse" color-interpolation-filters="sRGB">
            <feFlood flood-opacity="0" result="BackgroundImageFix"/>
            <feColorMatrix in="SourceAlpha" type="matrix" values="0 0 0 0 0 0 0 0 0 0 0 0 0 0 0 0 0 0 127 0" result="hardAlpha"/>
            <feOffset dy="4"/>
            <feGaussianBlur stdDeviation="2"/>
            <feComposite in2="hardAlpha" operator="out"/>
            <feColorMatrix type="matrix" values="0 0 0 0 0 0 0 0 0 0 0 0 0 0 0 0 0 0 0.25 0"/>
            <feBlend mode="normal" in2="BackgroundImageFix" result="effect1_dropShadow_3209_24280"/>
            <feBlend mode="normal" in="SourceGraphic" in2="effect1_dropShadow_3209_24280" result="shape"/>
            <feGaussianBlur stdDeviation="0.5" result="effect2_foregroundBlur_3209_24280"/>
        </filter>
        <linearGradient id="paint0_linear_3209_24280" x1="57.4616" y1="56.2727" x2="4.57936" y2="40.7652" gradientUnits="userSpaceOnUse">
            <stop stop-color="#1CB6AC"/>
            <stop offset="1" stop-color="#24D0A3"/>
        </linearGradient>
        <linearGradient id="paint1_linear_3209_24280" x1="75.1699" y1="73.5671" x2="13.9147" y2="55.803" gradientUnits="userSpaceOnUse">
            <stop stop-color="#1CB6AC"/>
            <stop offset="1" stop-color="#24D0A3"/>
        </linearGradient>
        <linearGradient id="paint2_linear_3209_24280" x1="27.4985" y1="11" x2="57.4985" y2="75" gradientUnits="userSpaceOnUse">
            <stop stop-color="#00FFC2"/>
            <stop offset="1" stop-color="#017C97"/>
        </linearGradient>
        <linearGradient id="paint3_linear_3209_24280" x1="232.786" y1="59.3988" x2="221.911" y2="24.7034" gradientUnits="userSpaceOnUse">
            <stop stop-color="#FFA800"/>
            <stop offset="0.478967" stop-color="#FFB800"/>
            <stop offset="0.479067" stop-color="#FFB800"/>
            <stop offset="0.479167" stop-color="#FFC700"/>
            <stop offset="1" stop-color="#FFC700"/>
        </linearGradient>
        <clipPath id="clip0_3209_24280">
            <path d="M8.99854 27C8.99854 18.1634 16.162 11 24.9985 11H56.9985C65.8351 11 72.9985 18.1634 72.9985 27V59C72.9985 67.8366 65.8351 75 56.9985 75H24.9985C16.162 75 8.99854 67.8366 8.99854 59V27Z" fill="white"/>
        </clipPath>
    </defs>
</svg>
