<svg width="11" height="11" viewBox="0 0 11 11" fill="none" xmlns="http://www.w3.org/2000/svg">
    <path d="M6.4486 1.61879C5.99181 0.95228 5.00819 0.952279 4.5514 1.61879L3.63761 2.95212C3.52708 3.11339 3.36434 3.23163 3.17681 3.28691L1.62635 3.74396C0.851313 3.97243 0.547354 4.90791 1.04009 5.5483L2.02578 6.8294C2.14501 6.98435 2.20717 7.17566 2.20179 7.3711L2.15735 8.9869C2.13514 9.79461 2.93091 10.3728 3.69222 10.102L5.21521 9.56047C5.39942 9.49497 5.60058 9.49497 5.78479 9.56047L7.30778 10.102C8.06909 10.3728 8.86486 9.79461 8.84265 8.9869L8.79821 7.3711C8.79283 7.17566 8.85499 6.98435 8.97422 6.8294L9.95991 5.54831C10.4526 4.90791 10.1487 3.97243 9.37365 3.74396L7.82319 3.28691C7.63566 3.23163 7.47292 3.11339 7.36239 2.95212L6.4486 1.61879Z" fill="#FFD601" stroke="url(#paint0_linear_3209_24478)" stroke-width="0.3"/>
    <defs>
        <linearGradient id="paint0_linear_3209_24478" x1="14.5357" y1="9.2" x2="8.55199" y2="-2.55374" gradientUnits="userSpaceOnUse">
            <stop stop-color="#FFA800"/>
            <stop offset="0.478967" stop-color="#FFB800"/>
            <stop offset="0.479067" stop-color="#FFB800"/>
            <stop offset="0.479167" stop-color="#FFC700"/>
            <stop offset="1" stop-color="#FFC700"/>
        </linearGradient>
    </defs>
</svg>
