<svg width="31" height="34" viewBox="0 0 31 34" fill="none" xmlns="http://www.w3.org/2000/svg">
    <g opacity="0.3" filter="url(#filter0_f_188_14325)">
        <path d="M12.1412 18.1768L10.1967 19.7678L6.30757 22.9498L10.5502 27.1924L13.7322 23.3033L15.3232 21.3588M18.8587 17.8232L20.8033 16.2322L24.6923 13.0503L20.4497 8.80762L17.2677 12.6967L15.6767 14.6412L18.8587 17.8232Z" stroke="#FF9D97" stroke-width="2" stroke-linecap="round" stroke-linejoin="round"/>
        <path d="M15.5 21C17.1569 21 18.5 19.6569 18.5 18C18.5 16.3431 17.1569 15 15.5 15C13.8431 15 12.5 16.3431 12.5 18C12.5 19.6569 13.8431 21 15.5 21Z" stroke="#FF9D97" stroke-width="2"/>
        <path d="M21.5 21H18.4219L18.5 24" stroke="#FF9D97" stroke-width="2"/>
    </g>
    <path d="M19.4758 8.83077V5.47885" stroke="#FF9D97" stroke-width="2" stroke-linecap="round" stroke-linejoin="round"/>
    <path d="M21.1767 18.6865C22.4936 18.9318 23.8424 18.0861 23.9201 16.8094L24.4966 7.33043C24.5497 6.45795 23.9767 5.66049 23.0857 5.4543C22.0628 5.21764 20.7083 4.96835 19.654 5.0033C18.8175 5.03103 17.7619 5.25122 16.9298 5.45984C16.0945 5.66928 15.5434 6.40293 15.5434 7.22617V18.0048C15.5434 18.6675 16.2354 19.1381 16.9061 18.9633C17.7416 18.7455 18.8092 18.5205 19.654 18.5205C20.1193 18.5205 20.6522 18.5888 21.1767 18.6865Z" stroke="#FF9D97" stroke-width="2" stroke-linecap="round" stroke-linejoin="round"/>
    <path d="M9.82329 18.6865C8.50643 18.9318 7.15756 18.0861 7.07991 16.8094L6.5034 7.33043C6.45033 6.45795 7.02328 5.66049 7.91435 5.4543C8.93716 5.21764 10.2917 4.96835 11.346 5.0033C12.1825 5.03103 13.2381 5.25122 14.0702 5.45984C14.9055 5.66928 15.4566 6.40293 15.4566 7.22617V18.0048C15.4566 18.6675 14.7646 19.1381 14.0939 18.9633C13.2584 18.7455 12.1908 18.5205 11.346 18.5205C10.8807 18.5205 10.3478 18.5888 9.82329 18.6865Z" stroke="#FF9D97" stroke-width="2" stroke-linecap="round" stroke-linejoin="round"/>
    <defs>
        <filter id="filter0_f_188_14325" x="-1.5" y="1" width="34" height="34" filterUnits="userSpaceOnUse" color-interpolation-filters="sRGB">
            <feFlood flood-opacity="0" result="BackgroundImageFix"/>
            <feBlend mode="normal" in="SourceGraphic" in2="BackgroundImageFix" result="shape"/>
            <feGaussianBlur stdDeviation="2.5" result="effect1_foregroundBlur_188_14325"/>
        </filter>
    </defs>
</svg>
