<svg width="25" height="24" viewBox="0 0 25 24" fill="none" xmlns="http://www.w3.org/2000/svg">
    <path d="M13.625 21V23.5L10.625 21.5L7.625 23.5V21H7.125C6.19674 21 5.3065 20.6313 4.65013 19.9749C3.99375 19.3185 3.625 18.4283 3.625 17.5V5C3.625 4.20435 3.94107 3.44129 4.50368 2.87868C5.06629 2.31607 5.82935 2 6.625 2H20.625C20.8902 2 21.1446 2.10536 21.3321 2.29289C21.5196 2.48043 21.625 2.73478 21.625 3V20C21.625 20.2652 21.5196 20.5196 21.3321 20.7071C21.1446 20.8946 20.8902 21 20.625 21H13.625ZM13.625 19H19.625V16H7.125C6.72718 16 6.34564 16.158 6.06434 16.4393C5.78304 16.7206 5.625 17.1022 5.625 17.5C5.625 17.8978 5.78304 18.2794 6.06434 18.5607C6.34564 18.842 6.72718 19 7.125 19H7.625V17H13.625V19ZM19.625 14V4H6.625V14.035C6.79063 14.0115 6.95771 13.9998 7.125 14H19.625ZM7.625 5H9.625V7H7.625V5ZM7.625 8H9.625V10H7.625V8ZM7.625 11H9.625V13H7.625V11Z" fill="#666F88"/>
</svg>
