<svg width="25" height="24" viewBox="0 0 25 24" fill="none" xmlns="http://www.w3.org/2000/svg">
    <path d="M16.6008 8.83077V5.47885" stroke="#2C1167" stroke-width="2" stroke-linecap="round" stroke-linejoin="round"/>
    <path d="M18.3017 18.6865C19.6186 18.9318 20.9674 18.0861 21.0451 16.8094L21.6216 7.33043C21.6747 6.45795 21.1017 5.66049 20.2107 5.4543C19.1878 5.21764 17.8333 4.96835 16.779 5.0033C15.9425 5.03103 14.8869 5.25122 14.0548 5.45984C13.2195 5.66928 12.6684 6.40293 12.6684 7.22617V18.0048C12.6684 18.6675 13.3604 19.1381 14.0311 18.9633C14.8666 18.7455 15.9342 18.5205 16.779 18.5205C17.2443 18.5205 17.7772 18.5888 18.3017 18.6865Z" stroke="#2C1167" stroke-width="2" stroke-linecap="round" stroke-linejoin="round"/>
    <path d="M6.94829 18.6865C5.63143 18.9318 4.28256 18.0861 4.20491 16.8094L3.6284 7.33043C3.57533 6.45795 4.14828 5.66049 5.03935 5.4543C6.06216 5.21764 7.41668 4.96835 8.471 5.0033C9.30753 5.03103 10.3631 5.25122 11.1952 5.45984C12.0305 5.66928 12.5816 6.40293 12.5816 7.22617V18.0048C12.5816 18.6675 11.8896 19.1381 11.2189 18.9633C10.3834 18.7455 9.31583 18.5205 8.471 18.5205C8.00567 18.5205 7.47276 18.5888 6.94829 18.6865Z" stroke="#2C1167" stroke-width="2" stroke-linecap="round" stroke-linejoin="round"/>
</svg>
