<svg width="25" height="24" viewBox="0 0 25 24" fill="none" xmlns="http://www.w3.org/2000/svg">
    <path d="M12.375 14L21.375 9L12.375 4L3.375 9L12.375 14Z" stroke="#65819B"/>
    <path d="M12.375 14L18.535 10.578C19.3455 12.6361 19.5755 14.8772 19.2 17.057C16.6635 17.3032 14.2722 18.3536 12.375 20.055C10.478 18.3538 8.08704 17.3034 5.55095 17.057C5.17516 14.8772 5.40519 12.636 6.21595 10.578L12.375 14Z" stroke="#65819B"/>
    <path d="M12.375 14L21.375 9L12.375 4L3.375 9L12.375 14ZM12.375 14L18.535 10.578C19.3455 12.6361 19.5755 14.8772 19.2 17.057C16.6636 17.3032 14.2722 18.3536 12.375 20.055C10.4781 18.3538 8.08708 17.3034 5.551 17.057C5.1752 14.8772 5.40523 12.636 6.216 10.578L12.375 14ZM8.375 20V12.5L12.375 10.278" stroke="#65819B" stroke-width="2" stroke-linecap="round" stroke-linejoin="round"/>
</svg>
