<svg width="25" height="24" viewBox="0 0 25 24" fill="none" xmlns="http://www.w3.org/2000/svg">
    <path d="M15.375 9C17.375 11 17.375 13 15.3749 15" stroke="#2C1167" stroke-width="2" stroke-linecap="round" stroke-linejoin="round"/>
    <path d="M9.37501 15C7.37496 13 7.37496 11 9.37502 9" stroke="#2C1167" stroke-width="2" stroke-linecap="round" stroke-linejoin="round"/>
    <path d="M17.375 19.9553C15.6077 21.7232 13.2083 20.7887 12.375 19.9553V3.95515C13.375 2.95511 14.7626 2.64888 16.375 3.45511C18.375 4.45511 18.375 6.45515 18.375 6.95515C19.375 7.62181 21.375 8.95515 21.375 11.9551C21.375 14.9551 19.375 16.2885 18.375 16.9551C18.375 17.9553 18.375 18.955 17.375 19.9553Z" stroke="#2C1167" stroke-width="2"/>
    <path d="M7.375 3.9998C9.14231 2.23194 11.5417 3.16647 12.375 3.9998V20C11.375 21 9.98745 21.3063 8.375 20.5C6.375 19.5 6.375 17.5 6.375 17C5.375 16.3333 3.375 15 3.375 12C3.375 8.99999 5.375 7.66666 6.375 6.99999C6.375 5.99988 6.375 5.00012 7.375 3.9998Z" stroke="#2C1167" stroke-width="2"/>
</svg>
