<svg width="30" height="31" viewBox="0 0 30 31" fill="none" xmlns="http://www.w3.org/2000/svg">
    <g opacity="0.3" filter="url(#filter0_f_188_14313)">
        <path d="M18.9758 14.8308V11.4789" stroke="#FF9D97" stroke-width="2" stroke-linecap="round" stroke-linejoin="round"/>
        <path d="M20.6767 24.6865C21.9936 24.9318 23.3424 24.0861 23.4201 22.8094L23.9966 13.3304C24.0497 12.4579 23.4767 11.6605 22.5857 11.4543C21.5628 11.2176 20.2083 10.9683 19.154 11.0033C18.3175 11.031 17.2619 11.2512 16.4298 11.4598C15.5945 11.6693 15.0434 12.4029 15.0434 13.2262V24.0048C15.0434 24.6675 15.7354 25.1381 16.4061 24.9633C17.2416 24.7455 18.3092 24.5205 19.154 24.5205C19.6193 24.5205 20.1522 24.5888 20.6767 24.6865Z" stroke="#FF9D97" stroke-width="2" stroke-linecap="round" stroke-linejoin="round"/>
        <path d="M9.32329 24.6865C8.00643 24.9318 6.65756 24.0861 6.57991 22.8094L6.0034 13.3304C5.95033 12.4579 6.52328 11.6605 7.41435 11.4543C8.43716 11.2176 9.79168 10.9683 10.846 11.0033C11.6825 11.031 12.7381 11.2512 13.5702 11.4598C14.4055 11.6693 14.9566 12.4029 14.9566 13.2262V24.0048C14.9566 24.6675 14.2646 25.1381 13.5939 24.9633C12.7584 24.7455 11.6908 24.5205 10.846 24.5205C10.3807 24.5205 9.84776 24.5888 9.32329 24.6865Z" stroke="#FF9D97" stroke-width="2" stroke-linecap="round" stroke-linejoin="round"/>
    </g>
    <path fill-rule="evenodd" clip-rule="evenodd" d="M8.29289 2.29289C8.68342 1.90237 9.31658 1.90237 9.70711 2.29289L15.2071 7.79289C15.5976 8.18342 15.5976 8.81658 15.2071 9.20711C14.8166 9.59763 14.1834 9.59763 13.7929 9.20711L8.29289 3.70711C7.90237 3.31658 7.90237 2.68342 8.29289 2.29289ZM5.29289 5.29289C5.68342 4.90237 6.31658 4.90237 6.70711 5.29289L12.2071 10.7929C12.5976 11.1834 12.5976 11.8166 12.2071 12.2071C11.8166 12.5976 11.1834 12.5976 10.7929 12.2071L5.29289 6.70711C4.90237 6.31658 4.90237 5.68342 5.29289 5.29289Z" fill="#FF9D97"/>
    <path fill-rule="evenodd" clip-rule="evenodd" d="M18.5429 12.5429C18.9334 12.1524 19.5666 12.1524 19.9571 12.5429L23.7071 16.2929C23.8601 16.4459 23.9594 16.6444 23.99 16.8586L24.4899 20.3586C24.5345 20.6702 24.4297 20.9845 24.2071 21.2071C23.9845 21.4297 23.6702 21.5345 23.3586 21.4899L19.8586 20.99C19.6444 20.9594 19.4459 20.8601 19.2929 20.7071L15.5429 16.9571C15.1524 16.5666 15.1524 15.9334 15.5429 15.5429C15.9334 15.1524 16.5666 15.1524 16.9571 15.5429L20.4714 19.0572L22.3215 19.3215L22.0572 17.4714L18.5429 13.9571C18.1524 13.5666 18.1524 12.9334 18.5429 12.5429Z" fill="#FF9D97"/>
    <path fill-rule="evenodd" clip-rule="evenodd" d="M9.70711 2.29289C10.0976 2.68342 10.0976 3.31658 9.70711 3.70711L6.70711 6.70711C6.31658 7.09763 5.68342 7.09763 5.29289 6.70711C4.90237 6.31658 4.90237 5.68342 5.29289 5.29289L8.29289 2.29289C8.68342 1.90237 9.31658 1.90237 9.70711 2.29289Z" fill="#FF9D97"/>
    <path fill-rule="evenodd" clip-rule="evenodd" d="M20.7071 2.29289C21.0976 2.68342 21.0976 3.31658 20.7071 3.70711L7 17.4142V20H9.58579L23.2929 6.29289C23.6834 5.90237 24.3166 5.90237 24.7071 6.29289C25.0976 6.68342 25.0976 7.31658 24.7071 7.70711L10.7071 21.7071C10.5196 21.8946 10.2652 22 10 22H6C5.44772 22 5 21.5523 5 21V17C5 16.7348 5.10536 16.4804 5.29289 16.2929L19.2929 2.29289C19.6834 1.90237 20.3166 1.90237 20.7071 2.29289Z" fill="#FF9D97"/>
    <path fill-rule="evenodd" clip-rule="evenodd" d="M19.2929 2.29289C19.6834 1.90237 20.3166 1.90237 20.7071 2.29289L24.7071 6.29289C25.0976 6.68342 25.0976 7.31658 24.7071 7.70711C24.3166 8.09763 23.6834 8.09763 23.2929 7.70711L19.2929 3.70711C18.9024 3.31658 18.9024 2.68342 19.2929 2.29289Z" fill="#FF9D97"/>
    <path fill-rule="evenodd" clip-rule="evenodd" d="M20.2929 10.7071L16.2929 6.70711L17.7071 5.29289L21.7071 9.29289L20.2929 10.7071Z" fill="#FF9D97"/>
    <defs>
        <filter id="filter0_f_188_14313" x="-2" y="1" width="34" height="34" filterUnits="userSpaceOnUse" color-interpolation-filters="sRGB">
            <feFlood flood-opacity="0" result="BackgroundImageFix"/>
            <feBlend mode="normal" in="SourceGraphic" in2="BackgroundImageFix" result="shape"/>
            <feGaussianBlur stdDeviation="2.5" result="effect1_foregroundBlur_188_14313"/>
        </filter>
    </defs>
</svg>
