<svg width="25" height="24" viewBox="0 0 25 24" fill="none" xmlns="http://www.w3.org/2000/svg">
    <path d="M7.17496 14.121L5.05496 16.243L7.88296 19.071L19.196 7.75701L16.368 4.93001L14.245 7.05001L15.66 8.46401L14.245 9.88001L12.831 8.46501L11.417 9.88001L12.831 11.294L11.417 12.708L10.003 11.294L8.58796 12.708L10.003 14.122L8.58796 15.537L7.17496 14.12V14.121ZM17.075 2.80801L21.317 7.05001C21.5044 7.23754 21.6097 7.49184 21.6097 7.75701C21.6097 8.02217 21.5044 8.27648 21.317 8.46401L8.58896 21.192C8.40143 21.3795 8.14712 21.4848 7.88196 21.4848C7.61679 21.4848 7.36249 21.3795 7.17496 21.192L2.93296 16.95C2.74549 16.7625 2.64017 16.5082 2.64017 16.243C2.64017 15.9778 2.74549 15.7235 2.93296 15.536L15.661 2.80801C15.8485 2.62054 16.1028 2.51522 16.368 2.51522C16.6331 2.51522 16.8874 2.62054 17.075 2.80801ZM14.245 18.363L15.66 16.949L17.902 19.192H19.316V17.778L17.074 15.535L18.488 14.121L21.125 16.757V21H16.883L14.246 18.363H14.245ZM5.76096 9.87801L2.93196 7.05001C2.83898 6.95713 2.76522 6.84685 2.7149 6.72545C2.66457 6.60405 2.63867 6.47392 2.63867 6.34251C2.63867 6.21109 2.66457 6.08097 2.7149 5.95957C2.76522 5.83817 2.83898 5.72788 2.93196 5.63501L5.76096 2.80701C5.94849 2.61954 6.20279 2.51422 6.46796 2.51422C6.73312 2.51422 6.98743 2.61954 7.17496 2.80701L10.005 5.63501L8.58896 7.05001L6.46796 4.92801L5.05396 6.34301L7.17496 8.46301L5.76096 9.87801Z" fill="#666F88"/>
</svg>
