<svg width="25" height="24" viewBox="0 0 25 24" fill="#2C1167" xmlns="http://www.w3.org/2000/svg">
    <path fill-rule="evenodd" clip-rule="evenodd" d="M5.41789 2.29289C5.80842 1.90237 6.44158 1.90237 6.83211 2.29289L12.3321 7.79289C12.7226 8.18342 12.7226 8.81658 12.3321 9.20711C11.9416 9.59763 11.3084 9.59763 10.9179 9.20711L5.41789 3.70711C5.02737 3.31658 5.02737 2.68342 5.41789 2.29289ZM2.41789 5.29289C2.80842 4.90237 3.44158 4.90237 3.83211 5.29289L9.33211 10.7929C9.72263 11.1834 9.72263 11.8166 9.33211 12.2071C8.94158 12.5976 8.30842 12.5976 7.91789 12.2071L2.41789 6.70711C2.02737 6.31658 2.02737 5.68342 2.41789 5.29289Z" />
    <path fill-rule="evenodd" clip-rule="evenodd" d="M15.6679 12.5429C16.0584 12.1524 16.6916 12.1524 17.0821 12.5429L20.8321 16.2929C20.9851 16.4459 21.0844 16.6444 21.115 16.8586L21.6149 20.3586C21.6595 20.6702 21.5547 20.9845 21.3321 21.2071C21.1095 21.4297 20.7952 21.5345 20.4836 21.4899L16.9836 20.99C16.7694 20.9594 16.5709 20.8601 16.4179 20.7071L12.6679 16.9571C12.2774 16.5666 12.2774 15.9334 12.6679 15.5429C13.0584 15.1524 13.6916 15.1524 14.0821 15.5429L17.5964 19.0572L19.4465 19.3215L19.1822 17.4714L15.6679 13.9571C15.2774 13.5666 15.2774 12.9334 15.6679 12.5429Z" />
    <path fill-rule="evenodd" clip-rule="evenodd" d="M6.83211 2.29289C7.22263 2.68342 7.22263 3.31658 6.83211 3.70711L3.83211 6.70711C3.44158 7.09763 2.80842 7.09763 2.41789 6.70711C2.02737 6.31658 2.02737 5.68342 2.41789 5.29289L5.41789 2.29289C5.80842 1.90237 6.44158 1.90237 6.83211 2.29289Z" />
    <path fill-rule="evenodd" clip-rule="evenodd" d="M17.8321 2.29289C18.2226 2.68342 18.2226 3.31658 17.8321 3.70711L4.125 17.4142V20H6.71079L20.4179 6.29289C20.8084 5.90237 21.4416 5.90237 21.8321 6.29289C22.2226 6.68342 22.2226 7.31658 21.8321 7.70711L7.83211 21.7071C7.64457 21.8946 7.39022 22 7.125 22H3.125C2.57272 22 2.125 21.5523 2.125 21V17C2.125 16.7348 2.23036 16.4804 2.41789 16.2929L16.4179 2.29289C16.8084 1.90237 17.4416 1.90237 17.8321 2.29289Z" />
    <path fill-rule="evenodd" clip-rule="evenodd" d="M16.4179 2.29289C16.8084 1.90237 17.4416 1.90237 17.8321 2.29289L21.8321 6.29289C22.2226 6.68342 22.2226 7.31658 21.8321 7.70711C21.4416 8.09763 20.8084 8.09763 20.4179 7.70711L16.4179 3.70711C16.0274 3.31658 16.0274 2.68342 16.4179 2.29289Z" />
    <path fill-rule="evenodd" clip-rule="evenodd" d="M17.4179 10.7071L13.4179 6.70711L14.8321 5.29289L18.8321 9.29289L17.4179 10.7071Z" />
</svg>
