<svg width="25" height="24" viewBox="0 0 25 24" fill="none" xmlns="http://www.w3.org/2000/svg">
    <g clip-path="url(#clip0_5201_55760)">
        <g filter="url(#filter0_d_5201_55760)">
            <path d="M16.4999 7.19998C16.4999 8.15476 16.1206 9.07043 15.4454 9.74556C14.7703 10.4207 13.8546 10.8 12.8999 10.8C11.9451 10.8 11.0294 10.4207 10.3543 9.74556C9.67914 9.07043 9.29985 8.15476 9.29985 7.19998C9.29985 6.2452 9.67914 5.32952 10.3543 4.65439C11.0294 3.97926 11.9451 3.59998 12.8999 3.59998C13.8546 3.59998 14.7703 3.97926 15.4454 4.65439C16.1206 5.32952 16.4999 6.2452 16.4999 7.19998ZM22.4999 9.59998C22.4999 10.2365 22.247 10.8469 21.7969 11.297C21.3468 11.7471 20.7364 12 20.0999 12C19.4633 12 18.8529 11.7471 18.4028 11.297C17.9527 10.8469 17.6999 10.2365 17.6999 9.59998C17.6999 8.96346 17.9527 8.35301 18.4028 7.90292C18.8529 7.45283 19.4633 7.19998 20.0999 7.19998C20.7364 7.19998 21.3468 7.45283 21.7969 7.90292C22.247 8.35301 22.4999 8.96346 22.4999 9.59998ZM17.6999 18C17.6999 16.7269 17.1941 15.506 16.294 14.6059C15.3938 13.7057 14.1729 13.2 12.8999 13.2C11.6268 13.2 10.4059 13.7057 9.50574 14.6059C8.60557 15.506 8.09985 16.7269 8.09985 18V21.6H17.6999V18ZM8.09985 9.59998C8.09985 10.2365 7.847 10.8469 7.39691 11.297C6.94682 11.7471 6.33637 12 5.69985 12C5.06333 12 4.45288 11.7471 4.0028 11.297C3.55271 10.8469 3.29985 10.2365 3.29985 9.59998C3.29985 8.96346 3.55271 8.35301 4.0028 7.90292C4.45288 7.45283 5.06333 7.19998 5.69985 7.19998C6.33637 7.19998 6.94682 7.45283 7.39691 7.90292C7.847 8.35301 8.09985 8.96346 8.09985 9.59998ZM20.0999 21.6V18C20.1016 16.7799 19.7918 15.5796 19.1999 14.5128C19.7319 14.3766 20.288 14.3638 20.8257 14.4752C21.3634 14.5867 21.8686 14.8195 22.3027 15.1559C22.7368 15.4923 23.0883 15.9233 23.3304 16.4162C23.5725 16.9091 23.6989 17.4508 23.6999 18V21.6H20.0999ZM6.59985 14.5128C6.00795 15.5796 5.69817 16.7799 5.69985 18V21.6H2.09985V18C2.09962 17.4504 2.22521 16.9081 2.46699 16.4146C2.70877 15.9211 3.06033 15.4895 3.49471 15.1529C3.9291 14.8163 4.43479 14.5835 4.97303 14.4726C5.51126 14.3616 6.06775 14.3754 6.59985 14.5128Z" fill="url(#paint0_linear_5201_55760)"/>
        </g>
    </g>
    <defs>
        <filter id="filter0_d_5201_55760" x="0.0998535" y="2.59998" width="25.6001" height="22" filterUnits="userSpaceOnUse" color-interpolation-filters="sRGB">
            <feFlood flood-opacity="0" result="BackgroundImageFix"/>
            <feColorMatrix in="SourceAlpha" type="matrix" values="0 0 0 0 0 0 0 0 0 0 0 0 0 0 0 0 0 0 127 0" result="hardAlpha"/>
            <feOffset dy="1"/>
            <feGaussianBlur stdDeviation="1"/>
            <feComposite in2="hardAlpha" operator="out"/>
            <feColorMatrix type="matrix" values="0 0 0 0 0.163403 0 0 0 0 0.718721 0 0 0 0 0.754167 0 0 0 0.3 0"/>
            <feBlend mode="normal" in2="BackgroundImageFix" result="effect1_dropShadow_5201_55760"/>
            <feBlend mode="normal" in="SourceGraphic" in2="effect1_dropShadow_5201_55760" result="shape"/>
        </filter>
        <linearGradient id="paint0_linear_5201_55760" x1="18.4561" y1="16.3329" x2="1.20928" y2="10.2638" gradientUnits="userSpaceOnUse">
            <stop stop-color="#1CB6AC"/>
            <stop offset="1" stop-color="#24D0A3"/>
        </linearGradient>
        <clipPath id="clip0_5201_55760">
            <rect width="24" height="24" fill="white" transform="translate(0.899902)"/>
        </clipPath>
    </defs>
</svg>
