<svg width="31" height="33" viewBox="0 0 31 33" fill="none" xmlns="http://www.w3.org/2000/svg">
    <g opacity="0.3" filter="url(#filter0_f_188_14331)">
        <path d="M6.5 27C7 25 8.5 20 15.5 20C22.5 20 24 25 24.5 27" stroke="#FF9D97" stroke-width="2" stroke-linecap="round" stroke-linejoin="round"/>
        <path d="M15.5 17C17.7091 17 19.5 15.2091 19.5 13C19.5 10.7909 17.7091 9 15.5 9C13.2909 9 11.5 10.7909 11.5 13C11.5 15.2091 13.2909 17 15.5 17Z" stroke="#FF9D97" stroke-width="2" stroke-linecap="round" stroke-linejoin="round"/>
    </g>
    <path d="M6.5 21C7 19 8.5 14 15.5 14C22.5 14 24 19 24.5 21" stroke="#FF9D97" stroke-width="2" stroke-linecap="round" stroke-linejoin="round"/>
    <path d="M15.5 11C17.7091 11 19.5 9.20914 19.5 7C19.5 4.79086 17.7091 3 15.5 3C13.2909 3 11.5 4.79086 11.5 7C11.5 9.20914 13.2909 11 15.5 11Z" stroke="#FF9D97" stroke-width="2" stroke-linecap="round" stroke-linejoin="round"/>
    <defs>
        <filter id="filter0_f_188_14331" x="-1.5" y="1" width="34" height="34" filterUnits="userSpaceOnUse" color-interpolation-filters="sRGB">
            <feFlood flood-opacity="0" result="BackgroundImageFix"/>
            <feBlend mode="normal" in="SourceGraphic" in2="BackgroundImageFix" result="shape"/>
            <feGaussianBlur stdDeviation="2.5" result="effect1_foregroundBlur_188_14331"/>
        </filter>
    </defs>
</svg>
