<svg width="25" height="24" viewBox="0 0 25 24" fill="none" xmlns="http://www.w3.org/2000/svg">
    <path d="M4.875 22C4.875 19.8783 5.71785 17.8434 7.21815 16.3431C8.71844 14.8429 10.7533 14 12.875 14C14.9967 14 17.0316 14.8429 18.5319 16.3431C20.0321 17.8434 20.875 19.8783 20.875 22H18.875C18.875 20.4087 18.2429 18.8826 17.1176 17.7574C15.9924 16.6321 14.4663 16 12.875 16C11.2837 16 9.75758 16.6321 8.63236 17.7574C7.50714 18.8826 6.875 20.4087 6.875 22H4.875ZM12.875 13C9.56 13 6.875 10.315 6.875 7C6.875 3.685 9.56 1 12.875 1C16.19 1 18.875 3.685 18.875 7C18.875 10.315 16.19 13 12.875 13ZM12.875 11C15.085 11 16.875 9.21 16.875 7C16.875 4.79 15.085 3 12.875 3C10.665 3 8.875 4.79 8.875 7C8.875 9.21 10.665 11 12.875 11Z" fill="#666F88"/>
</svg>
