<svg width="56" height="56" viewBox="0 0 56 56" fill="none" xmlns="http://www.w3.org/2000/svg">
    <g clip-path="url(#clip0_4157_30323)">
        <g filter="url(#filter0_d_4157_30323)">
            <path d="M26.9104 11.8135C27.6866 10.7288 29.3134 10.7288 30.0896 11.8135L35.5675 19.4688C35.8146 19.8141 36.1697 20.0694 36.5781 20.1952L45.6304 22.9835C46.9129 23.3785 47.4157 24.9092 46.6128 25.9746L40.946 33.4942C40.6904 33.8334 40.5547 34.2464 40.56 34.6695L40.6767 44.048C40.6933 45.3768 39.3771 46.3229 38.1047 45.8967L29.1246 42.8887C28.7195 42.753 28.2805 42.753 27.8754 42.8887L18.8953 45.8967C17.6229 46.3229 16.3067 45.3768 16.3233 44.048L16.44 34.6695C16.4453 34.2464 16.3096 33.8334 16.054 33.4942L10.3872 25.9746C9.58432 24.9092 10.0871 23.3785 11.3696 22.9835L20.4219 20.1952C20.8303 20.0694 21.1854 19.8141 21.4325 19.4688L26.9104 11.8135Z" fill="#F2F2F2"/>
            <path d="M27.317 12.1044C27.8937 11.2985 29.1063 11.2985 29.683 12.1044L35.1609 19.7598C35.4721 20.1947 35.9186 20.5152 36.4309 20.673L45.4832 23.4613C46.4392 23.7558 46.8048 24.889 46.2135 25.6737L40.5467 33.1932C40.2247 33.6205 40.0534 34.1414 40.06 34.6757L40.1768 44.0543C40.1889 45.0311 39.217 45.7419 38.2635 45.4226L29.2834 42.4146C28.7752 42.2444 28.2248 42.2444 27.7166 42.4146L27.8754 42.8887L27.7166 42.4146L18.7365 45.4226C17.783 45.7419 16.8111 45.0311 16.8232 44.0543L16.94 34.6757C16.9466 34.1414 16.7753 33.6205 16.4533 33.1932L10.7865 25.6737C10.1952 24.889 10.5608 23.7558 11.5168 23.4613L20.5691 20.673C21.0814 20.5152 21.5279 20.1947 21.8391 19.7598L27.317 12.1044Z" stroke="url(#paint0_linear_4157_30323)"/>
        </g>
    </g>
    <defs>
        <filter id="filter0_d_4157_30323" x="2" y="8" width="53" height="51" filterUnits="userSpaceOnUse" color-interpolation-filters="sRGB">
            <feFlood flood-opacity="0" result="BackgroundImageFix"/>
            <feColorMatrix in="SourceAlpha" type="matrix" values="0 0 0 0 0 0 0 0 0 0 0 0 0 0 0 0 0 0 127 0" result="hardAlpha"/>
            <feOffset dy="5"/>
            <feGaussianBlur stdDeviation="4"/>
            <feComposite in2="hardAlpha" operator="out"/>
            <feColorMatrix type="matrix" values="0 0 0 0 1 0 0 0 0 0.8 0 0 0 0 0 0 0 0 0.16 0"/>
            <feBlend mode="normal" in2="BackgroundImageFix" result="effect1_dropShadow_4157_30323"/>
            <feBlend mode="normal" in="SourceGraphic" in2="effect1_dropShadow_4157_30323" result="shape"/>
        </filter>
        <linearGradient id="paint0_linear_4157_30323" x1="10" y1="16.4688" x2="47.1571" y2="18.1722" gradientUnits="userSpaceOnUse">
            <stop stop-color="#BFBFBF"/>
            <stop offset="1" stop-color="#BFBFBF"/>
        </linearGradient>
        <clipPath id="clip0_4157_30323">
            <rect width="56" height="56" fill="#BFBFBF"/>
        </clipPath>
    </defs>
</svg>
