<svg width="32" height="32" viewBox="0 0 32 32" fill="none" xmlns="http://www.w3.org/2000/svg">
    <g filter="url(#filter0_b_5073_5974)">
        <path d="M0 16C0 7.16344 7.16344 0 16 0C24.8366 0 32 7.16344 32 16C32 24.8366 24.8366 32 16 32C7.16344 32 0 24.8366 0 16Z" fill="#F2F4F9" fill-opacity="0.75"/>
        <path d="M16.3186 8.37585C16.5839 8.43458 16.8571 8.46981 17.1147 8.55202C18.6602 9.02962 19.7256 10.4585 19.7412 12.0792C19.7529 13.3711 19.7529 14.6629 19.7412 15.9548C19.7178 18.1549 17.7938 19.8617 15.6122 19.6308C13.7116 19.4311 12.2676 17.8417 12.2559 15.9274C12.248 14.6551 12.248 13.3828 12.2559 12.1105C12.2676 10.204 13.6881 8.6264 15.5809 8.40326C15.6122 8.39934 15.6473 8.3876 15.6785 8.37977C15.8893 8.37585 16.1039 8.37585 16.3186 8.37585Z" fill="#253255"/>
        <path d="M13.8421 24C13.8005 23.9792 13.763 23.9583 13.7213 23.9375C13.4505 23.8083 13.3047 23.5417 13.3422 23.2333C13.3755 22.9583 13.5921 22.7208 13.8796 22.6833C14.0963 22.6583 14.3171 22.6667 14.5338 22.6625C14.7921 22.6583 15.0546 22.6625 15.3212 22.6625C15.3212 22.425 15.3212 22.2042 15.3212 21.9708C15.1087 21.9292 14.8962 21.9042 14.6837 21.8458C12.1964 21.2 10.6673 19.6167 10.1049 17.1167C10.0257 16.7667 10.0174 16.3958 10.0007 16.0333C9.98404 15.6458 10.2632 15.35 10.6257 15.3375C11.0131 15.3208 11.2965 15.5917 11.334 15.9958C11.3673 16.3625 11.3881 16.7333 11.4673 17.0917C11.8673 18.8833 13.388 20.3 15.2045 20.5958C17.6211 20.9917 19.8793 19.5417 20.5042 17.1833C20.6042 16.8083 20.625 16.4167 20.6584 16.0292C20.6917 15.6167 20.9542 15.3375 21.3375 15.3375C21.7208 15.3375 22.0041 15.6333 22 16.0375C21.9833 17.3708 21.5875 18.5792 20.7709 19.6333C19.7668 20.9375 18.4418 21.7125 16.8044 21.9458C16.7628 21.95 16.7253 21.9625 16.6628 21.975C16.6628 22.0875 16.6628 22.2 16.6628 22.3125C16.6628 22.4208 16.6628 22.5292 16.6628 22.6542C16.7295 22.6583 16.7836 22.6625 16.8378 22.6625C17.1919 22.6625 17.5461 22.6625 17.9002 22.6625C18.3044 22.6625 18.5793 22.8583 18.6502 23.1875C18.7252 23.5333 18.5543 23.8125 18.1752 23.975C18.1669 23.9792 18.1627 23.9917 18.1544 23.9958C16.717 24 15.2795 24 13.8421 24Z" fill="#253255"/>
    </g>
    <defs>
        <filter id="filter0_b_5073_5974" x="-4" y="-4" width="40" height="40" filterUnits="userSpaceOnUse" color-interpolation-filters="sRGB">
            <feFlood flood-opacity="0" result="BackgroundImageFix"/>
            <feGaussianBlur in="BackgroundImage" stdDeviation="2"/>
            <feComposite in2="SourceAlpha" operator="in" result="effect1_backgroundBlur_5073_5974"/>
            <feBlend mode="normal" in="SourceGraphic" in2="effect1_backgroundBlur_5073_5974" result="shape"/>
        </filter>
    </defs>
</svg>
