<svg width="32" height="32" viewBox="0 0 32 32" fill="none" xmlns="http://www.w3.org/2000/svg">
    <g filter="url(#filter0_b_5068_55698)">
        <rect width="32" height="32" rx="16" fill="#FFF3F1" fill-opacity="0.75"/>
        <path fill-rule="evenodd" clip-rule="evenodd" d="M16.3186 8.37585C16.407 8.39543 16.4963 8.41239 16.5857 8.42936C16.7643 8.46328 16.943 8.49721 17.1147 8.55202C18.5027 8.98096 19.5035 10.1772 19.7044 11.5906L20.7196 10.573C21.0125 10.2794 21.4874 10.2794 21.7803 10.573C22.0732 10.8665 22.0732 11.3425 21.7803 11.6361L19.7497 13.6713C19.751 14.4325 19.7481 15.1936 19.7412 15.9548C19.7178 18.1549 17.7938 19.8617 15.6122 19.6308C15.1135 19.5784 14.6462 19.4303 14.228 19.2058L13.4953 19.9401C14.01 20.2675 14.5904 20.4957 15.2045 20.5957C17.6211 20.9915 19.8793 19.5415 20.5042 17.1832C20.5905 16.8598 20.6178 16.5239 20.6451 16.1891C20.6494 16.1357 20.6538 16.0823 20.6584 16.029C20.6917 15.6165 20.9542 15.3374 21.3375 15.3374C21.7208 15.3374 22.0041 15.6332 22 16.0374C21.9833 17.3707 21.5875 18.579 20.7709 19.6332C19.7668 20.9374 18.4418 21.7124 16.8044 21.9457C16.779 21.9483 16.7551 21.9539 16.726 21.9608L16.726 21.9608C16.7076 21.9652 16.6871 21.97 16.6628 21.9749V22.3124V22.654L16.6942 22.656C16.747 22.6594 16.7924 22.6624 16.8378 22.6624H17.9002C18.3044 22.6624 18.5793 22.8582 18.6502 23.1874C18.7252 23.5332 18.5543 23.8124 18.1752 23.9749C18.171 23.977 18.1679 23.9811 18.1648 23.9853C18.1617 23.9895 18.1585 23.9936 18.1544 23.9957C16.717 23.9999 15.2795 23.9999 13.8421 23.9999C13.8213 23.9895 13.8015 23.979 13.7817 23.9686C13.7619 23.9582 13.7421 23.9478 13.7213 23.9374C13.4505 23.8082 13.3047 23.5415 13.3422 23.2332C13.3755 22.9582 13.5921 22.7207 13.8796 22.6832C14.0372 22.665 14.1969 22.6645 14.3556 22.6639H14.3556H14.3557C14.4153 22.6637 14.4747 22.6635 14.5338 22.6624C14.7055 22.6596 14.8791 22.6605 15.0545 22.6614H15.0546H15.0548C15.1431 22.6619 15.2319 22.6624 15.3212 22.6624V21.9707C15.2504 21.9568 15.1795 21.9448 15.1087 21.9327C14.9671 21.9087 14.8254 21.8846 14.6837 21.8457C13.8635 21.6327 13.1475 21.3178 12.5359 20.9017L11.966 21.473C11.6731 21.7665 11.1982 21.7665 10.9053 21.473C10.6124 21.1794 10.6124 20.7034 10.9053 20.4099L11.4188 19.8952C10.792 19.1497 10.3538 18.2229 10.1049 17.1165C10.0343 16.8044 10.02 16.4756 10.0059 16.151L10.0007 16.0332C9.98404 15.6457 10.2632 15.3499 10.6257 15.3374C11.0131 15.3207 11.2965 15.5915 11.334 15.9957C11.3399 16.0609 11.3454 16.1263 11.351 16.1916L11.351 16.1917C11.3765 16.4939 11.4022 16.797 11.4673 17.0915C11.6202 17.7765 11.9369 18.4067 12.3714 18.9404L13.0705 18.2397C12.5634 17.6033 12.2612 16.799 12.2559 15.9274C12.248 14.6551 12.248 13.3828 12.2559 12.1105C12.2676 10.204 13.6881 8.6264 15.5809 8.40326C15.6029 8.4005 15.6269 8.39386 15.65 8.38744C15.6597 8.38474 15.6693 8.38208 15.6785 8.37977C15.8893 8.37585 16.1039 8.37585 16.3185 8.37585H16.3186Z" fill="#F65C45"/>
    </g>
    <defs>
        <filter id="filter0_b_5068_55698" x="-4" y="-4" width="40" height="40" filterUnits="userSpaceOnUse" color-interpolation-filters="sRGB">
            <feFlood flood-opacity="0" result="BackgroundImageFix"/>
            <feGaussianBlur in="BackgroundImage" stdDeviation="2"/>
            <feComposite in2="SourceAlpha" operator="in" result="effect1_backgroundBlur_5068_55698"/>
            <feBlend mode="normal" in="SourceGraphic" in2="effect1_backgroundBlur_5068_55698" result="shape"/>
        </filter>
    </defs>
</svg>
