<svg width="20" height="17" viewBox="0 0 20 17" fill="none" xmlns="http://www.w3.org/2000/svg">
    <g filter="url(#filter0_d_5068_55734)">
        <path d="M9.20005 4.80002C9.20005 5.43654 8.94719 6.04699 8.49711 6.49708C8.04702 6.94717 7.43657 7.20002 6.80005 7.20002C6.16353 7.20002 5.55308 6.94717 5.10299 6.49708C4.65291 6.04699 4.40005 5.43654 4.40005 4.80002C4.40005 4.1635 4.65291 3.55306 5.10299 3.10297C5.55308 2.65288 6.16353 2.40002 6.80005 2.40002C7.43657 2.40002 8.04702 2.65288 8.49711 3.10297C8.94719 3.55306 9.20005 4.1635 9.20005 4.80002ZM15.6 4.80002C15.6 5.1152 15.538 5.42728 15.4174 5.71846C15.2967 6.00965 15.12 6.27422 14.8971 6.49708C14.6742 6.71994 14.4097 6.89672 14.1185 7.01734C13.8273 7.13795 13.5152 7.20002 13.2 7.20002C12.8849 7.20002 12.5728 7.13795 12.2816 7.01734C11.9904 6.89672 11.7259 6.71994 11.503 6.49708C11.2801 6.27422 11.1033 6.00965 10.9827 5.71846C10.8621 5.42728 10.8 5.1152 10.8 4.80002C10.8 4.1635 11.0529 3.55306 11.503 3.10297C11.9531 2.65288 12.5635 2.40002 13.2 2.40002C13.8366 2.40002 14.447 2.65288 14.8971 3.10297C15.3472 3.55306 15.6 4.1635 15.6 4.80002ZM12.344 13.6C12.3808 13.3384 12.4 13.072 12.4 12.8C12.4019 11.5431 11.979 10.3224 11.2 9.33602C11.8081 8.98496 12.4979 8.80013 13.2 8.80013C13.9022 8.80012 14.5919 8.98494 15.2 9.336C15.8081 9.68706 16.313 10.192 16.6641 10.8001C17.0152 11.4081 17.2 12.0979 17.2 12.8V13.6H12.344ZM6.80005 8.80002C7.86091 8.80002 8.87833 9.22145 9.62848 9.9716C10.3786 10.7217 10.8 11.7392 10.8 12.8V13.6H2.80005V12.8C2.80005 11.7392 3.22148 10.7217 3.97162 9.9716C4.72177 9.22145 5.73918 8.80002 6.80005 8.80002Z" fill="#FFB801"/>
    </g>
    <defs>
        <filter id="filter0_d_5068_55734" x="0.800049" y="1.40002" width="18.3999" height="15.2" filterUnits="userSpaceOnUse" color-interpolation-filters="sRGB">
            <feFlood flood-opacity="0" result="BackgroundImageFix"/>
            <feColorMatrix in="SourceAlpha" type="matrix" values="0 0 0 0 0 0 0 0 0 0 0 0 0 0 0 0 0 0 127 0" result="hardAlpha"/>
            <feOffset dy="1"/>
            <feGaussianBlur stdDeviation="1"/>
            <feComposite in2="hardAlpha" operator="out"/>
            <feColorMatrix type="matrix" values="0 0 0 0 1 0 0 0 0 0.48 0 0 0 0 0 0 0 0 0.25 0"/>
            <feBlend mode="normal" in2="BackgroundImageFix" result="effect1_dropShadow_5068_55734"/>
            <feBlend mode="normal" in="SourceGraphic" in2="effect1_dropShadow_5068_55734" result="shape"/>
        </filter>
    </defs>
</svg>
