<svg width="18" height="18" viewBox="0 0 18 18" fill="none" xmlns="http://www.w3.org/2000/svg">
    <g filter="url(#filter0_d_5068_55731)">
        <path fill-rule="evenodd" clip-rule="evenodd" d="M9.0001 14.4C10.6975 14.4 12.3253 13.7257 13.5256 12.5255C14.7258 11.3252 15.4001 9.69736 15.4001 7.99998C15.4001 6.30259 14.7258 4.67473 13.5256 3.47449C12.3253 2.27426 10.6975 1.59998 9.0001 1.59998C7.30271 1.59998 5.67485 2.27426 4.47461 3.47449C3.27438 4.67473 2.6001 6.30259 2.6001 7.99998C2.6001 9.69736 3.27438 11.3252 4.47461 12.5255C5.67485 13.7257 7.30271 14.4 9.0001 14.4ZM9.8001 4.79998C9.8001 4.5878 9.71581 4.38432 9.56578 4.23429C9.41575 4.08426 9.21227 3.99998 9.0001 3.99998C8.78792 3.99998 8.58444 4.08426 8.43441 4.23429C8.28438 4.38432 8.2001 4.5878 8.2001 4.79998V7.99998C8.20014 8.21213 8.28446 8.41558 8.4345 8.56558L10.6969 10.8288C10.7712 10.9031 10.8595 10.9621 10.9566 11.0023C11.0537 11.0425 11.1578 11.0632 11.2629 11.0632C11.368 11.0632 11.4721 11.0425 11.5692 11.0023C11.6663 10.9621 11.7546 10.9031 11.8289 10.8288C11.9032 10.7544 11.9622 10.6662 12.0024 10.5691C12.0426 10.472 12.0633 10.3679 12.0633 10.2628C12.0633 10.1577 12.0426 10.0536 12.0024 9.95646C11.9622 9.85934 11.9032 9.7711 11.8289 9.69678L9.8001 7.66878V4.79998Z" fill="#80D9FF"/>
    </g>
    <defs>
        <filter id="filter0_d_5068_55731" x="0.600098" y="0.599976" width="16.8" height="16.8" filterUnits="userSpaceOnUse" color-interpolation-filters="sRGB">
            <feFlood flood-opacity="0" result="BackgroundImageFix"/>
            <feColorMatrix in="SourceAlpha" type="matrix" values="0 0 0 0 0 0 0 0 0 0 0 0 0 0 0 0 0 0 127 0" result="hardAlpha"/>
            <feOffset dy="1"/>
            <feGaussianBlur stdDeviation="1"/>
            <feComposite in2="hardAlpha" operator="out"/>
            <feColorMatrix type="matrix" values="0 0 0 0 0 0 0 0 0 0.88 0 0 0 0 1 0 0 0 0.25 0"/>
            <feBlend mode="normal" in2="BackgroundImageFix" result="effect1_dropShadow_5068_55731"/>
            <feBlend mode="normal" in="SourceGraphic" in2="effect1_dropShadow_5068_55731" result="shape"/>
        </filter>
    </defs>
</svg>
