<svg width="25" height="24" viewBox="0 0 25 24" fill="none" xmlns="http://www.w3.org/2000/svg">
    <g clip-path="url(#clip0_5068_55514)">
        <path d="M7.31196 13.883L10.6163 17.1874M18.864 5.63606L18.1569 6.34316M21.5001 12L20.5002 12M18.864 18.364L18.1569 17.6569M6.84315 6.34316L6.13604 5.63606M12.5 3.99981V2.99996M7.49934 12C7.49947 11.0112 7.79281 10.0446 8.34227 9.22241C8.89172 8.40027 9.67262 7.75951 10.5862 7.38115C11.4998 7.0028 12.5051 6.90383 13.475 7.09678C14.4448 7.28973 15.3357 7.76592 16.0349 8.46514C16.7341 9.16436 17.2103 10.0552 17.4032 11.0251C17.5962 11.9949 17.4972 13.0002 17.1189 13.9138C16.7405 14.8274 16.0997 15.6083 15.2776 16.1577C14.4555 16.7072 13.4889 17.0005 12.5 17.0007L11.7257 17C11.2826 17 10.8439 17.0873 10.4345 17.2569C10.0252 17.4266 9.65322 17.6751 9.33994 17.9885L8.96447 18.364C8.58939 18.7391 8.08069 18.9498 7.55025 18.9498C7.01982 18.9498 6.51111 18.7391 6.13604 18.364C5.76097 17.9889 5.55025 17.4802 5.55025 16.9498C5.55025 16.4193 5.76097 15.9106 6.13604 15.5356L6.51151 15.1601C7.14437 14.5272 7.50005 13.6681 7.50005 12.7743L7.49934 12Z" stroke="#BFBFBF" stroke-width="2" stroke-linecap="round" stroke-linejoin="round"/>
    </g>
    <defs>
        <clipPath id="clip0_5068_55514">
            <rect width="24" height="24" transform="translate(0.5)"/>
        </clipPath>
    </defs>
</svg>
