<svg width="24" height="23" viewBox="0 0 24 23" fill="#D3D3D3" xmlns="http://www.w3.org/2000/svg">
  <path d="M23.2715 8.41934C22.3688 6.94106 21.23 5.62059 19.9005 4.51034L22.7005 1.71034C22.8827 1.52173 22.9835 1.26913 22.9812 1.00694C22.9789 0.744739 22.8738 0.493926 22.6884 0.308518C22.503 0.12311 22.2521 0.0179412 21.9899 0.0156628C21.7277 0.0133844 21.4751 0.114179 21.2865 0.296337L18.2415 3.34534C16.3539 2.22416 14.196 1.6398 12.0005 1.65534C5.80954 1.65534 2.28154 5.89334 0.72954 8.41934C0.250068 9.19484 -0.00390625 10.0886 -0.00390625 11.0003C-0.00390625 11.9121 0.250068 12.8058 0.72954 13.5813C1.6323 15.0596 2.77103 16.3801 4.10054 17.4903L1.30054 20.2903C1.20503 20.3826 1.12885 20.4929 1.07644 20.6149C1.02403 20.7369 0.996443 20.8682 0.995289 21.0009C0.994135 21.1337 1.01944 21.2654 1.06972 21.3883C1.12 21.5112 1.19425 21.6228 1.28814 21.7167C1.38204 21.8106 1.49369 21.8849 1.61659 21.9352C1.73948 21.9854 1.87116 22.0107 2.00394 22.0096C2.13672 22.0084 2.26794 21.9808 2.38994 21.9284C2.51195 21.876 2.62229 21.7998 2.71454 21.7043L5.76654 18.6523C7.65181 19.7733 9.80721 20.3587 12.0005 20.3453C18.1915 20.3453 21.7195 16.1073 23.2715 13.5813C23.751 12.8058 24.005 11.9121 24.005 11.0003C24.005 10.0886 23.751 9.19484 23.2715 8.41934ZM2.43354 12.5343C2.14867 12.0734 1.99779 11.5422 1.99779 11.0003C1.99779 10.4585 2.14867 9.92729 2.43354 9.46634C3.76754 7.30034 6.78254 3.65534 12.0005 3.65534C13.6608 3.64604 15.2978 4.04617 16.7665 4.82034L14.7535 6.83334C13.7935 6.19594 12.6424 5.91033 11.4958 6.02498C10.3491 6.13963 9.27741 6.64748 8.46254 7.46234C7.64768 8.2772 7.13983 9.3489 7.02519 10.4956C6.91054 11.6422 7.19614 12.7933 7.83354 13.7533L5.52354 16.0633C4.29864 15.0731 3.25338 13.8793 2.43354 12.5343ZM15.0005 11.0003C15.0005 11.796 14.6845 12.559 14.1219 13.1217C13.5593 13.6843 12.7962 14.0003 12.0005 14.0003C11.5551 13.9986 11.1157 13.896 10.7155 13.7003L14.7005 9.71534C14.8963 10.1155 14.9988 10.5548 15.0005 11.0003ZM9.00054 11.0003C9.00054 10.2047 9.31661 9.44162 9.87922 8.87902C10.4418 8.31641 11.2049 8.00034 12.0005 8.00034C12.446 8.00206 12.8853 8.10463 13.2855 8.30034L9.30054 12.2853C9.10483 11.8851 9.00226 11.4458 9.00054 11.0003ZM21.5675 12.5343C20.2335 14.7003 17.2185 18.3453 12.0005 18.3453C10.3403 18.3546 8.7033 17.9545 7.23454 17.1803L9.24754 15.1673C10.2076 15.8047 11.3586 16.0903 12.5053 15.9757C13.652 15.861 14.7237 15.3532 15.5385 14.5383C16.3534 13.7235 16.8612 12.6518 16.9759 11.5051C17.0905 10.3584 16.8049 9.2074 16.1675 8.24734L18.4775 5.93734C19.7024 6.92762 20.7477 8.12138 21.5675 9.46634C21.8524 9.92729 22.0033 10.4585 22.0033 11.0003C22.0033 11.5422 21.8524 12.0734 21.5675 12.5343Z"/>
</svg>
