<svg width="34" height="34" viewBox="0 0 34 34" fill="none" xmlns="http://www.w3.org/2000/svg">
    <g clip-path="url(#clip0_4937_5133)">
        <path d="M8.48529 8.48542C6.80706 10.1636 5.66417 12.3018 5.20114 14.6296C4.73812 16.9574 4.97576 19.3702 5.88401 21.5629C6.79226 23.7556 8.33033 25.6298 10.3037 26.9483C12.2771 28.2669 14.5972 28.9707 16.9706 28.9707C19.3439 28.9707 21.664 28.2669 23.6374 26.9483C25.6108 25.6298 27.1489 23.7556 28.0571 21.5629C28.9654 19.3702 29.203 16.9574 28.74 14.6296C28.277 12.3018 27.1341 10.1636 25.4558 8.48542C23.2037 6.23816 20.1521 4.97607 16.9706 4.97607C13.789 4.97607 10.7374 6.23816 8.48529 8.48542V8.48542ZM21.6283 15.9716C21.763 15.966 21.8974 15.9877 22.0235 16.0354C22.1496 16.0831 22.2647 16.1558 22.362 16.2491C22.4593 16.3424 22.5367 16.4545 22.5896 16.5785C22.6424 16.7025 22.6697 16.8359 22.6697 16.9707C22.6697 17.1055 22.6424 17.2389 22.5896 17.3629C22.5367 17.4869 22.4593 17.599 22.362 17.6923C22.2647 17.7856 22.1496 17.8583 22.0235 17.906C21.8974 17.9537 21.763 17.9754 21.6283 17.9698L17.9704 17.9705V21.6277C17.9659 21.8899 17.8585 22.1398 17.6715 22.3236C17.4845 22.5073 17.2328 22.6103 16.9706 22.6103C16.7084 22.6103 16.4566 22.5073 16.2696 22.3236C16.0826 22.1398 15.9753 21.8899 15.9707 21.6277V17.9705H12.3136C12.0514 17.966 11.8015 17.8586 11.6177 17.6716C11.4339 17.4846 11.3309 17.2329 11.3309 16.9707C11.3309 16.7085 11.4339 16.4568 11.6177 16.2698C11.8015 16.0828 12.0514 15.9754 12.3136 15.9709H15.9707L15.9714 12.313C15.9658 12.1783 15.9875 12.0439 16.0352 11.9178C16.0829 11.7917 16.1556 11.6765 16.249 11.5793C16.3423 11.482 16.4543 11.4046 16.5783 11.3517C16.7023 11.2988 16.8358 11.2716 16.9706 11.2716C17.1054 11.2716 17.2388 11.2988 17.3628 11.3517C17.4868 11.4046 17.5988 11.482 17.6922 11.5793C17.7855 11.6765 17.8582 11.7917 17.9059 11.9178C17.9536 12.0439 17.9753 12.1783 17.9697 12.313L17.9704 15.9709L21.6283 15.9716Z" fill="#9299AA"/>
    </g>
    <defs>
        <clipPath id="clip0_4937_5133">
            <rect width="24" height="24" fill="white" transform="translate(0 16.9707) rotate(-45)"/>
        </clipPath>
    </defs>
</svg>
