<svg width="16" height="16" viewBox="0 0 16 16" fill="none" xmlns="http://www.w3.org/2000/svg">
    <g opacity="0.8">
        <g clip-path="url(#clip0_5133_498)">
            <path d="M8.5 -0.4848V-0.5H8C6.31886 -0.5 4.67547 -0.00148376 3.27766 0.932508C1.87984 1.8665 0.790372 3.19402 0.147028 4.74719C-0.496317 6.30036 -0.664646 8.00943 -0.336671 9.65827C-0.00869693 11.3071 0.80085 12.8217 1.9896 14.0104C3.17834 15.1992 4.6929 16.0087 6.34174 16.3367C7.99058 16.6646 9.69964 16.4963 11.2528 15.853C12.806 15.2096 14.1335 14.1202 15.0675 12.7223C16.0015 11.3245 16.5 9.68114 16.5 8V7.99946C16.4976 5.74601 15.6013 3.58556 14.0079 1.99213C12.5326 0.516827 10.5712 -0.36084 8.5 -0.4848ZM10.313 10.0782L10.3204 10.0855L10.3281 10.0926C10.3446 10.1078 10.3579 10.1262 10.3671 10.1467C10.3764 10.1671 10.3814 10.1893 10.3818 10.2117C10.3823 10.2342 10.3782 10.2565 10.3698 10.2774L10.8337 10.4639L10.3698 10.2774C10.3614 10.2982 10.3489 10.3172 10.333 10.333L10.6866 10.6866L10.333 10.333C10.3172 10.3489 10.2982 10.3614 10.2774 10.3698L10.4639 10.8337L10.2774 10.3698C10.2565 10.3782 10.2342 10.3823 10.2117 10.3818C10.1893 10.3814 10.1671 10.3764 10.1467 10.3671C10.1262 10.3579 10.1078 10.3446 10.0926 10.3281L10.0855 10.3204L10.0782 10.313L8.35349 8.58904L7.99994 8.23563L7.64645 8.58911L5.92655 10.309C5.89535 10.3381 5.85415 10.3542 5.81142 10.3538C5.76772 10.3534 5.72591 10.3359 5.69501 10.305C5.66411 10.2741 5.64658 10.2323 5.6462 10.1886C5.64583 10.1459 5.66188 10.1047 5.69098 10.0735L7.41089 8.35355L7.76444 8L7.41089 7.64645L5.69099 5.92654C5.66189 5.89535 5.64583 5.85414 5.6462 5.81141C5.64658 5.76771 5.66411 5.72591 5.69501 5.69501L5.34146 5.34145L5.69501 5.69501C5.72591 5.66411 5.76771 5.64658 5.81142 5.6462C5.85415 5.64583 5.89535 5.66188 5.92655 5.69098L7.64645 7.41089L7.99994 7.76437L8.35349 7.41095L10.0782 5.68695L10.0855 5.6796L10.0926 5.67194C10.1078 5.65541 10.1262 5.64212 10.1467 5.63288C10.1671 5.62364 10.1893 5.61864 10.2117 5.61818C10.2342 5.61771 10.2565 5.62179 10.2774 5.63018L10.4639 5.16628L10.2774 5.63018C10.2982 5.63856 10.3172 5.65107 10.333 5.66696L10.6866 5.3134L10.333 5.66696C10.3489 5.68285 10.3614 5.70178 10.3698 5.72262L10.8337 5.53608L10.3698 5.72263C10.3782 5.74347 10.3823 5.7658 10.3818 5.78826C10.3814 5.81072 10.3764 5.83286 10.3671 5.85334L10.8229 6.05894L10.3671 5.85334C10.3579 5.87382 10.3446 5.89223 10.3281 5.90744L10.3204 5.91449L10.313 5.92185L8.58905 7.64651L8.2357 8L8.58905 8.35348L10.313 10.0782Z" fill="white" stroke="#3D3D3D"/>
        </g>
    </g>
    <defs>
        <clipPath id="clip0_5133_498">
            <path d="M0 8C0 3.58172 3.58172 0 8 0C12.4183 0 16 3.58172 16 8C16 12.4183 12.4183 16 8 16C3.58172 16 0 12.4183 0 8Z" fill="white"/>
        </clipPath>
    </defs>
</svg>
