<svg width="24" height="24" viewBox="0 0 24 24" fill="none" xmlns="http://www.w3.org/2000/svg">
    <g clip-path="url(#clip0_4475_31055)">
        <path d="M2.30985 17.1919L7.81005 22.6919C7.04099 23.0051 6.19662 23.0845 5.38268 22.9201C4.56873 22.7556 3.82138 22.3548 3.23421 21.7676C2.64704 21.1805 2.24614 20.4331 2.08171 19.6192C1.91729 18.8053 1.99665 17.961 2.30985 17.1919ZM7.32703 1.97996C7.58695 1.92691 7.81515 1.77279 7.96144 1.5515C8.10772 1.33021 8.1601 1.05987 8.10706 0.799959C8.05401 0.540047 7.89989 0.311852 7.67858 0.165574C7.45728 0.0192954 7.18694 -0.0330835 6.92701 0.0199598C4.24526 0.489755 1.84385 1.9651 0.212773 4.14496C0.0647463 4.35853 0.00567428 4.62135 0.0480696 4.87772C0.0904649 5.1341 0.230998 5.3639 0.439901 5.51846C0.648805 5.67302 0.909672 5.7402 1.16725 5.70576C1.42482 5.67132 1.65888 5.53797 1.81983 5.33395C3.15403 3.54729 5.12729 2.34553 7.32703 1.97996ZM23.2006 16.0229C22.9416 15.9661 22.6707 16.0145 22.4473 16.1574C22.224 16.3002 22.0665 16.526 22.0096 16.7849C21.6296 18.9427 20.4439 20.8755 18.6924 22.1919C18.4781 22.3484 18.3348 22.5836 18.2939 22.8458C18.253 23.108 18.3179 23.3756 18.4744 23.5899C18.6309 23.8042 18.8661 23.9476 19.1283 23.9885C19.3905 24.0294 19.6582 23.9644 19.8725 23.8079C22.0127 22.1994 23.4721 19.8469 23.9626 17.2149C23.9909 17.0866 23.9936 16.954 23.9706 16.8247C23.9477 16.6953 23.8994 16.5717 23.8286 16.461C23.7579 16.3503 23.666 16.2547 23.5582 16.1795C23.4504 16.1043 23.3289 16.0511 23.2006 16.0229ZM20.1675 5.24696L21.7075 3.70696C21.8031 3.61471 21.8792 3.50436 21.9317 3.38236C21.9841 3.26036 22.0117 3.12914 22.0128 2.99636C22.014 2.86358 21.9887 2.7319 21.9384 2.609C21.8881 2.48611 21.8138 2.37446 21.7199 2.28056C21.626 2.18667 21.5144 2.11242 21.3915 2.06214C21.2686 2.01186 21.1369 1.98655 21.0041 1.98771C20.8713 1.98886 20.7401 2.01645 20.6181 2.06886C20.4961 2.12127 20.3857 2.19745 20.2935 2.29296L18.7514 3.83496C17.3708 2.73787 15.6816 2.09986 13.9204 2.01021C12.1592 1.92055 10.414 2.38374 8.92909 3.33496L3.42889 6.73495C2.78392 7.13354 2.23748 7.67287 1.8305 8.31257C1.42352 8.95226 1.16655 9.67574 1.07882 10.4288C0.991085 11.1819 1.07488 11.9451 1.32391 12.6612C1.57295 13.3773 1.98078 14.0278 2.51686 14.5639L9.47611 21.5229C10.0133 22.0602 10.6653 22.4688 11.3831 22.7178C12.1009 22.9669 12.8658 23.05 13.6203 22.9608C14.3748 22.8717 15.0993 22.6127 15.7393 22.2033C16.3794 21.7938 16.9182 21.2446 17.3154 20.5969L20.9155 14.7209C21.743 13.2452 22.1137 11.557 21.9805 9.87034C21.8473 8.18369 21.2163 6.57456 20.1675 5.24696Z" fill="#253255"/>
    </g>
    <defs>
        <clipPath id="clip0_4475_31055">
            <rect width="24" height="24" fill="white"/>
        </clipPath>
    </defs>
</svg>
