<svg width="21" height="16" viewBox="0 0 21 16" fill="none" xmlns="http://www.w3.org/2000/svg">
    <path fill-rule="evenodd" clip-rule="evenodd" d="M7.08333 0C6.53105 0 6.08333 0.447715 6.08333 1V1.5641C6.08333 1.61345 6.08691 1.66197 6.09381 1.7094H3.25C1.59315 1.7094 0.25 3.05255 0.25 4.7094V12.3846C0.25 14.0415 1.59315 15.3846 3.25 15.3846H17.25C18.9069 15.3846 20.25 14.0415 20.25 12.3846V4.7094C20.25 3.05255 18.9069 1.7094 17.25 1.7094H14.4062C14.4131 1.66197 14.4167 1.61345 14.4167 1.5641V1C14.4167 0.447715 13.969 0 13.4167 0H7.08333ZM14.4167 8.54701C14.4167 10.9072 12.5512 12.8205 10.25 12.8205C7.94881 12.8205 6.08333 10.9072 6.08333 8.54701C6.08333 6.18682 7.94881 4.2735 10.25 4.2735C12.5512 4.2735 14.4167 6.18682 14.4167 8.54701Z" fill="#253255"/>
    <ellipse cx="10.25" cy="8.75" rx="2.5" ry="2.5" fill="#253255"/>
</svg>
