<svg width="24" height="24" viewBox="0 0 24 24" fill="#BFBFBF" xmlns="http://www.w3.org/2000/svg">
    <g clip-path="url(#clip0_2667_20349)">
        <path d="M23.2668 9.40765C22.3644 7.9299 21.2261 6.60993 19.8971 5.5001L22.696 2.70116C23.0796 2.30404 23.0685 1.67123 22.6714 1.2877C22.284 0.913541 21.6699 0.913541 21.2825 1.2877L18.2386 4.33555C16.3517 3.21481 14.1946 2.63064 12 2.64619C5.81126 2.64619 2.28457 6.88264 0.733158 9.4077C-0.244386 10.9888 -0.244386 12.9866 0.733158 14.5678C1.63559 16.0455 2.7739 17.3655 4.10292 18.4753L1.30398 21.2743C0.906859 21.6578 0.895847 22.2907 1.27938 22.6878C1.66291 23.0849 2.29577 23.0959 2.69284 22.7124C2.70118 22.7043 2.70938 22.6961 2.71744 22.6878L5.76829 19.6369C7.65285 20.7575 9.80746 21.3426 12 21.3293C18.1887 21.3293 21.7154 17.0928 23.2668 14.5678C24.2444 12.9866 24.2444 10.9888 23.2668 9.40765ZM6.00225 11.9877C5.99658 8.68075 8.67276 5.99534 11.9797 5.98967C13.231 5.98752 14.4515 6.37742 15.4697 7.10455L14.0183 8.55602C13.4089 8.18856 12.7116 7.99269 12 7.98923C9.79172 7.98923 8.00152 9.77942 8.00152 11.9877C8.00499 12.6993 8.20086 13.3966 8.56831 14.006L7.11685 15.4574C6.39206 14.4456 6.0023 13.2323 6.00225 11.9877ZM12 17.9855C10.7554 17.9855 9.54211 17.5957 8.53031 16.8709L9.98177 15.4194C10.5911 15.7869 11.2885 15.9828 12 15.9862C14.2083 15.9862 15.9985 14.196 15.9985 11.9877C15.9951 11.2762 15.7992 10.5788 15.4317 9.96948L16.8832 8.51801C18.805 11.2092 18.1812 14.9488 15.49 16.8706C14.4718 17.5978 13.2513 17.9877 12 17.9855Z"/>
    </g>
    <defs>
        <clipPath id="clip0_2667_20349">
            <rect width="24" height="24" fill="white"/>
        </clipPath>
    </defs>
</svg>
