<svg width="24" height="24" viewBox="0 0 24 24" fill="#BFBFBF" xmlns="http://www.w3.org/2000/svg">
    <path d="M23.821 11.181C22.943 9.261 19.5 3 12 3C4.49999 3 1.05699 9.261 0.178993 11.181C0.0611316 11.4383 0.00012207 11.718 0.00012207 12.001C0.00012207 12.284 0.0611316 12.5637 0.178993 12.821C1.05699 14.739 4.49999 21 12 21C19.5 21 22.943 14.739 23.821 12.819C23.9386 12.562 23.9995 12.2826 23.9995 12C23.9995 11.7173 23.9386 11.438 23.821 11.181V11.181ZM12 18C10.8133 18 9.65326 17.6481 8.66657 16.9888C7.67987 16.3295 6.91084 15.3925 6.45671 14.2961C6.00259 13.1997 5.88377 11.9933 6.11528 10.8295C6.34679 9.66557 6.91824 8.59647 7.75735 7.75736C8.59647 6.91824 9.66556 6.3468 10.8294 6.11529C11.9933 5.88378 13.1997 6.0026 14.2961 6.45672C15.3924 6.91085 16.3295 7.67988 16.9888 8.66658C17.6481 9.65327 18 10.8133 18 12C17.9984 13.5908 17.3657 15.116 16.2409 16.2409C15.116 17.3658 13.5908 17.9984 12 18V18Z"/>
    <path d="M12 16C14.2092 16 16 14.2092 16 12C16 9.79086 14.2092 8 12 8C9.79086 8 8 9.79086 8 12C8 14.2092 9.79086 16 12 16Z"/>
</svg>
