<svg width="24" height="24" viewBox="0 0 24 24" fill="none" xmlns="http://www.w3.org/2000/svg">
    <rect width="24" height="24" rx="12" fill="#BFBFBF"/>
    <path fill-rule="evenodd" clip-rule="evenodd" d="M8.00002 7.99998C7.55819 8.44181 7.55819 9.15816 8.00002 9.59999L10.4 12L8.00002 14.4C7.55819 14.8418 7.55819 15.5582 8.00002 16C8.44185 16.4419 9.1582 16.4419 9.60003 16L12 13.6L14.4001 16C14.8419 16.4419 15.5582 16.4419 16.0001 16C16.4419 15.5582 16.4419 14.8418 16.0001 14.4L13.6001 12L16.0001 9.59999C16.4419 9.15816 16.4419 8.44181 16.0001 7.99998C15.5582 7.55815 14.8419 7.55815 14.4001 7.99998L12 10.4L9.60003 7.99998C9.1582 7.55815 8.44185 7.55815 8.00002 7.99998Z" fill="white"/>
</svg>
