<svg width="24" height="24" viewBox="0 0 24 24" fill="none" xmlns="http://www.w3.org/2000/svg">
    <path d="M16.2168 0.624023C16.704 0.712823 17.2008 0.763223 17.676 0.892823C19.4208 1.36802 20.7888 2.37842 21.7824 3.88562C22.6968 5.27042 23.0664 6.80882 22.92 8.45282C22.764 10.1904 22.0584 11.6952 20.8104 12.9168C19.3272 14.3712 17.5248 15.0456 15.4512 14.9808C14.4096 14.9472 13.4184 14.6784 12.492 14.196C12.3768 14.136 12.2976 14.1144 12.1872 14.2248C10.7352 15.6864 9.27597 17.1432 7.81917 18.6C7.80477 18.6144 7.79037 18.6336 7.76637 18.6648C7.81917 18.7224 7.87197 18.78 7.92717 18.8352C8.40957 19.3176 8.89437 19.7976 9.37197 20.2824C9.72957 20.6448 9.72957 21.0336 9.37197 21.3912C8.80317 21.9648 8.22957 22.536 7.65837 23.1048C7.26477 23.496 6.89517 23.496 6.50397 23.1048C5.98077 22.5816 5.45518 22.056 4.91278 21.5136C4.77118 21.6504 4.63678 21.7824 4.50238 21.9168C4.25518 22.1616 4.01278 22.4136 3.76078 22.6536C3.41278 22.9896 3.02878 22.9848 2.68558 22.644C2.11678 22.08 1.55278 21.5136 0.986381 20.9472C0.561581 20.5224 0.561581 20.1648 0.983981 19.7424C3.50398 17.2272 6.02157 14.7144 8.53677 12.1992C8.81037 11.9256 9.07917 11.6496 9.35757 11.3832C9.44877 11.2968 9.46077 11.2296 9.40317 11.1168C8.75037 9.87602 8.49357 8.55122 8.62077 7.16162C8.78157 5.40722 9.50157 3.90242 10.7616 2.66642C11.7552 1.69202 12.9432 1.07282 14.2992 0.780023C14.6376 0.708023 14.9856 0.674423 15.3288 0.624023C15.624 0.624023 15.9192 0.624023 16.2168 0.624023ZM15.7944 4.24322C13.8912 4.19522 12.2592 5.77442 12.2088 7.71122C12.1584 9.70802 13.7136 11.3208 15.7368 11.3688C17.6472 11.4144 19.2744 9.84242 19.3248 7.90322C19.3776 5.91122 17.8152 4.29362 15.7944 4.24322Z" fill="#253255"/>
</svg>
