<svg width="20" height="25" viewBox="0 0 20 25" fill="none" xmlns="http://www.w3.org/2000/svg">
    <path d="M6.13591 21.8286L6.13571 21.8283C4.17804 19.1539 2.70817 16.8207 1.72868 14.8411C0.746789 12.8567 0.269021 11.25 0.268982 10.0221C0.272118 7.44234 1.2984 4.96911 3.12269 3.14501C4.94695 1.32093 7.42023 0.294903 9.99998 0.291992C12.5797 0.294903 15.053 1.32093 16.8773 3.14501C18.7016 4.96915 19.7279 7.44244 19.731 10.0223C19.7309 11.2501 19.2531 12.8568 18.2713 14.8411C17.2918 16.8207 15.8219 19.1539 13.8643 21.8283L13.8641 21.8286C13.42 22.4369 12.8386 22.9318 12.1671 23.273C11.4957 23.6142 10.7531 23.792 9.99998 23.792C9.24682 23.792 8.50429 23.6142 7.83283 23.273C7.16138 22.9318 6.57996 22.4369 6.13591 21.8286ZM7.63881 13.5337C8.33772 14.0007 9.15941 14.25 9.99998 14.25C11.1272 14.25 12.2082 13.8022 13.0052 13.0052C13.8022 12.2082 14.25 11.1272 14.25 9.99999C14.25 9.15942 14.0007 8.33773 13.5337 7.63882C13.0667 6.93991 12.403 6.39518 11.6264 6.07351C10.8498 5.75183 9.99527 5.66767 9.17085 5.83166C8.34643 5.99564 7.58915 6.40042 6.99478 6.99479C6.4004 7.58916 5.99563 8.34644 5.83164 9.17086C5.66766 9.99528 5.75182 10.8498 6.07349 11.6264C6.39517 12.403 6.9399 13.0667 7.63881 13.5337Z" fill="url(#paint0_linear_2694_7024)" stroke="url(#paint1_linear_2694_7024)" stroke-width="0.5"/>
    <defs>
        <linearGradient id="paint0_linear_2694_7024" x1="10.9995" y1="13" x2="4.49945" y2="5.5" gradientUnits="userSpaceOnUse">
            <stop offset="0.4374" stop-color="#FFB800"/>
            <stop offset="0.479167" stop-color="#FFC700"/>
        </linearGradient>
        <linearGradient id="paint1_linear_2694_7024" x1="0.0189818" y1="3.792" x2="20.0818" y2="4.51566" gradientUnits="userSpaceOnUse">
            <stop stop-color="#FFCC00"/>
            <stop offset="1" stop-color="#FFB800"/>
        </linearGradient>
    </defs>
</svg>
