<svg width="26" height="24" viewBox="0 0 26 24" fill="none" xmlns="http://www.w3.org/2000/svg">
    <path d="M25.1644 11.0102C25.1644 11.4315 25.1644 11.913 25.1644 12.3343C25.1042 12.8158 25.0441 13.2973 24.9839 13.7788C24.8635 14.501 24.382 14.9825 23.6597 15.1029C21.493 15.464 20.2893 17.4502 21.0717 19.5568C21.3124 20.279 21.1319 20.8809 20.5902 21.3624C19.6272 22.1448 18.5438 22.8069 17.4003 23.2884C16.7382 23.5893 16.016 23.4088 15.5946 22.8069C14.1501 21.0013 11.7426 21.0615 10.3583 22.8671C9.87684 23.469 9.21478 23.6495 8.49253 23.4088C7.28878 22.9273 6.14522 22.3254 5.12203 21.4828C4.39979 20.9411 4.27941 20.3392 4.58035 19.4966C4.88128 18.7142 4.94147 17.9919 4.64053 17.2095C4.15904 15.8853 3.19604 15.2233 1.87191 15.0427C1.14967 14.9223 0.668167 14.4409 0.547792 13.7186C0.307043 12.3945 0.36723 11.0102 0.60798 9.68605C0.728354 8.90361 1.20985 8.42211 2.05248 8.30174C4.15904 8.0008 5.42297 5.95443 4.70072 3.96825C4.3396 3.06543 4.58035 2.40337 5.24241 1.92187C6.20541 1.19962 7.28878 0.597751 8.43234 0.116251C9.15459 -0.124498 9.75646 -0.00412331 10.238 0.597751C11.6825 2.22281 13.9094 2.22281 15.2937 0.597751C15.7752 -0.00412331 16.4373 -0.124498 17.1595 0.116251C18.3633 0.597751 19.5068 1.25981 20.53 2.04225C21.1921 2.58393 21.3726 3.12562 21.0717 3.96825C20.8309 4.75068 20.8309 5.53312 21.1319 6.31555C21.6134 7.39893 22.3958 8.06099 23.5394 8.24155C24.3218 8.36192 24.8033 8.78324 24.9237 9.62586C25.0441 10.1074 25.1042 10.5287 25.1644 11.0102ZM16.9188 11.7324C16.9188 9.50548 15.053 7.63968 12.826 7.63968C10.5389 7.63968 8.67309 9.50548 8.67309 11.7324C8.67309 14.0195 10.5389 15.8853 12.826 15.8853C15.053 15.8853 16.9188 14.0195 16.9188 11.7324Z" fill="#D3D6DD"/>
</svg>
