<svg width="64" height="64" viewBox="0 0 64 64" fill="none" xmlns="http://www.w3.org/2000/svg">
    <path d="M32 3C39.6913 3 47.0675 6.05535 52.5061 11.4939C57.9446 16.9325 61 24.3087 61 32C61 38.1 58.5768 43.9501 54.2635 48.2635C49.9501 52.5768 44.1 55 38 55H26C19.9 55 14.0499 52.5768 9.73654 48.2635C5.42321 43.9501 3 38.1 3 32C3 24.3087 6.05535 16.9325 11.4939 11.4939C16.9325 6.05535 24.3087 3 32 3Z" fill="#1CB6AC"/>
    <path d="M61 32C61 38.1 58.5768 43.9501 54.2635 48.2635C49.9501 52.5768 44.1 55 38 55H26C19.9 55 14.0499 52.5768 9.73654 48.2635C5.42321 43.9501 3 38.1 3 32C2.99961 27.6564 3.97498 23.3681 5.85406 19.4519C7.73315 15.5357 10.468 12.0917 13.8565 9.37414C17.2451 6.65658 21.2008 4.73493 25.4316 3.7511C29.6623 2.76727 34.0601 2.74639 38.3 3.69002C38.4604 4.70476 38.691 5.70716 38.99 6.69002C39.6486 8.86048 40.6223 10.9225 41.88 12.81L43.08 14.61C44.9514 17.4246 47.803 19.4422 51.08 20.27C51.9427 20.488 52.7262 20.9454 53.3401 21.5894C53.9541 22.2334 54.3735 23.0379 54.55 23.91C54.6835 24.5634 54.9527 25.1814 55.3403 25.7241C55.7279 26.2667 56.2252 26.7219 56.8 27.06C57.9862 27.7564 59.3346 28.1288 60.71 28.14C60.8934 29.4187 60.9902 30.7083 61 32Z" fill="url(#paint0_linear_3503_26193)"/>
    <path d="M30.57 55H26C19.9001 55 14.0499 52.5768 9.73658 48.2635C5.42324 43.9501 3.00004 38.1 3.00004 32C2.98986 25.6462 5.0667 19.4648 8.9113 14.4062C12.7559 9.34747 18.1555 5.69143 24.28 4C23.2971 4.75429 22.365 5.57274 21.49 6.45C18.7886 9.14547 16.6476 12.3491 15.1904 15.8762C13.7333 19.4032 12.9888 23.1838 13 27C13 37.83 20.49 51.28 30.57 55Z" fill="url(#paint1_linear_3503_26193)"/>
    <path d="M32 61C26.9609 61 22.1282 58.9982 18.565 55.435C15.0018 51.8718 13 47.0391 13 42V28.47C12.9995 27.7269 13.206 26.9983 13.5963 26.366C13.9867 25.7336 14.5454 25.2225 15.21 24.89C16.3841 24.304 17.4028 23.4486 18.1832 22.3936C18.9635 21.3387 19.4833 20.1142 19.7 18.82L20 17L20.92 19.77C21.2343 20.7098 21.8358 21.5272 22.6396 22.1068C23.4435 22.6863 24.409 22.9988 25.4 23C26.7387 23.0011 28.0437 22.5805 29.1297 21.7979C30.2157 21.0152 31.0276 19.9103 31.45 18.64L32 17L32.55 18.64C32.9724 19.9103 33.7843 21.0152 34.8703 21.7979C35.9563 22.5805 37.2613 23.0011 38.6 23H39L40 16L40.64 18.24C41.0531 19.6781 41.8459 20.9784 42.9351 22.0043C44.0243 23.0302 45.3697 23.7437 46.83 24.07L47.83 24.3C48.7263 24.4901 49.5301 24.9822 50.1071 25.6939C50.6841 26.4056 50.9993 27.2938 51 28.21V42C51 47.0391 48.9982 51.8718 45.435 55.435C41.8718 58.9982 37.0391 61 32 61Z" fill="#FFF0E4"/>
    <path d="M11 28H13V40C11.4087 40 9.88258 39.3679 8.75736 38.2426C7.63214 37.1174 7 35.5913 7 34V32C7 30.9391 7.42143 29.9217 8.17157 29.1716C8.92172 28.4214 9.93913 28 11 28Z" fill="#FFD4B3"/>
    <path d="M51 28H53C54.0609 28 55.0783 28.4214 55.8284 29.1716C56.5786 29.9217 57 30.9391 57 32V34C57 35.5913 56.3679 37.1174 55.2426 38.2426C54.1174 39.3679 52.5913 40 51 40V28Z" fill="#FFF0E4"/>
    <path d="M51 28.21V33.21C51.0013 32.2993 50.6918 31.4154 50.1227 30.7045C49.5536 29.9935 48.7589 29.4981 47.87 29.3L46.87 29.07C45.4097 28.7437 44.0643 28.0302 42.9751 27.0043C41.8859 25.9784 41.0931 24.6781 40.68 23.24L40 21L39 28H38.6C37.2613 28.0011 35.9563 27.5805 34.8703 26.7979C33.7843 26.0152 32.9724 24.9103 32.55 23.64L32 22L31.45 23.64C31.0276 24.9103 30.2157 26.0152 29.1297 26.7979C28.0437 27.5805 26.7387 28.0011 25.4 28C24.409 27.9988 23.4435 27.6863 22.6396 27.1068C21.8358 26.5272 21.2343 25.7098 20.92 24.77L20.14 22.43L19.9 22.58L19.7 23.82C19.4603 25.209 18.8758 26.5156 18 27.62V39.5C18 44.5391 20.0018 49.3718 23.565 52.935C27.1282 56.4982 31.9609 58.5 37 58.5C39.0077 58.4871 41.0002 58.1494 42.9 57.5C39.7183 59.7702 35.9086 60.9935 32 61C26.9609 61 22.1282 58.9982 18.565 55.435C15.0018 51.8718 13 47.0391 13 42V28.47C12.9995 27.7269 13.206 26.9983 13.5963 26.366C13.9867 25.7336 14.5454 25.2225 15.21 24.89C16.3845 24.3046 17.4037 23.4494 18.1842 22.3944C18.9646 21.3393 19.484 20.1144 19.7 18.82L20 17L20.92 19.77C21.2343 20.7098 21.8358 21.5272 22.6396 22.1068C23.4435 22.6863 24.409 22.9988 25.4 23C26.739 23.0027 28.0447 22.5826 29.1311 21.7998C30.2174 21.0169 31.0289 19.9111 31.45 18.64L32 17L32.55 18.64C32.9724 19.9103 33.7843 21.0152 34.8703 21.7979C35.9563 22.5805 37.2613 23.0011 38.6 23H39L40 16L40.64 18.24C41.0531 19.6781 41.8459 20.9784 42.9351 22.0043C44.0243 23.0302 45.3697 23.7437 46.83 24.07L47.83 24.3C48.7263 24.4901 49.5301 24.9822 50.1071 25.6939C50.6841 26.4056 50.9993 27.2938 51 28.21Z" fill="#FFD4B3"/>
    <path d="M44 44C46.2091 44 48 42.6569 48 41C48 39.3431 46.2091 38 44 38C41.7909 38 40 39.3431 40 41C40 42.6569 41.7909 44 44 44Z" fill="#FFB9A3"/>
    <path d="M20 44C22.2091 44 24 42.6569 24 41C24 39.3431 22.2091 38 20 38C17.7909 38 16 39.3431 16 41C16 42.6569 17.7909 44 20 44Z" fill="#FFB9A3"/>
    <path d="M56.24 36.93C55.7187 37.8616 54.9582 38.6373 54.0371 39.1769C53.116 39.7166 52.0676 40.0007 51 40V28H53V33C52.9993 33.9295 53.3224 34.8302 53.9136 35.5473C54.5049 36.2645 55.3275 36.7534 56.24 36.93Z" fill="#FFD4B3"/>
    <path d="M7.76001 36.93C8.28134 37.8616 9.04179 38.6373 9.9629 39.1769C10.884 39.7166 11.9324 40.0007 13 40V28H11V33C11.0007 33.9295 10.6776 34.8302 10.0864 35.5473C9.49511 36.2645 8.67255 36.7534 7.76001 36.93Z" fill="#DA9367"/>
    <path d="M32 56C30.1435 56 28.363 55.2625 27.0503 53.9497C25.7375 52.637 25 50.8565 25 49V47C29.5748 45.6901 34.4252 45.6901 39 47V49C39 50.8565 38.2625 52.637 36.9497 53.9497C35.637 55.2625 33.8565 56 32 56Z" fill="#CC5144"/>
    <path d="M37.27 53.6C36.613 54.3516 35.8028 54.9539 34.8939 55.3666C33.9849 55.7792 32.9982 55.9928 32 55.9928C31.0017 55.9928 30.0151 55.7792 29.1061 55.3666C28.1972 54.9539 27.387 54.3516 26.73 53.6C27.3304 52.7704 28.1243 52.0999 29.0427 51.6468C29.9611 51.1937 30.9763 50.9717 32 51C33.0237 50.9717 34.0389 51.1937 34.9573 51.6468C35.8757 52.0999 36.6696 52.7704 37.27 53.6Z" fill="#FFB9A3"/>
    <path d="M23.9001 26.6L24.7201 28.26C24.7913 28.4056 24.8967 28.5317 25.0273 28.6275C25.158 28.7233 25.3099 28.786 25.4701 28.81L27.3101 29.07C27.4953 29.0969 27.6693 29.1752 27.8122 29.296C27.9551 29.4168 28.0612 29.5753 28.1185 29.7535C28.1758 29.9316 28.182 30.1223 28.1363 30.3038C28.0906 30.4852 27.9949 30.6502 27.8601 30.78L26.5301 32.08C26.4144 32.1924 26.3276 32.3312 26.2771 32.4844C26.2266 32.6377 26.2139 32.8008 26.2401 32.96L26.5601 34.79C26.5906 34.9735 26.5693 35.1618 26.4987 35.3339C26.428 35.5059 26.3108 35.6548 26.1602 35.7639C26.0095 35.873 25.8315 35.9379 25.646 35.9513C25.4605 35.9648 25.2749 35.9262 25.1101 35.84L23.4701 35C23.3255 34.923 23.1641 34.8827 23.0001 34.8827C22.8362 34.8827 22.6748 34.923 22.5301 35L20.8901 35.86C20.7254 35.9462 20.5398 35.9848 20.3543 35.9713C20.1688 35.9579 19.9907 35.893 19.8401 35.7839C19.6895 35.6748 19.5722 35.5259 19.5016 35.3539C19.4309 35.1818 19.4097 34.9935 19.4401 34.81L19.7601 33C19.7864 32.8408 19.7737 32.6777 19.7232 32.5244C19.6727 32.3712 19.5859 32.2324 19.4701 32.12L18.1401 30.82C18.0053 30.6902 17.9097 30.5252 17.864 30.3438C17.8183 30.1623 17.8245 29.9716 17.8818 29.7935C17.9391 29.6153 18.0452 29.4568 18.1881 29.336C18.331 29.2152 18.5049 29.1369 18.6901 29.11L20.5301 28.85C20.6904 28.826 20.8423 28.7633 20.973 28.6675C21.1036 28.5717 21.209 28.4456 21.2801 28.3L22.1001 26.64C22.1782 26.4691 22.3029 26.3236 22.4598 26.2202C22.6168 26.1168 22.7997 26.0598 22.9876 26.0556C23.1755 26.0514 23.3608 26.1003 23.5222 26.1966C23.6836 26.2929 23.8146 26.4327 23.9001 26.6Z" fill="#FCEA42"/>
    <path d="M41.9001 26.6L42.7201 28.26C42.7913 28.4056 42.8967 28.5317 43.0273 28.6275C43.158 28.7233 43.3099 28.786 43.4701 28.81L45.3101 29.07C45.4953 29.0969 45.6693 29.1752 45.8122 29.296C45.9551 29.4168 46.0612 29.5753 46.1185 29.7535C46.1758 29.9316 46.182 30.1223 46.1363 30.3038C46.0906 30.4852 45.9949 30.6502 45.8601 30.78L44.5301 32.08C44.4144 32.1924 44.3276 32.3312 44.2771 32.4844C44.2266 32.6377 44.2139 32.8008 44.2401 32.96L44.5601 34.79C44.5906 34.9735 44.5693 35.1618 44.4987 35.3339C44.428 35.5059 44.3108 35.6548 44.1602 35.7639C44.0095 35.873 43.8315 35.9379 43.646 35.9513C43.4605 35.9648 43.2749 35.9262 43.1101 35.84L41.4701 35C41.3255 34.923 41.1641 34.8827 41.0001 34.8827C40.8362 34.8827 40.6748 34.923 40.5301 35L38.8901 35.86C38.7254 35.9462 38.5398 35.9848 38.3543 35.9713C38.1688 35.9579 37.9907 35.893 37.8401 35.7839C37.6895 35.6748 37.5722 35.5259 37.5016 35.3539C37.4309 35.1818 37.4097 34.9935 37.4401 34.81L37.7601 33C37.7864 32.8408 37.7737 32.6777 37.7232 32.5244C37.6727 32.3712 37.5859 32.2324 37.4701 32.12L36.1401 30.82C36.0053 30.6902 35.9097 30.5252 35.864 30.3438C35.8183 30.1623 35.8245 29.9716 35.8818 29.7935C35.9391 29.6153 36.0452 29.4568 36.1881 29.336C36.331 29.2152 36.5049 29.1369 36.6901 29.11L38.5301 28.85C38.6904 28.826 38.8423 28.7633 38.973 28.6675C39.1036 28.5717 39.209 28.4456 39.2801 28.3L40.1001 26.64C40.1782 26.4691 40.3029 26.3236 40.4598 26.2202C40.6168 26.1168 40.7997 26.0598 40.9876 26.0556C41.1755 26.0514 41.3608 26.1003 41.5222 26.1966C41.6836 26.2929 41.8146 26.4327 41.9001 26.6Z" fill="#FCEA42"/>
    <path d="M45.8601 30.78L44.5301 32.08C44.4144 32.1924 44.3276 32.3312 44.2771 32.4844C44.2266 32.6376 44.2139 32.8008 44.2401 32.96L44.5601 34.79C44.5906 34.9735 44.5693 35.1618 44.4987 35.3338C44.428 35.5059 44.3108 35.6548 44.1602 35.7639C44.0095 35.873 43.8315 35.9379 43.646 35.9513C43.4605 35.9648 43.2749 35.9262 43.1101 35.84L41.4701 35C41.3255 34.923 41.1641 34.8827 41.0001 34.8827C40.8362 34.8827 40.6748 34.923 40.5301 35L38.8901 35.86C38.7254 35.9462 38.5398 35.9848 38.3543 35.9713C38.1688 35.9579 37.9907 35.893 37.8401 35.7839C37.6895 35.6748 37.5722 35.5259 37.5016 35.3538C37.4309 35.1818 37.4097 34.9935 37.4401 34.81L37.7601 33C37.7864 32.8408 37.7737 32.6776 37.7232 32.5244C37.6727 32.3712 37.5859 32.2324 37.4701 32.12L36.1401 30.82C36.0053 30.6902 35.9097 30.5252 35.864 30.3437C35.8183 30.1623 35.8245 29.9716 35.8818 29.7935C35.9391 29.6153 36.0452 29.4568 36.1881 29.336C36.331 29.2152 36.5049 29.1369 36.6901 29.11L38.5301 28.85C38.6904 28.826 38.8423 28.7633 38.973 28.6675C39.1036 28.5717 39.209 28.4456 39.2801 28.3L40.1001 26.64L40.1801 27.1C40.2839 27.7298 40.5172 28.3312 40.8654 28.8661C41.2137 29.401 41.6692 29.8578 42.2031 30.2075C42.7371 30.5572 43.3378 30.7922 43.9673 30.8976C44.5968 31.0031 45.2414 30.9766 45.8601 30.82V30.78Z" fill="#FDC741"/>
    <path d="M27.8601 30.78L26.5301 32.08C26.4144 32.1924 26.3276 32.3312 26.2771 32.4844C26.2266 32.6376 26.2139 32.8008 26.2401 32.96L26.5601 34.79C26.5906 34.9735 26.5693 35.1618 26.4987 35.3338C26.428 35.5059 26.3108 35.6548 26.1602 35.7639C26.0095 35.873 25.8315 35.9379 25.646 35.9513C25.4605 35.9648 25.2749 35.9262 25.1101 35.84L23.4701 35C23.3255 34.923 23.1641 34.8827 23.0001 34.8827C22.8362 34.8827 22.6748 34.923 22.5301 35L20.8901 35.86C20.7254 35.9462 20.5398 35.9848 20.3543 35.9713C20.1688 35.9579 19.9907 35.893 19.8401 35.7839C19.6895 35.6748 19.5722 35.5259 19.5016 35.3538C19.4309 35.1818 19.4097 34.9935 19.4401 34.81L19.7601 33C19.7864 32.8408 19.7737 32.6776 19.7232 32.5244C19.6727 32.3712 19.5859 32.2324 19.4701 32.12L18.1401 30.82C18.0053 30.6902 17.9097 30.5252 17.864 30.3437C17.8183 30.1623 17.8245 29.9716 17.8818 29.7935C17.9391 29.6153 18.0452 29.4568 18.1881 29.336C18.331 29.2152 18.5049 29.1369 18.6901 29.11L20.5301 28.85C20.6904 28.826 20.8423 28.7633 20.973 28.6675C21.1036 28.5717 21.209 28.4456 21.2801 28.3L22.1001 26.64L22.1801 27.1C22.2839 27.7298 22.5172 28.3312 22.8654 28.8661C23.2137 29.401 23.6692 29.8578 24.2031 30.2075C24.7371 30.5572 25.3378 30.7922 25.9673 30.8976C26.5968 31.0031 27.2414 30.9766 27.8601 30.82V30.78Z" fill="#FDC741"/>
    <path d="M32 42C32.7956 42 33.5587 41.6839 34.1213 41.1213C34.6839 40.5587 35 39.7956 35 39C35 38.7348 34.8946 38.4804 34.7071 38.2929C34.5196 38.1054 34.2652 38 34 38C33.7348 38 33.4804 38.1054 33.2929 38.2929C33.1054 38.4804 33 38.7348 33 39C33 39.2652 32.8946 39.5196 32.7071 39.7071C32.5196 39.8946 32.2652 40 32 40C31.7348 40 31.4804 39.8946 31.2929 39.7071C31.1054 39.5196 31 39.2652 31 39C31 38.7348 30.8946 38.4804 30.7071 38.2929C30.5196 38.1054 30.2652 38 30 38C29.7348 38 29.4804 38.1054 29.2929 38.2929C29.1054 38.4804 29 38.7348 29 39C29 39.7956 29.3161 40.5587 29.8787 41.1213C30.4413 41.6839 31.2044 42 32 42Z" fill="#39519D"/>
    <path d="M42.11 39.55L41.11 41.55C40.9914 41.7862 40.9711 42.0597 41.0536 42.3108C41.136 42.5619 41.3145 42.7701 41.55 42.89C41.6884 42.9641 41.8432 43.0019 42 43C42.1847 42.9995 42.3656 42.9478 42.5227 42.8507C42.6798 42.7536 42.8069 42.615 42.89 42.45L43.89 40.45C43.9871 40.2169 43.9924 39.9558 43.9049 39.7189C43.8173 39.4821 43.6434 39.2871 43.4181 39.1732C43.1928 39.0593 42.9327 39.0348 42.69 39.1047C42.4474 39.1746 42.2402 39.3337 42.11 39.55Z" fill="#39519D"/>
    <path d="M45.64 40.48L45.11 41.55C44.9914 41.7862 44.9711 42.0597 45.0536 42.3108C45.136 42.5619 45.3145 42.7702 45.55 42.89C45.6884 42.9641 45.8432 43.0019 46 43C46.1847 42.9995 46.3656 42.9478 46.5227 42.8507C46.6798 42.7536 46.8069 42.615 46.89 42.45L47.43 41.37C47.5385 41.1339 47.5508 40.8648 47.4643 40.6197C47.3777 40.3747 47.1992 40.1729 46.9665 40.0572C46.7338 39.9415 46.4652 39.9209 46.2176 39.9999C45.97 40.0788 45.7629 40.251 45.64 40.48Z" fill="#39519D"/>
    <path d="M17.93 40.14C17.6926 40.0221 17.4182 40.0033 17.1669 40.0877C16.9156 40.1721 16.7082 40.3527 16.59 40.59L16.11 41.59C15.9914 41.8262 15.9711 42.0997 16.0536 42.3508C16.136 42.6019 16.3145 42.8101 16.55 42.93C16.6919 42.9903 16.8466 43.0143 17 43C17.1847 42.9994 17.3656 42.9478 17.5227 42.8507C17.6798 42.7536 17.8069 42.6149 17.89 42.45L18.38 41.45C18.4886 41.2158 18.5024 40.9487 18.4186 40.7045C18.3347 40.4603 18.1596 40.2581 17.93 40.14Z" fill="#39519D"/>
    <path d="M21.11 39.55L20.11 41.55C19.9914 41.7862 19.9711 42.0597 20.0536 42.3108C20.136 42.5619 20.3145 42.7701 20.55 42.89C20.6884 42.9641 20.8432 43.0019 21 43C21.1847 42.9995 21.3656 42.9478 21.5227 42.8507C21.6798 42.7536 21.8069 42.615 21.89 42.45L22.89 40.45C22.9871 40.2169 22.9924 39.9558 22.9049 39.7189C22.8173 39.4821 22.6434 39.2871 22.4181 39.1732C22.1928 39.0593 21.9327 39.0348 21.6901 39.1047C21.4474 39.1746 21.2402 39.3337 21.11 39.55Z" fill="#39519D"/>
    <path d="M38 43C38.1847 42.9995 38.3656 42.9478 38.5227 42.8507C38.6798 42.7536 38.8069 42.615 38.89 42.45L39.36 41.52C39.4779 41.2827 39.4968 41.0082 39.4124 40.7569C39.328 40.5056 39.1473 40.2982 38.91 40.18C38.6739 40.0614 38.4003 40.0411 38.1493 40.1236C37.8982 40.206 37.6899 40.3845 37.57 40.62L37.11 41.55C36.9914 41.7862 36.9711 42.0597 37.0536 42.3108C37.136 42.5619 37.3145 42.7702 37.55 42.89C37.6884 42.9641 37.8432 43.0019 38 43Z" fill="#39519D"/>
    <path d="M24.55 42.89C24.6884 42.964 24.8432 43.0019 25 43C25.1847 42.9994 25.3656 42.9477 25.5227 42.8507C25.6798 42.7536 25.8069 42.6149 25.89 42.45L26.36 41.51C26.4685 41.2738 26.4808 41.0047 26.3943 40.7597C26.3077 40.5146 26.1292 40.3129 25.8965 40.1972C25.6638 40.0815 25.3952 40.0609 25.1476 40.1398C24.9 40.2187 24.6929 40.391 24.57 40.62L24.11 41.55C23.9914 41.7862 23.9711 42.0597 24.0536 42.3108C24.136 42.5619 24.3145 42.7701 24.55 42.89Z" fill="#39519D"/>
    <path d="M24.6399 36.73C24.9703 36.9033 25.3426 36.9807 25.7146 36.9535C26.0867 36.9263 26.4438 36.7955 26.7455 36.576C27.0471 36.3565 27.2814 36.057 27.4218 35.7114C27.5622 35.3657 27.6031 34.9877 27.5399 34.62L27.2299 32.79L28.5599 31.5C28.8297 31.2397 29.0209 30.9089 29.1118 30.5452C29.2026 30.1815 29.1894 29.7996 29.0737 29.4431C28.958 29.0865 28.7444 28.7697 28.4573 28.5287C28.1702 28.2877 27.8211 28.1322 27.4499 28.08L25.6099 27.82L24.7899 26.16C24.624 25.8272 24.3686 25.5472 24.0524 25.3515C23.7362 25.1558 23.3717 25.0521 22.9999 25.0521C22.628 25.0521 22.2635 25.1558 21.9473 25.3515C21.6311 25.5472 21.3758 25.8272 21.2099 26.16L20.3899 27.82L18.5499 28.08C18.1787 28.1322 17.8296 28.2877 17.5425 28.5287C17.2554 28.7697 17.0418 29.0865 16.9261 29.4431C16.8103 29.7996 16.7971 30.1815 16.888 30.5452C16.9788 30.9089 17.1701 31.2397 17.4399 31.5L18.7699 32.79L18.4599 34.62C18.3874 34.994 18.4233 35.3809 18.5632 35.7352C18.7032 36.0895 18.9414 36.3965 19.2499 36.62C19.593 36.8684 20.0062 37.0015 20.4299 37C20.7535 36.9964 21.0719 36.9176 21.3599 36.77L22.9999 35.86L24.6399 36.73ZM20.4299 35L20.7399 33.17C20.7953 32.8509 20.7724 32.523 20.6731 32.2147C20.5738 31.9064 20.4011 31.6268 20.1699 31.4L18.8399 30.1L20.6699 29.84C20.9921 29.7934 21.2981 29.6688 21.5612 29.4771C21.8244 29.2854 22.0367 29.0324 22.1799 28.74L22.9999 27L23.8199 28.68C23.9643 28.9705 24.1772 29.2216 24.4403 29.4115C24.7033 29.6014 25.0087 29.7244 25.3299 29.77L27.1599 30.03L25.8299 31.33C25.5986 31.5568 25.426 31.8364 25.3267 32.1447C25.2274 32.453 25.2045 32.7809 25.2599 33.1L25.5699 35L23.9299 34.13C23.643 33.9793 23.3239 33.9006 22.9999 33.9006C22.6759 33.9006 22.3567 33.9793 22.0699 34.13L20.4299 35Z" fill="#39519D"/>
    <path d="M45.4499 28.08L43.6099 27.82L42.7899 26.16C42.624 25.8272 42.3686 25.5472 42.0524 25.3515C41.7362 25.1558 41.3717 25.0521 40.9999 25.0521C40.628 25.0521 40.2635 25.1558 39.9473 25.3515C39.6311 25.5472 39.3758 25.8272 39.2099 26.16L38.3899 27.82L36.5499 28.08C36.1787 28.1322 35.8296 28.2877 35.5425 28.5287C35.2554 28.7697 35.0418 29.0865 34.9261 29.4431C34.8103 29.7996 34.7971 30.1815 34.888 30.5452C34.9788 30.9089 35.1701 31.2397 35.4399 31.5L36.7699 32.79L36.4599 34.62C36.3874 34.994 36.4233 35.3809 36.5632 35.7352C36.7032 36.0895 36.9414 36.3965 37.2499 36.62C37.593 36.8684 38.0062 37.0015 38.4299 37C38.7535 36.9964 39.0719 36.9176 39.3599 36.77L40.9999 35.86L42.6399 36.73C42.9703 36.9033 43.3426 36.9807 43.7146 36.9535C44.0867 36.9263 44.4438 36.7955 44.7455 36.576C45.0471 36.3565 45.2814 36.057 45.4218 35.7114C45.5622 35.3657 45.6031 34.9877 45.5399 34.62L45.2299 32.79L46.5599 31.5C46.8297 31.2397 47.0209 30.9089 47.1118 30.5452C47.2026 30.1815 47.1894 29.7996 47.0737 29.4431C46.958 29.0865 46.7444 28.7697 46.4573 28.5287C46.1702 28.2877 45.8211 28.1322 45.4499 28.08ZM43.8299 31.36C43.5986 31.5868 43.426 31.8664 43.3267 32.1747C43.2274 32.483 43.2045 32.8109 43.2599 33.13L43.5699 35L41.9299 34.13C41.643 33.9793 41.3239 33.9006 40.9999 33.9006C40.6759 33.9006 40.3567 33.9793 40.0699 34.13L38.4299 35L38.7399 33.17C38.7953 32.8509 38.7724 32.523 38.6731 32.2147C38.5738 31.9064 38.4011 31.6268 38.1699 31.4L36.8399 30.1L38.6699 29.84C38.9921 29.7934 39.2981 29.6688 39.5612 29.4771C39.8244 29.2854 40.0367 29.0324 40.1799 28.74L40.9999 27L41.8199 28.68C41.9643 28.9705 42.1772 29.2216 42.4403 29.4115C42.7033 29.6014 43.0087 29.7244 43.3299 29.77L45.1599 30.03L43.8299 31.36Z" fill="#39519D"/>
    <path d="M62 32C62.0201 25.2621 59.7492 18.7174 55.56 13.44C55.4833 13.3247 55.3836 13.2266 55.267 13.1518C55.1504 13.0771 55.0196 13.0273 54.8828 13.0058C54.746 12.9842 54.6063 12.9913 54.4724 13.0266C54.3385 13.0619 54.2134 13.1246 54.105 13.2108C53.9966 13.2969 53.9072 13.4047 53.8426 13.5272C53.7781 13.6496 53.7396 13.7842 53.7297 13.9223C53.7199 14.0605 53.7388 14.1991 53.7853 14.3296C53.8318 14.46 53.9049 14.5793 54 14.68C57.9076 19.6052 60.0235 25.7131 60 32C59.9971 35.6257 59.0983 39.1945 57.3833 42.3889C55.6683 45.5833 53.1904 48.3044 50.17 50.31C51.3723 47.7045 51.9966 44.8696 52 42V40.92C53.6646 40.6798 55.187 39.8482 56.2888 38.5775C57.3906 37.3068 57.998 35.6819 58 34V32C58 30.6739 57.4732 29.4022 56.5355 28.4645C55.5979 27.5268 54.3261 27 53 27H51.84C51.6156 26.0996 51.145 25.2795 50.4809 24.6313C49.8169 23.9832 48.9856 23.5326 48.08 23.33L47.08 23.1C45.7917 22.8228 44.6023 22.2025 43.6376 21.3047C42.673 20.407 41.9689 19.2651 41.6 18L41 15.73C40.9138 15.4928 40.7412 15.2969 40.5166 15.1817C40.2921 15.0665 40.0323 15.0404 39.7893 15.1088C39.5464 15.1771 39.3382 15.3348 39.2067 15.5501C39.0751 15.7655 39.0299 16.0227 39.08 16.27L39.72 18.51C40.1797 20.1245 41.0674 21.5847 42.2891 22.736C43.5108 23.8873 45.0211 24.6868 46.66 25.05L47.66 25.28C48.3249 25.43 48.9188 25.8018 49.3442 26.3344C49.7695 26.8669 50.0008 27.5285 50 28.21V42C50 46.7739 48.1036 51.3523 44.7279 54.7279C41.3523 58.1036 36.7739 60 32 60C27.2261 60 22.6477 58.1036 19.2721 54.7279C15.8964 51.3523 14 46.7739 14 42V32C14 31.7348 13.8946 31.4804 13.7071 31.2929C13.5196 31.1054 13.2652 31 13 31C12.7348 31 12.4804 31.1054 12.2929 31.2929C12.1054 31.4804 12 31.7348 12 32V38.9C10.8706 38.6695 9.8556 38.0558 9.12669 37.1629C8.39778 36.27 7.99976 35.1527 8 34V32C8 31.2044 8.31607 30.4413 8.87868 29.8787C9.44129 29.3161 10.2044 29 11 29H12.9C13.1624 29.0281 13.4252 28.9514 13.6312 28.7866C13.8373 28.6217 13.9698 28.3822 14 28.12C14.0588 27.6261 14.2395 27.1546 14.5257 26.7479C14.812 26.3412 15.1949 26.012 15.64 25.79C17.7441 24.7295 19.372 22.916 20.2 20.71C20.6631 21.6969 21.3986 22.5309 22.3199 23.1138C23.2412 23.6967 24.3098 24.0042 25.4 24C26.7696 24.0019 28.1127 23.6221 29.2785 22.9032C30.4443 22.1842 31.3867 21.1547 32 19.93C32.6133 21.1547 33.5557 22.1842 34.7215 22.9032C35.8873 23.6221 37.2304 24.0019 38.6 24H39C39.2652 24 39.5196 23.8947 39.7071 23.7071C39.8946 23.5196 40 23.2652 40 23C40 22.7348 39.8946 22.4804 39.7071 22.2929C39.5196 22.1054 39.2652 22 39 22H38.6C37.471 22.0006 36.3705 21.6454 35.4549 20.9847C34.5394 20.3241 33.8553 19.3917 33.5 18.32L33 16.68C32.9342 16.4799 32.807 16.3057 32.6364 16.1823C32.4658 16.0588 32.2606 15.9923 32.05 15.9923C31.8394 15.9923 31.6342 16.0588 31.4636 16.1823C31.293 16.3057 31.1658 16.4799 31.1 16.68L30.55 18.32C30.192 19.3998 29.5004 20.3381 28.5748 20.9995C27.6492 21.6608 26.5375 22.0112 25.4 22C24.6195 22.0005 23.8587 21.7554 23.2252 21.2996C22.5917 20.8437 22.1176 20.2002 21.87 19.46L21 16.68C20.9304 16.4657 20.7905 16.2812 20.603 16.1564C20.4154 16.0315 20.1912 15.9737 19.9667 15.9922C19.7421 16.0107 19.5304 16.1045 19.3659 16.2584C19.2013 16.4123 19.0935 16.6172 19.06 16.84L18.76 18.66C18.5641 19.8034 18.0992 20.8838 17.4038 21.8122C16.7083 22.7407 15.8022 23.4905 14.76 24C14.1559 24.3025 13.6194 24.7243 13.1828 25.2399C12.7463 25.7556 12.4187 26.3543 12.22 27H11C9.67392 27 8.40215 27.5268 7.46447 28.4645C6.52678 29.4022 6 30.6739 6 32V34C6.00197 35.6819 6.60941 37.3068 7.71118 38.5775C8.81295 39.8482 10.3354 40.6798 12 40.92V42C12.0044 44.8695 12.6286 47.7042 13.83 50.31C11.8863 49.0111 10.1585 47.415 8.71 45.58C8.54557 45.3718 8.30516 45.2375 8.04167 45.2065C7.77818 45.1756 7.51319 45.2506 7.305 45.415C7.0968 45.5794 6.96246 45.8199 6.93151 46.0833C6.90057 46.3468 6.97557 46.6118 7.14 46.82C9.46348 49.7708 12.4421 52.14 15.84 53.74C17.6869 56.2987 20.115 58.3823 22.9244 59.8193C25.7339 61.2562 28.8444 62.0056 32 62.0056C35.1556 62.0056 38.2661 61.2562 41.0756 59.8193C43.885 58.3823 46.3131 56.2987 48.16 53.74C52.2903 51.8007 55.7843 48.7274 58.2347 44.8783C60.6851 41.0292 61.9909 36.5629 62 32ZM56 32V34C56.0002 35.1527 55.6022 36.27 54.8733 37.1629C54.1444 38.0558 53.1294 38.6695 52 38.9V29H53C53.7957 29 54.5587 29.3161 55.1213 29.8787C55.6839 30.4413 56 31.2044 56 32Z" fill="#39519D"/>
    <path d="M4 32C4.0019 26.5117 5.61668 21.145 8.64364 16.5669C11.6706 11.9888 15.9762 8.40124 21.0254 6.2501C26.0745 4.09896 31.6446 3.47912 37.0431 4.46762C42.4416 5.45612 47.4306 8.00937 51.39 11.81C51.5847 11.9706 51.8329 12.0517 52.0848 12.037C52.3368 12.0223 52.5738 11.9128 52.7484 11.7306C52.9231 11.5484 53.0223 11.3069 53.0263 11.0545C53.0303 10.8022 52.9388 10.5577 52.77 10.37C48.5277 6.2997 43.183 3.56557 37.3999 2.50734C31.6168 1.44911 25.6502 2.11343 20.2415 4.41775C14.8328 6.72208 10.2203 10.5648 6.97724 15.4686C3.73416 20.3723 2.0034 26.1209 2 32C2.00058 35.9508 2.97973 39.84 4.85 43.32C4.98439 43.5348 5.1953 43.6905 5.44009 43.7558C5.68489 43.8211 5.94534 43.791 6.16881 43.6716C6.39228 43.5523 6.56212 43.3525 6.64402 43.1128C6.72591 42.873 6.71375 42.6111 6.61 42.38C4.89878 39.1876 4.00225 35.6221 4 32Z" fill="#39519D"/>
    <path d="M37.1899 52C35.7657 50.721 33.9191 50.0135 32.0049 50.0135C30.0907 50.0135 28.2441 50.721 26.8199 52C26.5818 51.6 26.3906 51.1738 26.2499 50.73C26.2187 50.5984 26.161 50.4744 26.0805 50.3656C25.9999 50.2569 25.8981 50.1656 25.7812 50.0974C25.6644 50.0291 25.5349 49.9853 25.4006 49.9686C25.2663 49.9518 25.13 49.9625 24.9999 50C24.8736 50.0378 24.7561 50.1001 24.654 50.1835C24.5519 50.2668 24.4673 50.3695 24.405 50.4857C24.3427 50.6019 24.304 50.7292 24.2912 50.8604C24.2783 50.9915 24.2914 51.124 24.3299 51.25C24.8758 53.0914 26.066 54.675 27.683 55.7114C29.3 56.7478 31.2359 57.1679 33.137 56.8949C35.0381 56.622 36.7776 55.6741 38.0376 54.2246C39.2977 52.7751 39.9942 50.9207 39.9999 49V47C40.0082 46.7756 39.9407 46.5549 39.8083 46.3735C39.6759 46.1921 39.4862 46.0605 39.2699 46C34.5186 44.6401 29.4812 44.6401 24.7299 46C24.5986 46.0355 24.4755 46.0965 24.3678 46.1795C24.26 46.2625 24.1697 46.3659 24.1019 46.4838C24.0341 46.6018 23.9902 46.7319 23.9727 46.8668C23.9552 47.0017 23.9645 47.1387 23.9999 47.27C24.0354 47.4014 24.0964 47.5244 24.1794 47.6322C24.2624 47.7399 24.3658 47.8303 24.4837 47.8981C24.6017 47.9658 24.7318 48.0097 24.8667 48.0272C25.0016 48.0447 25.1386 48.0355 25.2699 48C29.4183 46.7995 33.8108 46.7202 37.9999 47.77V49C37.9981 50.0538 37.7187 51.0885 37.1899 52ZM28.0999 53.52C29.1494 52.5201 30.5506 51.974 31.9999 52C33.4564 51.9778 34.8636 52.5271 35.9199 53.53C34.8392 54.4807 33.4492 55.005 32.0099 55.005C30.5706 55.005 29.1806 54.4807 28.0999 53.53V53.52Z" fill="#39519D"/>
    <defs>
        <linearGradient id="paint0_linear_3503_26193" x1="88.9643" y1="34.6717" x2="71.5441" y2="-11.8196" gradientUnits="userSpaceOnUse">
            <stop stop-color="#1CB6AC"/>
            <stop offset="0.448142" stop-color="#1CB6AC"/>
            <stop offset="0.453125" stop-color="#20C2A8"/>
            <stop offset="1" stop-color="#24D0A3"/>
        </linearGradient>
        <linearGradient id="paint1_linear_3503_26193" x1="23.877" y1="40.0767" x2="-0.256223" y2="36.251" gradientUnits="userSpaceOnUse">
            <stop stop-color="#1CB6AC"/>
            <stop offset="1" stop-color="#24D0A3"/>
        </linearGradient>
    </defs>
</svg>
