<svg width="64" height="64" viewBox="0 0 64 64" fill="none" xmlns="http://www.w3.org/2000/svg">
    <path d="M32 3C39.6913 3 47.0675 6.05535 52.5061 11.4939C57.9446 16.9325 61 24.3087 61 32C61 38.1 58.5768 43.9501 54.2635 48.2635C49.9501 52.5768 44.1 55 38 55H26C19.9 55 14.0499 52.5768 9.73654 48.2635C5.42321 43.9501 3 38.1 3 32C3 24.3087 6.05535 16.9325 11.4939 11.4939C16.9325 6.05535 24.3087 3 32 3Z" fill="#1CB6AC"/>
    <path d="M61 31.9999C61 38.0999 58.5768 43.95 54.2635 48.2633C49.9501 52.5767 44.1 54.9999 38 54.9999H26C19.9 54.9999 14.0499 52.5767 9.73654 48.2633C5.42321 43.95 3 38.0999 3 31.9999C2.99961 27.6562 3.97498 23.368 5.85406 19.4518C7.73315 15.5356 10.468 12.0916 13.8565 9.37402C17.2451 6.65646 21.2008 4.73481 25.4316 3.75098C29.6623 2.76715 34.0601 2.74627 38.3 3.6899C38.4604 4.70464 38.691 5.70704 38.99 6.68989C39.6486 8.86035 40.6223 10.9223 41.88 12.8099L43.08 14.6099C44.9514 17.4245 47.803 19.442 51.08 20.2699C51.9427 20.4879 52.7262 20.9452 53.3401 21.5893C53.9541 22.2333 54.3735 23.0378 54.55 23.9099C54.6835 24.5633 54.9527 25.1813 55.3403 25.7239C55.7279 26.2666 56.2252 26.7217 56.8 27.0599C57.9862 27.7562 59.3346 28.1287 60.71 28.1399C60.8934 29.4186 60.9902 30.7082 61 31.9999Z" fill="url(#paint0_linear_3503_26186)"/>
    <path d="M30.57 55H26C19.9001 55 14.0499 52.5768 9.73658 48.2635C5.42324 43.9501 3.00004 38.1 3.00004 32C2.98986 25.6462 5.0667 19.4648 8.9113 14.4062C12.7559 9.34747 18.1555 5.69143 24.28 4C23.2971 4.75429 22.365 5.57274 21.49 6.45C18.7886 9.14547 16.6476 12.3491 15.1904 15.8762C13.7333 19.4032 12.9888 23.1838 13 27C13 37.83 20.49 51.28 30.57 55Z" fill="url(#paint1_linear_3503_26186)"/>
    <path d="M32 61C26.9609 61 22.1282 58.9982 18.565 55.435C15.0018 51.8718 13 47.0391 13 42V28.47C12.9995 27.7269 13.206 26.9983 13.5963 26.366C13.9867 25.7336 14.5454 25.2225 15.21 24.89C16.3841 24.304 17.4028 23.4486 18.1832 22.3936C18.9635 21.3387 19.4833 20.1142 19.7 18.82L20 17L20.92 19.77C21.2343 20.7098 21.8358 21.5272 22.6396 22.1068C23.4435 22.6863 24.409 22.9988 25.4 23C26.7387 23.0011 28.0437 22.5805 29.1297 21.7979C30.2157 21.0152 31.0276 19.9103 31.45 18.64L32 17L32.55 18.64C32.9724 19.9103 33.7843 21.0152 34.8703 21.7979C35.9563 22.5805 37.2613 23.0011 38.6 23H39L40 16L40.64 18.24C41.0531 19.6781 41.8459 20.9784 42.9351 22.0043C44.0243 23.0302 45.3697 23.7437 46.83 24.07L47.83 24.3C48.7263 24.4901 49.5301 24.9822 50.1071 25.6939C50.6841 26.4056 50.9993 27.2938 51 28.21V42C51 47.0391 48.9982 51.8718 45.435 55.435C41.8718 58.9982 37.0391 61 32 61Z" fill="#FFF0E4"/>
    <path d="M11 28H13V40C11.4087 40 9.88258 39.3679 8.75736 38.2426C7.63214 37.1174 7 35.5913 7 34V32C7 30.9391 7.42143 29.9217 8.17157 29.1716C8.92172 28.4214 9.93913 28 11 28Z" fill="#FFD4B3"/>
    <path d="M51 28H53C54.0609 28 55.0783 28.4214 55.8284 29.1716C56.5786 29.9217 57 30.9391 57 32V34C57 35.5913 56.3679 37.1174 55.2426 38.2426C54.1174 39.3679 52.5913 40 51 40V28Z" fill="#FFF0E4"/>
    <path d="M51 28.21V33.21C51.0013 32.2993 50.6918 31.4154 50.1227 30.7045C49.5536 29.9935 48.7589 29.4981 47.87 29.3L46.87 29.07C45.4097 28.7437 44.0643 28.0302 42.9751 27.0043C41.8859 25.9784 41.0931 24.6781 40.68 23.24L40 21L39 28H38.6C37.2613 28.0011 35.9563 27.5805 34.8703 26.7979C33.7843 26.0152 32.9724 24.9103 32.55 23.64L32 22L31.45 23.64C31.0276 24.9103 30.2157 26.0152 29.1297 26.7979C28.0437 27.5805 26.7387 28.0011 25.4 28C24.409 27.9988 23.4435 27.6863 22.6396 27.1068C21.8358 26.5272 21.2343 25.7098 20.92 24.77L20.14 22.43L19.9 22.58L19.7 23.82C19.4603 25.209 18.8758 26.5156 18 27.62V39.5C18 44.5391 20.0018 49.3718 23.565 52.935C27.1282 56.4982 31.9609 58.5 37 58.5C39.0077 58.4871 41.0002 58.1494 42.9 57.5C39.7183 59.7702 35.9086 60.9935 32 61C26.9609 61 22.1282 58.9982 18.565 55.435C15.0018 51.8718 13 47.0391 13 42V28.47C12.9995 27.7269 13.206 26.9983 13.5963 26.366C13.9867 25.7336 14.5454 25.2225 15.21 24.89C16.3845 24.3046 17.4037 23.4494 18.1842 22.3944C18.9646 21.3393 19.484 20.1144 19.7 18.82L20 17L20.92 19.77C21.2343 20.7098 21.8358 21.5272 22.6396 22.1068C23.4435 22.6863 24.409 22.9988 25.4 23C26.739 23.0027 28.0447 22.5826 29.1311 21.7998C30.2174 21.0169 31.0289 19.9111 31.45 18.64L32 17L32.55 18.64C32.9724 19.9103 33.7843 21.0152 34.8703 21.7979C35.9563 22.5805 37.2613 23.0011 38.6 23H39L40 16L40.64 18.24C41.0531 19.6781 41.8459 20.9784 42.9351 22.0043C44.0243 23.0302 45.3697 23.7437 46.83 24.07L47.83 24.3C48.7263 24.4901 49.5301 24.9822 50.1071 25.6939C50.6841 26.4056 50.9993 27.2938 51 28.21Z" fill="#FFD4B3"/>
    <path d="M44 45C46.2091 45 48 43.6569 48 42C48 40.3431 46.2091 39 44 39C41.7909 39 40 40.3431 40 42C40 43.6569 41.7909 45 44 45Z" fill="#FFB9A3"/>
    <path d="M20 45C22.2091 45 24 43.6569 24 42C24 40.3431 22.2091 39 20 39C17.7909 39 16 40.3431 16 42C16 43.6569 17.7909 45 20 45Z" fill="#FFB9A3"/>
    <path d="M56.24 36.93C55.7187 37.8616 54.9582 38.6373 54.0371 39.1769C53.116 39.7166 52.0676 40.0007 51 40V28H53V33C52.9993 33.9295 53.3224 34.8302 53.9136 35.5473C54.5049 36.2645 55.3275 36.7534 56.24 36.93Z" fill="#FFD4B3"/>
    <path d="M7.76025 36.93C8.28158 37.8616 9.04203 38.6373 9.96315 39.1769C10.8843 39.7166 11.9327 40.0007 13.0003 40V28H11.0003V33C11.0009 33.9295 10.6779 34.8302 10.0866 35.5473C9.49536 36.2645 8.6728 36.7534 7.76025 36.93Z" fill="#DA9367"/>
    <path d="M39 52V53C37.9897 52.571 36.9419 52.2363 35.87 52C33.3219 51.4267 30.6781 51.4267 28.13 52C27.0581 52.2363 26.0103 52.571 25 53V52C25 50.1435 25.7375 48.363 27.0503 47.0503C28.363 45.7375 30.1435 45 32 45C33.8565 45 35.637 45.7375 36.9497 47.0503C38.2625 48.363 39 50.1435 39 52Z" fill="#F8664F"/>
    <path d="M36 51.9999H35.85C33.3019 51.4265 30.6581 51.4265 28.11 51.9999H28L29.52 49.7099C29.7937 49.2973 30.1652 48.9589 30.6014 48.7248C31.0376 48.4907 31.5249 48.3682 32.02 48.3682C32.5151 48.3682 33.0024 48.4907 33.4386 48.7248C33.8748 48.9589 34.2463 49.2973 34.52 49.7099L36 51.9999Z" fill="#FFB9A3"/>
    <path d="M43 40C42.7087 40.5826 42.5479 41.2218 42.5289 41.8729C42.5099 42.524 42.6332 43.1714 42.89 43.77C43.2165 44.4242 43.3955 45.1419 43.4145 45.8728C43.4335 46.6036 43.292 47.3298 43 48C42.6923 48.6218 42.5323 49.3062 42.5323 50C42.5323 50.6938 42.6923 51.3782 43 52C43.289 52.6654 43.4298 53.3857 43.4125 54.111C43.3953 54.8363 43.2204 55.5491 42.9 56.2C42.6377 56.8022 42.5107 57.4545 42.528 58.1111C42.5453 58.7677 42.7064 59.4125 43 60L43.5 61H47.5L47 60C46.6893 59.3791 46.5276 58.6943 46.5276 58C46.5276 57.3057 46.6893 56.6209 47 56C47.2913 55.4174 47.4521 54.7782 47.4711 54.1271C47.4901 53.476 47.3668 52.8286 47.11 52.23C46.7835 51.5758 46.6045 50.8581 46.5855 50.1272C46.5665 49.3964 46.708 48.6702 47 48C47.3077 47.3782 47.4677 46.6938 47.4677 46C47.4677 45.3062 47.3077 44.6218 47 44C46.711 43.3346 46.5702 42.6143 46.5875 41.889C46.6047 41.1637 46.7796 40.4509 47.1 39.8C47.3623 39.1978 47.4893 38.5455 47.472 37.8889C47.4547 37.2323 47.2936 36.5875 47 36L46.83 35.66C46.5813 35.1619 46.1989 34.7428 45.7256 34.4496C45.2523 34.1564 44.7068 34.0008 44.15 34H42L43 36C43.3107 36.6209 43.4724 37.3057 43.4724 38C43.4724 38.6943 43.3107 39.3791 43 40Z" fill="#00B2FF"/>
    <path d="M17.9999 39.9998C17.7086 40.5824 17.5478 41.2215 17.5288 41.8726C17.5098 42.5237 17.6331 43.1712 17.8899 43.7698C18.2164 44.4239 18.3954 45.1417 18.4144 45.8726C18.4334 46.6034 18.2919 47.3295 17.9999 47.9998C17.6922 48.6216 17.5322 49.306 17.5322 49.9998C17.5322 50.6935 17.6922 51.378 17.9999 51.9998C18.2889 52.6652 18.4297 53.3855 18.4124 54.1108C18.3952 54.8361 18.2203 55.5489 17.8999 56.1998C17.6376 56.8019 17.5106 57.4543 17.5279 58.1109C17.5452 58.7675 17.7063 59.4122 17.9999 59.9998L18.4999 60.9998H22.4999L21.9999 59.9998C21.6892 59.3788 21.5275 58.6941 21.5275 57.9998C21.5275 57.3055 21.6892 56.6207 21.9999 55.9998C22.2912 55.4172 22.452 54.778 22.471 54.1269C22.49 53.4758 22.3667 52.8284 22.1099 52.2298C21.7834 51.5756 21.6044 50.8578 21.5854 50.127C21.5664 49.3961 21.7079 48.67 21.9999 47.9998C22.3076 47.378 22.4676 46.6935 22.4676 45.9998C22.4676 45.306 22.3076 44.6216 21.9999 43.9998C21.7109 43.3344 21.5701 42.614 21.5874 41.8888C21.6046 41.1635 21.7795 40.4507 22.0999 39.7998C22.3622 39.1976 22.4892 38.5452 22.4719 37.8887C22.4546 37.2321 22.2935 36.5873 21.9999 35.9998L20.9999 33.9998H19.2399C19.0038 33.9986 18.7713 34.0579 18.5647 34.1722C18.3581 34.2865 18.1843 34.4519 18.0599 34.6526C17.9355 34.8532 17.8646 35.0825 17.8541 35.3183C17.8436 35.5542 17.8938 35.7888 17.9999 35.9998C18.3106 36.6207 18.4723 37.3055 18.4723 37.9998C18.4723 38.6941 18.3106 39.3788 17.9999 39.9998Z" fill="#00B2FF"/>
    <path d="M47.5 61H43.5L43 60C42.7079 59.4138 42.5476 58.7708 42.5304 58.1161C42.5131 57.4614 42.6392 56.8108 42.9 56.21C43.2219 55.5578 43.3976 54.8432 43.4148 54.116C43.4321 53.3889 43.2905 52.6668 43 52C42.6923 51.3782 42.5323 50.6938 42.5323 50C42.5323 49.3062 42.6923 48.6218 43 48C43.2905 47.3311 43.4312 46.6068 43.4122 45.8778C43.3932 45.1488 43.215 44.4328 42.89 43.78C42.6316 43.18 42.5076 42.5308 42.5266 41.8778C42.5456 41.2249 42.7072 40.5839 43 40C43.3107 39.3791 43.4724 38.6943 43.4724 38C43.4724 37.3057 43.3107 36.6209 43 36L42 34H44L45 36C45.3107 36.6209 45.4724 37.3057 45.4724 38C45.4724 38.6943 45.3107 39.3791 45 40C44.7087 40.5826 44.5479 41.2218 44.5289 41.8729C44.5099 42.524 44.6332 43.1714 44.89 43.77C45.1992 44.4693 45.3589 45.2254 45.3589 45.99C45.3589 46.7546 45.1992 47.5107 44.89 48.21C44.6294 48.8112 44.5042 49.4623 44.5232 50.1172C44.5423 50.7722 44.705 51.4149 45 52C45.166 52.3139 45.284 52.651 45.35 53C45.4478 53.5299 45.6617 54.0316 45.9764 54.469C46.2911 54.9064 46.6987 55.2688 47.17 55.53C47.1294 55.692 47.0724 55.8495 47 56C46.6893 56.6209 46.5276 57.3057 46.5276 58C46.5276 58.6943 46.6893 59.3791 47 60L47.5 61Z" fill="url(#paint2_linear_3503_26186)"/>
    <path d="M22.5002 60.9998H18.5002L18.0002 59.9998C17.7081 59.4136 17.5478 58.7706 17.5305 58.1158C17.5133 57.4611 17.6394 56.8106 17.9002 56.2098C18.2221 55.5575 18.3978 54.8429 18.415 54.1158C18.4323 53.3887 18.2907 52.6666 18.0002 51.9998C17.6925 51.378 17.5325 50.6935 17.5325 49.9998C17.5325 49.306 17.6925 48.6216 18.0002 47.9998C18.2907 47.3309 18.4314 46.6066 18.4124 45.8776C18.3934 45.1486 18.2151 44.4326 17.8902 43.7798C17.6318 43.1798 17.5078 42.5306 17.5268 41.8776C17.5458 41.2246 17.7074 40.5837 18.0002 39.9998C18.3093 39.3784 18.4702 38.6938 18.4702 37.9998C18.4702 37.3057 18.3093 36.6212 18.0002 35.9998C17.8941 35.7888 17.8439 35.5542 17.8544 35.3183C17.8649 35.0825 17.9358 34.8532 18.0602 34.6526C18.1846 34.4519 18.3584 34.2865 18.565 34.1722C18.7716 34.0579 19.0041 33.9986 19.2402 33.9998H21.0002C20.7848 34.0351 20.5809 34.1211 20.4052 34.2505C20.2295 34.3799 20.087 34.5492 19.9894 34.7444C19.8918 34.9396 19.8419 35.1551 19.8438 35.3734C19.8457 35.5916 19.8993 35.8063 20.0002 35.9998C20.3093 36.6212 20.4702 37.3057 20.4702 37.9998C20.4702 38.6938 20.3093 39.3784 20.0002 39.9998C19.7089 40.5824 19.5481 41.2215 19.5291 41.8726C19.5101 42.5237 19.6333 43.1712 19.8902 43.7698C20.1994 44.4691 20.3591 45.2252 20.3591 45.9898C20.3591 46.7544 20.1994 47.5105 19.8902 48.2098C19.6296 48.811 19.5044 49.4621 19.5234 50.117C19.5424 50.772 19.7052 51.4147 20.0002 51.9998C20.1662 52.3137 20.2842 52.6508 20.3502 52.9998C20.448 53.5297 20.6619 54.0314 20.9766 54.4688C21.2912 54.9062 21.6989 55.2686 22.1702 55.5298C22.1296 55.6918 22.0726 55.8493 22.0002 55.9998C21.6895 56.6207 21.5278 57.3055 21.5278 57.9998C21.5278 58.6941 21.6895 59.3788 22.0002 59.9998L22.5002 60.9998Z" fill="url(#paint3_linear_3503_26186)"/>
    <path d="M38.6 53.92C38.7274 53.9705 38.863 53.9976 39 54C39.1943 53.9962 39.384 53.941 39.55 53.84C39.689 53.7485 39.8029 53.6237 39.8815 53.4771C39.9601 53.3304 40.0008 53.1664 40 53V52C40 49.8783 39.1572 47.8434 37.6569 46.3431C36.1566 44.8429 34.1217 44 32 44C29.8783 44 27.8434 44.8429 26.3432 46.3431C24.8429 47.8434 24 49.8783 24 52V53C23.9992 53.1664 24.0399 53.3304 24.1185 53.4771C24.1971 53.6237 24.311 53.7485 24.45 53.84C24.5892 53.9314 24.749 53.9865 24.9149 54.0005C25.0808 54.0145 25.2475 53.9868 25.4 53.92C26.3649 53.4893 27.3697 53.1544 28.4 52.92C30.8034 52.38 33.2966 52.38 35.7 52.92C36.6962 53.1606 37.6673 53.4954 38.6 53.92ZM32 46C33.5147 45.9955 34.9751 46.5642 36.088 47.5917C37.2008 48.6193 37.8839 50.0297 38 51.54C37.57 51.4 37.12 51.29 36.67 51.17L35.35 49.17C34.9849 48.6213 34.4898 48.1714 33.9089 47.8602C33.3279 47.5489 32.6791 47.3861 32.02 47.3861C31.361 47.3861 30.7121 47.5489 30.1311 47.8602C29.5502 48.1714 29.0551 48.6213 28.69 49.17L27.37 51.17C26.92 51.29 26.47 51.4 26.04 51.54C26.1556 50.0366 26.833 48.6319 27.9374 47.6053C29.0418 46.5787 30.4922 46.0056 32 46ZM30.09 50.67L30.33 50.3C30.5122 50.0236 30.7601 49.7967 31.0516 49.6397C31.3431 49.4827 31.6689 49.4005 32 49.4005C32.3311 49.4005 32.657 49.4827 32.9484 49.6397C33.2399 49.7967 33.4878 50.0236 33.67 50.3L33.92 50.68C32.647 50.5466 31.3637 50.5433 30.09 50.67Z" fill="#39519D"/>
    <path d="M34 38C33.7348 38 33.4804 38.1054 33.2929 38.2929C33.1054 38.4804 33 38.7348 33 39C33 39.2652 32.8946 39.5196 32.7071 39.7071C32.5196 39.8946 32.2652 40 32 40C31.7348 40 31.4804 39.8946 31.2929 39.7071C31.1054 39.5196 31 39.2652 31 39C31 38.7348 30.8946 38.4804 30.7071 38.2929C30.5196 38.1054 30.2652 38 30 38C29.7348 38 29.4804 38.1054 29.2929 38.2929C29.1054 38.4804 29 38.7348 29 39C29 39.7956 29.3161 40.5587 29.8787 41.1213C30.4413 41.6839 31.2044 42 32 42C32.7956 42 33.5587 41.6839 34.1213 41.1213C34.6839 40.5587 35 39.7956 35 39C35 38.7348 34.8946 38.4804 34.7071 38.2929C34.5196 38.1054 34.2652 38 34 38Z" fill="#39519D"/>
    <path d="M36.9998 27.73C36.9591 27.8614 36.946 27.9996 36.9612 28.1363C36.9764 28.2729 37.0196 28.4049 37.0881 28.5241C37.1566 28.6433 37.2489 28.747 37.3594 28.8289C37.4698 28.9108 37.5959 28.9691 37.7298 29L44.7298 31C44.8192 31.0146 44.9104 31.0146 44.9998 31C45.265 31.0358 45.5336 30.9648 45.7464 30.8026C45.9593 30.6404 46.099 30.4003 46.1348 30.135C46.1706 29.8698 46.0996 29.6013 45.9374 29.3884C45.7751 29.1755 45.535 29.0358 45.2698 29L38.2698 27C38.1385 26.9594 38.0002 26.9463 37.8636 26.9614C37.7269 26.9766 37.5949 27.0198 37.4758 27.0883C37.3566 27.1568 37.2528 27.2492 37.1709 27.3596C37.089 27.47 37.0308 27.5961 36.9998 27.73Z" fill="#39519D"/>
    <path d="M25.73 26.9999L18.73 28.9999C18.4648 29.0357 18.2247 29.1754 18.0625 29.3883C17.9002 29.6011 17.8292 29.8697 17.865 30.1349C17.9008 30.4001 18.0405 30.6403 18.2534 30.8025C18.4662 30.9647 18.7348 31.0357 19 30.9999C19.0894 31.0145 19.1806 31.0145 19.27 30.9999L26.27 28.9999C26.5352 28.9283 26.7612 28.7543 26.8981 28.5161C27.035 28.2779 27.0716 27.9951 27 27.7299C26.9284 27.4647 26.7544 27.2388 26.5162 27.1019C26.278 26.965 25.9952 26.9283 25.73 26.9999Z" fill="#39519D"/>
    <path d="M43.8902 59.55C43.6619 59.0956 43.5373 58.5963 43.5252 58.0879C43.5131 57.5795 43.6138 57.0748 43.8202 56.61C44.1975 55.8329 44.4002 54.9827 44.414 54.1189C44.4279 53.2551 44.2525 52.3988 43.9002 51.61C43.6581 51.1256 43.5321 50.5915 43.5321 50.05C43.5321 49.5085 43.6581 48.9744 43.9002 48.49C44.2608 47.6926 44.4398 46.825 44.4242 45.9499C44.4086 45.0749 44.1989 44.2142 43.8102 43.43C43.6129 42.9644 43.5179 42.4618 43.5317 41.9563C43.5455 41.4508 43.6678 40.9542 43.8902 40.5C44.3527 39.5719 44.5433 38.5319 44.4402 37.5C44.4257 37.3687 44.3856 37.2415 44.322 37.1257C44.2584 37.0099 44.1726 36.9078 44.0695 36.8251C43.9664 36.7425 43.8481 36.681 43.7212 36.6441C43.5944 36.6072 43.4615 36.5956 43.3302 36.61C43.1989 36.6245 43.0717 36.6646 42.9559 36.7282C42.8401 36.7919 42.7379 36.8776 42.6553 36.9807C42.5727 37.0838 42.5111 37.2021 42.4742 37.329C42.4373 37.4558 42.4257 37.5887 42.4402 37.72C42.5104 38.3836 42.389 39.0534 42.0902 39.65C41.7514 40.3528 41.5679 41.1202 41.5524 41.9002C41.5369 42.6802 41.6896 43.4544 42.0002 44.17C42.2571 44.6912 42.4015 45.2606 42.4239 45.8412C42.4463 46.4218 42.3462 47.0006 42.1302 47.54C41.7505 48.3045 41.5529 49.1465 41.5529 50C41.5529 50.8536 41.7505 51.6956 42.1302 52.46C42.3464 52.9959 42.4466 53.5715 42.4242 54.149C42.4018 54.7264 42.2573 55.2925 42.0002 55.81C41.8034 56.2597 41.6688 56.734 41.6002 57.22C38.7632 59.0209 35.4763 59.9864 32.116 60.0059C28.7557 60.0253 25.4579 59.098 22.6002 57.33C22.6542 57.0211 22.7518 56.7215 22.8902 56.44C23.2457 55.7268 23.4398 54.944 23.4589 54.1473C23.4779 53.3506 23.3213 52.5594 23.0002 51.83C22.7432 51.3089 22.5989 50.7395 22.5765 50.1589C22.5541 49.5783 22.6541 48.9994 22.8702 48.46C23.2498 47.6973 23.4473 46.857 23.4473 46.005C23.4473 45.1531 23.2498 44.3127 22.8702 43.55C22.7606 43.3314 22.6799 43.0995 22.6302 42.86C22.5612 42.614 22.4008 42.4037 22.1816 42.2723C21.9625 42.1409 21.7014 42.0983 21.4519 42.1533C21.2024 42.2083 20.9834 42.3568 20.8399 42.5681C20.6964 42.7795 20.6393 43.0378 20.6802 43.29C20.7621 43.6894 20.8966 44.0761 21.0802 44.44C21.3222 44.9244 21.4482 45.4585 21.4482 46C21.4482 46.5415 21.3222 47.0756 21.0802 47.56C20.7196 48.3575 20.5406 49.2251 20.5562 50.1002C20.5717 50.9752 20.7815 51.8359 21.1702 52.62C21.3675 53.0856 21.4625 53.5882 21.4487 54.0937C21.4349 54.5992 21.3126 55.0959 21.0902 55.55C20.7107 56.311 20.5132 57.1497 20.5132 58C20.5132 58.8504 20.7107 59.6891 21.0902 60.45L21.5902 61.45C21.6733 61.615 21.8004 61.7536 21.9575 61.8507C22.1146 61.9478 22.2955 61.9995 22.4802 62C22.6371 62.0019 22.7919 61.9641 22.9302 61.89C23.1657 61.7702 23.3442 61.5619 23.4266 61.3108C23.5091 61.0597 23.4888 60.7862 23.3702 60.55L23.0302 59.87C25.9392 61.3358 29.1633 62.0658 32.42 61.996C35.6767 61.9263 38.8666 61.059 41.7102 59.47C41.8078 59.8137 41.9349 60.1483 42.0902 60.47L42.5902 61.47C42.6733 61.635 42.8004 61.7736 42.9575 61.8707C43.1146 61.9678 43.2955 62.0195 43.4802 62.02C43.6371 62.0219 43.7919 61.9841 43.9302 61.91C44.1657 61.7902 44.3442 61.5819 44.4266 61.3308C44.5091 61.0797 44.4888 60.8062 44.3702 60.57L43.8902 59.55Z" fill="#39519D"/>
    <path d="M21.18 39.39C21.1191 39.5113 21.0836 39.6438 21.0756 39.7793C21.0676 39.9149 21.0873 40.0506 21.1335 40.1783C21.1796 40.3059 21.2513 40.4229 21.3441 40.5219C21.4369 40.621 21.549 40.7001 21.6733 40.7545C21.7977 40.8089 21.9319 40.8374 22.0676 40.8382C22.2034 40.8391 22.3379 40.8123 22.463 40.7595C22.588 40.7066 22.701 40.6289 22.7951 40.531C22.8891 40.4331 22.9622 40.3171 23.01 40.19C23.3342 39.4558 23.4915 38.6588 23.4708 37.8565C23.45 37.0542 23.2517 36.2665 22.89 35.55L22.62 35H27C27.2652 35 27.5196 34.8946 27.7071 34.7071C27.8946 34.5196 28 34.2652 28 34C28 33.7348 27.8946 33.4804 27.7071 33.2929C27.5196 33.1053 27.2652 33 27 33H19.24C18.8334 32.9993 18.4335 33.1027 18.0782 33.3005C17.723 33.4983 17.4244 33.7837 17.2108 34.1297C16.9972 34.4756 16.8758 34.8705 16.8582 35.2767C16.8405 35.6829 16.9272 36.0868 17.11 36.45C17.3489 36.9335 17.4732 37.4656 17.4732 38.005C17.4732 38.5443 17.3489 39.0764 17.11 39.56C16.7545 40.2732 16.5603 41.056 16.5413 41.8527C16.5223 42.6494 16.6789 43.4406 17 44.17C17.2569 44.6911 17.4013 45.2605 17.4237 45.8411C17.4461 46.4218 17.346 47.0006 17.13 47.54C16.5115 48.781 16.3864 50.2104 16.78 51.54C14.9701 48.6868 14.0061 45.3789 14 42V32C14 31.7348 13.8946 31.4804 13.7071 31.2929C13.5196 31.1053 13.2652 31 13 31C12.7348 31 12.4804 31.1053 12.2929 31.2929C12.1054 31.4804 12 31.7348 12 32V38.9C10.8706 38.6695 9.8556 38.0558 9.12669 37.1629C8.39778 36.27 7.99976 35.1526 8 34V32C8 31.2043 8.31607 30.4413 8.87868 29.8787C9.44129 29.3161 10.2044 29 11 29H13C13.2053 28.9839 13.4023 28.9121 13.5697 28.7923C13.7371 28.6724 13.8686 28.5091 13.95 28.32C13.9904 28.2346 14.0173 28.1436 14.03 28.05C14.0986 27.5695 14.2828 27.1129 14.5667 26.7193C14.8506 26.3256 15.2258 26.0067 15.66 25.79C17.7641 24.7295 19.392 22.9159 20.22 20.71C20.6817 21.6938 21.4141 22.5258 22.3315 23.1084C23.2488 23.6911 24.3132 24.0003 25.4 24C26.7696 24.0019 28.1127 23.622 29.2785 22.9031C30.4443 22.1842 31.3867 21.1547 32 19.93C32.6133 21.1547 33.5557 22.1842 34.7215 22.9031C35.8873 23.622 37.2304 24.0019 38.6 24H39C39.2652 24 39.5196 23.8946 39.7071 23.7071C39.8946 23.5196 40 23.2652 40 23C40 22.7348 39.8946 22.4804 39.7071 22.2929C39.5196 22.1053 39.2652 22 39 22H38.6C37.471 22.0006 36.3705 21.6453 35.4549 20.9847C34.5394 20.324 33.8553 19.3916 33.5 18.32L33 16.68C32.9342 16.4799 32.807 16.3057 32.6364 16.1822C32.4658 16.0587 32.2606 15.9922 32.05 15.9922C31.8394 15.9922 31.6342 16.0587 31.4636 16.1822C31.293 16.3057 31.1658 16.4799 31.1 16.68L30.55 18.32C30.192 19.3998 29.5004 20.338 28.5748 20.9994C27.6492 21.6608 26.5375 22.0112 25.4 22C24.6195 22.0004 23.8587 21.7554 23.2252 21.2995C22.5917 20.8437 22.1176 20.2001 21.87 19.46L21 16.68C20.9304 16.4657 20.7905 16.2812 20.603 16.1563C20.4154 16.0315 20.1912 15.9736 19.9667 15.9922C19.7421 16.0107 19.5304 16.1045 19.3659 16.2584C19.2013 16.4122 19.0935 16.6172 19.06 16.84L18.76 18.66C18.5641 19.8033 18.0992 20.8838 17.4038 21.8122C16.7083 22.7407 15.8022 23.4905 14.76 24C14.1559 24.3025 13.6194 24.7243 13.1828 25.2399C12.7463 25.7555 12.4187 26.3543 12.22 27H11C9.67392 27 8.40215 27.5268 7.46447 28.4644C6.52678 29.4021 6 30.6739 6 32V34C6.00197 35.6818 6.60941 37.3067 7.71118 38.5775C8.81295 39.8482 10.3354 40.6797 12 40.92V42C12.004 44.8706 12.6318 47.706 13.84 50.31C11.891 49.014 10.1596 47.4176 8.71 45.58C8.54557 45.3718 8.30516 45.2374 8.04167 45.2065C7.77818 45.1756 7.51319 45.2505 7.305 45.415C7.0968 45.5794 6.96246 45.8198 6.93151 46.0833C6.90057 46.3468 6.97557 46.6118 7.14 46.82C9.46737 49.7709 12.4493 52.14 15.85 53.74C16.256 54.3009 16.6934 54.8384 17.16 55.35L16.99 55.81C16.6658 56.5442 16.5085 57.3411 16.5292 58.1435C16.55 58.9458 16.7483 59.7335 17.11 60.45L17.61 61.45C17.6931 61.6149 17.8202 61.7536 17.9773 61.8507C18.1344 61.9477 18.3153 61.9994 18.5 62C18.6569 62.0019 18.8117 61.964 18.95 61.89C19.1855 61.7701 19.364 61.5619 19.4465 61.3108C19.5289 61.0597 19.5086 60.7862 19.39 60.55L18.89 59.55C18.6618 59.0956 18.5371 58.5962 18.525 58.0878C18.5129 57.5795 18.6136 57.0747 18.82 56.61C19.1973 55.8329 19.4 54.9826 19.4139 54.1188C19.4277 53.2551 19.2523 52.3988 18.9 51.61C18.6579 51.1256 18.5319 50.5915 18.5319 50.05C18.5319 49.5085 18.6579 48.9744 18.9 48.49C19.2606 47.6925 19.4396 46.8249 19.424 45.9499C19.4084 45.0748 19.1987 44.2141 18.81 43.43C18.6127 42.9644 18.5177 42.4618 18.5315 41.9563C18.5453 41.4508 18.6676 40.9541 18.89 40.5C19.2695 39.739 19.467 38.9003 19.467 38.05C19.467 37.1997 19.2695 36.3609 18.89 35.6C18.8585 35.5434 18.8419 35.4797 18.8419 35.415C18.8419 35.3502 18.8585 35.2865 18.89 35.23C18.9239 35.1732 18.9724 35.1266 19.0304 35.095C19.0885 35.0633 19.1539 35.0478 19.22 35.05H20.36L21.09 36.5C21.3138 36.9463 21.4378 37.436 21.4534 37.9351C21.4689 38.4341 21.3756 38.9306 21.18 39.39Z" fill="#39519D"/>
    <path d="M62 32.0001C62.0201 25.2621 59.7492 18.7175 55.56 13.4401C55.4833 13.3248 55.3836 13.2266 55.267 13.1519C55.1504 13.0771 55.0196 13.0274 54.8828 13.0058C54.746 12.9843 54.6063 12.9914 54.4724 13.0267C54.3385 13.062 54.2134 13.1247 54.105 13.2108C53.9966 13.297 53.9072 13.4047 53.8426 13.5272C53.7781 13.6497 53.7396 13.7843 53.7297 13.9224C53.7199 14.0605 53.7388 14.1992 53.7853 14.3296C53.8318 14.46 53.9049 14.5794 54 14.6801C57.9076 19.6052 60.0235 25.7131 60 32.0001C59.9933 35.6275 59.0918 39.1973 57.3753 42.3929C55.6589 45.5886 53.1805 48.3114 50.16 50.3201C51.3696 47.713 51.9974 44.874 52 42.0001V40.9201C53.6646 40.6798 55.187 39.8483 56.2888 38.5776C57.3906 37.3068 57.998 35.6819 58 34.0001V32.0001C58 30.674 57.4732 29.4022 56.5355 28.4645C55.5979 27.5269 54.3261 27.0001 53 27.0001H51.84C51.6156 26.0997 51.145 25.2795 50.4809 24.6314C49.8169 23.9832 48.9856 23.5327 48.08 23.3301L47.08 23.1001C45.7917 22.8229 44.6023 22.2026 43.6376 21.3048C42.673 20.407 41.9689 19.2652 41.6 18.0001L41 15.7301C40.9138 15.4929 40.7412 15.297 40.5166 15.1818C40.2921 15.0665 40.0323 15.0405 39.7893 15.1088C39.5464 15.1771 39.3383 15.3348 39.2067 15.5502C39.0751 15.7656 39.0299 16.0227 39.08 16.2701L39.72 18.5101C40.1797 20.1246 41.0674 21.5848 42.2891 22.7361C43.5108 23.8874 45.0211 24.6869 46.66 25.0501L47.66 25.2801C48.3249 25.43 48.9188 25.8019 49.3442 26.3344C49.7695 26.867 50.0008 27.5285 50 28.2101V42.0001C50.002 45.0785 49.2025 48.1044 47.68 50.7801C47.483 50.0054 47.5572 49.1867 47.89 48.4601C48.2697 47.6956 48.4673 46.8536 48.4673 46.0001C48.4673 45.1465 48.2697 44.3045 47.89 43.5401C47.6707 43.0056 47.5671 42.4307 47.5861 41.8533C47.605 41.2759 47.7461 40.709 48 40.1901C48.3242 39.4559 48.4815 38.6589 48.4608 37.8566C48.44 37.0543 48.2417 36.2666 47.88 35.5501L47.71 35.2101C47.379 34.5486 46.871 33.9918 46.2425 33.6016C45.6141 33.2115 44.8897 33.0033 44.15 33.0001H38C37.7348 33.0001 37.4804 33.1054 37.2929 33.293C37.1054 33.4805 37 33.7349 37 34.0001C37 34.2653 37.1054 34.5196 37.2929 34.7072C37.4804 34.8947 37.7348 35.0001 38 35.0001H44.15C44.5204 35.0021 44.8829 35.107 45.1972 35.303C45.5115 35.499 45.7652 35.7784 45.93 36.1101L46.11 36.4501C46.3382 36.9045 46.4629 37.4039 46.475 37.9122C46.4871 38.4206 46.3864 38.9253 46.18 39.3901C45.8027 40.1672 45.6 41.0175 45.5862 41.8812C45.5723 42.745 45.7477 43.6013 46.1 44.3901C46.342 44.8745 46.4681 45.4086 46.4681 45.9501C46.4681 46.4916 46.342 47.0257 46.1 47.5101C45.7394 48.3075 45.5604 49.1751 45.576 50.0502C45.5915 50.9253 45.8013 51.7859 46.19 52.5701C46.3873 53.0357 46.4823 53.5383 46.4685 54.0438C46.4547 54.5493 46.3324 55.0459 46.11 55.5001C45.7305 56.261 45.533 57.0997 45.533 57.9501C45.533 58.8004 45.7305 59.6391 46.11 60.4001L46.61 61.4001C46.6931 61.565 46.8202 61.7037 46.9773 61.8008C47.1344 61.8978 47.3153 61.9495 47.5 61.9501C47.6569 61.952 47.8117 61.9141 47.95 61.8401C48.1855 61.7202 48.364 61.5119 48.4465 61.2609C48.5289 61.0098 48.5086 60.7362 48.39 60.5001L47.89 59.5001C47.6511 59.0165 47.5268 58.4844 47.5268 57.9451C47.5268 57.4057 47.6511 56.8736 47.89 56.3901C48.3263 55.5066 48.5196 54.5229 48.45 53.5401C52.4948 51.5734 55.9079 48.5132 58.3028 44.7062C60.6976 40.8992 61.9784 36.4976 62 32.0001ZM56 32.0001V34.0001C56.0002 35.1527 55.6022 36.2701 54.8733 37.163C54.1444 38.0559 53.1294 38.6695 52 38.9001V29.0001H53C53.7956 29.0001 54.5587 29.3161 55.1213 29.8788C55.6839 30.4414 56 31.2044 56 32.0001Z" fill="#39519D"/>
    <path d="M4 32C4.0019 26.5117 5.61668 21.145 8.64364 16.5669C11.6706 11.9888 15.9762 8.40124 21.0254 6.2501C26.0745 4.09896 31.6446 3.47912 37.0431 4.46762C42.4416 5.45612 47.4306 8.00937 51.39 11.81C51.5847 11.9706 51.8329 12.0517 52.0848 12.037C52.3368 12.0223 52.5738 11.9128 52.7484 11.7306C52.9231 11.5484 53.0223 11.3069 53.0263 11.0545C53.0303 10.8022 52.9388 10.5577 52.77 10.37C48.5277 6.2997 43.183 3.56557 37.3999 2.50734C31.6168 1.44911 25.6502 2.11343 20.2415 4.41775C14.8328 6.72208 10.2203 10.5648 6.97724 15.4686C3.73416 20.3723 2.0034 26.1209 2 32C2.00058 35.9508 2.97973 39.84 4.85 43.32C4.98439 43.5348 5.1953 43.6905 5.44009 43.7558C5.68489 43.8211 5.94534 43.791 6.16881 43.6716C6.39228 43.5523 6.56212 43.3525 6.64402 43.1128C6.72591 42.873 6.71375 42.6111 6.61 42.38C4.89878 39.1876 4.00225 35.6221 4 32Z" fill="#39519D"/>
    <path d="M29.62 55.0701C29.3839 55.1921 29.206 55.4028 29.1254 55.656C29.0447 55.9092 29.068 56.184 29.19 56.4201C29.312 56.6561 29.5227 56.834 29.7759 56.9146C30.0291 56.9953 30.3039 56.9721 30.54 56.8501C31.0014 56.6032 31.5167 56.4741 32.04 56.4741C32.5633 56.4741 33.0785 56.6032 33.54 56.8501C33.6798 56.9345 33.8372 56.9858 34 57.0001C34.223 57.0012 34.44 56.9277 34.6165 56.7914C34.7929 56.655 34.9188 56.4635 34.9739 56.2474C35.0291 56.0314 35.0105 55.803 34.921 55.5987C34.8315 55.3945 34.6762 55.226 34.48 55.1201C33.7355 54.7157 32.9033 54.4997 32.0562 54.491C31.209 54.4823 30.3726 54.6811 29.62 55.0701Z" fill="#39519D"/>
    <defs>
        <linearGradient id="paint0_linear_3503_26186" x1="88.9643" y1="34.6716" x2="71.5441" y2="-11.8197" gradientUnits="userSpaceOnUse">
            <stop stop-color="#1CB6AC"/>
            <stop offset="0.448142" stop-color="#1CB6AC"/>
            <stop offset="0.453125" stop-color="#20C2A8"/>
            <stop offset="1" stop-color="#24D0A3"/>
        </linearGradient>
        <linearGradient id="paint1_linear_3503_26186" x1="23.877" y1="40.0767" x2="-0.256223" y2="36.251" gradientUnits="userSpaceOnUse">
            <stop stop-color="#1CB6AC"/>
            <stop offset="1" stop-color="#24D0A3"/>
        </linearGradient>
        <linearGradient id="paint2_linear_3503_26186" x1="46.1648" y1="53.0994" x2="41.247" y2="52.8057" gradientUnits="userSpaceOnUse">
            <stop stop-color="#28A2E8"/>
            <stop offset="1" stop-color="#4BBEFF"/>
        </linearGradient>
        <linearGradient id="paint3_linear_3503_26186" x1="21.2924" y1="53.0992" x2="16.8408" y2="52.8587" gradientUnits="userSpaceOnUse">
            <stop stop-color="#28A2E8"/>
            <stop offset="1" stop-color="#4BBEFF"/>
        </linearGradient>
    </defs>
</svg>
