<svg width="65" height="64" viewBox="0 0 65 64" fill="none" xmlns="http://www.w3.org/2000/svg">
  <path d="M32.5 3C40.1913 3 47.5675 6.05535 53.0061 11.4939C58.4446 16.9325 61.5 24.3087 61.5 32C61.5 38.1 59.0768 43.9501 54.7635 48.2635C50.4501 52.5768 44.6 55 38.5 55H26.5C20.4 55 14.5499 52.5768 10.2365 48.2635C5.92321 43.9501 3.5 38.1 3.5 32C3.5 24.3087 6.55535 16.9325 11.9939 11.4939C17.4325 6.05535 24.8087 3 32.5 3Z" fill="#1CB6AC"/>
  <path d="M61.5 32.0001C61.5 38.1001 59.0768 43.9503 54.7635 48.2636C50.4501 52.5769 44.6 55.0001 38.5 55.0001H26.5C20.4 55.0001 14.5499 52.5769 10.2365 48.2636C5.92321 43.9503 3.5 38.1001 3.5 32.0001C3.49961 27.6565 4.47498 23.3682 6.35406 19.452C8.23315 15.5359 10.968 12.0918 14.3565 9.37426C17.7451 6.65671 21.7008 4.73505 25.9316 3.75122C30.1623 2.76739 34.5601 2.74652 38.8 3.69014C38.9604 4.70488 39.191 5.70728 39.49 6.69014C40.1486 8.8606 41.1223 10.9226 42.38 12.8101L43.58 14.6101C45.4514 17.4247 48.303 19.4423 51.58 20.2701C52.4427 20.4881 53.2262 20.9455 53.8401 21.5895C54.4541 22.2336 54.8735 23.038 55.05 23.9101C55.1835 24.5635 55.4527 25.1815 55.8403 25.7242C56.2279 26.2668 56.7252 26.722 57.3 27.0601C58.4862 27.7565 59.8346 28.1289 61.21 28.1401C61.3934 29.4188 61.4902 30.7084 61.5 32.0001Z" fill="url(#paint0_linear_3614_7632)"/>
  <path d="M31.07 55H26.5C20.4001 55 14.5499 52.5768 10.2366 48.2635C5.92324 43.9501 3.50004 38.1 3.50004 32C3.48986 25.6462 5.5667 19.4648 9.4113 14.4062C13.2559 9.34747 18.6555 5.69143 24.78 4C23.7971 4.75429 22.865 5.57274 21.99 6.45C19.2886 9.14547 17.1476 12.3491 15.6904 15.8762C14.2333 19.4032 13.4888 23.1838 13.5 27C13.5 37.83 20.99 51.28 31.07 55Z" fill="url(#paint1_linear_3614_7632)"/>
  <path d="M32.5 61C27.4609 61 22.6282 58.9982 19.065 55.435C15.5018 51.8718 13.5 47.0391 13.5 42V28.47C13.4995 27.7269 13.706 26.9983 14.0963 26.366C14.4867 25.7336 15.0454 25.2225 15.71 24.89C16.8841 24.304 17.9028 23.4486 18.6832 22.3936C19.4635 21.3387 19.9833 20.1142 20.2 18.82L20.5 17L21.42 19.77C21.7343 20.7098 22.3358 21.5272 23.1396 22.1068C23.9435 22.6863 24.909 22.9988 25.9 23C27.2387 23.0011 28.5437 22.5805 29.6297 21.7979C30.7157 21.0152 31.5276 19.9103 31.95 18.64L32.5 17L33.05 18.64C33.4724 19.9103 34.2843 21.0152 35.3703 21.7979C36.4563 22.5805 37.7613 23.0011 39.1 23H39.5L40.5 16L41.14 18.24C41.5531 19.6781 42.3459 20.9784 43.4351 22.0043C44.5243 23.0302 45.8697 23.7437 47.33 24.07L48.33 24.3C49.2263 24.4901 50.0301 24.9822 50.6071 25.6939C51.1841 26.4056 51.4993 27.2938 51.5 28.21V42C51.5 47.0391 49.4982 51.8718 45.935 55.435C42.3718 58.9982 37.5391 61 32.5 61Z" fill="#FFF0E4"/>
  <path d="M11.5 28H13.5V40C11.9087 40 10.3826 39.3679 9.25736 38.2426C8.13214 37.1174 7.5 35.5913 7.5 34V32C7.5 30.9391 7.92143 29.9217 8.67157 29.1716C9.42172 28.4214 10.4391 28 11.5 28Z" fill="#FFD4B3"/>
  <path d="M51.5 28H53.5C54.5609 28 55.5783 28.4214 56.3284 29.1716C57.0786 29.9217 57.5 30.9391 57.5 32V34C57.5 35.5913 56.8679 37.1174 55.7426 38.2426C54.6174 39.3679 53.0913 40 51.5 40V28Z" fill="#FFF0E4"/>
  <path d="M51.5 28.21V33.21C51.5013 32.2993 51.1918 31.4154 50.6227 30.7045C50.0536 29.9935 49.2589 29.4981 48.37 29.3L47.37 29.07C45.9097 28.7437 44.5643 28.0302 43.4751 27.0043C42.3859 25.9784 41.5931 24.6781 41.18 23.24L40.5 21L39.5 28H39.1C37.7613 28.0011 36.4563 27.5805 35.3703 26.7979C34.2843 26.0152 33.4724 24.9103 33.05 23.64L32.5 22L31.95 23.64C31.5276 24.9103 30.7157 26.0152 29.6297 26.7979C28.5437 27.5805 27.2387 28.0011 25.9 28C24.909 27.9988 23.9435 27.6863 23.1396 27.1068C22.3358 26.5272 21.7343 25.7098 21.42 24.77L20.64 22.43L20.4 22.58L20.2 23.82C19.9603 25.209 19.3758 26.5156 18.5 27.62V39.5C18.5 44.5391 20.5018 49.3718 24.065 52.935C27.6282 56.4982 32.4609 58.5 37.5 58.5C39.5077 58.4871 41.5002 58.1494 43.4 57.5C40.2183 59.7702 36.4086 60.9935 32.5 61C27.4609 61 22.6282 58.9982 19.065 55.435C15.5018 51.8718 13.5 47.0391 13.5 42V28.47C13.4995 27.7269 13.706 26.9983 14.0963 26.366C14.4867 25.7336 15.0454 25.2225 15.71 24.89C16.8845 24.3046 17.9037 23.4494 18.6842 22.3944C19.4646 21.3393 19.984 20.1144 20.2 18.82L20.5 17L21.42 19.77C21.7343 20.7098 22.3358 21.5272 23.1396 22.1068C23.9435 22.6863 24.909 22.9988 25.9 23C27.239 23.0027 28.5447 22.5826 29.6311 21.7998C30.7174 21.0169 31.5289 19.9111 31.95 18.64L32.5 17L33.05 18.64C33.4724 19.9103 34.2843 21.0152 35.3703 21.7979C36.4563 22.5805 37.7613 23.0011 39.1 23H39.5L40.5 16L41.14 18.24C41.5531 19.6781 42.3459 20.9784 43.4351 22.0043C44.5243 23.0302 45.8697 23.7437 47.33 24.07L48.33 24.3C49.2263 24.4901 50.0301 24.9822 50.6071 25.6939C51.1841 26.4056 51.4993 27.2938 51.5 28.21Z" fill="#FFD4B3"/>
  <path d="M44.5 46C46.7091 46 48.5 44.6569 48.5 43C48.5 41.3431 46.7091 40 44.5 40C42.2909 40 40.5 41.3431 40.5 43C40.5 44.6569 42.2909 46 44.5 46Z" fill="#FFB9A3"/>
  <path d="M20.5 46C22.7091 46 24.5 44.6569 24.5 43C24.5 41.3431 22.7091 40 20.5 40C18.2909 40 16.5 41.3431 16.5 43C16.5 44.6569 18.2909 46 20.5 46Z" fill="#FFB9A3"/>
  <path d="M56.74 36.93C56.2187 37.8616 55.4582 38.6373 54.5371 39.1769C53.616 39.7166 52.5676 40.0007 51.5 40V28H53.5V33C53.4993 33.9295 53.8224 34.8302 54.4136 35.5473C55.0049 36.2645 55.8275 36.7534 56.74 36.93Z" fill="#FFD4B3"/>
  <path d="M8.26025 36.93C8.78158 37.8616 9.54203 38.6373 10.4631 39.1769C11.3843 39.7166 12.4327 40.0007 13.5003 40V28H11.5003V33C11.5009 33.9295 11.1779 34.8302 10.5866 35.5473C9.99536 36.2645 9.1728 36.7534 8.26025 36.93Z" fill="#DA9367"/>
  <path d="M29.6903 49.46L24.7603 49C25.2516 50.88 26.4104 52.5169 28.0203 53.6051C29.6301 54.6933 31.581 55.1583 33.5087 54.9133C35.4363 54.6684 37.209 53.7303 38.4955 52.274C39.7821 50.8178 40.4947 48.9431 40.5003 47C37.2507 48.9498 33.4636 49.8116 29.6903 49.46Z" fill="#CC5144"/>
  <path d="M37.1499 53.4999C35.7975 54.4754 34.1723 55.0004 32.5049 55.0004C30.8374 55.0004 29.2122 54.4754 27.8599 53.4999C30.9207 52.8334 34.0891 52.8334 37.1499 53.4999Z" fill="#FFB9A3"/>
  <path d="M13.5 30V32.7C13.4668 35.013 14.3053 37.2538 15.8486 38.9769C17.392 40.7 19.5273 41.7792 21.83 42C23.5722 42.1278 25.3141 41.7458 26.8429 40.9006C28.3718 40.0554 29.6216 38.7834 30.44 37.24C30.6207 36.8749 30.8981 36.5663 31.2418 36.3477C31.5856 36.1291 31.9827 36.0089 32.39 36H32.61C33.0237 35.9978 33.4299 36.1108 33.7831 36.3262C34.1363 36.5417 34.4226 36.8511 34.61 37.22C35.422 38.759 36.6627 40.0295 38.182 40.8779C39.7012 41.7263 41.4338 42.116 43.17 42C45.4727 41.7792 47.6079 40.7 49.1513 38.9769C50.6947 37.2538 51.5331 35.013 51.5 32.7V30H13.5Z" fill="url(#paint2_linear_3614_7632)"/>
  <path d="M49.4399 38.61C48.5985 39.6778 47.5246 40.5397 46.2999 41.13L35.1699 30H40.8299L49.4399 38.61Z" fill="#FFA24D"/>
  <path d="M29.4999 38.66C28.6451 39.719 27.5613 40.5704 26.3299 41.15L15.1699 30H20.8299L29.4999 38.66Z" fill="#FFA24D"/>
  <path d="M24.0002 48.3498C23.8953 48.4719 23.8215 48.6174 23.7849 48.7741C23.7484 48.9308 23.7502 49.094 23.7902 49.2498C24.341 51.367 25.6442 53.2111 27.456 54.4372C29.2678 55.6634 31.4642 56.1876 33.6345 55.9119C35.8047 55.6361 37.8003 54.5794 39.2479 52.9391C40.6956 51.2989 41.4962 49.1875 41.5002 46.9998C41.5001 46.8233 41.4534 46.65 41.3647 46.4974C41.2759 46.3448 41.1484 46.2184 40.9951 46.1311C40.8417 46.0437 40.6679 45.9985 40.4914 46C40.3149 46.0016 40.142 46.0498 39.9902 46.1398C36.9271 47.9875 33.351 48.8009 29.7902 48.4598L24.8502 47.9998C24.6908 47.9859 24.5305 48.0105 24.3826 48.0714C24.2347 48.1323 24.1035 48.2278 24.0002 48.3498V48.3498ZM29.6002 50.4598C32.9146 50.7725 36.2525 50.196 39.2702 48.7898C38.902 50.1568 38.128 51.38 37.0504 52.298C35.9728 53.216 34.6421 53.7857 33.234 53.9319C31.826 54.0782 30.4066 53.794 29.1634 53.117C27.9201 52.44 26.9113 51.4019 26.2702 50.1398L29.6002 50.4598Z" fill="#39519D"/>
  <path d="M32.5 46C33.2956 46 34.0587 45.6839 34.6213 45.1213C35.1839 44.5587 35.5 43.7956 35.5 43C35.5 42.7348 35.3946 42.4804 35.2071 42.2929C35.0196 42.1054 34.7652 42 34.5 42C34.2348 42 33.9804 42.1054 33.7929 42.2929C33.6054 42.4804 33.5 42.7348 33.5 43C33.5 43.2652 33.3946 43.5196 33.2071 43.7071C33.0196 43.8946 32.7652 44 32.5 44C32.2348 44 31.9804 43.8946 31.7929 43.7071C31.6054 43.5196 31.5 43.2652 31.5 43C31.5 42.7348 31.3946 42.4804 31.2071 42.2929C31.0196 42.1054 30.7652 42 30.5 42C30.2348 42 29.9804 42.1054 29.7929 42.2929C29.6054 42.4804 29.5 42.7348 29.5 43C29.5 43.7956 29.8161 44.5587 30.3787 45.1213C30.9413 45.6839 31.7044 46 32.5 46Z" fill="#39519D"/>
  <path d="M38.7899 33.2899C38.6962 33.3829 38.6218 33.4935 38.571 33.6154C38.5203 33.7372 38.4941 33.8679 38.4941 33.9999C38.4941 34.132 38.5203 34.2627 38.571 34.3845C38.6218 34.5064 38.6962 34.617 38.7899 34.7099L42.2899 38.2099C42.3829 38.3037 42.4935 38.3781 42.6154 38.4288C42.7372 38.4796 42.8679 38.5057 42.9999 38.5057C43.132 38.5057 43.2627 38.4796 43.3845 38.4288C43.5064 38.3781 43.617 38.3037 43.7099 38.2099C43.8037 38.117 43.8781 38.0064 43.9288 37.8845C43.9796 37.7627 44.0057 37.632 44.0057 37.4999C44.0057 37.3679 43.9796 37.2372 43.9288 37.1154C43.8781 36.9935 43.8037 36.8829 43.7099 36.7899L40.2099 33.2899C40.117 33.1962 40.0064 33.1218 39.8845 33.071C39.7627 33.0203 39.632 32.9941 39.4999 32.9941C39.3679 32.9941 39.2372 33.0203 39.1154 33.071C38.9935 33.1218 38.8829 33.1962 38.7899 33.2899V33.2899Z" fill="#39519D"/>
  <path d="M45.7902 36.7097C45.8832 36.8034 45.9938 36.8778 46.1156 36.9286C46.2375 36.9794 46.3682 37.0055 46.5002 37.0055C46.6322 37.0055 46.7629 36.9794 46.8848 36.9286C47.0066 36.8778 47.1172 36.8034 47.2102 36.7097C47.3039 36.6167 47.3783 36.5061 47.4291 36.3843C47.4798 36.2624 47.506 36.1317 47.506 35.9997C47.506 35.8677 47.4798 35.737 47.4291 35.6151C47.3783 35.4933 47.3039 35.3827 47.2102 35.2897L45.2102 33.2897C45.0219 33.1014 44.7665 32.9956 44.5002 32.9956C44.2339 32.9956 43.9785 33.1014 43.7902 33.2897C43.6019 33.478 43.4961 33.7334 43.4961 33.9997C43.4961 34.266 43.6019 34.5214 43.7902 34.7097L45.7902 36.7097Z" fill="#39519D"/>
  <path d="M20.2102 33.2897C20.0219 33.1014 19.7665 32.9956 19.5002 32.9956C19.2339 32.9956 18.9785 33.1014 18.7902 33.2897C18.6019 33.478 18.4961 33.7334 18.4961 33.9997C18.4961 34.266 18.6019 34.5214 18.7902 34.7097L22.2902 38.2097C22.3831 38.3034 22.4937 38.3778 22.6156 38.4286C22.7375 38.4794 22.8682 38.5055 23.0002 38.5055C23.1322 38.5055 23.2629 38.4794 23.3848 38.4286C23.5066 38.3778 23.6172 38.3034 23.7102 38.2097C23.8039 38.1167 23.8783 38.0061 23.9291 37.8843C23.9798 37.7624 24.006 37.6317 24.006 37.4997C24.006 37.3677 23.9798 37.237 23.9291 37.1151C23.8783 36.9933 23.8039 36.8827 23.7102 36.7897L20.2102 33.2897Z" fill="#39519D"/>
  <path d="M26.5002 36.9997C26.6318 37.0005 26.7623 36.9752 26.8841 36.9255C27.0059 36.8757 27.1167 36.8024 27.2102 36.7097C27.3039 36.6167 27.3783 36.5061 27.4291 36.3843C27.4798 36.2624 27.506 36.1317 27.506 35.9997C27.506 35.8677 27.4798 35.737 27.4291 35.6151C27.3783 35.4933 27.3039 35.3827 27.2102 35.2897L25.2102 33.2897C25.0219 33.1014 24.7665 32.9956 24.5002 32.9956C24.2339 32.9956 23.9785 33.1014 23.7902 33.2897C23.6019 33.478 23.4961 33.7334 23.4961 33.9997C23.4961 34.266 23.6019 34.5214 23.7902 34.7097L25.7902 36.7097C25.8836 36.8024 25.9944 36.8757 26.1163 36.9255C26.2381 36.9752 26.3686 37.0005 26.5002 36.9997Z" fill="#39519D"/>
  <path d="M62.5 31.9996C62.5201 25.2616 60.2492 18.717 56.06 13.4396C55.9833 13.3243 55.8836 13.2261 55.767 13.1514C55.6504 13.0766 55.5196 13.0269 55.3828 13.0053C55.246 12.9838 55.1063 12.9909 54.9724 13.0262C54.8385 13.0615 54.7134 13.1242 54.605 13.2103C54.4966 13.2965 54.4072 13.4042 54.3426 13.5267C54.2781 13.6492 54.2396 13.7838 54.2297 13.9219C54.2199 14.06 54.2388 14.1987 54.2853 14.3291C54.3318 14.4595 54.4049 14.5789 54.5 14.6796C58.4076 19.6047 60.5235 25.7126 60.5 31.9996C60.4971 35.6253 59.5983 39.194 57.8833 42.3885C56.1683 45.5829 53.6904 48.3039 50.67 50.3096C51.8723 47.704 52.4966 44.8692 52.5 41.9996V40.9196C54.1646 40.6793 55.687 39.8478 56.7888 38.5771C57.8906 37.3064 58.498 35.6814 58.5 33.9996V31.9996C58.5 30.6735 57.9732 29.4017 57.0355 28.4641C56.0979 27.5264 54.8261 26.9996 53.5 26.9996H52.34C52.1156 26.0992 51.645 25.279 50.9809 24.6309C50.3169 23.9827 49.4856 23.5322 48.58 23.3296L47.58 23.0996C46.2926 22.8204 45.1042 22.1994 44.1398 21.3019C43.1755 20.4044 42.4708 19.2637 42.1 17.9996L41.5 15.7296C41.4138 15.4924 41.2412 15.2965 41.0166 15.1813C40.7921 15.0661 40.5323 15.04 40.2893 15.1083C40.0464 15.1767 39.8383 15.3343 39.7067 15.5497C39.5751 15.7651 39.5299 16.0222 39.58 16.2696L40.22 18.5096C40.6797 20.1241 41.5674 21.5843 42.7891 22.7356C44.0108 23.8869 45.5211 24.6864 47.16 25.0496L48.16 25.2796C48.8249 25.4295 49.4188 25.8014 49.8442 26.334C50.2695 26.8665 50.5008 27.528 50.5 28.2096V28.9996H45.5C45.2348 28.9996 44.9804 29.1049 44.7929 29.2925C44.6054 29.48 44.5 29.7344 44.5 29.9996C44.5 30.2648 44.6054 30.5192 44.7929 30.7067C44.9804 30.8942 45.2348 30.9996 45.5 30.9996H50.5V32.6996C50.5373 34.7604 49.7961 36.7595 48.4245 38.2979C47.0528 39.8364 45.1516 40.8011 43.1 40.9996C41.5503 41.1146 40.0007 40.7759 38.6404 40.0247C37.2801 39.2735 36.168 38.1424 35.44 36.7696C35.1751 36.2441 34.7712 35.8013 34.2723 35.4893C33.7733 35.1772 33.1984 35.0079 32.61 34.9996H32.39C31.8037 35.006 31.2302 35.1723 30.7314 35.4807C30.2327 35.7891 29.8277 36.2279 29.56 36.7496C28.8369 38.1212 27.7307 39.2531 26.3761 40.0077C25.0215 40.7622 23.4769 41.1068 21.93 40.9996C21.7986 40.9901 21.6666 41.0066 21.5417 41.0482C21.4167 41.0899 21.3012 41.1558 21.2017 41.2422C21.1023 41.3286 21.0209 41.4338 20.9623 41.5518C20.9036 41.6698 20.8689 41.7982 20.86 41.9296C20.8505 42.061 20.867 42.193 20.9086 42.3179C20.9503 42.4429 21.0162 42.5584 21.1026 42.6579C21.189 42.7573 21.2943 42.8387 21.4122 42.8973C21.5302 42.956 21.6586 42.9907 21.79 42.9996C23.7189 43.1351 25.6458 42.7085 27.3372 41.7714C29.0286 40.8343 30.4121 39.4269 31.32 37.7196C31.4142 37.5123 31.5641 37.3352 31.7531 37.2081C31.942 37.081 32.1625 37.0088 32.39 36.9996H32.61C32.8343 37.006 33.0526 37.0738 33.2412 37.1954C33.4298 37.317 33.5816 37.4879 33.68 37.6896C34.5305 39.2912 35.8006 40.6315 37.3542 41.5668C38.9078 42.5022 40.6865 42.9974 42.5 42.9996H43.23C44.6717 42.8868 46.0708 42.4572 47.3274 41.7416C48.5841 41.026 49.6673 40.0419 50.5 38.8596V41.9996C50.5 46.7735 48.6036 51.3519 45.2279 54.7275C41.8523 58.1032 37.2739 59.9996 32.5 59.9996C27.7261 59.9996 23.1477 58.1032 19.7721 54.7275C16.3964 51.3519 14.5 46.7735 14.5 41.9996V38.8496C15.3043 39.97 16.3243 40.9186 17.5 41.6396C17.6554 41.7286 17.8309 41.7768 18.01 41.7796C18.1835 41.7796 18.3541 41.7344 18.5049 41.6485C18.6557 41.5625 18.7815 41.4389 18.87 41.2896C19.0052 41.0615 19.0443 40.789 18.9787 40.5321C18.913 40.2752 18.7481 40.0549 18.52 39.9196C17.2852 39.1639 16.2663 38.1023 15.5621 36.8374C14.8578 35.5725 14.492 34.1473 14.5 32.6996V30.9996H41.5C41.7652 30.9996 42.0196 30.8942 42.2071 30.7067C42.3946 30.5192 42.5 30.2648 42.5 29.9996C42.5 29.7344 42.3946 29.48 42.2071 29.2925C42.0196 29.1049 41.7652 28.9996 41.5 28.9996H13.5C13.2348 28.9996 12.9804 29.1049 12.7929 29.2925C12.6054 29.48 12.5 29.7344 12.5 29.9996V38.8996C11.3706 38.6691 10.3556 38.0554 9.62669 37.1625C8.89778 36.2696 8.49976 35.1522 8.5 33.9996V31.9996C8.5 31.2039 8.81607 30.4409 9.37868 29.8783C9.94129 29.3157 10.7044 28.9996 11.5 28.9996H13.4C13.5311 29.0152 13.664 29.0046 13.791 28.9686C13.918 28.9325 14.0366 28.8717 14.14 28.7896C14.2445 28.7086 14.3319 28.6076 14.3971 28.4926C14.4623 28.3776 14.5041 28.2508 14.52 28.1196C14.5788 27.6257 14.7595 27.1542 15.0457 26.7475C15.332 26.3407 15.7149 26.0116 16.16 25.7896C18.2641 24.7291 19.892 22.9155 20.72 20.7096C21.1817 21.6934 21.9141 22.5254 22.8315 23.108C23.7488 23.6907 24.8132 23.9999 25.9 23.9996C27.2696 24.0015 28.6127 23.6216 29.7785 22.9027C30.9443 22.1838 31.8867 21.1543 32.5 19.9296C33.1133 21.1543 34.0557 22.1838 35.2215 22.9027C36.3873 23.6216 37.7304 24.0015 39.1 23.9996H39.5C39.7652 23.9996 40.0196 23.8942 40.2071 23.7067C40.3946 23.5192 40.5 23.2648 40.5 22.9996C40.5 22.7344 40.3946 22.48 40.2071 22.2925C40.0196 22.1049 39.7652 21.9996 39.5 21.9996H39.1C37.971 22.0002 36.8705 21.6449 35.9549 20.9843C35.0394 20.3236 34.3553 19.3912 34 18.3196L33.5 16.6796C33.4342 16.4795 33.307 16.3053 33.1364 16.1818C32.9658 16.0583 32.7606 15.9918 32.55 15.9918C32.3394 15.9918 32.1342 16.0583 31.9636 16.1818C31.793 16.3053 31.6658 16.4795 31.6 16.6796L31.05 18.3196C30.692 19.3994 30.0004 20.3376 29.0748 20.999C28.1492 21.6604 27.0375 22.0108 25.9 21.9996C25.1195 22 24.3587 21.755 23.7252 21.2991C23.0917 20.8433 22.6176 20.1998 22.37 19.4596L21.5 16.6796C21.4304 16.4726 21.295 16.2941 21.1144 16.1713C20.9339 16.0485 20.7181 15.9882 20.5 15.9996C20.276 16.017 20.0644 16.1094 19.8993 16.2618C19.7342 16.4142 19.6253 16.6177 19.59 16.8396L19.29 18.6596C19.0941 19.803 18.6292 20.8834 17.9338 21.8118C17.2383 22.7403 16.3322 23.4901 15.29 23.9996C14.6859 24.3021 14.1494 24.7239 13.7128 25.2395C13.2763 25.7551 12.9487 26.3539 12.75 26.9996H11.5C10.1739 26.9996 8.90215 27.5264 7.96447 28.4641C7.02678 29.4017 6.5 30.6735 6.5 31.9996V33.9996C6.50197 35.6814 7.10941 37.3064 8.21118 38.5771C9.31295 39.8478 10.8354 40.6793 12.5 40.9196V41.9996C12.5044 44.8691 13.1286 47.7037 14.33 50.3096C12.3863 49.0107 10.6585 47.4146 9.21 45.5796C9.04557 45.3714 8.80516 45.237 8.54167 45.2061C8.27818 45.1752 8.01319 45.2502 7.805 45.4146C7.5968 45.579 7.46246 45.8194 7.43151 46.0829C7.40057 46.3464 7.47557 46.6114 7.64 46.8196C9.96119 49.7701 12.9406 52.1365 16.34 53.7296C18.1856 56.2902 20.6132 58.3756 23.4228 59.8139C26.2324 61.2522 29.3436 62.0022 32.5 62.0022C35.6564 62.0022 38.7676 61.2522 41.5772 59.8139C44.3868 58.3756 46.8144 56.2902 48.66 53.7296C52.7888 51.791 56.2817 48.7193 58.732 44.8721C61.1823 41.025 62.489 36.5608 62.5 31.9996V31.9996ZM52.5 29.9996V28.9996H53.5C54.2956 28.9996 55.0587 29.3157 55.6213 29.8783C56.1839 30.4409 56.5 31.2039 56.5 31.9996V33.9996C56.5002 35.1522 56.1022 36.2696 55.3733 37.1625C54.6444 38.0554 53.6294 38.6691 52.5 38.8996V29.9996Z" fill="#39519D"/>
  <path d="M4.5 31.9998C4.5019 26.5115 6.11668 21.1448 9.14364 16.5667C12.1706 11.9886 16.4762 8.40099 21.5254 6.24986C26.5745 4.09872 32.1446 3.47888 37.5431 4.46738C42.9416 5.45588 47.9306 8.00913 51.89 11.8098C52.0847 11.9704 52.3329 12.0515 52.5848 12.0368C52.8368 12.022 53.0738 11.9126 53.2484 11.7304C53.4231 11.5482 53.5223 11.3067 53.5263 11.0543C53.5303 10.802 53.4388 10.5574 53.27 10.3698C49.0277 6.29945 43.683 3.56532 37.8999 2.50709C32.1168 1.44886 26.1502 2.11318 20.7415 4.41751C15.3328 6.72184 10.7203 10.5646 7.47724 15.4683C4.23416 20.3721 2.5034 26.1206 2.5 31.9998C2.50058 35.9506 3.47973 39.8397 5.35 43.3198C5.47511 43.5527 5.68738 43.7266 5.94037 43.8034C6.19336 43.8803 6.46649 43.8538 6.7 43.7298C6.81664 43.6678 6.91986 43.5834 7.00369 43.4814C7.08752 43.3793 7.15031 43.2617 7.18843 43.1352C7.22655 43.0088 7.23924 42.876 7.22578 42.7447C7.21232 42.6133 7.17297 42.4859 7.11 42.3698C5.40037 39.1804 4.50389 35.6185 4.5 31.9998V31.9998Z" fill="#39519D"/>
  <defs>
    <linearGradient id="paint0_linear_3614_7632" x1="89.4643" y1="34.6719" x2="72.0441" y2="-11.8195" gradientUnits="userSpaceOnUse">
      <stop stop-color="#1CB6AC"/>
      <stop offset="0.448142" stop-color="#1CB6AC"/>
      <stop offset="0.453125" stop-color="#20C2A8"/>
      <stop offset="1" stop-color="#24D0A3"/>
    </linearGradient>
    <linearGradient id="paint1_linear_3614_7632" x1="24.377" y1="40.0767" x2="0.243777" y2="36.251" gradientUnits="userSpaceOnUse">
      <stop stop-color="#1CB6AC"/>
      <stop offset="1" stop-color="#24D0A3"/>
    </linearGradient>
    <linearGradient id="paint2_linear_3614_7632" x1="28.3435" y1="30.4697" x2="30.4689" y2="42.1494" gradientUnits="userSpaceOnUse">
      <stop stop-color="#FF9500"/>
      <stop offset="0.510317" stop-color="#FF9500"/>
      <stop offset="0.510417" stop-color="#FF7A00"/>
    </linearGradient>
  </defs>
</svg>
