<svg width="65" height="64" viewBox="0 0 65 64" fill="none" xmlns="http://www.w3.org/2000/svg">
    <path d="M32.5 3C40.1913 3 47.5675 6.05535 53.0061 11.4939C58.4447 16.9325 61.5 24.3087 61.5 32C61.5 38.1 59.0768 43.9501 54.7635 48.2635C50.4501 52.5768 44.6 55 38.5 55H26.5C20.4 55 14.5499 52.5768 10.2365 48.2635C5.92321 43.9501 3.5 38.1 3.5 32V32C3.5 24.3087 6.55535 16.9325 11.9939 11.4939C17.4325 6.05535 24.8087 3 32.5 3V3Z" fill="#1CB6AC"/>
    <path d="M61.5 32.0001C61.5 38.1001 59.0768 43.9503 54.7635 48.2636C50.4501 52.5769 44.6 55.0001 38.5 55.0001H26.5C20.4 55.0001 14.5499 52.5769 10.2365 48.2636C5.92321 43.9503 3.5 38.1001 3.5 32.0001C3.49961 27.6565 4.47498 23.3682 6.35406 19.452C8.23315 15.5359 10.968 12.0918 14.3565 9.37426C17.7451 6.65671 21.7008 4.73505 25.9316 3.75122C30.1623 2.76739 34.5601 2.74652 38.8 3.69014C38.9604 4.70488 39.191 5.70728 39.49 6.69014C40.1486 8.8606 41.1223 10.9226 42.38 12.8101L43.58 14.6101C45.4514 17.4247 48.303 19.4423 51.58 20.2701C52.4427 20.4881 53.2262 20.9455 53.8401 21.5895C54.4541 22.2336 54.8735 23.038 55.05 23.9101C55.1835 24.5635 55.4527 25.1815 55.8403 25.7242C56.2279 26.2668 56.7252 26.722 57.3 27.0601C58.4862 27.7565 59.8346 28.1289 61.21 28.1401C61.3934 29.4188 61.4903 30.7084 61.5 32.0001V32.0001Z" fill="url(#paint0_linear_3614_7584)"/>
    <path d="M31.07 55H26.5C20.4001 55 14.5499 52.5768 10.2366 48.2635C5.92324 43.9501 3.50004 38.1 3.50004 32C3.48986 25.6462 5.5667 19.4648 9.4113 14.4062C13.2559 9.34747 18.6555 5.69143 24.78 4C23.7971 4.75429 22.865 5.57274 21.99 6.45C19.2886 9.14547 17.1476 12.3491 15.6904 15.8762C14.2333 19.4032 13.4888 23.1838 13.5 27C13.5 37.83 20.99 51.28 31.07 55Z" fill="url(#paint1_linear_3614_7584)"/>
    <path d="M32.5 61C27.4609 61 22.6282 58.9982 19.065 55.435C15.5018 51.8718 13.5 47.0391 13.5 42V28.47C13.4995 27.7269 13.706 26.9983 14.0963 26.366C14.4867 25.7336 15.0454 25.2225 15.71 24.89C16.8841 24.304 17.9028 23.4486 18.6832 22.3936C19.4635 21.3387 19.9833 20.1142 20.2 18.82L20.5 17L21.42 19.77C21.7343 20.7098 22.3358 21.5272 23.1396 22.1068C23.9435 22.6863 24.909 22.9988 25.9 23V23C27.2387 23.0011 28.5437 22.5805 29.6297 21.7979C30.7157 21.0152 31.5276 19.9103 31.95 18.64L32.5 17L33.05 18.64C33.4724 19.9103 34.2843 21.0152 35.3703 21.7979C36.4563 22.5805 37.7613 23.0011 39.1 23H39.5L40.5 16L41.14 18.24C41.5531 19.6781 42.3459 20.9784 43.4351 22.0043C44.5243 23.0302 45.8697 23.7437 47.33 24.07L48.33 24.3C49.2263 24.4901 50.0301 24.9822 50.6071 25.6939C51.1841 26.4056 51.4993 27.2938 51.5 28.21V42C51.5 47.0391 49.4982 51.8718 45.935 55.435C42.3718 58.9982 37.5391 61 32.5 61V61Z" fill="#FFF0E4"/>
    <path d="M39.5 35C40.6046 35 41.5 34.1046 41.5 33C41.5 31.8954 40.6046 31 39.5 31C38.3954 31 37.5 31.8954 37.5 33C37.5 34.1046 38.3954 35 39.5 35Z" fill="#FFF2E6"/>
    <path d="M21.5 35C22.6046 35 23.5 34.1046 23.5 33C23.5 31.8954 22.6046 31 21.5 31C20.3954 31 19.5 31.8954 19.5 33C19.5 34.1046 20.3954 35 21.5 35Z" fill="#FFF2E6"/>
    <path d="M11.5 28H13.5V40C11.9087 40 10.3826 39.3679 9.25736 38.2426C8.13214 37.1174 7.5 35.5913 7.5 34V32C7.5 30.9391 7.92143 29.9217 8.67157 29.1716C9.42172 28.4214 10.4391 28 11.5 28V28Z" fill="#FFD4B3"/>
    <path d="M51.5 28H53.5C54.5609 28 55.5783 28.4214 56.3284 29.1716C57.0786 29.9217 57.5 30.9391 57.5 32V34C57.5 35.5913 56.8679 37.1174 55.7426 38.2426C54.6174 39.3679 53.0913 40 51.5 40V28Z" fill="#FFF0E4"/>
    <path d="M51.5 28.21V33.21C51.5013 32.2993 51.1918 31.4154 50.6227 30.7045C50.0536 29.9935 49.2589 29.4981 48.37 29.3L47.37 29.07C45.9097 28.7437 44.5643 28.0302 43.4751 27.0043C42.3859 25.9784 41.5931 24.6781 41.18 23.24L40.5 21L39.5 28H39.1C37.7613 28.0011 36.4563 27.5805 35.3703 26.7979C34.2843 26.0152 33.4724 24.9103 33.05 23.64L32.5 22L31.95 23.64C31.5276 24.9103 30.7157 26.0152 29.6297 26.7979C28.5437 27.5805 27.2387 28.0011 25.9 28C24.909 27.9988 23.9435 27.6863 23.1396 27.1068C22.3358 26.5272 21.7343 25.7098 21.42 24.77L20.64 22.43L20.4 22.58L20.2 23.82C19.9603 25.209 19.3758 26.5156 18.5 27.62V39.5C18.5 44.5391 20.5018 49.3718 24.065 52.935C27.6282 56.4982 32.4609 58.5 37.5 58.5C39.5077 58.4871 41.5002 58.1494 43.4 57.5C40.2183 59.7702 36.4086 60.9935 32.5 61C27.4609 61 22.6282 58.9982 19.065 55.435C15.5018 51.8718 13.5 47.0391 13.5 42V28.47C13.4995 27.7269 13.706 26.9983 14.0963 26.366C14.4867 25.7336 15.0454 25.2225 15.71 24.89C16.8845 24.3046 17.9037 23.4494 18.6842 22.3944C19.4646 21.3393 19.984 20.1144 20.2 18.82L20.5 17L21.42 19.77C21.7343 20.7098 22.3358 21.5272 23.1396 22.1068C23.9435 22.6863 24.909 22.9988 25.9 23C27.239 23.0027 28.5447 22.5826 29.6311 21.7998C30.7174 21.0169 31.5289 19.9111 31.95 18.64L32.5 17L33.05 18.64C33.4724 19.9103 34.2843 21.0152 35.3703 21.7979C36.4563 22.5805 37.7613 23.0011 39.1 23H39.5L40.5 16L41.14 18.24C41.5531 19.6781 42.3459 20.9784 43.4351 22.0043C44.5243 23.0302 45.8697 23.7437 47.33 24.07L48.33 24.3C49.2263 24.4901 50.0301 24.9822 50.6071 25.6939C51.1841 26.4056 51.4993 27.2938 51.5 28.21Z" fill="#FFD4B3"/>
    <path d="M44.5 45C46.7091 45 48.5 43.6569 48.5 42C48.5 40.3431 46.7091 39 44.5 39C42.2909 39 40.5 40.3431 40.5 42C40.5 43.6569 42.2909 45 44.5 45Z" fill="#FFB9A3"/>
    <path d="M20.5 45C22.7091 45 24.5 43.6569 24.5 42C24.5 40.3431 22.7091 39 20.5 39C18.2909 39 16.5 40.3431 16.5 42C16.5 43.6569 18.2909 45 20.5 45Z" fill="#FFB9A3"/>
    <path d="M40.5 34C41.0523 34 41.5 33.5523 41.5 33C41.5 32.4477 41.0523 32 40.5 32C39.9477 32 39.5 32.4477 39.5 33C39.5 33.5523 39.9477 34 40.5 34Z" fill="#FFF2E6"/>
    <path d="M22.5 34C23.0523 34 23.5 33.5523 23.5 33C23.5 32.4477 23.0523 32 22.5 32C21.9477 32 21.5 32.4477 21.5 33C21.5 33.5523 21.9477 34 22.5 34Z" fill="#FFF2E6"/>
    <path d="M56.74 36.93C56.2187 37.8616 55.4582 38.6373 54.5371 39.1769C53.616 39.7166 52.5676 40.0007 51.5 40V28H53.5V33C53.4993 33.9295 53.8224 34.8302 54.4136 35.5473C55.0049 36.2645 55.8275 36.7534 56.74 36.93Z" fill="#FFD4B3"/>
    <path d="M8.26025 36.93C8.78158 37.8616 9.54203 38.6373 10.4631 39.1769C11.3843 39.7166 12.4327 40.0007 13.5003 40V28H11.5003V33C11.5009 33.9295 11.1779 34.8302 10.5866 35.5473C9.99536 36.2645 9.1728 36.7534 8.26025 36.93Z" fill="#DA9367"/>
    <path d="M32.5 46C30.6435 46 28.863 46.7375 27.5503 48.0503C26.2375 49.363 25.5 51.1435 25.5 53V54C27.54 52.5349 29.9884 51.7468 32.5 51.7468C35.0116 51.7468 37.46 52.5349 39.5 54V53C39.5 51.1435 38.7625 49.363 37.4497 48.0503C36.137 46.7375 34.3565 46 32.5 46V46Z" fill="#CC5144"/>
    <path d="M32.5 43C33.2956 43 34.0587 42.6839 34.6213 42.1213C35.1839 41.5587 35.5 40.7956 35.5 40C35.5 39.7348 35.3946 39.4804 35.2071 39.2929C35.0196 39.1054 34.7652 39 34.5 39C34.2348 39 33.9804 39.1054 33.7929 39.2929C33.6054 39.4804 33.5 39.7348 33.5 40C33.5 40.2652 33.3946 40.5196 33.2071 40.7071C33.0196 40.8946 32.7652 41 32.5 41C32.2348 41 31.9804 40.8946 31.7929 40.7071C31.6054 40.5196 31.5 40.2652 31.5 40C31.5 39.7348 31.3946 39.4804 31.2071 39.2929C31.0196 39.1054 30.7652 39 30.5 39C30.2348 39 29.9804 39.1054 29.7929 39.2929C29.6054 39.4804 29.5 39.7348 29.5 40C29.5 40.7956 29.8161 41.5587 30.3787 42.1213C30.9413 42.6839 31.7044 43 32.5 43Z" fill="#39519D"/>
    <path d="M46.5 41H42.5C42.2348 41 41.9804 41.1054 41.7929 41.2929C41.6054 41.4804 41.5 41.7348 41.5 42C41.5 42.2652 41.6054 42.5196 41.7929 42.7071C41.9804 42.8946 42.2348 43 42.5 43H46.5C46.7652 43 47.0196 42.8946 47.2071 42.7071C47.3946 42.5196 47.5 42.2652 47.5 42C47.5 41.7348 47.3946 41.4804 47.2071 41.2929C47.0196 41.1054 46.7652 41 46.5 41Z" fill="#39519D"/>
    <path d="M18.5 41C18.2348 41 17.9804 41.1054 17.7929 41.2929C17.6054 41.4804 17.5 41.7348 17.5 42C17.5 42.2652 17.6054 42.5196 17.7929 42.7071C17.9804 42.8946 18.2348 43 18.5 43H22.5C22.7652 43 23.0196 42.8946 23.2071 42.7071C23.3946 42.5196 23.5 42.2652 23.5 42C23.5 41.7348 23.3946 41.4804 23.2071 41.2929C23.0196 41.1054 22.7652 41 22.5 41H18.5Z" fill="#39519D"/>
    <path d="M46.5 30H36.5C36.2348 30 35.9804 30.1054 35.7929 30.2929C35.6054 30.4804 35.5 30.7348 35.5 31C35.5 31.2652 35.6054 31.5196 35.7929 31.7071C35.9804 31.8946 36.2348 32 36.5 32H36.68C36.5155 32.4531 36.4627 32.9392 36.5259 33.4171C36.5892 33.895 36.7666 34.3506 37.0433 34.7454C37.32 35.1401 37.6877 35.4624 38.1154 35.6849C38.543 35.9074 39.0179 36.0235 39.5 36.0235C39.9821 36.0235 40.457 35.9074 40.8846 35.6849C41.3123 35.4624 41.68 35.1401 41.9567 34.7454C42.2334 34.3506 42.4108 33.895 42.4741 33.4171C42.5373 32.9392 42.4845 32.4531 42.32 32H46.5C46.7652 32 47.0196 31.8946 47.2071 31.7071C47.3946 31.5196 47.5 31.2652 47.5 31C47.5 30.7348 47.3946 30.4804 47.2071 30.2929C47.0196 30.1054 46.7652 30 46.5 30ZM40.5 33C40.5 33.1978 40.4414 33.3911 40.3315 33.5556C40.2216 33.72 40.0654 33.8482 39.8827 33.9239C39.7 33.9996 39.4989 34.0194 39.3049 33.9808C39.1109 33.9422 38.9327 33.847 38.7929 33.7071C38.653 33.5673 38.5578 33.3891 38.5192 33.1951C38.4806 33.0011 38.5004 32.8 38.5761 32.6173C38.6518 32.4346 38.78 32.2784 38.9444 32.1685C39.1089 32.0586 39.3022 32 39.5 32C39.7652 32 40.0196 32.1054 40.2071 32.2929C40.3946 32.4804 40.5 32.7348 40.5 33Z" fill="#39519D"/>
    <path d="M24.5 33C24.4973 32.6589 24.4364 32.3207 24.32 32H28.5C28.7652 32 29.0196 31.8946 29.2071 31.7071C29.3946 31.5196 29.5 31.2652 29.5 31C29.5 30.7348 29.3946 30.4804 29.2071 30.2929C29.0196 30.1054 28.7652 30 28.5 30H18.5C18.2348 30 17.9804 30.1054 17.7929 30.2929C17.6054 30.4804 17.5 30.7348 17.5 31C17.5 31.2652 17.6054 31.5196 17.7929 31.7071C17.9804 31.8946 18.2348 32 18.5 32H18.68C18.5303 32.4126 18.4729 32.853 18.512 33.2902C18.551 33.7274 18.6856 34.1507 18.906 34.5302C19.1265 34.9098 19.4276 35.2363 19.788 35.4868C20.1485 35.7373 20.5595 35.9056 20.9921 35.9799C21.4247 36.0543 21.8683 36.0328 22.2917 35.917C22.715 35.8011 23.1078 35.5938 23.4424 35.3097C23.7769 35.0255 24.045 34.6714 24.2277 34.2723C24.4105 33.8732 24.5034 33.4389 24.5 33V33ZM21.5 34C21.3022 34 21.1089 33.9414 20.9444 33.8315C20.78 33.7216 20.6518 33.5654 20.5761 33.3827C20.5004 33.2 20.4806 32.9989 20.5192 32.8049C20.5578 32.6109 20.653 32.4327 20.7929 32.2929C20.9327 32.153 21.1109 32.0578 21.3049 32.0192C21.4989 31.9806 21.7 32.0004 21.8827 32.0761C22.0654 32.1518 22.2216 32.28 22.3315 32.4444C22.4414 32.6089 22.5 32.8022 22.5 33C22.5 33.2652 22.3946 33.5196 22.2071 33.7071C22.0196 33.8946 21.7652 34 21.5 34Z" fill="#39519D"/>
    <path d="M31.5 55C31.2348 55 30.9804 55.1054 30.7929 55.2929C30.6054 55.4804 30.5 55.7348 30.5 56C30.5 56.2652 30.6054 56.5196 30.7929 56.7071C30.9804 56.8946 31.2348 57 31.5 57H33.5C33.7652 57 34.0196 56.8946 34.2071 56.7071C34.3946 56.5196 34.5 56.2652 34.5 56C34.5 55.7348 34.3946 55.4804 34.2071 55.2929C34.0196 55.1054 33.7652 55 33.5 55H31.5Z" fill="#39519D"/>
    <path d="M62.5 31.9997C62.5201 25.2617 60.2492 18.7171 56.06 13.4397C55.986 13.3195 55.8875 13.2164 55.7709 13.137C55.6542 13.0577 55.5221 13.0039 55.3832 12.9793C55.2443 12.9546 55.1017 12.9596 54.9649 12.994C54.828 13.0283 54.7 13.0912 54.5892 13.1786C54.4785 13.2659 54.3874 13.3758 54.3221 13.5008C54.2567 13.6258 54.2186 13.7633 54.2102 13.9041C54.2018 14.045 54.2232 14.186 54.2732 14.3179C54.3231 14.4499 54.4004 14.5697 54.5 14.6697C58.4062 19.5994 60.5218 25.71 60.5 31.9997C60.4971 35.6254 59.5983 39.1941 57.8833 42.3885C56.1683 45.583 53.6904 48.304 50.67 50.3097C51.8723 47.7041 52.4966 44.8693 52.5 41.9997V40.9197C54.1646 40.6794 55.687 39.8479 56.7888 38.5772C57.8906 37.3064 58.498 35.6815 58.5 33.9997V31.9997C58.5 30.6736 57.9732 29.4018 57.0355 28.4641C56.0979 27.5265 54.8261 26.9997 53.5 26.9997H52.34C52.1156 26.0993 51.645 25.2791 50.9809 24.631C50.3169 23.9828 49.4856 23.5323 48.58 23.3297L47.58 23.0997C46.2926 22.8205 45.1042 22.1995 44.1398 21.302C43.1755 20.4045 42.4708 19.2638 42.1 17.9997L41.5 15.7297C41.4138 15.4925 41.2412 15.2966 41.0166 15.1814C40.7921 15.0662 40.5323 15.0401 40.2893 15.1084C40.0464 15.1768 39.8383 15.3344 39.7067 15.5498C39.5751 15.7652 39.5299 16.0223 39.58 16.2697L40.22 18.5097C40.6797 20.1242 41.5674 21.5844 42.7891 22.7357C44.0108 23.887 45.5211 24.6865 47.16 25.0497L48.16 25.2797C48.8249 25.4296 49.4188 25.8015 49.8442 26.3341C50.2695 26.8666 50.5008 27.5281 50.5 28.2097V41.9997C50.5 46.7736 48.6036 51.3519 45.2279 54.7276C41.8523 58.1033 37.2739 59.9997 32.5 59.9997C27.7261 59.9997 23.1477 58.1033 19.7721 54.7276C16.3964 51.3519 14.5 46.7736 14.5 41.9997V31.9997C14.5 31.7345 14.3946 31.4801 14.2071 31.2926C14.0196 31.105 13.7652 30.9997 13.5 30.9997C13.2348 30.9997 12.9804 31.105 12.7929 31.2926C12.6054 31.4801 12.5 31.7345 12.5 31.9997V38.8997C11.3706 38.6692 10.3556 38.0555 9.62669 37.1626C8.89778 36.2697 8.49976 35.1523 8.5 33.9997V31.9997C8.5 31.204 8.81607 30.441 9.37868 29.8784C9.94129 29.3158 10.7044 28.9997 11.5 28.9997H13.42C13.6824 29.0278 13.9452 28.9511 14.1512 28.7862C14.3573 28.6214 14.4898 28.3818 14.52 28.1197C14.5788 27.6258 14.7595 27.1543 15.0457 26.7476C15.332 26.3408 15.7149 26.0117 16.16 25.7897C18.2641 24.7292 19.892 22.9156 20.72 20.7097C21.1817 21.6935 21.9141 22.5255 22.8315 23.1081C23.7488 23.6908 24.8132 24 25.9 23.9997C27.2696 24.0016 28.6127 23.6217 29.7785 22.9028C30.9443 22.1839 31.8867 21.1544 32.5 19.9297C33.1133 21.1544 34.0557 22.1839 35.2215 22.9028C36.3873 23.6217 37.7304 24.0016 39.1 23.9997H39.5C39.7652 23.9997 40.0196 23.8943 40.2071 23.7068C40.3946 23.5193 40.5 23.2649 40.5 22.9997C40.5 22.7345 40.3946 22.4801 40.2071 22.2926C40.0196 22.105 39.7652 21.9997 39.5 21.9997H39.1C37.971 22.0003 36.8705 21.645 35.9549 20.9844C35.0394 20.3237 34.3553 19.3913 34 18.3197L33.5 16.6797C33.4342 16.4796 33.307 16.3054 33.1364 16.1819C32.9658 16.0584 32.7606 15.9919 32.55 15.9919C32.3394 15.9919 32.1342 16.0584 31.9636 16.1819C31.793 16.3054 31.6658 16.4796 31.6 16.6797L31.05 18.3197C30.692 19.3995 30.0004 20.3377 29.0748 20.9991C28.1492 21.6605 27.0375 22.0109 25.9 21.9997C25.1195 22.0001 24.3587 21.7551 23.7252 21.2992C23.0917 20.8434 22.6176 20.1998 22.37 19.4597L21.5 16.6797C21.4304 16.4727 21.295 16.2942 21.1144 16.1714C20.9339 16.0486 20.7181 15.9883 20.5 15.9997C20.276 16.0171 20.0644 16.1095 19.8993 16.2619C19.7342 16.4143 19.6253 16.6178 19.59 16.8397L19.29 18.6597C19.0941 19.803 18.6292 20.8835 17.9338 21.8119C17.2383 22.7404 16.3322 23.4902 15.29 23.9997C14.6859 24.3022 14.1494 24.724 13.7128 25.2396C13.2763 25.7552 12.9487 26.354 12.75 26.9997H11.5C10.1739 26.9997 8.90215 27.5265 7.96447 28.4641C7.02678 29.4018 6.5 30.6736 6.5 31.9997V33.9997C6.50197 35.6815 7.10941 37.3064 8.21118 38.5772C9.31295 39.8479 10.8354 40.6794 12.5 40.9197V41.9997C12.5044 44.8692 13.1286 47.7038 14.33 50.3097C12.3863 49.0108 10.6585 47.4146 9.21 45.5797C9.04557 45.3715 8.80516 45.2371 8.54167 45.2062C8.27818 45.1753 8.01319 45.2503 7.805 45.4147C7.5968 45.5791 7.46246 45.8195 7.43151 46.083C7.40057 46.3465 7.47557 46.6115 7.64 46.8197C9.96119 49.7702 12.9406 52.1366 16.34 53.7297C18.1856 56.2903 20.6132 58.3757 23.4228 59.814C26.2324 61.2523 29.3436 62.0023 32.5 62.0023C35.6564 62.0023 38.7676 61.2523 41.5772 59.814C44.3868 58.3757 46.8144 56.2903 48.66 53.7297C52.7888 51.7911 56.2817 48.7194 58.732 44.8722C61.1823 41.0251 62.489 36.5609 62.5 31.9997V31.9997ZM56.5 31.9997V33.9997C56.5002 35.1523 56.1022 36.2697 55.3733 37.1626C54.6444 38.0555 53.6294 38.6692 52.5 38.8997V28.9997H53.5C54.2956 28.9997 55.0587 29.3158 55.6213 29.8784C56.1839 30.441 56.5 31.204 56.5 31.9997V31.9997Z" fill="#39519D"/>
    <path d="M4.5 31.9998C4.5019 26.5115 6.11668 21.1448 9.14364 16.5667C12.1706 11.9886 16.4762 8.40099 21.5254 6.24986C26.5745 4.09872 32.1446 3.47888 37.5431 4.46738C42.9416 5.45588 47.9306 8.00913 51.89 11.8098C52.0847 11.9704 52.3329 12.0515 52.5848 12.0368C52.8368 12.022 53.0738 11.9126 53.2484 11.7304C53.4231 11.5482 53.5223 11.3067 53.5263 11.0543C53.5303 10.802 53.4388 10.5574 53.27 10.3698C49.0277 6.29945 43.683 3.56532 37.8999 2.50709C32.1168 1.44886 26.1502 2.11318 20.7415 4.41751C15.3328 6.72184 10.7203 10.5646 7.47724 15.4683C4.23416 20.3721 2.5034 26.1206 2.5 31.9998C2.50058 35.9506 3.47973 39.8397 5.35 43.3198C5.48439 43.5345 5.6953 43.6903 5.94009 43.7556C6.18489 43.8208 6.44534 43.7907 6.66881 43.6714C6.89228 43.552 7.06212 43.3523 7.14402 43.1125C7.22591 42.8728 7.21375 42.6109 7.11 42.3798C5.39878 39.1874 4.50225 35.6219 4.5 31.9998V31.9998Z" fill="#39519D"/>
    <path d="M39.5 55C39.7652 55 40.0196 54.8946 40.2071 54.7071C40.3946 54.5196 40.5 54.2652 40.5 54V53C40.5 50.8783 39.6571 48.8434 38.1569 47.3431C36.6566 45.8429 34.6217 45 32.5 45C30.3783 45 28.3434 45.8429 26.8431 47.3431C25.3429 48.8434 24.5 50.8783 24.5 53V54C24.4996 54.1836 24.5498 54.3638 24.6451 54.5208C24.7403 54.6778 24.877 54.8055 25.04 54.89C25.1832 54.9605 25.3404 54.9981 25.5 55C25.7091 55.0029 25.9132 54.9361 26.08 54.81C27.4043 53.8609 28.9229 53.2179 30.526 52.9274C32.1292 52.6368 33.7769 52.706 35.35 53.13C35.4783 53.1693 35.6132 53.1824 35.7467 53.1685C35.8802 53.1546 36.0095 53.114 36.127 53.0491C36.2444 52.9841 36.3476 52.8962 36.4304 52.7905C36.5131 52.6849 36.5738 52.5637 36.6087 52.4341C36.6436 52.3045 36.6521 52.1692 36.6336 52.0363C36.6151 51.9033 36.5701 51.7755 36.5011 51.6603C36.4322 51.5452 36.3408 51.4451 36.2324 51.366C36.1239 51.2869 36.0007 51.2305 35.87 51.2C32.7471 50.3628 29.4242 50.7193 26.55 52.2C26.7466 50.686 27.5128 49.3039 28.6928 48.3352C29.8727 47.3664 31.3776 46.8839 32.9008 46.9859C34.4241 47.0879 35.8512 47.7667 36.8915 48.8841C37.9318 50.0014 38.507 51.4733 38.5 53V54C38.5 54.2652 38.6054 54.5196 38.7929 54.7071C38.9804 54.8946 39.2348 55 39.5 55Z" fill="#39519D"/>
    <defs>
        <linearGradient id="paint0_linear_3614_7584" x1="89.4643" y1="34.6719" x2="72.0441" y2="-11.8195" gradientUnits="userSpaceOnUse">
            <stop stop-color="#1CB6AC"/>
            <stop offset="0.448142" stop-color="#1CB6AC"/>
            <stop offset="0.453125" stop-color="#20C2A8"/>
            <stop offset="1" stop-color="#24D0A3"/>
        </linearGradient>
        <linearGradient id="paint1_linear_3614_7584" x1="24.377" y1="40.0767" x2="0.243777" y2="36.251" gradientUnits="userSpaceOnUse">
            <stop stop-color="#1CB6AC"/>
            <stop offset="1" stop-color="#24D0A3"/>
        </linearGradient>
    </defs>
</svg>
