<svg width="40" height="40" viewBox="0 0 40 40" fill="none" xmlns="http://www.w3.org/2000/svg">
    <mask id="mask0_4618_13493" style="mask-type:alpha" maskUnits="userSpaceOnUse" x="-1" y="0" width="41" height="40">
        <path d="M-0.0446777 0H15.9553C29.2102 0 39.9553 10.7452 39.9553 24V40H-0.0446777V0Z" fill="#F2F4F9"/>
    </mask>
    <g mask="url(#mask0_4618_13493)">
        <path d="M57.4553 8.29574C57.4553 23.2074 57.9553 25.9253 33.9553 33.2957C9.95532 40.6662 2.45532 27.5001 2.45532 7.29574C2.45532 -30.5001 14.7675 -18.7043 29.9553 -18.7043C45.1432 -18.7043 57.4553 -6.61595 57.4553 8.29574Z" fill="#D3D6DD"/>
    </g>
    <path d="M25.6219 14.616V13.6667C25.6219 11.0893 23.5326 9 20.9552 9C18.3779 9 16.2886 11.0893 16.2886 13.6667V14.616C15.0753 15.1455 14.2903 16.3428 14.2886 17.6667V21.6667C14.2908 23.5067 15.7819 24.9978 17.6219 25H24.2885C26.1286 24.9978 27.6197 23.5067 27.6219 21.6667V17.6667C27.6202 16.3428 26.8352 15.1455 25.6219 14.616ZM21.6219 20.3333C21.6219 20.7015 21.3234 21 20.9552 21C20.587 21 20.2886 20.7015 20.2886 20.3333V19C20.2886 18.6318 20.587 18.3333 20.9552 18.3333C21.3234 18.3333 21.6219 18.6318 21.6219 19V20.3333ZM24.2886 14.3333H17.6219V13.6667C17.6219 11.8257 19.1143 10.3333 20.9552 10.3333C22.7962 10.3333 24.2886 11.8257 24.2886 13.6667V14.3333Z" fill="white"/>
</svg>
