<svg width="40" height="40" viewBox="0 0 40 40" fill="none" xmlns="http://www.w3.org/2000/svg">
    <mask id="mask0_4618_18813" style="mask-type:alpha" maskUnits="userSpaceOnUse" x="0" y="0" width="40" height="39">
        <path d="M0.955322 0H15.9553C29.2102 0 39.9553 10.7452 39.9553 24V39H0.955322V0Z" fill="#F2F4F9"/>
    </mask>
    <g mask="url(#mask0_4618_18813)">
        <path d="M56.4553 8.29574C56.4553 23.2074 56.9553 25.9253 32.9553 33.2957C8.95532 40.6662 1.45532 27.5001 1.45532 7.29574C1.45532 -30.5001 13.7675 -18.7043 28.9553 -18.7043C44.1432 -18.7043 56.4553 -6.61595 56.4553 8.29574Z" fill="#34C659"/>
    </g>
    <path fill-rule="evenodd" clip-rule="evenodd" d="M27.9915 13.7637C28.1602 13.9325 28.255 14.1613 28.255 14.4C28.255 14.6386 28.1602 14.8675 27.9915 15.0363L20.7915 22.2363C20.6227 22.405 20.3938 22.4998 20.1552 22.4998C19.9166 22.4998 19.6877 22.405 19.5189 22.2363L15.9189 18.6363C15.755 18.4665 15.6642 18.2392 15.6663 18.0032C15.6683 17.7673 15.763 17.5415 15.9299 17.3747C16.0967 17.2078 16.3225 17.1131 16.5584 17.1111C16.7944 17.109 17.0218 17.1997 17.1915 17.3637L20.1552 20.3274L26.7189 13.7637C26.8877 13.595 27.1166 13.5002 27.3552 13.5002C27.5938 13.5002 27.8227 13.595 27.9915 13.7637Z" fill="white"/>
</svg>
