<svg width="24" height="25" viewBox="0 0 24 25" fill="none" xmlns="http://www.w3.org/2000/svg">
    <g clip-path="url(#clip0_2512_6201)">
        <path d="M20.8 4.79307C20.6093 4.62304 20.3606 4.53247 20.1052 4.53998C19.8498 4.54749 19.6069 4.6525 19.4265 4.83345C19.2461 5.01439 19.1417 5.25755 19.135 5.513C19.1282 5.76845 19.2194 6.0168 19.39 6.20707C21.0562 7.87755 21.992 10.1407 21.992 12.5001C21.992 14.8595 21.0562 17.1226 19.39 18.7931C19.2885 18.8836 19.2065 18.9939 19.149 19.1172C19.0915 19.2405 19.0598 19.3742 19.0559 19.5102C19.0519 19.6461 19.0756 19.7815 19.1258 19.908C19.1759 20.0344 19.2513 20.1493 19.3473 20.2456C19.4434 20.342 19.5581 20.4177 19.6844 20.4682C19.8107 20.5186 19.946 20.5428 20.082 20.5392C20.218 20.5356 20.3518 20.5043 20.4752 20.4472C20.5987 20.39 20.7092 20.3084 20.8 20.2071C22.8412 18.1615 23.9875 15.3898 23.9875 12.5001C23.9875 9.61033 22.8412 6.83861 20.8 4.79307Z" fill="#2C1167"/>
        <path d="M18.0929 7.79308C18.0007 7.69757 17.8903 7.62139 17.7683 7.56898C17.6463 7.51657 17.5151 7.48898 17.3823 7.48783C17.2496 7.48668 17.1179 7.51198 16.995 7.56226C16.8721 7.61254 16.7604 7.68679 16.6666 7.78069C16.5727 7.87458 16.4984 7.98623 16.4481 8.10913C16.3978 8.23202 16.3725 8.3637 16.3737 8.49648C16.3748 8.62926 16.4024 8.76048 16.4548 8.88249C16.5073 9.00449 16.5834 9.11483 16.6789 9.20708C17.5506 10.0813 18.0401 11.2655 18.0401 12.5001C18.0401 13.7346 17.5506 14.9188 16.6789 15.7931C16.5834 15.8853 16.5073 15.9957 16.4548 16.1177C16.4024 16.2397 16.3748 16.3709 16.3737 16.5037C16.3725 16.6365 16.3978 16.7681 16.4481 16.891C16.4984 17.0139 16.5727 17.1256 16.6666 17.2195C16.7604 17.3134 16.8721 17.3876 16.995 17.4379C17.1179 17.4882 17.2496 17.5135 17.3823 17.5123C17.5151 17.5112 17.6463 17.4836 17.7683 17.4312C17.8903 17.3788 18.0007 17.3026 18.0929 17.2071C19.3393 15.9576 20.0392 14.2649 20.0392 12.5001C20.0392 10.7353 19.3393 9.04253 18.0929 7.79308Z" fill="#2C1167"/>
        <path d="M13.819 0.706947C10.7805 1.27727 8.07729 2.99315 6.268 5.49995H5C3.6744 5.50153 2.40356 6.02883 1.46622 6.96617C0.528882 7.90351 0.00158786 9.17435 0 10.4999L0 14.4999C0.00158786 15.8255 0.528882 17.0964 1.46622 18.0337C2.40356 18.9711 3.6744 19.4984 5 19.4999H6.269C8.07777 22.0068 10.7807 23.7228 13.819 24.2929C13.9632 24.3195 14.1114 24.314 14.2533 24.2769C14.3951 24.2397 14.527 24.1719 14.6397 24.0781C14.7524 23.9843 14.8431 23.8668 14.9054 23.7341C14.9676 23.6014 14.9999 23.4566 15 23.3099V1.68995C14.9999 1.54333 14.9676 1.39853 14.9054 1.26579C14.8431 1.13305 14.7524 1.01563 14.6397 0.921835C14.527 0.828042 14.3951 0.760173 14.2533 0.723038C14.1114 0.685903 13.9632 0.68041 13.819 0.706947Z" fill="#2C1167"/>
    </g>
    <defs>
        <clipPath id="clip0_2512_6201">
            <rect width="24" height="24" fill="white" transform="translate(0 0.5)"/>
        </clipPath>
    </defs>
</svg>
