<svg width="59" height="59" viewBox="0 0 59 59" fill="none" xmlns="http://www.w3.org/2000/svg">
    <rect width="59" height="59" rx="16" fill="#F9F9F9"/>
    <mask id="path-2-inside-1_2895_21191" fill="white">
        <path d="M18.3437 12.5C15.1044 12.5036 11.9988 13.8081 9.70816 16.1273C7.4175 18.4465 6.12889 21.591 6.125 24.871C6.125 28.0567 8.56116 33.0423 13.3661 39.689C13.9382 40.4825 14.6871 41.128 15.5521 41.573C16.417 42.018 17.3735 42.25 18.3437 42.25C19.314 42.25 20.2705 42.018 21.1354 41.573C22.0004 41.128 22.7493 40.4825 23.3214 39.689C28.1263 33.0423 30.5625 28.0567 30.5625 24.871C30.5586 21.591 29.27 18.4465 26.9793 16.1273C24.6887 13.8081 21.5831 12.5036 18.3437 12.5ZM18.3437 29.8021C17.3753 29.8021 16.4285 29.5113 15.6232 28.9664C14.818 28.4216 14.1903 27.6472 13.8197 26.7412C13.4491 25.8352 13.3521 24.8382 13.541 23.8764C13.73 22.9146 14.1964 22.0311 14.8812 21.3377C15.566 20.6442 16.4385 20.172 17.3884 19.9807C18.3383 19.7894 19.3229 19.8876 20.2177 20.2629C21.1124 20.6381 21.8772 21.2737 22.4153 22.0891C22.9534 22.9044 23.2406 23.8631 23.2406 24.8438C23.2406 26.1588 22.7246 27.4199 21.8063 28.3498C20.888 29.2797 19.6425 29.8021 18.3437 29.8021Z"/>
    </mask>
    <path d="M18.3437 12.5C15.1044 12.5036 11.9988 13.8081 9.70816 16.1273C7.4175 18.4465 6.12889 21.591 6.125 24.871C6.125 28.0567 8.56116 33.0423 13.3661 39.689C13.9382 40.4825 14.6871 41.128 15.5521 41.573C16.417 42.018 17.3735 42.25 18.3437 42.25C19.314 42.25 20.2705 42.018 21.1354 41.573C22.0004 41.128 22.7493 40.4825 23.3214 39.689C28.1263 33.0423 30.5625 28.0567 30.5625 24.871C30.5586 21.591 29.27 18.4465 26.9793 16.1273C24.6887 13.8081 21.5831 12.5036 18.3437 12.5ZM18.3437 29.8021C17.3753 29.8021 16.4285 29.5113 15.6232 28.9664C14.818 28.4216 14.1903 27.6472 13.8197 26.7412C13.4491 25.8352 13.3521 24.8382 13.541 23.8764C13.73 22.9146 14.1964 22.0311 14.8812 21.3377C15.566 20.6442 16.4385 20.172 17.3884 19.9807C18.3383 19.7894 19.3229 19.8876 20.2177 20.2629C21.1124 20.6381 21.8772 21.2737 22.4153 22.0891C22.9534 22.9044 23.2406 23.8631 23.2406 24.8438C23.2406 26.1588 22.7246 27.4199 21.8063 28.3498C20.888 29.2797 19.6425 29.8021 18.3437 29.8021Z" fill="#253255"/>
    <path d="M18.3437 12.5L18.3675 -8.83332L18.3437 -8.83335L18.32 -8.83332L18.3437 12.5ZM6.125 24.871L-15.2083 24.8457L-15.2083 24.8584V24.871H6.125ZM13.3661 39.689L30.6716 27.2137L30.6632 27.2021L30.6549 27.1906L13.3661 39.689ZM18.3437 42.25V20.9167V42.25ZM23.3214 39.689L6.03259 27.1906L6.02425 27.2021L6.01592 27.2137L23.3214 39.689ZM30.5625 24.871H51.8958V24.8584L51.8958 24.8457L30.5625 24.871ZM18.3437 29.8021V51.1354V29.8021ZM23.2406 24.8438H44.5739H23.2406ZM18.32 -8.83332C9.34486 -8.82332 0.794636 -5.20656 -5.46991 1.13605L24.8862 31.1185C23.203 32.8228 20.864 33.8305 18.3675 33.8333L18.32 -8.83332ZM-5.46991 1.13605C-11.7256 7.4697 -15.1978 16.0014 -15.2083 24.8457L27.4583 24.8963C27.4556 27.1806 26.5606 29.4233 24.8862 31.1185L-5.46991 1.13605ZM-15.2083 24.871C-15.2083 31.2789 -12.9559 36.8033 -11.2235 40.3485C-9.28929 44.3067 -6.73295 48.2999 -3.92261 52.1874L30.6549 27.1906C28.6603 24.4314 27.596 22.6085 27.1109 21.6158C26.8795 21.1422 26.9138 21.1275 27.027 21.508C27.1262 21.841 27.4583 23.0434 27.4583 24.871H-15.2083ZM-3.93928 52.1643C-1.41103 55.6714 1.91749 58.5493 5.79197 60.5428L25.3122 22.6033C27.4568 23.7067 29.2874 25.2935 30.6716 27.2137L-3.93928 52.1643ZM5.79197 60.5428C9.66771 62.5369 13.9693 63.5833 18.3437 63.5833V20.9167C20.7778 20.9167 23.1664 21.4992 25.3122 22.6033L5.79197 60.5428ZM18.3437 63.5833C22.7182 63.5833 27.0198 62.5369 30.8955 60.5428L11.3753 22.6033C13.5211 21.4992 15.9097 20.9167 18.3437 20.9167V63.5833ZM30.8955 60.5428C34.77 58.5493 38.0985 55.6714 40.6268 52.1643L6.01592 27.2137C7.40013 25.2935 9.23073 23.7067 11.3753 22.6033L30.8955 60.5428ZM40.6101 52.1874C43.4204 48.2999 45.9768 44.3067 47.911 40.3485C49.6434 36.8033 51.8958 31.2789 51.8958 24.871H9.22917C9.22917 23.0434 9.56129 21.841 9.66046 21.508C9.77373 21.1275 9.808 21.1422 9.57657 21.6158C9.09147 22.6085 8.02724 24.4314 6.03259 27.1906L40.6101 52.1874ZM51.8958 24.8457C51.8853 16.0014 48.4131 7.4697 42.1574 1.13605L11.8013 31.1185C10.1269 29.4233 9.23189 27.1806 9.22918 24.8963L51.8958 24.8457ZM42.1574 1.13605C35.8929 -5.20656 27.3426 -8.82332 18.3675 -8.83332L18.32 33.8333C15.8235 33.8305 13.4845 32.8228 11.8013 31.1185L42.1574 1.13605ZM18.3437 8.46874C21.6543 8.46874 24.8683 9.46409 27.5777 11.2972L3.66872 46.6357C7.98873 49.5585 13.0962 51.1354 18.3437 51.1354V8.46874ZM27.5777 11.2972C30.284 13.1282 32.3533 15.7024 33.5648 18.664L-5.92543 34.8184C-3.97266 39.5921 -0.648074 43.715 3.66872 46.6357L27.5777 11.2972ZM33.5648 18.664C34.7753 21.6232 35.088 24.8644 34.4743 27.9886L-7.39221 19.7642C-8.38384 24.8121 -7.87721 30.0472 -5.92543 34.8184L33.5648 18.664ZM34.4743 27.9886C33.8603 31.1142 32.3383 34.0213 30.06 36.3282L-0.297632 6.3472C-3.94556 10.041 -6.40032 14.715 -7.39221 19.7642L34.4743 27.9886ZM30.06 36.3282C27.7789 38.6379 24.8401 40.2416 21.6006 40.8941L13.1762 -0.932662C8.03694 0.102451 3.35312 2.65059 -0.297632 6.3472L30.06 36.3282ZM21.6006 40.8941C18.3594 41.5469 15.0027 41.2094 11.9665 39.9359L28.4689 0.589814C23.6431 -1.43421 18.3172 -1.96812 13.1762 -0.932662L21.6006 40.8941ZM11.9665 39.9359C8.93306 38.6636 6.38351 36.5275 4.60937 33.839L40.2212 10.3391C37.3709 6.01982 33.2918 2.61264 28.4689 0.589814L11.9665 39.9359ZM4.60937 33.839C2.83718 31.1534 1.90722 28.0236 1.90722 24.8438H44.5739C44.5739 19.7026 43.0695 14.6555 40.2212 10.3391L4.60937 33.839ZM1.90722 24.8438C1.90722 20.5862 3.57504 16.4501 6.62749 13.3593L36.9851 43.3403C41.8742 38.3898 44.5739 31.7314 44.5739 24.8438H1.90722ZM6.62749 13.3593C9.68885 10.2595 13.898 8.46874 18.3437 8.46874V51.1354C25.387 51.1354 32.0871 48.2999 36.9851 43.3403L6.62749 13.3593Z" fill="#253255" mask="url(#path-2-inside-1_2895_21191)"/>
    <path d="M41.1875 12.5H52.5769C52.6291 12.4999 52.6804 12.514 52.7256 12.5408C52.7708 12.5677 52.8084 12.6063 52.8347 12.6529C52.8609 12.6996 52.8748 12.7525 52.875 12.8064C52.8752 12.8603 52.8617 12.9133 52.8358 12.9601L50.7094 16.8059L52.8358 20.6517C52.8617 20.6985 52.8752 20.7516 52.875 20.8055C52.8748 20.8594 52.8609 20.9123 52.8347 20.9589C52.8084 21.0055 52.7708 21.0442 52.7256 21.071C52.6804 21.0979 52.6291 21.1119 52.5769 21.1118H42.3777V24.1875H41.1875V12.5Z" fill="url(#paint0_linear_2895_21191)"/>
    <path fill-rule="evenodd" clip-rule="evenodd" d="M42.161 12.5C42.7478 12.5 43.2235 12.9757 43.2235 13.5625V24.8293C43.2235 25.4161 42.7478 25.8918 42.161 25.8918C41.5742 25.8918 41.0985 25.4161 41.0985 24.8293V13.5625C41.0985 12.9757 41.5742 12.5 42.161 12.5ZM42.161 27.1755C42.7478 27.1755 43.2235 27.6512 43.2235 28.238V29.9424C43.2235 30.5292 42.7478 31.0049 42.161 31.0049H40.1041C39.5173 31.0049 39.0416 30.5292 39.0416 29.9424C39.0416 29.3556 39.5173 28.8799 40.1041 28.8799H41.0985V28.238C41.0985 27.6512 41.5742 27.1755 42.161 27.1755ZM32.8707 29.9424C32.8707 29.3556 33.3464 28.8799 33.9332 28.8799H35.9902C36.577 28.8799 37.0527 29.3556 37.0527 29.9424C37.0527 30.5292 36.577 31.0049 35.9902 31.0049H34.9957V31.8503C34.9957 32.4372 34.52 32.9128 33.9332 32.9128C33.3464 32.9128 32.8707 32.4372 32.8707 31.8503V29.9424ZM33.9332 34.6038C34.52 34.6038 34.9957 35.0795 34.9957 35.6663V36.5118H35.6369C36.2237 36.5118 36.6994 36.9875 36.6994 37.5743C36.6994 38.1611 36.2237 38.6368 35.6369 38.6368H33.9332C33.3464 38.6368 32.8707 38.1611 32.8707 37.5743V35.6663C32.8707 35.0795 33.3464 34.6038 33.9332 34.6038ZM37.9817 37.5743C37.9817 36.9875 38.4574 36.5118 39.0442 36.5118H42.4515C43.0383 36.5118 43.514 36.9875 43.514 37.5743C43.514 38.1611 43.0383 38.6368 42.4515 38.6368H39.0442C38.4574 38.6368 37.9817 38.1611 37.9817 37.5743ZM44.7964 37.5743C44.7964 36.9875 45.272 36.5118 45.8589 36.5118H47.5625C48.1493 36.5118 48.625 36.9875 48.625 37.5743V39.5401C48.625 40.1269 48.1493 40.6026 47.5625 40.6026C46.9757 40.6026 46.5 40.1269 46.5 39.5401V38.6368H45.8589C45.272 38.6368 44.7964 38.1611 44.7964 37.5743ZM47.5625 42.4092C48.1493 42.4092 48.625 42.8849 48.625 43.4717V45.4375C48.625 46.0243 48.1493 46.5 47.5625 46.5H45.7031C45.1163 46.5 44.6406 46.0243 44.6406 45.4375C44.6406 44.8507 45.1163 44.375 45.7031 44.375H46.5V43.4717C46.5 42.8849 46.9757 42.4092 47.5625 42.4092ZM16.75 45.4375C16.75 44.8507 17.2257 44.375 17.8125 44.375H19.6719C20.2587 44.375 20.7344 44.8507 20.7344 45.4375C20.7344 46.0243 20.2587 46.5 19.6719 46.5H17.8125C17.2257 46.5 16.75 46.0243 16.75 45.4375ZM22.3281 45.4375C22.3281 44.8507 22.8038 44.375 23.3906 44.375H27.1094C27.6962 44.375 28.1719 44.8507 28.1719 45.4375C28.1719 46.0243 27.6962 46.5 27.1094 46.5H23.3906C22.8038 46.5 22.3281 46.0243 22.3281 45.4375ZM29.7656 45.4375C29.7656 44.8507 30.2413 44.375 30.8281 44.375H34.5469C35.1337 44.375 35.6094 44.8507 35.6094 45.4375C35.6094 46.0243 35.1337 46.5 34.5469 46.5H30.8281C30.2413 46.5 29.7656 46.0243 29.7656 45.4375ZM37.2031 45.4375C37.2031 44.8507 37.6788 44.375 38.2656 44.375H41.9844C42.5712 44.375 43.0469 44.8507 43.0469 45.4375C43.0469 46.0243 42.5712 46.5 41.9844 46.5H38.2656C37.6788 46.5 37.2031 46.0243 37.2031 45.4375Z" fill="#253255"/>
    <defs>
        <linearGradient id="paint0_linear_2895_21191" x1="56.6317" y1="21.7438" x2="50.274" y2="9.2554" gradientUnits="userSpaceOnUse">
            <stop stop-color="#FFA800"/>
            <stop offset="0.478967" stop-color="#FFB800"/>
            <stop offset="0.479067" stop-color="#FFB800"/>
            <stop offset="0.479167" stop-color="#FFC700"/>
            <stop offset="1" stop-color="#FFC700"/>
        </linearGradient>
    </defs>
</svg>
