<svg width="40" height="40" viewBox="0 0 40 40" fill="none" xmlns="http://www.w3.org/2000/svg">
    <path d="M20 1.875C24.807 1.875 29.4172 3.78459 32.8163 7.18369C36.2154 10.5828 38.125 15.193 38.125 20C38.125 23.8125 36.6105 27.4688 33.9147 30.1647C31.2188 32.8605 27.5625 34.375 23.75 34.375H16.25C12.4375 34.375 8.78118 32.8605 6.08534 30.1647C3.3895 27.4688 1.875 23.8125 1.875 20C1.875 15.193 3.78459 10.5828 7.18369 7.18369C10.5828 3.78459 15.193 1.875 20 1.875Z" fill="#1CB6AC"/>
    <path d="M38.125 19.9999C38.125 23.8124 36.6105 27.4687 33.9147 30.1646C31.2188 32.8604 27.5625 34.3749 23.75 34.3749H16.25C12.4375 34.3749 8.78118 32.8604 6.08534 30.1646C3.3895 27.4687 1.875 23.8124 1.875 19.9999C1.87476 17.2851 2.48436 14.605 3.65879 12.1573C4.83322 9.70973 6.54247 7.55721 8.66031 5.85873C10.7782 4.16026 13.2505 2.95922 15.8947 2.34433C18.539 1.72944 21.2875 1.71639 23.9375 2.30615C24.0378 2.94037 24.1818 3.56687 24.3688 4.18115C24.7804 5.53769 25.3889 6.82644 26.175 8.00615L26.925 9.13115C28.0946 10.8903 29.8769 12.1512 31.925 12.6687C32.4642 12.8049 32.9539 13.0907 33.3376 13.4933C33.7213 13.8958 33.9834 14.3986 34.0938 14.9437C34.1772 15.352 34.3455 15.7383 34.5877 16.0774C34.83 16.4166 35.1408 16.7011 35.5 16.9124C36.2414 17.3476 37.0841 17.5804 37.9437 17.5874C38.0584 18.3866 38.1189 19.1926 38.125 19.9999Z" fill="url(#paint0_linear_3503_27123)"/>
    <path d="M19.1063 34.375H16.25C12.4375 34.375 8.7812 32.8605 6.08536 30.1647C3.38953 27.4688 1.87502 23.8125 1.87502 20C1.86867 16.0289 3.16669 12.1655 5.56956 9.00385C7.97244 5.84217 11.3472 3.55714 15.175 2.5C14.5607 2.97143 13.9781 3.48296 13.4313 4.03125C11.7429 5.71592 10.4047 7.7182 9.49401 9.9226C8.58329 12.127 8.11801 14.4899 8.12502 16.875C8.12502 23.6437 12.8063 32.05 19.1063 34.375Z" fill="url(#paint1_linear_3503_27123)"/>
    <path d="M20 38.125C16.8506 38.125 13.8301 36.8739 11.6031 34.6469C9.37611 32.4199 8.125 29.3994 8.125 26.25V17.7937C8.12467 17.3293 8.25372 16.8739 8.49769 16.4787C8.74166 16.0835 9.0909 15.7641 9.50625 15.5562C10.24 15.19 10.8768 14.6554 11.3645 13.996C11.8522 13.3367 12.177 12.5713 12.3125 11.7625L12.5 10.625L13.075 12.3563C13.2714 12.9436 13.6474 13.4545 14.1498 13.8167C14.6522 14.179 15.2556 14.3742 15.875 14.375C16.7117 14.3757 17.5273 14.1128 18.2061 13.6237C18.8848 13.1345 19.3922 12.4439 19.6563 11.65L20 10.625L20.3438 11.65C20.6078 12.4439 21.1152 13.1345 21.7939 13.6237C22.4727 14.1128 23.2883 14.3757 24.125 14.375H24.375L25 10L25.4 11.4C25.6582 12.2988 26.1537 13.1115 26.8344 13.7527C27.5152 14.3939 28.3561 14.8398 29.2688 15.0437L29.8938 15.1875C30.4539 15.3063 30.9563 15.6139 31.317 16.0587C31.6776 16.5035 31.8746 17.0586 31.875 17.6312V26.25C31.875 29.3994 30.6239 32.4199 28.3969 34.6469C26.1699 36.8739 23.1494 38.125 20 38.125Z" fill="#FFF0E4"/>
    <path d="M6.875 17.5H8.125V25C7.13044 25 6.17661 24.6049 5.47335 23.9017C4.77009 23.1984 4.375 22.2446 4.375 21.25V20C4.375 19.337 4.63839 18.7011 5.10723 18.2322C5.57607 17.7634 6.21196 17.5 6.875 17.5Z" fill="#FFD4B3"/>
    <path d="M31.875 17.5H33.125C33.788 17.5 34.4239 17.7634 34.8928 18.2322C35.3616 18.7011 35.625 19.337 35.625 20V21.25C35.625 22.2446 35.2299 23.1984 34.5267 23.9017C33.8234 24.6049 32.8696 25 31.875 25V17.5Z" fill="#FFF0E4"/>
    <path d="M31.875 17.6312V20.7562C31.8758 20.1871 31.6824 19.6347 31.3267 19.1903C30.971 18.746 30.4743 18.4363 29.9188 18.3125L29.2938 18.1687C28.3811 17.9648 27.5402 17.5189 26.8594 16.8777C26.1787 16.2365 25.6832 15.4238 25.425 14.525L25 13.125L24.375 17.5H24.125C23.2883 17.5007 22.4727 17.2378 21.7939 16.7487C21.1152 16.2595 20.6078 15.5689 20.3438 14.775L20 13.75L19.6563 14.775C19.3923 15.5689 18.8848 16.2595 18.2061 16.7487C17.5273 17.2378 16.7117 17.5007 15.875 17.5C15.2556 17.4992 14.6522 17.304 14.1498 16.9417C13.6474 16.5795 13.2714 16.0686 13.075 15.4813L12.5875 14.0188L12.4375 14.1125L12.3125 14.8875C12.1627 15.7556 11.7974 16.5722 11.25 17.2625V24.6875C11.25 27.8369 12.5011 30.8574 14.7281 33.0844C16.9551 35.3114 19.9756 36.5625 23.125 36.5625C24.3798 36.5544 25.6251 36.3434 26.8125 35.9375C24.8239 37.3564 22.4429 38.121 20 38.125C16.8506 38.125 13.8301 36.8739 11.6031 34.6469C9.37611 32.4199 8.125 29.3994 8.125 26.25V17.7937C8.12467 17.3293 8.25372 16.8739 8.49769 16.4787C8.74166 16.0835 9.0909 15.7641 9.50625 15.5562C10.2403 15.1904 10.8773 14.6559 11.3651 13.9965C11.8529 13.3371 12.1775 12.5715 12.3125 11.7625L12.5 10.625L13.075 12.3563C13.2714 12.9436 13.6474 13.4545 14.1498 13.8167C14.6522 14.179 15.2556 14.3742 15.875 14.375C16.7119 14.3767 17.528 14.1141 18.2069 13.6248C18.8859 13.1355 19.3931 12.4444 19.6563 11.65L20 10.625L20.3438 11.65C20.6078 12.4439 21.1152 13.1345 21.7939 13.6237C22.4727 14.1128 23.2883 14.3757 24.125 14.375H24.375L25 10L25.4 11.4C25.6582 12.2988 26.1537 13.1115 26.8344 13.7527C27.5152 14.3939 28.3561 14.8398 29.2688 15.0437L29.8938 15.1875C30.4539 15.3063 30.9563 15.6139 31.317 16.0587C31.6776 16.5035 31.8746 17.0586 31.875 17.6312Z" fill="#FFD4B3"/>
    <path d="M26.875 27.5C28.6009 27.5 30 26.6605 30 25.625C30 24.5895 28.6009 23.75 26.875 23.75C25.1491 23.75 23.75 24.5895 23.75 25.625C23.75 26.6605 25.1491 27.5 26.875 27.5Z" fill="#FFB9A3"/>
    <path d="M13.75 27.5C15.4759 27.5 16.875 26.6605 16.875 25.625C16.875 24.5895 15.4759 23.75 13.75 23.75C12.0241 23.75 10.625 24.5895 10.625 25.625C10.625 26.6605 12.0241 27.5 13.75 27.5Z" fill="#FFB9A3"/>
    <path d="M35.15 23.0812C34.8242 23.6635 34.3489 24.1483 33.7732 24.4856C33.1975 24.8229 32.5422 25.0005 31.875 25V17.5H33.125V20.625C33.1246 21.2059 33.3265 21.7689 33.696 22.2171C34.0656 22.6653 34.5797 22.9709 35.15 23.0812Z" fill="#FFD4B3"/>
    <path d="M4.8501 23.0812C5.17593 23.6635 5.65121 24.1483 6.22691 24.4856C6.8026 24.8229 7.45787 25.0005 8.1251 25V17.5H6.8751V20.625C6.87551 21.2059 6.67361 21.7689 6.30407 22.2171C5.93454 22.6653 5.42044 22.9709 4.8501 23.0812Z" fill="#DA9367"/>
    <path d="M28.2124 20.2687L25.6249 22.8562L23.0374 20.2687C22.7177 19.921 22.5447 19.4631 22.5546 18.9908C22.5645 18.5186 22.7565 18.0684 23.0906 17.7344C23.4246 17.4003 23.8748 17.2083 24.347 17.1984C24.8193 17.1885 25.2772 17.3615 25.6249 17.6812C25.9726 17.3615 26.4305 17.1885 26.9027 17.1984C27.375 17.2083 27.8252 17.4003 28.1592 17.7344C28.4932 18.0684 28.6853 18.5186 28.6952 18.9908C28.7051 19.4631 28.5321 19.921 28.2124 20.2687Z" fill="#F8664F"/>
    <path d="M16.9624 20.2687L14.3749 22.8562L11.7874 20.2687C11.4677 19.921 11.2947 19.4631 11.3046 18.9908C11.3145 18.5186 11.5065 18.0684 11.8406 17.7344C12.1746 17.4003 12.6248 17.2083 13.097 17.1984C13.5693 17.1885 14.0272 17.3615 14.3749 17.6812C14.7226 17.3615 15.1805 17.1885 15.6527 17.1984C16.125 17.2083 16.5752 17.4003 16.9092 17.7344C17.2432 18.0684 17.4353 18.5186 17.4452 18.9908C17.4551 19.4631 17.2821 19.921 16.9624 20.2687Z" fill="#F8664F"/>
    <path d="M20 35C18.8397 35 17.7269 34.5391 16.9064 33.7186C16.0859 32.8981 15.625 31.7853 15.625 30.625V29.375C18.4842 28.5563 21.5158 28.5563 24.375 29.375V30.625C24.375 31.7853 23.9141 32.8981 23.0936 33.7186C22.2731 34.5391 21.1603 35 20 35Z" fill="#CC5144"/>
    <path d="M23.2936 33.4998C22.8829 33.9695 22.3766 34.346 21.8085 34.6039C21.2404 34.8618 20.6237 34.9952 19.9998 34.9952C19.3759 34.9952 18.7592 34.8618 18.1911 34.6039C17.623 34.346 17.1167 33.9695 16.7061 33.4998C17.0813 32.9813 17.5775 32.5622 18.1515 32.279C18.7255 31.9958 19.36 31.8571 19.9998 31.8748C20.6396 31.8571 21.2741 31.9958 21.8481 32.279C22.4221 32.5622 22.9183 32.9813 23.2936 33.4998Z" fill="#FFB9A3"/>
    <path d="M27.5 19.375C27.8452 19.375 28.125 19.0952 28.125 18.75C28.125 18.4048 27.8452 18.125 27.5 18.125C27.1548 18.125 26.875 18.4048 26.875 18.75C26.875 19.0952 27.1548 19.375 27.5 19.375Z" fill="#FFB9A3"/>
    <path d="M16.25 19.375C16.5952 19.375 16.875 19.0952 16.875 18.75C16.875 18.4048 16.5952 18.125 16.25 18.125C15.9048 18.125 15.625 18.4048 15.625 18.75C15.625 19.0952 15.9048 19.375 16.25 19.375Z" fill="#FFB9A3"/>
    <path d="M21.875 24.375C21.875 24.2092 21.8092 24.0503 21.6919 23.9331C21.5747 23.8158 21.4158 23.75 21.25 23.75C21.0842 23.75 20.9253 23.8158 20.8081 23.9331C20.6908 24.0503 20.625 24.2092 20.625 24.375C20.625 24.5408 20.5592 24.6997 20.4419 24.8169C20.3247 24.9342 20.1658 25 20 25C19.8342 25 19.6753 24.9342 19.5581 24.8169C19.4408 24.6997 19.375 24.5408 19.375 24.375C19.375 24.2092 19.3092 24.0503 19.1919 23.9331C19.0747 23.8158 18.9158 23.75 18.75 23.75C18.5842 23.75 18.4253 23.8158 18.3081 23.9331C18.1908 24.0503 18.125 24.2092 18.125 24.375C18.125 24.8723 18.3225 25.3492 18.6742 25.7008C19.0258 26.0525 19.5027 26.25 20 26.25C20.4973 26.25 20.9742 26.0525 21.3258 25.7008C21.6775 25.3492 21.875 24.8723 21.875 24.375Z" fill="#39519D"/>
    <path d="M25.625 16.8749C25.1128 16.5567 24.5015 16.438 23.9075 16.5414C23.3135 16.6449 22.7783 16.9632 22.4038 17.4357C22.0293 17.9083 21.8417 18.5021 21.8767 19.104C21.9117 19.706 22.167 20.274 22.5938 20.6999L25.1813 23.2874C25.2394 23.346 25.3085 23.3925 25.3846 23.4242C25.4608 23.4559 25.5425 23.4723 25.625 23.4723C25.7075 23.4723 25.7892 23.4559 25.8654 23.4242C25.9415 23.3925 26.0107 23.346 26.0688 23.2874C26.1273 23.2293 26.1738 23.1602 26.2056 23.084C26.2373 23.0078 26.2536 22.9262 26.2536 22.8436C26.2536 22.7611 26.2373 22.6794 26.2056 22.6033C26.1738 22.5271 26.1273 22.458 26.0688 22.3999L23.475 19.8124C23.3446 19.7052 23.2381 19.5717 23.1626 19.4208C23.087 19.2698 23.0439 19.1046 23.0362 18.936C23.0284 18.7673 23.0562 18.5989 23.1176 18.4416C23.1791 18.2844 23.2729 18.1418 23.3929 18.023C23.513 17.9043 23.6566 17.8121 23.8145 17.7524C23.9725 17.6927 24.1412 17.6668 24.3097 17.6764C24.4783 17.686 24.643 17.7309 24.7931 17.8081C24.9432 17.8854 25.0755 17.9933 25.1813 18.1249C25.2394 18.1835 25.3085 18.23 25.3846 18.2617C25.4608 18.2934 25.5425 18.3098 25.625 18.3098C25.7075 18.3098 25.7892 18.2934 25.8654 18.2617C25.9415 18.23 26.0107 18.1835 26.0688 18.1249C26.1808 18.0129 26.3138 17.924 26.4602 17.8634C26.6066 17.8027 26.7634 17.7715 26.9219 17.7715C27.0803 17.7715 27.2372 17.8027 27.3836 17.8634C27.53 17.924 27.663 18.0129 27.775 18.1249C27.887 18.2369 27.9759 18.3699 28.0365 18.5163C28.0972 18.6627 28.1284 18.8196 28.1284 18.978C28.1284 19.1365 28.0972 19.2934 28.0365 19.4397C27.9759 19.5861 27.887 19.7191 27.775 19.8311L26.6375 20.9686C26.5173 21.083 26.4475 21.2405 26.4434 21.4063C26.4393 21.5722 26.5013 21.7328 26.6156 21.853C26.73 21.9732 26.8874 22.043 27.0533 22.0471C27.2191 22.0512 27.3798 21.9893 27.5 21.8749L28.6375 20.7436C29.1066 20.3299 29.4001 19.7529 29.4583 19.1302C29.5165 18.5074 29.335 17.886 28.9507 17.3925C28.5665 16.899 28.0084 16.5707 27.3905 16.4745C26.7725 16.3784 26.1411 16.5215 25.625 16.8749Z" fill="#39519D"/>
    <path d="M23.2437 32.5C22.3536 31.7006 21.1994 31.2584 20.003 31.2584C18.8067 31.2584 17.6525 31.7006 16.7624 32.5C16.6136 32.25 16.4941 31.9836 16.4062 31.7063C16.3865 31.6232 16.35 31.5451 16.299 31.4766C16.248 31.4082 16.1835 31.351 16.1095 31.3084C16.0355 31.2659 15.9536 31.239 15.8687 31.2293C15.7839 31.2196 15.6981 31.2274 15.6164 31.2522C15.5347 31.277 15.459 31.3183 15.3939 31.3735C15.3288 31.4287 15.2757 31.4966 15.2378 31.5731C15.2 31.6496 15.1782 31.7331 15.1738 31.8183C15.1694 31.9036 15.1826 31.9888 15.2124 32.0688C15.5585 33.2177 16.3063 34.2038 17.3191 34.8472C18.332 35.4905 19.5425 35.7482 20.7296 35.5731C21.9167 35.398 23.0012 34.8018 23.7852 33.8934C24.5691 32.985 25.0003 31.8249 24.9999 30.625V29.375C25.0051 29.2347 24.9629 29.0968 24.8802 28.9834C24.7974 28.87 24.6789 28.7878 24.5437 28.75C21.5741 27.9001 18.4257 27.9001 15.4562 28.75C15.3741 28.7722 15.2972 28.8103 15.2298 28.8622C15.1625 28.914 15.106 28.9787 15.0637 29.0524C15.0213 29.1261 14.9939 29.2074 14.9829 29.2917C14.972 29.376 14.9778 29.4617 14.9999 29.5438C15.0221 29.6258 15.0602 29.7027 15.1121 29.7701C15.164 29.8374 15.2286 29.8939 15.3023 29.9363C15.376 29.9786 15.4573 30.0061 15.5416 30.017C15.626 30.0279 15.7116 30.0222 15.7937 30C18.3864 29.2497 21.1317 29.2001 23.7499 29.8563V30.625C23.7488 31.2836 23.5741 31.9303 23.2437 32.5ZM17.5624 33.45C18.2176 32.8239 19.0938 32.4824 19.9999 32.5C20.9102 32.4861 21.7897 32.8294 22.4499 33.4563C21.7745 34.0504 20.9057 34.3781 20.0062 34.3781C19.1066 34.3781 18.2379 34.0504 17.5624 33.4563V33.45Z" fill="#39519D"/>
    <path d="M26.3189 24.7188L25.6939 25.9688C25.6198 26.1164 25.6071 26.2873 25.6586 26.4443C25.7102 26.6012 25.8217 26.7314 25.9689 26.8063C26.0554 26.8526 26.1521 26.8762 26.2502 26.875C26.3656 26.8747 26.4787 26.8424 26.5768 26.7817C26.675 26.721 26.7545 26.6344 26.8064 26.5313L27.4314 25.2813C27.4921 25.1356 27.4954 24.9724 27.4407 24.8243C27.386 24.6763 27.2773 24.5545 27.1365 24.4833C26.9956 24.4121 26.8331 24.3968 26.6814 24.4404C26.5298 24.4841 26.4003 24.5836 26.3189 24.7188Z" fill="#39519D"/>
    <path d="M28.5252 25.3L28.1939 25.9688C28.1198 26.1164 28.1071 26.2873 28.1586 26.4443C28.2102 26.6012 28.3217 26.7313 28.4689 26.8063C28.5554 26.8525 28.6521 26.8762 28.7502 26.875C28.8656 26.8747 28.9787 26.8424 29.0768 26.7817C29.175 26.721 29.2545 26.6343 29.3064 26.5313L29.6439 25.8563C29.6838 25.7827 29.7085 25.7018 29.7166 25.6185C29.7246 25.5352 29.7158 25.4511 29.6908 25.3713C29.6657 25.2914 29.6249 25.2174 29.5706 25.1536C29.5164 25.0899 29.45 25.0376 29.3752 25C29.3 24.9622 29.2179 24.9399 29.1339 24.9346C29.0499 24.9293 28.9657 24.941 28.8863 24.969C28.8069 24.997 28.734 25.0408 28.6719 25.0976C28.6099 25.1545 28.56 25.2234 28.5252 25.3Z" fill="#39519D"/>
    <path d="M10.3689 25.3687L10.0689 25.9937C9.99479 26.1413 9.9821 26.3123 10.0336 26.4692C10.0852 26.6262 10.1967 26.7563 10.3439 26.8312C10.4326 26.8689 10.5292 26.8839 10.6252 26.875C10.7406 26.8746 10.8537 26.8423 10.9518 26.7817C11.05 26.721 11.1295 26.6343 11.1814 26.5312L11.4877 25.9062C11.5251 25.8325 11.5476 25.752 11.5537 25.6695C11.5598 25.587 11.5495 25.5041 11.5233 25.4256C11.4972 25.3471 11.4557 25.2746 11.4013 25.2123C11.3469 25.1499 11.2807 25.099 11.2064 25.0625C11.1315 25.0268 11.0501 25.0065 10.9672 25.0026C10.8843 24.9988 10.8014 25.0115 10.7234 25.04C10.6455 25.0685 10.574 25.1122 10.5131 25.1687C10.4522 25.2251 10.4032 25.2931 10.3689 25.3687Z" fill="#39519D"/>
    <path d="M13.1939 24.7188L12.5689 25.9688C12.4948 26.1164 12.4821 26.2873 12.5336 26.4443C12.5852 26.6012 12.6967 26.7314 12.8439 26.8063C12.9304 26.8526 13.0271 26.8762 13.1252 26.875C13.2406 26.8747 13.3537 26.8424 13.4518 26.7817C13.55 26.721 13.6295 26.6344 13.6814 26.5313L14.3064 25.2813C14.3671 25.1356 14.3704 24.9724 14.3157 24.8243C14.261 24.6763 14.1523 24.5545 14.0115 24.4833C13.8706 24.4121 13.7081 24.3968 13.5564 24.4404C13.4048 24.4841 13.2753 24.5836 13.1939 24.7188Z" fill="#39519D"/>
    <path d="M23.7502 26.8749C23.8656 26.8745 23.9787 26.8422 24.0768 26.7816C24.175 26.7209 24.2545 26.6342 24.3064 26.5311L24.6002 25.9499C24.6739 25.8015 24.6856 25.63 24.6329 25.4729C24.5801 25.3159 24.4672 25.1862 24.3189 25.1124C24.1713 25.0382 24.0004 25.0256 23.8434 25.0771C23.6865 25.1286 23.5564 25.2402 23.4814 25.3874L23.1939 25.9686C23.1198 26.1162 23.1071 26.2872 23.1586 26.4441C23.2102 26.6011 23.3217 26.7312 23.4689 26.8061C23.5554 26.8524 23.6521 26.8761 23.7502 26.8749Z" fill="#39519D"/>
    <path d="M15.3439 26.8062C15.4304 26.8525 15.5271 26.8762 15.6252 26.875C15.7406 26.8746 15.8537 26.8423 15.9518 26.7817C16.05 26.721 16.1295 26.6343 16.1814 26.5312L16.4752 25.9437C16.543 25.7961 16.5506 25.6279 16.4966 25.4748C16.4425 25.3216 16.3309 25.1955 16.1855 25.1232C16.04 25.0509 15.8722 25.0381 15.7174 25.0874C15.5627 25.1367 15.4332 25.2443 15.3564 25.3875L15.0689 25.9687C14.9948 26.1163 14.9821 26.2873 15.0336 26.4442C15.0852 26.6012 15.1967 26.7313 15.3439 26.8062Z" fill="#39519D"/>
    <path d="M38.75 19.9999C38.7625 15.7887 37.3432 11.6982 34.725 8.39987C34.6771 8.32779 34.6147 8.26645 34.5419 8.21973C34.469 8.17301 34.3873 8.14193 34.3018 8.12847C34.2163 8.115 34.1289 8.11943 34.0452 8.14148C33.9615 8.16354 33.8833 8.20273 33.8156 8.25658C33.7478 8.31044 33.692 8.37777 33.6517 8.45433C33.6113 8.53089 33.5873 8.61499 33.5811 8.70132C33.5749 8.78764 33.5868 8.87431 33.6158 8.95582C33.6449 9.03734 33.6906 9.11193 33.75 9.17487C36.1922 12.2531 37.5147 16.0705 37.5 19.9999C37.4982 22.2659 36.9364 24.4964 35.8645 26.4929C34.7927 28.4894 33.244 30.1901 31.3562 31.4436C32.1077 29.8151 32.4979 28.0434 32.5 26.2499V25.5749C33.5404 25.4247 34.4919 24.905 35.1805 24.1108C35.8691 23.3166 36.2488 22.301 36.25 21.2499V19.9999C36.25 19.1711 35.9208 18.3762 35.3347 17.7902C34.7487 17.2041 33.9538 16.8749 33.125 16.8749H32.4C32.2597 16.3121 31.9656 15.7995 31.5506 15.3944C31.1355 14.9893 30.616 14.7077 30.05 14.5811L29.425 14.4374C28.6204 14.2629 27.8776 13.8747 27.2749 13.3138C26.6722 12.7529 26.2318 12.0399 26 11.2499L25.625 9.83112C25.5711 9.68286 25.4632 9.56044 25.3229 9.48842C25.1826 9.41641 25.0202 9.40012 24.8683 9.44283C24.7165 9.48553 24.5864 9.58408 24.5042 9.71869C24.422 9.8533 24.3937 10.014 24.425 10.1686L24.825 11.5686C25.1123 12.5777 25.6671 13.4903 26.4307 14.2099C27.1943 14.9294 28.1382 15.4291 29.1625 15.6561L29.7875 15.7999C30.203 15.8936 30.5743 16.126 30.8401 16.4588C31.1059 16.7917 31.2505 17.2051 31.25 17.6311V26.2499C31.25 29.2336 30.0647 32.095 27.955 34.2048C25.8452 36.3146 22.9837 37.4999 20 37.4999C17.0163 37.4999 14.1548 36.3146 12.045 34.2048C9.93526 32.095 8.75 29.2336 8.75 26.2499V19.9999C8.75 19.8341 8.68415 19.6751 8.56694 19.5579C8.44973 19.4407 8.29076 19.3749 8.125 19.3749C7.95924 19.3749 7.80027 19.4407 7.68306 19.5579C7.56585 19.6751 7.5 19.8341 7.5 19.9999V24.3124C6.79415 24.1683 6.15975 23.7848 5.70418 23.2267C5.24861 22.6686 4.99985 21.9703 5 21.2499V19.9999C5 19.5026 5.19754 19.0257 5.54917 18.674C5.90081 18.3224 6.37772 18.1249 6.875 18.1249H8.0625C8.14444 18.1346 8.22749 18.128 8.30687 18.1055C8.38626 18.083 8.46039 18.0449 8.525 17.9936C8.5903 17.943 8.64492 17.8799 8.68569 17.808C8.72645 17.7361 8.75256 17.6569 8.7625 17.5749C8.79925 17.2662 8.91216 16.9715 9.09108 16.7173C9.27001 16.4631 9.50932 16.2574 9.7875 16.1186C11.1026 15.4558 12.12 14.3223 12.6375 12.9436C12.9261 13.5585 13.3838 14.0785 13.9572 14.4426C14.5305 14.8068 15.1958 15.0001 15.875 14.9999C16.731 15.001 17.5704 14.7636 18.2991 14.3143C19.0277 13.865 19.6167 13.2215 20 12.4561C20.3833 13.2215 20.9723 13.865 21.7009 14.3143C22.4296 14.7636 23.269 15.001 24.125 14.9999H24.375C24.5408 14.9999 24.6997 14.934 24.8169 14.8168C24.9342 14.6996 25 14.5406 25 14.3749C25 14.2091 24.9342 14.0501 24.8169 13.9329C24.6997 13.8157 24.5408 13.7499 24.375 13.7499H24.125C23.4194 13.7502 22.7316 13.5282 22.1593 13.1153C21.5871 12.7024 21.1596 12.1196 20.9375 11.4499L20.625 10.4249C20.5839 10.2998 20.5044 10.1909 20.3978 10.1138C20.2911 10.0366 20.1629 9.99502 20.0312 9.99502C19.8996 9.99502 19.7714 10.0366 19.6647 10.1138C19.5581 10.1909 19.4786 10.2998 19.4375 10.4249L19.0938 11.4499C18.87 12.1247 18.4378 12.7111 17.8593 13.1245C17.2808 13.5379 16.586 13.7569 15.875 13.7499C15.3872 13.7501 14.9117 13.597 14.5157 13.3121C14.1198 13.0272 13.8235 12.625 13.6688 12.1624L13.125 10.4249C13.0815 10.2955 12.9969 10.1839 12.884 10.1072C12.7712 10.0304 12.6363 9.99275 12.5 9.99987C12.36 10.0108 12.2278 10.0685 12.1246 10.1637C12.0214 10.259 11.9533 10.3862 11.9312 10.5249L11.7438 11.6624C11.6213 12.377 11.3308 13.0522 10.8961 13.6325C10.4615 14.2128 9.8951 14.6814 9.24375 14.9999C8.86619 15.1889 8.53086 15.4526 8.25801 15.7748C7.98517 16.0971 7.78046 16.4713 7.65625 16.8749H6.875C6.0462 16.8749 5.25134 17.2041 4.66529 17.7902C4.07924 18.3762 3.75 19.1711 3.75 19.9999V21.2499C3.75123 22.301 4.13088 23.3166 4.81949 24.1108C5.5081 24.905 6.45963 25.4247 7.5 25.5749V26.2499C7.50272 28.0433 7.89287 29.815 8.64375 31.4436C7.42891 30.6318 6.34909 29.6342 5.44375 28.4874C5.34098 28.3572 5.19073 28.2733 5.02605 28.2539C4.86137 28.2346 4.69575 28.2815 4.56562 28.3842C4.4355 28.487 4.35154 28.6373 4.3322 28.8019C4.31286 28.9666 4.35973 29.1322 4.4625 29.2624C5.91325 31.1064 7.77539 32.5855 9.9 33.5811C11.0535 35.1815 12.5707 36.4849 14.3267 37.3838C16.0828 38.2827 18.0273 38.7515 20 38.7515C21.9727 38.7515 23.9172 38.2827 25.6733 37.3838C27.4293 36.4849 28.9465 35.1815 30.1 33.5811C32.6805 32.3695 34.8636 30.4497 36.395 28.0452C37.9264 25.6407 38.7431 22.8506 38.75 19.9999ZM35 19.9999V21.2499C35.0001 21.9703 34.7514 22.6686 34.2958 23.2267C33.8402 23.7848 33.2059 24.1683 32.5 24.3124V18.1249H33.125C33.6223 18.1249 34.0992 18.3224 34.4508 18.674C34.8025 19.0257 35 19.5026 35 19.9999Z" fill="#39519D"/>
    <path d="M2.5 19.9999C2.50119 16.5697 3.51043 13.2155 5.40227 10.3542C7.29412 7.49292 9.98514 5.25068 13.1409 3.90622C16.2966 2.56176 19.7779 2.17436 23.1519 2.79217C26.526 3.40999 29.6442 5.00577 32.1187 7.38117C32.2404 7.48156 32.3955 7.53224 32.553 7.52303C32.7105 7.51383 32.8586 7.44543 32.9678 7.33154C33.0769 7.21766 33.139 7.06672 33.1415 6.909C33.144 6.75128 33.0867 6.59845 32.9813 6.48117C30.3298 3.93722 26.9894 2.22839 23.3749 1.56699C19.7605 0.905601 16.0314 1.3208 12.6509 2.76101C9.27048 4.20121 6.3877 6.60294 4.36077 9.66777C2.33385 12.7326 1.25212 16.3255 1.25 19.9999C1.25036 22.4692 1.86233 24.8999 3.03125 27.0749C3.10944 27.2205 3.24211 27.3292 3.40023 27.3772C3.55835 27.4252 3.72905 27.4087 3.875 27.3312C3.9479 27.2925 4.01241 27.2397 4.06481 27.1759C4.1172 27.1121 4.15644 27.0386 4.18027 26.9596C4.20409 26.8805 4.21203 26.7976 4.20361 26.7155C4.1952 26.6334 4.17061 26.5537 4.13125 26.4812C3.06273 24.4878 2.50243 22.2616 2.5 19.9999Z" fill="#39519D"/>
    <path d="M13.9313 18.1249C13.9894 18.1835 14.0585 18.23 14.1346 18.2617C14.2108 18.2934 14.2925 18.3098 14.375 18.3098C14.4575 18.3098 14.5392 18.2934 14.6154 18.2617C14.6915 18.23 14.7607 18.1835 14.8188 18.1249C15.045 17.8986 15.3519 17.7715 15.6719 17.7715C15.9919 17.7715 16.2987 17.8986 16.525 18.1249C16.7513 18.3512 16.8784 18.658 16.8784 18.978C16.8784 19.298 16.7513 19.6049 16.525 19.8311L15.3875 20.9686C15.2673 21.083 15.1975 21.2405 15.1934 21.4063C15.1893 21.5722 15.2513 21.7328 15.3656 21.853C15.48 21.9732 15.6374 22.043 15.8033 22.0471C15.9691 22.0512 16.1298 21.9893 16.25 21.8749L17.3875 20.7436C17.8566 20.3299 18.1501 19.7529 18.2083 19.1302C18.2665 18.5074 18.085 17.886 17.7007 17.3925C17.3165 16.899 16.7584 16.5707 16.1405 16.4745C15.5225 16.3784 14.8911 16.5215 14.375 16.8749C13.8628 16.5567 13.2515 16.438 12.6575 16.5414C12.0635 16.6449 11.5283 16.9632 11.1538 17.4357C10.7793 17.9083 10.5917 18.5021 10.6267 19.104C10.6617 19.706 10.917 20.274 11.3438 20.6999L13.9313 23.2874C13.9894 23.346 14.0585 23.3925 14.1346 23.4242C14.2108 23.4559 14.2925 23.4723 14.375 23.4723C14.4575 23.4723 14.5392 23.4559 14.6154 23.4242C14.6915 23.3925 14.7607 23.346 14.8188 23.2874C14.8773 23.2293 14.9238 23.1602 14.9556 23.084C14.9873 23.0078 15.0036 22.9262 15.0036 22.8436C15.0036 22.7611 14.9873 22.6794 14.9556 22.6033C14.9238 22.5271 14.8773 22.458 14.8188 22.3999L12.225 19.8124C12.0946 19.7052 11.9881 19.5717 11.9126 19.4208C11.837 19.2698 11.7939 19.1046 11.7862 18.936C11.7784 18.7673 11.8062 18.5989 11.8676 18.4416C11.9291 18.2844 12.0229 18.1418 12.1429 18.023C12.263 17.9043 12.4066 17.8121 12.5645 17.7524C12.7225 17.6927 12.8912 17.6668 13.0597 17.6764C13.2283 17.686 13.393 17.7309 13.5431 17.8081C13.6932 17.8854 13.8255 17.9933 13.9313 18.1249Z" fill="#39519D"/>
    <defs>
        <linearGradient id="paint0_linear_3503_27123" x1="55.6027" y1="21.6697" x2="44.7151" y2="-7.38737" gradientUnits="userSpaceOnUse">
            <stop stop-color="#1CB6AC"/>
            <stop offset="0.448142" stop-color="#1CB6AC"/>
            <stop offset="0.453125" stop-color="#20C2A8"/>
            <stop offset="1" stop-color="#24D0A3"/>
        </linearGradient>
        <linearGradient id="paint1_linear_3503_27123" x1="14.9231" y1="25.0479" x2="-0.160139" y2="22.6568" gradientUnits="userSpaceOnUse">
            <stop stop-color="#1CB6AC"/>
            <stop offset="1" stop-color="#24D0A3"/>
        </linearGradient>
    </defs>
</svg>
