<svg width="32" height="32" viewBox="0 0 32 32" fill="none" xmlns="http://www.w3.org/2000/svg">
    <rect width="32" height="32" rx="16" fill="#253255" opacity="0.5"/>
    <path d="M20.6666 13.616V12.6667C20.6666 10.0893 18.5773 8 15.9999 8C13.4226 8 11.3333 10.0893 11.3333 12.6667V13.616C10.1199 14.1455 9.335 15.3428 9.33325 16.6667V20.6667C9.33544 22.5067 10.8265 23.9978 12.6666 24H19.3332C21.1733 23.9978 22.6644 22.5067 22.6666 20.6667V16.6667C22.6649 15.3428 21.8799 14.1455 20.6666 13.616ZM16.6666 19.3333C16.6666 19.7015 16.3681 20 15.9999 20C15.6317 20 15.3333 19.7015 15.3333 19.3333V18C15.3333 17.6318 15.6317 17.3333 15.9999 17.3333C16.3681 17.3333 16.6666 17.6318 16.6666 18V19.3333V19.3333ZM19.3333 13.3333H12.6666V12.6667C12.6666 10.8257 14.1589 9.33334 15.9999 9.33334C17.8409 9.33334 19.3333 10.8257 19.3333 12.6667V13.3333V13.3333Z" fill="white" opacity="0.8"/>
</svg>
