<svg width="200" height="160" viewBox="0 0 200 160" fill="none" xmlns="http://www.w3.org/2000/svg">
    <g filter="url(#filter0_d_2895_20479)">
        <path d="M67.8627 25.1299C58.4898 25.1403 49.5037 28.9149 42.8757 35.6255C36.2477 42.3361 32.5191 51.4347 32.5078 60.9254C32.5078 70.1433 39.5568 84.5691 53.4601 103.801C55.1152 106.097 57.2823 107.965 59.7851 109.253C62.2878 110.54 65.0554 111.211 67.8627 111.211C70.67 111.211 73.4377 110.54 75.9404 109.253C78.4431 107.965 80.6103 106.097 82.2654 103.801C96.1686 84.5691 103.218 70.1433 103.218 60.9254C103.206 51.4347 99.4778 42.3361 92.8498 35.6255C86.2218 28.9149 77.2357 25.1403 67.8627 25.1299ZM67.8627 75.1934C65.0604 75.1934 62.321 74.352 59.9909 72.7755C57.6609 71.199 55.8448 68.9584 54.7724 66.3368C53.7 63.7153 53.4194 60.8306 53.9661 58.0476C54.5128 55.2645 55.8623 52.7082 57.8438 50.7017C59.8254 48.6953 62.35 47.3288 65.0985 46.7753C67.847 46.2217 70.6959 46.5058 73.2849 47.5917C75.874 48.6776 78.0868 50.5164 79.6437 52.8758C81.2006 55.2351 82.0316 58.0089 82.0316 60.8465C82.0316 64.6515 80.5388 68.3007 77.8816 70.9913C75.2245 73.6819 71.6206 75.1934 67.8627 75.1934Z" fill="white"/>
        <path d="M67.8627 25.1299C58.4898 25.1403 49.5037 28.9149 42.8757 35.6255C36.2477 42.3361 32.5191 51.4347 32.5078 60.9254C32.5078 70.1433 39.5568 84.5691 53.4601 103.801C55.1152 106.097 57.2823 107.965 59.7851 109.253C62.2878 110.54 65.0554 111.211 67.8627 111.211C70.67 111.211 73.4377 110.54 75.9404 109.253C78.4431 107.965 80.6103 106.097 82.2654 103.801C96.1686 84.5691 103.218 70.1433 103.218 60.9254C103.206 51.4347 99.4778 42.3361 92.8498 35.6255C86.2218 28.9149 77.2357 25.1403 67.8627 25.1299ZM67.8627 75.1934C65.0604 75.1934 62.321 74.352 59.9909 72.7755C57.6609 71.199 55.8448 68.9584 54.7724 66.3368C53.7 63.7153 53.4194 60.8306 53.9661 58.0476C54.5128 55.2645 55.8623 52.7082 57.8438 50.7017C59.8254 48.6953 62.35 47.3288 65.0985 46.7753C67.847 46.2217 70.6959 46.5058 73.2849 47.5917C75.874 48.6776 78.0868 50.5164 79.6437 52.8758C81.2006 55.2351 82.0316 58.0089 82.0316 60.8465C82.0316 64.6515 80.5388 68.3007 77.8816 70.9913C75.2245 73.6819 71.6206 75.1934 67.8627 75.1934Z" stroke="#F9F9F9"/>
    </g>
    <g filter="url(#filter1_d_2895_20479)">
        <path d="M133.961 25.1299H166.916C167.067 25.1296 167.216 25.1704 167.346 25.248C167.477 25.3257 167.586 25.4376 167.662 25.5724C167.738 25.7073 167.778 25.8604 167.779 26.0164C167.779 26.1724 167.74 26.3258 167.665 26.4612L161.513 37.5891L167.665 48.7169C167.74 48.8523 167.779 49.0057 167.779 49.1617C167.778 49.3177 167.738 49.4708 167.662 49.6057C167.586 49.7405 167.477 49.8524 167.346 49.9301C167.216 50.0077 167.067 50.0485 166.916 50.0482H137.405V58.9476H133.961V25.1299Z" fill="url(#paint0_linear_2895_20479)"/>
    </g>
    <path fill-rule="evenodd" clip-rule="evenodd" d="M136.779 25.1299C138.477 25.1299 139.853 26.5063 139.853 28.2042V60.8048C139.853 62.5027 138.477 63.8791 136.779 63.8791C135.081 63.8791 133.704 62.5027 133.704 60.8048V28.2042C133.704 26.5063 135.081 25.1299 136.779 25.1299ZM136.779 67.5935C138.477 67.5935 139.853 68.9699 139.853 70.6678V75.5993C139.853 77.2972 138.477 78.6737 136.779 78.6737H130.827C129.129 78.6737 127.753 77.2972 127.753 75.5993C127.753 73.9014 129.129 72.525 130.827 72.525H133.704V70.6678C133.704 68.9699 135.081 67.5935 136.779 67.5935ZM109.897 75.5993C109.897 73.9014 111.274 72.525 112.972 72.525H118.923C120.621 72.525 121.998 73.9014 121.998 75.5993C121.998 77.2972 120.621 78.6737 118.923 78.6737H116.046V81.1201C116.046 82.818 114.669 84.1944 112.972 84.1944C111.274 84.1944 109.897 82.818 109.897 81.1201V75.5993ZM112.972 89.0872C114.669 89.0872 116.046 90.4636 116.046 92.1616V94.6079H117.901C119.599 94.6079 120.975 95.9844 120.975 97.6823C120.975 99.3802 119.599 100.757 117.901 100.757H112.972C111.274 100.757 109.897 99.3802 109.897 97.6823V92.1616C109.897 90.4636 111.274 89.0872 112.972 89.0872ZM124.686 97.6823C124.686 95.9844 126.062 94.6079 127.76 94.6079H137.619C139.317 94.6079 140.694 95.9844 140.694 97.6823C140.694 99.3802 139.317 100.757 137.619 100.757H127.76C126.062 100.757 124.686 99.3802 124.686 97.6823ZM144.404 97.6823C144.404 95.9844 145.78 94.6079 147.478 94.6079H152.408C154.106 94.6079 155.482 95.9844 155.482 97.6823V103.37C155.482 105.068 154.106 106.445 152.408 106.445C150.71 106.445 149.334 105.068 149.334 103.37V100.757H147.478C145.78 100.757 144.404 99.3802 144.404 97.6823ZM152.408 111.672C154.106 111.672 155.482 113.049 155.482 114.746V120.434C155.482 122.132 154.106 123.509 152.408 123.509H147.028C145.33 123.509 143.953 122.132 143.953 120.434C143.953 118.737 145.33 117.36 147.028 117.36H149.334V114.746C149.334 113.049 150.71 111.672 152.408 111.672ZM63.252 120.434C63.252 118.737 64.6284 117.36 66.3263 117.36H71.7064C73.4043 117.36 74.7807 118.737 74.7807 120.434C74.7807 122.132 73.4043 123.509 71.7064 123.509H66.3263C64.6284 123.509 63.252 122.132 63.252 120.434ZM79.3923 120.434C79.3923 118.737 80.7687 117.36 82.4666 117.36H93.2268C94.9247 117.36 96.3011 118.737 96.3011 120.434C96.3011 122.132 94.9247 123.509 93.2268 123.509H82.4666C80.7687 123.509 79.3923 122.132 79.3923 120.434ZM100.913 120.434C100.913 118.737 102.289 117.36 103.987 117.36H114.747C116.445 117.36 117.822 118.737 117.822 120.434C117.822 122.132 116.445 123.509 114.747 123.509H103.987C102.289 123.509 100.913 122.132 100.913 120.434ZM122.433 120.434C122.433 118.737 123.809 117.36 125.507 117.36H136.268C137.965 117.36 139.342 118.737 139.342 120.434C139.342 122.132 137.965 123.509 136.268 123.509H125.507C123.809 123.509 122.433 122.132 122.433 120.434Z" fill="white"/>
    <defs>
        <filter id="filter0_d_2895_20479" x="0.0078125" y="8.62988" width="135.709" height="151.082" filterUnits="userSpaceOnUse" color-interpolation-filters="sRGB">
            <feFlood flood-opacity="0" result="BackgroundImageFix"/>
            <feColorMatrix in="SourceAlpha" type="matrix" values="0 0 0 0 0 0 0 0 0 0 0 0 0 0 0 0 0 0 127 0" result="hardAlpha"/>
            <feOffset dy="16"/>
            <feGaussianBlur stdDeviation="16"/>
            <feColorMatrix type="matrix" values="0 0 0 0 0.210031 0 0 0 0 0.0633751 0 0 0 0 0.65 0 0 0 0.4 0"/>
            <feBlend mode="normal" in2="BackgroundImageFix" result="effect1_dropShadow_2895_20479"/>
            <feBlend mode="normal" in="SourceGraphic" in2="effect1_dropShadow_2895_20479" result="shape"/>
        </filter>
        <filter id="filter1_d_2895_20479" x="101.961" y="9.12988" width="97.8184" height="97.8179" filterUnits="userSpaceOnUse" color-interpolation-filters="sRGB">
            <feFlood flood-opacity="0" result="BackgroundImageFix"/>
            <feColorMatrix in="SourceAlpha" type="matrix" values="0 0 0 0 0 0 0 0 0 0 0 0 0 0 0 0 0 0 127 0" result="hardAlpha"/>
            <feOffset dy="16"/>
            <feGaussianBlur stdDeviation="16"/>
            <feColorMatrix type="matrix" values="0 0 0 0 0.210031 0 0 0 0 0.0633751 0 0 0 0 0.65 0 0 0 0.4 0"/>
            <feBlend mode="normal" in2="BackgroundImageFix" result="effect1_dropShadow_2895_20479"/>
            <feBlend mode="normal" in="SourceGraphic" in2="effect1_dropShadow_2895_20479" result="shape"/>
        </filter>
        <linearGradient id="paint0_linear_2895_20479" x1="133.961" y1="30.4139" x2="167.93" y2="31.887" gradientUnits="userSpaceOnUse">
            <stop stop-color="#FFCC00"/>
            <stop offset="1" stop-color="#FFB800"/>
        </linearGradient>
    </defs>
</svg>
