<svg width="64" height="64" viewBox="0 0 64 64" fill="none" xmlns="http://www.w3.org/2000/svg">
<path opacity="0.05" d="M26.0707 3.36978C29.7474 1.2802 34.2526 1.2802 37.9293 3.36978L53.6421 12.2998C57.3947 14.4325 59.7128 18.4163 59.7128 22.7326V40.2674C59.7128 44.5837 57.3947 48.5674 53.6421 50.7002L37.9293 59.6302C34.2526 61.7198 29.7474 61.7198 26.0707 59.6302L10.3579 50.7002C6.6053 48.5674 4.28719 44.5837 4.28719 40.2674V22.7326C4.28719 18.4163 6.6053 14.4326 10.3579 12.2998L26.0707 3.36978Z" fill="#F9F7FF"/>
<path d="M36.5 6.06218L52.2128 15.134C54.9974 16.7417 56.7128 19.7128 56.7128 22.9282V41.0718C56.7128 44.2872 54.9974 47.2583 52.2128 48.866L36.5 57.9378C33.7154 59.5455 30.2846 59.5455 27.5 57.9378L11.7872 48.866C9.00258 47.2583 7.28719 44.2872 7.28719 41.0718V22.9282C7.28719 19.7128 9.00258 16.7417 11.7872 15.134L27.5 6.06218C30.2846 4.45448 33.7154 4.45448 36.5 6.06218Z" fill="white" stroke="url(#paint0_linear_630_4934)" stroke-width="6"/>
<defs>
<linearGradient id="paint0_linear_630_4934" x1="-31.2118" y1="28.9707" x2="26.7295" y2="91.3943" gradientUnits="userSpaceOnUse">
<stop stop-color="#BFAAFF"/>
<stop offset="0.619792" stop-color="#FFBAAB"/>
<stop offset="1" stop-color="#8055FF"/>
</linearGradient>
</defs>
</svg>
